<svg width="193" height="42" viewBox="0 0 193 42" fill="none" xmlns="http://www.w3.org/2000/svg">
<path d="M115.557 33.3858C115.622 33.5102 115.71 33.6216 115.815 33.7144C115.943 33.6335 116.054 33.5295 116.143 33.4078C116.216 33.3054 116.257 33.1832 116.261 33.0571C116.272 32.931 116.238 32.8051 116.165 32.7015C116.131 32.6625 116.089 32.6316 116.042 32.6112C115.994 32.5908 115.943 32.5815 115.892 32.5838C115.839 32.5804 115.787 32.589 115.738 32.609C115.689 32.629 115.646 32.6598 115.611 32.6991C115.532 32.7959 115.491 32.9178 115.496 33.0424C115.49 33.16 115.511 33.2774 115.557 33.3858ZM116.125 36.699C116.292 36.5327 116.423 36.3341 116.509 36.1154L115.628 35.0829C115.456 35.2028 115.309 35.3553 115.196 35.5317C115.106 35.6958 115.057 35.8792 115.053 36.0663C115.035 36.2745 115.089 36.4825 115.208 36.6549C115.262 36.7267 115.333 36.7844 115.414 36.8233C115.496 36.8621 115.585 36.8809 115.675 36.8781C115.758 36.8792 115.841 36.864 115.918 36.8333C115.995 36.8026 116.066 36.7569 116.125 36.699ZM117.245 36.9173C117.065 37.2561 116.813 37.5515 116.507 37.783C116.26 37.9763 115.954 38.0801 115.641 38.0773C115.413 38.0734 115.19 38.0158 114.989 37.9092C114.788 37.8027 114.615 37.6502 114.485 37.4642C114.171 37.0703 114.012 36.576 114.037 36.0737C114.042 35.7321 114.126 35.3963 114.283 35.0927C114.455 34.7889 114.688 34.5235 114.967 34.3128C114.814 34.1378 114.692 33.9379 114.608 33.7217C114.498 33.4162 114.471 33.0873 114.529 32.768C114.587 32.4486 114.727 32.15 114.937 31.902C115.061 31.7533 115.217 31.6341 115.393 31.553C115.57 31.472 115.762 31.4312 115.956 31.4336C116.137 31.4383 116.314 31.4851 116.474 31.5703C116.634 31.6554 116.771 31.7766 116.876 31.9241C117.132 32.2431 117.264 32.6438 117.247 33.0522C117.24 33.3201 117.166 33.5821 117.033 33.8149C116.896 34.0583 116.709 34.2705 116.484 34.4379L116.942 34.997L117.451 33.6065L118.504 33.6187L117.709 35.826L118.902 37.1626L118.248 38.0136L117.245 36.9173Z" fill="white"/>
<path d="M62.6745 6.05781V4.57161H65.3556V6.05781H69.0453V8.08601H66.2461C67.4481 8.42282 68.2877 9.04166 68.7649 9.94254C69.2159 10.8248 69.3396 11.8377 69.1142 12.8021C68.864 13.7152 68.2874 14.5055 67.4932 15.0241C66.5355 15.6781 65.3515 16.0051 63.9413 16.0051C62.6971 16.0469 61.4727 15.6864 60.4509 14.9775C59.6735 14.4419 59.117 13.6439 58.884 12.731C58.6398 11.7956 58.7575 10.8028 59.2136 9.94989C59.6777 9.07191 60.4853 8.45306 61.6365 8.09337H58.8569V6.05781H62.6745ZM62.0645 10.0333C61.8584 10.2494 61.6977 10.5042 61.5917 10.783C61.4857 11.0618 61.4365 11.3589 61.4471 11.6568C61.429 12.2582 61.6511 12.8421 62.0645 13.2804C62.308 13.5221 62.5993 13.7106 62.9199 13.8339C63.2405 13.9572 63.5833 14.0125 63.9265 13.9965C64.2767 14.0134 64.6267 13.9605 64.9562 13.8409C65.2856 13.7213 65.5878 13.5374 65.8451 13.3C66.0627 13.1019 66.2355 12.8599 66.3521 12.5902C66.4687 12.3204 66.5265 12.029 66.5216 11.7353C66.5378 11.1189 66.3087 10.5212 65.8845 10.0725C65.6243 9.82241 65.3154 9.6281 64.977 9.50156C64.6385 9.37502 64.2777 9.31894 63.9167 9.33677C63.5765 9.31981 63.2365 9.3729 62.9178 9.49273C62.5992 9.61257 62.3087 9.79657 62.0645 10.0333ZM73.5368 4.68197V10.3349H75.3817V12.5422H73.5368V18.1608H70.8581V4.67216L73.5368 4.68197ZM63.0656 20.9934H73.6426V23.0903H60.3844V17.1087H63.0656V20.9934Z" fill="white"/>
<path d="M94.2358 13.8812H87.7789V16.4857H93.4364V23.2595H90.7798V18.5826H79.5879V16.4857H85.0928V13.8812H78.8081V11.7843H90.4625C90.574 11.2167 90.6561 10.6437 90.7085 10.0676C90.7593 9.52807 90.7856 8.9174 90.7872 8.23561V7.17614H79.583V5.07682H93.4413V7.06088C93.4413 7.83341 93.4142 8.6182 93.3651 9.4128C93.2888 10.3129 93.1904 11.105 93.0748 11.7843H94.2358V13.8812Z" fill="white"/>
<path d="M100.624 6.1412V4.59368H103.283V6.1412H106.092V8.19147H103.804C104.657 8.77025 105.29 9.81337 105.703 11.3208C106.1 12.7994 106.231 14.3362 106.092 15.8604C105.949 17.5755 105.561 18.9799 104.928 20.0737C104.205 21.3098 103.268 21.9286 102.117 21.9302C100.966 21.9319 100.048 21.313 99.3644 20.0737C98.7298 18.9783 98.3486 17.5738 98.2206 15.8604C98.0686 14.3385 98.1869 12.8018 98.5699 11.3208C98.9832 9.82482 99.6219 8.7817 100.486 8.19147H98.1247V6.1412H100.624ZM101.116 10.9677C100.898 12.1393 100.801 13.33 100.826 14.5213C100.808 15.7197 100.905 16.9171 101.116 18.097C101.362 19.2415 101.698 19.8138 102.124 19.8138C102.577 19.8138 102.926 19.2415 103.172 18.097C103.411 16.9205 103.521 15.7215 103.499 14.5213C103.527 13.3282 103.417 12.1359 103.172 10.9677C102.938 9.94744 102.592 9.43978 102.124 9.43978C101.657 9.43978 101.349 9.94744 101.116 10.9677ZM106.98 4.69669H109.639V12.2699H111.051V4.69669H113.683V23.2766H111.051V14.4477H109.639V23.2766H106.98V4.69669Z" fill="white"/>
<path d="M126.085 6.10931C126.905 7.02654 127.315 8.19882 127.315 9.62617C127.315 11.0535 126.905 12.2192 126.085 13.1234C125.181 14.1404 123.909 14.6497 122.267 14.6513C120.626 14.6529 119.361 14.1436 118.472 13.1234C117.652 12.2111 117.242 11.0453 117.242 9.62617C117.242 8.207 117.652 7.03471 118.472 6.10931C119.362 5.10707 120.628 4.60513 122.267 4.60349C123.907 4.60186 125.18 5.1038 126.085 6.10931ZM120.467 7.51949C120.118 8.03451 119.943 8.74573 119.943 9.62617C119.943 10.5066 120.118 11.2007 120.467 11.7132C120.678 11.9898 120.951 12.2139 121.263 12.3682C121.576 12.5225 121.92 12.6028 122.269 12.6028C122.617 12.6028 122.961 12.5225 123.274 12.3682C123.586 12.2139 123.859 11.9898 124.07 11.7132C124.433 11.1998 124.614 10.5042 124.614 9.62617C124.614 8.73837 124.432 8.03451 124.07 7.51949C123.855 7.24883 123.581 7.03019 123.269 6.8799C122.957 6.7296 122.615 6.65154 122.269 6.65154C121.922 6.65154 121.58 6.7296 121.268 6.8799C120.956 7.03019 120.682 7.24883 120.467 7.51949ZM131.706 4.69914V6.74451H133.531V8.79723H131.706V11.132H133.531V13.197H131.706V15.159H129.024V4.68933L131.706 4.69914ZM121.957 18.487C121.302 18.8352 120.974 19.2726 120.974 19.799C120.974 20.3018 121.303 20.7285 121.957 21.0743C122.695 21.4749 123.723 21.6752 125.04 21.6752C126.397 21.6752 127.463 21.4749 128.237 21.0743C128.919 20.7285 129.263 20.3018 129.263 19.799C129.263 19.2963 128.919 18.8352 128.237 18.487C127.462 18.0831 126.4 17.8812 125.052 17.8812C123.74 17.8812 122.713 18.0807 121.97 18.4796M130.306 17.0302C131.428 17.7774 131.988 18.6979 131.988 19.7917C131.988 20.8855 131.428 21.7945 130.306 22.5188C129.037 23.3527 127.324 23.7712 125.167 23.7745C122.97 23.7745 121.248 23.3559 120.002 22.5188C118.89 21.7831 118.334 20.874 118.334 19.7917C118.334 18.7093 118.89 17.7888 120.002 17.0302C121.256 16.1931 122.978 15.7745 125.167 15.7745C127.327 15.7745 129.04 16.1931 130.306 17.0302Z" fill="white"/>
<path d="M143.05 7.15652H139.948V19.0731H144.688V4.68688H147.372V12.0688H149.357V4.68688H152.038V23.2693H149.357V14.1878H147.372V23.2889H144.688V21.1234H137.292V5.08418H143.05V7.15652Z" fill="white"/>
<path d="M160.418 5.79049V4.59368H163.102V5.79049H166.792V7.77455H164.032C165.181 8.09582 166 8.65008 166.452 9.43487C166.893 10.1608 167.003 11.0143 166.782 11.9953C166.523 12.8795 165.953 13.6408 165.176 14.1387C164.146 14.8116 162.933 15.1524 161.702 15.1148C160.318 15.1148 159.154 14.7878 158.21 14.1338C157.449 13.6288 156.893 12.871 156.64 11.9953C156.407 11.0143 156.504 10.1608 156.93 9.43487C157.395 8.65008 158.202 8.09664 159.353 7.77455H156.621V5.79049H160.418ZM159.833 9.63107C159.642 9.80669 159.49 10.0209 159.389 10.2593C159.287 10.4978 159.237 10.7552 159.243 11.0143C159.242 11.2779 159.295 11.5388 159.399 11.7815C159.502 12.0242 159.653 12.2437 159.843 12.4269C160.089 12.6635 160.381 12.8477 160.7 12.9683C161.02 13.0889 161.361 13.1433 161.702 13.1283C162.046 13.1433 162.39 13.0896 162.712 12.9704C163.035 12.8512 163.331 12.6689 163.582 12.4342C163.781 12.256 163.941 12.0383 164.051 11.7951C164.161 11.5519 164.219 11.2885 164.221 11.0216C164.225 10.757 164.169 10.4949 164.059 10.2544C163.948 10.0138 163.785 9.8009 163.582 9.63107C163.046 9.21763 162.388 8.99328 161.711 8.99328C161.034 8.99328 160.376 9.21763 159.84 9.63107M171.315 4.67707V9.06455H173.138V11.1835H171.315V15.2227H168.624V4.67707H171.315ZM171.315 16.4612V23.2546H168.624V18.5605H157.85V16.4612H171.315Z" fill="white"/>
<path d="M191.22 5.07682V12.1498C191.225 13.4927 191.143 14.8346 190.974 16.1669C190.816 17.4528 190.549 18.723 190.174 19.9634H187.579C187.904 18.9055 188.146 17.8239 188.302 16.7285C188.472 15.5319 188.555 14.3246 188.548 13.116V7.35763H177.351V5.07682H191.22ZM192.017 21.9548H176.569V19.9045H178.537V11.517H181.221V19.9045H183.299V11.517H185.98V19.9045H192.026L192.017 21.9548Z" fill="white"/>
<path d="M53.5586 7.72304C53.6127 7.42875 53.6545 7.08295 53.6889 6.69546C53.7234 6.30796 53.7332 5.95971 53.7332 5.5992V4.61821H46.8459V5.72918H52.2869V6.15591C52.2869 6.46819 52.2746 6.74778 52.25 6.99466C52.2262 7.24184 52.1884 7.48748 52.1368 7.7304H46.4621V8.83156H49.5221V9.91065H46.8483V11.0143H52.2967V13.1798H53.7332V9.90329H50.9586V8.82421H54.1194V7.72304H53.5586Z" fill="white"/>
<path d="M48.5923 21.5599H52.3779V22.0847H48.5923V21.5599ZM52.3779 20.471H48.5923V19.8628H47.1558V23.1859H53.7972V19.8628H52.3705L52.3779 20.471Z" fill="white"/>
<path d="M46.7155 16.368V19.3453H52.3656V19.544H53.7947V14.5213H52.3656V18.2687H48.152V17.4324H51.2267V14.6856H46.7155V15.7623H49.8V16.368H46.7155Z" fill="white"/>
<path d="M50.8627 31.5072L48.8088 34.222L51.2119 37.8272H49.7656L48.0708 35.1098L47.6723 35.8063V37.8272H46.4597V31.5072H47.6723V33.94L49.3794 31.5072H50.8627Z" fill="white"/>
<path d="M55.0049 33.1258C55.0088 33.0114 54.9889 32.8975 54.9466 32.7912C54.9043 32.6849 54.8404 32.5884 54.7589 32.5078C54.5271 32.3181 54.2358 32.2156 53.9359 32.2183C53.636 32.221 53.3466 32.3286 53.1183 32.5225C53.0391 32.6017 52.9766 32.6958 52.9344 32.7994C52.8921 32.903 52.871 33.014 52.8723 33.1258V36.0835C52.8661 36.3308 52.9461 36.5726 53.0986 36.7677C53.1998 36.8911 53.3293 36.9885 53.4761 37.0517C53.6229 37.1149 53.7828 37.142 53.9423 37.1307C54.1043 37.1457 54.2676 37.1204 54.4174 37.057C54.5672 36.9937 54.6989 36.8943 54.8008 36.7677C54.9424 36.5583 55.0124 36.3088 55 36.0565L55.0049 33.1258ZM56.2348 35.7941C56.2619 36.2907 56.1403 36.7841 55.8855 37.2116C55.5289 37.7021 54.8819 37.9474 53.9497 37.9474C53.0174 37.9474 52.3533 37.7021 52.0015 37.2116C51.7437 36.7856 51.6243 36.2904 51.6596 35.7941V33.4593C51.6231 32.9837 51.7413 32.509 51.9966 32.1056C52.3484 31.6151 52.9953 31.3698 53.9448 31.3698C54.8942 31.3698 55.5166 31.6151 55.8806 32.1056C56.1374 32.5097 56.2596 32.9843 56.2299 33.4618L56.2348 35.7941Z" fill="white"/>
<path d="M58.2494 34.0847H59.3636C59.5286 34.0789 59.693 34.0617 59.8556 34.0332C59.8984 34.025 59.9391 34.0084 59.9754 33.9844C60.0117 33.9604 60.0429 33.9295 60.0671 33.8934C60.1006 33.8076 60.1149 33.7155 60.1089 33.6236V32.7824C60.1164 32.6848 60.0986 32.5868 60.0573 32.498C60.0016 32.4246 59.9197 32.3754 59.8285 32.3606C59.6471 32.3249 59.4624 32.3084 59.2775 32.3116C59.1029 32.3116 58.7585 32.3116 58.242 32.3116L58.2494 34.0847ZM57.0195 31.5072H58.9012C59.5136 31.4789 60.1268 31.5451 60.719 31.7034C60.9031 31.7456 61.0674 31.8489 61.1849 31.9964C61.3024 32.1439 61.3662 32.3268 61.3659 32.5151V33.3735C61.3889 33.6397 61.3279 33.9064 61.1913 34.1362C61.0387 34.33 60.7337 34.4599 60.2787 34.5286C60.4983 34.5963 60.7083 34.6919 60.9035 34.8131C61.0371 34.8967 61.1479 35.0122 61.2257 35.1491C61.2925 35.2692 61.3328 35.4021 61.3438 35.539C61.3582 35.7021 61.364 35.8658 61.361 36.0295V37.8149H60.1163V35.5709C60.1217 35.4562 60.1101 35.3414 60.0819 35.23C60.0653 35.1808 60.0388 35.1354 60.0042 35.0966C59.9695 35.0579 59.9273 35.0265 59.8802 35.0044C59.703 34.9396 59.5175 34.9 59.3292 34.8867C59.0832 34.8646 58.7069 34.8523 58.2395 34.8523V37.8149H57.0096L57.0195 31.5072Z" fill="white"/>
<path d="M62.1874 31.5072H65.545V32.3336H63.4149V34.1656H65.4147V34.9578H63.4149V36.986H65.6139V37.8272H62.1874V31.5072Z" fill="white"/>
<path d="M67.8769 35.3428H69.1215L68.5066 32.6451L67.8769 35.3428ZM69.4192 31.5072L70.9615 37.8272H69.7316L69.338 36.2061H67.6654L67.2792 37.8272H66.0345L67.5768 31.5072H69.4192Z" fill="white"/>
<path d="M80.7169 31.5072V37.8272H79.4919V32.5298L78.2793 37.8272H77.0715L75.8367 32.5298V37.8272H74.6068V31.5072H76.8009L77.133 33.1111L77.6668 36.287L78.5621 31.5072H80.7169Z" fill="white"/>
<path d="M83.1988 35.3428H84.4435L83.831 32.6451L83.1988 35.3428ZM84.7411 31.5072L86.2858 37.8272H85.0559L84.6624 36.2061H82.9897L82.6036 37.8272H81.3589L82.9012 31.5072H84.7411Z" fill="white"/>
<path d="M88.1553 34.0847H88.3594C88.8169 34.0847 89.117 34.0847 89.272 34.0847C89.437 34.0786 89.6013 34.0614 89.764 34.0332C89.8064 34.025 89.8467 34.0083 89.8826 33.9843C89.9185 33.9603 89.9493 33.9294 89.973 33.8934C90.0088 33.8082 90.024 33.7158 90.0173 33.6236V32.7824C90.0247 32.6848 90.0069 32.5868 89.9657 32.498C89.9099 32.4246 89.828 32.3754 89.7369 32.3606C89.5546 32.3251 89.3691 32.3086 89.1834 32.3116C89.0113 32.3116 88.6644 32.3116 88.1479 32.3116L88.1553 34.0847ZM86.9254 31.5072H88.812C89.4228 31.4791 90.0343 31.5452 90.6249 31.7034C90.809 31.7456 90.9733 31.8489 91.0908 31.9964C91.2083 32.1439 91.2721 32.3268 91.2718 32.5151V33.3735C91.2962 33.6398 91.235 33.9069 91.0971 34.1362C90.9471 34.33 90.6421 34.4599 90.187 34.5286C90.4054 34.5957 90.6138 34.6913 90.8069 34.8131C90.9425 34.8959 91.055 35.0115 91.134 35.1491C91.2039 35.2707 91.2451 35.4066 91.2546 35.5464C91.2703 35.7094 91.2761 35.8732 91.2718 36.0369V37.8223H90.0271V35.5783C90.0329 35.4637 90.0222 35.3489 89.9952 35.2374C89.9786 35.1881 89.9521 35.1428 89.9174 35.104C89.8828 35.0652 89.8406 35.0338 89.7935 35.0117C89.6146 34.9468 89.4275 34.9072 89.2376 34.894C88.9916 34.872 88.6202 34.8597 88.1503 34.8597V37.8223H86.9205L86.9254 31.5072Z" fill="white"/>
<path d="M93.4364 31.5047H92.1844V37.8272H93.4364V31.5047Z" fill="white"/>
<path d="M98.3117 31.5072V32.3263H96.639V37.8272H95.3845V32.3263H93.9898V31.5072H98.3117Z" fill="white"/>
<path d="M100.174 31.5047H98.9192V37.8272H100.174V31.5047Z" fill="white"/>
<path d="M107.263 31.5072V37.8272H106.035V32.5298L104.825 37.8272H103.617L102.38 32.5298V37.8272H101.153V31.5072H103.347L103.679 33.1111L104.21 36.287L105.106 31.5072H107.263Z" fill="white"/>
<path d="M108.166 31.5072H111.523V32.3336H109.393V34.1656H111.393V34.9578H109.393V36.986H111.594V37.8272H108.166V31.5072Z" fill="white"/>
<path d="M124.594 33.1258C124.597 33.0116 124.577 32.8979 124.535 32.7917C124.493 32.6855 124.429 32.5889 124.348 32.5078C124.125 32.3183 123.841 32.2154 123.549 32.2181C123.256 32.2208 122.974 32.3289 122.754 32.5225C122.602 32.6859 122.519 32.9023 122.523 33.1258V36.0835C122.517 36.3296 122.594 36.5707 122.742 36.7677C122.839 36.8902 122.965 36.9872 123.108 37.0505C123.251 37.1137 123.407 37.1412 123.564 37.1307C123.722 37.1453 123.882 37.1197 124.029 37.0562C124.175 36.9928 124.303 36.8935 124.4 36.7677C124.54 36.5577 124.608 36.3083 124.594 36.0565V33.1258ZM125.79 35.7843C125.816 36.2799 125.698 36.7725 125.448 37.2018C125.103 37.6923 124.476 37.9375 123.566 37.9375C122.641 37.9375 122.014 37.6923 121.672 37.2018C121.421 36.7732 121.306 36.2793 121.34 35.7843V33.4495C121.305 32.9739 121.422 32.4995 121.672 32.0933C122.014 31.6028 122.641 31.3576 123.566 31.3576C124.491 31.3576 125.096 31.6028 125.448 32.0933C125.7 32.4993 125.819 32.9731 125.79 33.4495V35.7843Z" fill="white"/>
<path d="M131.091 33.788H129.898V32.9737C129.901 32.8724 129.881 32.7717 129.838 32.6797C129.795 32.5877 129.731 32.5069 129.652 32.444C129.415 32.2738 129.126 32.1914 128.835 32.211C128.544 32.1927 128.257 32.2857 128.033 32.471C127.934 32.5685 127.857 32.6858 127.807 32.8152C127.757 32.9445 127.735 33.083 127.743 33.2214V36.1497C127.737 36.2857 127.76 36.4213 127.81 36.548C127.86 36.6747 127.936 36.7896 128.033 36.8854C128.141 36.9833 128.268 37.0588 128.405 37.1076C128.543 37.1564 128.689 37.1776 128.835 37.1699C128.977 37.1778 129.12 37.1577 129.255 37.1105C129.389 37.0634 129.513 36.9902 129.62 36.8952C129.717 36.7873 129.792 36.6609 129.841 36.5237C129.889 36.3864 129.909 36.2409 129.9 36.0957V35.5121H131.093V35.7573C131.093 36.444 130.95 36.9615 130.66 37.3073C130.303 37.7365 129.706 37.9523 128.852 37.9523C127.958 37.9523 127.335 37.7389 126.983 37.3122C126.696 36.959 126.552 36.3802 126.552 35.5758V33.7291C126.552 32.9737 126.696 32.4121 126.983 32.0443C127.335 31.5946 127.938 31.3698 128.791 31.3698C129.625 31.3698 130.235 31.5538 130.613 31.9216C130.777 32.0876 130.904 32.2859 130.987 32.5039C131.069 32.7219 131.104 32.9546 131.091 33.1871V33.788Z" fill="white"/>
<path d="M131.942 31.5072H135.208V32.3336H133.137V34.1656H135.08V34.9578H133.137V36.986H135.277V37.8272H131.942V31.5072Z" fill="white"/>
<path d="M137.479 35.3428H138.689L138.091 32.6451L137.479 35.3428ZM138.977 31.5072L140.477 37.8272H139.277L138.893 36.2061H137.272L136.896 37.8272H135.688L137.186 31.5072H138.977Z" fill="white"/>
<path d="M145.352 31.5072V37.8272H143.65L142.226 33.0252V37.8272H141.033V31.5072H142.644L144.142 36.3189V31.5072H145.352Z" fill="white"/>
<path d="M153.585 31.4998V35.7843C153.591 36.064 153.574 36.3437 153.534 36.6206C153.5 36.8702 153.41 37.1087 153.268 37.3171C153.099 37.5323 152.871 37.6935 152.611 37.7806C151.801 38.016 150.941 38.016 150.132 37.7806C149.866 37.6956 149.632 37.5343 149.458 37.3171C149.31 37.1109 149.217 36.8717 149.185 36.6206C149.147 36.3435 149.129 36.0639 149.133 35.7843V31.4998H150.363V36.2086C150.337 36.4392 150.388 36.6719 150.508 36.8707C150.643 37.0203 150.938 37.0939 151.386 37.0939C151.834 37.0939 152.099 37.0203 152.23 36.8707C152.349 36.6714 152.399 36.4389 152.372 36.2086V31.4998H153.585Z" fill="white"/>
<path d="M158.805 31.5072V37.8272H157.1L155.678 33.0252V37.8272H154.485V31.5072H156.097L157.595 36.3189V31.5072H158.805Z" fill="white"/>
<path d="M160.886 31.5047H159.666V37.8272H160.886V31.5047Z" fill="white"/>
<path d="M166.607 31.5072L165.08 37.8272H163.07L161.594 31.5072H162.804L164.086 36.9026L164.179 36.4955C164.361 35.7548 164.494 35.203 164.578 34.8401C164.733 34.2098 164.868 33.631 164.989 33.1013L165.365 31.4973L166.607 31.5072Z" fill="white"/>
<path d="M167.212 31.5072H170.476V32.3336H168.405V34.1656H170.351V34.9578H168.405V36.986H170.545V37.8272H167.212V31.5072Z" fill="white"/>
<path d="M172.474 34.0847H173.554C173.719 34.0792 173.883 34.062 174.046 34.0332C174.087 34.0253 174.127 34.0088 174.162 33.9847C174.198 33.9606 174.227 33.9296 174.25 33.8934C174.284 33.8079 174.299 33.7156 174.292 33.6236V32.7824C174.298 32.6851 174.281 32.5875 174.242 32.498C174.189 32.4252 174.11 32.3759 174.021 32.3606C173.844 32.325 173.663 32.3086 173.482 32.3116C173.318 32.3116 172.984 32.3116 172.479 32.3116L172.474 34.0847ZM171.278 31.5072H173.111C173.705 31.4787 174.301 31.545 174.874 31.7034C175.057 31.7472 175.218 31.8515 175.333 31.9989C175.448 32.1464 175.509 32.3284 175.507 32.5151V33.3735C175.53 33.6391 175.47 33.9053 175.337 34.1362C175.189 34.33 174.894 34.4599 174.449 34.5286C174.663 34.5959 174.866 34.6916 175.054 34.8131C175.186 34.8968 175.296 35.0123 175.371 35.1491C175.438 35.2721 175.479 35.4072 175.492 35.5464C175.492 35.6445 175.507 35.8063 175.507 36.0369V37.8223H174.296V35.5783C174.302 35.4636 174.29 35.3487 174.262 35.2374C174.247 35.1882 174.223 35.1427 174.189 35.1038C174.156 35.0649 174.114 35.0335 174.068 35.0117C173.895 34.947 173.713 34.9074 173.529 34.894C173.283 34.872 172.926 34.8597 172.474 34.8597V37.8223H171.278V31.5072Z" fill="white"/>
<path d="M180.468 33.4176H179.25V32.8413C179.272 32.6566 179.219 32.4709 179.105 32.3238C178.89 32.1755 178.627 32.111 178.367 32.1423C178.087 32.1104 177.805 32.1809 177.573 32.341C177.46 32.4982 177.41 32.691 177.43 32.883C177.427 32.9806 177.433 33.0783 177.447 33.1748C177.471 33.2581 177.514 33.3346 177.573 33.398C177.672 33.4895 177.784 33.5663 177.905 33.6261C178.033 33.6972 178.237 33.8027 178.522 33.94L178.904 34.119C179.302 34.3128 179.578 34.455 179.73 34.5409C179.924 34.6456 180.103 34.7778 180.259 34.9333C180.392 35.0788 180.489 35.2535 180.542 35.4434C180.604 35.6918 180.633 35.9476 180.625 36.2036C180.625 36.807 180.458 37.241 180.114 37.5133C179.769 37.7855 179.172 37.9498 178.358 37.9498C177.543 37.9498 176.997 37.8174 176.67 37.5574C176.53 37.4342 176.421 37.28 176.351 37.1071C176.281 36.9342 176.253 36.7474 176.269 36.5617V35.7107H177.479V36.3949C177.458 36.5908 177.511 36.7874 177.627 36.9467C177.755 37.0865 178.011 37.1577 178.392 37.1577C178.687 37.1895 178.984 37.106 179.218 36.9247C179.286 36.8502 179.337 36.7629 179.369 36.668C179.401 36.5731 179.414 36.4727 179.405 36.3729C179.417 36.1032 179.324 35.8396 179.145 35.6371C178.754 35.2965 178.313 35.017 177.839 34.8082C177.397 34.6105 176.983 34.3557 176.609 34.0504C176.476 33.9047 176.374 33.7339 176.308 33.5481C176.243 33.3624 176.215 33.1654 176.227 32.9688C176.211 32.7427 176.248 32.516 176.337 32.3073C176.426 32.0987 176.564 31.9144 176.739 31.7696C177.088 31.5047 177.62 31.3698 178.323 31.3698C178.884 31.341 179.445 31.4305 179.969 31.6322C180.109 31.6815 180.231 31.7718 180.318 31.8912C180.406 32.0107 180.456 32.1538 180.461 32.3018L180.468 33.4176Z" fill="white"/>
<path d="M182.704 31.5047H181.481V37.8272H182.704V31.5047Z" fill="white"/>
<path d="M187.441 31.5072V32.3263H185.813V37.8272H184.596V32.3263H183.24V31.5072H187.441Z" fill="white"/>
<path d="M192.167 31.5072L190.462 35.5832V37.8272H189.276V35.5832L187.631 31.5072H188.861C188.981 31.8481 189.107 32.2429 189.269 32.7064C189.353 32.9713 189.473 33.3343 189.626 33.7953L189.872 34.5311L190.937 31.5023L192.167 31.5072Z" fill="white"/>
<path d="M49.254 25.7659V29.7046H48.2774L47.4633 27.4802V29.7046H46.5384V25.7659H47.4682L48.3291 28.0663V25.7659H49.254Z" fill="white"/>
<path d="M51.485 28.2969C51.4702 28.1473 51.4506 27.9633 51.421 27.7451C51.3989 27.6102 51.3645 27.3796 51.3177 27.0486L51.2292 26.4305C51.1382 26.8965 51.0693 27.284 51.0226 27.5905C50.9758 27.8971 50.9438 28.1105 50.9266 28.2969H51.485ZM51.9966 25.761L52.7346 29.7046H51.6744L51.5735 28.9688H50.8651L50.7372 29.7046H49.6967L50.356 25.761H51.9966Z" fill="white"/>
<path d="M55.4723 25.761V26.5188H54.7835V29.7046H53.6594V26.5188H52.9732V25.761H55.4723Z" fill="white"/>
<path d="M57.0269 25.7635H55.915V29.707H57.0269V25.7635Z" fill="white"/>
<path d="M59.339 26.7665C59.3494 26.6414 59.3309 26.5155 59.2849 26.3986C59.2569 26.3666 59.2213 26.342 59.1814 26.327C59.1415 26.3121 59.0984 26.3072 59.0562 26.3128C59.004 26.3061 58.951 26.3148 58.9037 26.3379C58.8565 26.3611 58.8171 26.3975 58.7905 26.4428C58.7578 26.5474 58.7445 26.6571 58.7512 26.7665V28.6181C58.7447 28.7424 58.7597 28.8668 58.7954 28.986C58.8131 29.0394 58.8487 29.0851 58.8962 29.1155C58.9436 29.1458 59.0001 29.159 59.0562 29.1528C59.1074 29.157 59.1588 29.1451 59.2029 29.1187C59.247 29.0923 59.2817 29.0527 59.3021 29.0056C59.3293 28.8983 59.3393 28.7874 59.3317 28.677V26.7665H59.339ZM60.4558 28.0663C60.4603 28.2886 60.4463 28.5109 60.414 28.731C60.394 28.9218 60.3363 29.1069 60.2442 29.2754C60.1442 29.4389 59.9967 29.568 59.8212 29.6457C59.5795 29.7476 59.3183 29.7953 59.0562 29.7855C58.7876 29.7956 58.52 29.7479 58.2715 29.6457C58.0943 29.5719 57.9458 29.4429 57.8484 29.2779C57.754 29.1087 57.693 28.923 57.6689 28.731C57.6465 28.5101 57.6366 28.2882 57.6393 28.0663V27.3894C57.6365 27.1675 57.6463 26.9456 57.6689 26.7248C57.6927 26.5342 57.7537 26.3501 57.8484 26.1828C57.9479 26.0196 58.0957 25.8911 58.2715 25.815C58.5218 25.7201 58.7885 25.6759 59.0562 25.685C59.3174 25.6761 59.5776 25.7203 59.8212 25.815C59.996 25.8925 60.1434 26.0207 60.2442 26.1828C60.3366 26.3503 60.3944 26.5347 60.414 26.7248C60.4464 26.9448 60.4604 27.1671 60.4558 27.3894V28.0663Z" fill="white"/>
<path d="M63.742 25.7659V29.7046H62.7655L61.9513 27.4802V29.7046H61.0264V25.7659H61.9562L62.8172 28.0663V25.7659H63.742Z" fill="white"/>
<path d="M65.9731 28.2969C65.9583 28.1473 65.9386 27.9633 65.9091 27.7451C65.887 27.6102 65.8525 27.3796 65.8058 27.0486L65.7172 26.4305C65.6262 26.8965 65.5574 27.284 65.5106 27.5905C65.4639 27.8971 65.4319 28.1105 65.4147 28.2969H65.9731ZM66.4798 25.761L67.2177 29.7046H66.1575L66.0542 28.9688H65.3483L65.2204 29.7046H64.1799L64.8391 25.761H66.4798Z" fill="white"/>
<path d="M68.7969 25.7659V28.9468H69.6676V29.7046H67.685V25.7659H68.7969Z" fill="white"/>
<path d="M20.6321 11.5587L20.5927 12.4858C20.5927 12.4858 20.7255 12.6378 20.4378 12.6378H16.0323C15.7908 12.644 15.5575 12.727 15.3668 12.8749C15.176 13.0227 15.0377 13.2275 14.9721 13.4594C14.7409 14.281 12.7214 23.1418 12.7214 23.1418C12.7214 23.1418 13.6242 23.9143 15.2034 23.6666C15.2034 23.6666 15.2403 23.6862 15.2796 23.4557C15.319 23.2251 16.1455 18.0333 16.3004 17.1921C16.4554 16.3509 16.7038 14.7862 16.7629 14.5949C16.8588 14.4796 16.8588 14.4992 16.9744 14.4992L18.5536 14.5189C18.5536 14.5189 18.6101 14.4796 18.6101 14.6145C18.6101 14.7494 17.8058 22.2957 17.8058 22.2957C17.8058 22.2957 17.7689 22.4502 17.8648 22.4109C17.9608 22.3717 19.3407 21.761 20.2705 21.761C20.2705 21.761 20.3467 21.7439 20.3664 21.5722C20.3861 21.4005 20.6124 14.639 20.6124 14.639C20.6124 14.639 20.5927 14.5238 20.7452 14.5238H22.2678C22.2678 14.5238 22.4203 14.5041 22.4203 14.6954C22.4203 14.8867 22.6343 21.685 22.6343 21.685C22.6343 21.685 22.6343 21.7438 22.7475 21.761C22.8606 21.7782 24.6144 22.124 25.0006 22.4305L25.1335 22.4673L24.4792 14.5385L26.137 14.5189C26.137 14.5189 26.233 14.46 26.2699 14.6341C26.3068 14.8082 27.6178 23.6102 27.6178 23.6102C27.6178 23.6102 27.5981 23.7034 27.7507 23.7622C27.9032 23.8211 29.4085 23.8947 30.0997 23.2717L30.1194 23.1393L28.0409 13.5747C28.0409 13.5747 28.0212 12.6599 26.6364 12.6403C25.2515 12.6206 22.44 12.6403 22.44 12.6403L22.3638 10.8254C22.3286 10.7915 22.2823 10.7714 22.2334 10.769L20.7575 10.7519C20.7575 10.7519 20.6813 10.7322 20.6813 10.845C20.6813 10.9579 20.6444 11.5808 20.6444 11.5808" fill="white"/>
<path d="M0.853052 20.6255L3.05455 21.4397L0.840753 21.403L0.833374 21.8297L6.25963 21.9155L6.26455 21.4912L4.43202 21.4618L3.88841 21.2509L6.27931 20.6672L6.28669 20.113L3.07669 20.9419L0.860432 20.0762L0.853052 20.6255Z" fill="white"/>
<path d="M1.30073 18.9235C1.01294 18.7126 0.885029 18.4968 0.919466 18.2736C0.953903 18.0504 1.13347 17.8812 1.46799 17.7586C1.98455 17.5722 2.78889 17.5558 3.88103 17.7095C4.96333 17.864 5.7234 18.1044 6.16862 18.4281C6.45887 18.6415 6.58924 18.8573 6.55726 19.078C6.52529 19.2987 6.33834 19.4704 5.99889 19.5979C5.48234 19.7843 4.68292 19.799 3.60062 19.647C2.51832 19.4949 1.74349 19.2472 1.30073 18.9235ZM5.16749 19.2448C5.42823 19.1835 5.56843 19.0829 5.59057 18.9382C5.61271 18.7935 5.50448 18.6611 5.27326 18.5311C4.81594 18.3131 4.32401 18.1761 3.81954 18.1264C3.32088 18.0344 2.81013 18.0277 2.30924 18.1068C2.0485 18.1681 1.90829 18.2687 1.88616 18.4109C1.86402 18.5532 1.97225 18.6905 2.20593 18.8205C2.6709 19.0381 3.1703 19.1734 3.68179 19.2202C4.1785 19.3141 4.68765 19.3223 5.18717 19.2448" fill="white"/>
<path d="M1.37698 16.5176L1.6574 15.517C1.72135 15.2914 1.95749 15.1835 2.36335 15.1835C2.68404 15.1855 3.00285 15.2325 3.31036 15.3233C3.5669 15.3916 3.81456 15.4895 4.0483 15.6151C4.21602 15.6928 4.35839 15.816 4.45908 15.9707C4.5893 15.9087 4.73322 15.8809 4.87724 15.8898C5.21104 15.9244 5.5406 15.9918 5.86115 16.0909C6.27193 16.2037 6.52774 16.2724 6.63105 16.2944C6.72512 16.3266 6.82724 16.3266 6.92131 16.2944L7.05414 16.3312L6.92623 16.7899C6.78848 16.7702 6.64581 16.7408 6.49577 16.704C6.34572 16.6672 6.1145 16.6084 5.86115 16.5397C5.60736 16.4587 5.34618 16.4028 5.0814 16.3729C5.01416 16.365 4.94631 16.3818 4.8906 16.4201C4.83489 16.4585 4.79515 16.5159 4.77885 16.5814L4.65586 17.0106L6.70485 17.5771L6.58924 17.9818L1.37698 16.5176ZM3.94007 16.2724C3.95447 16.2207 3.95251 16.1659 3.93446 16.1154C3.9164 16.0649 3.88314 16.0212 3.83921 15.9903C3.67751 15.8742 3.49448 15.7908 3.30052 15.7451C3.14897 15.6988 2.99164 15.6741 2.83317 15.6715C2.66344 15.6715 2.56505 15.7304 2.53554 15.8358L2.39041 16.3509L3.80478 16.7433L3.94007 16.2724Z" fill="white"/>
<path d="M2.11737 14.1019L7.13285 16.1522L7.72811 14.7249L6.84506 14.3619L6.41214 15.4042L5.106 14.8696L5.48726 13.9548L4.60912 13.5943L4.23032 14.5115L3.1677 14.0774L3.5834 13.0768L2.69542 12.7114L2.11737 14.1019Z" fill="white"/>
<path d="M7.92735 14.357L7.70598 14.7494L3.33496 11.4729L3.58094 11.0412L8.67759 13.0327L8.45867 13.4349L7.40096 13.013L7.0197 13.6875L7.92735 14.357ZM6.26209 13.1308L6.52283 12.6672L4.52303 11.853L6.26209 13.1308Z" fill="white"/>
<path d="M10.3601 10.9039L10.1018 11.2105L6.85243 8.54708L9.85582 11.5072L9.59262 11.8236L6.1022 9.45204L6.09482 9.45694L9.34664 12.1203L9.09083 12.4269L4.90676 8.99833L5.3077 8.51519L8.71202 10.8205H8.71448L5.77997 7.94867L6.176 7.47534L10.3601 10.9039Z" fill="white"/>
<path d="M10.7094 10.5802L10.3773 10.8843L7.22878 6.43549L7.59283 6.10931L11.8286 9.54278L11.4866 9.8616L10.6233 9.13812L10.0526 9.6654L10.7094 10.5802ZM9.50407 8.90514L9.89517 8.54462L8.24467 7.16143L9.50407 8.90514Z" fill="white"/>
<path d="M8.71694 5.14059L9.56556 4.53483C9.75743 4.39749 10.0132 4.45389 10.3355 4.70405C10.5826 4.90481 10.8011 5.13832 10.9849 5.3981C11.1465 5.61308 11.2812 5.84698 11.3858 6.0946C11.4701 6.25858 11.5043 6.44361 11.4842 6.62679C11.6249 6.65611 11.755 6.72309 11.8605 6.82053C12.1011 7.05106 12.3171 7.30585 12.505 7.5808C12.751 7.92415 12.9109 8.13261 12.9797 8.21599C13.0486 8.29938 13.147 8.38276 13.2085 8.39012L13.2897 8.50048L12.8986 8.78006C12.8051 8.67951 12.7116 8.5667 12.6181 8.44653C12.5247 8.32635 12.3722 8.13506 12.227 7.92415C12.079 7.70349 11.9093 7.4981 11.7203 7.31103C11.673 7.26271 11.6094 7.2335 11.5418 7.22898C11.4742 7.22445 11.4072 7.24493 11.3538 7.2865L10.9898 7.54647L12.232 9.2632L11.8876 9.50845L8.71694 5.14059ZM10.8742 6.53605C10.9184 6.50538 10.9518 6.46171 10.9699 6.41114C10.988 6.36058 10.9898 6.30564 10.975 6.25401C10.9175 6.06619 10.8239 5.89128 10.6995 5.73899C10.6106 5.60866 10.5038 5.49143 10.3822 5.39074C10.2469 5.29019 10.1362 5.27057 10.0452 5.33433L9.60738 5.64825L10.4658 6.83034L10.8742 6.53605Z" fill="white"/>
<path d="M13.8923 8.17675L13.5209 8.39502L10.761 3.75984L11.13 3.54157L13.8923 8.17675Z" fill="white"/>
<path d="M15.009 7.60287L14.6204 7.78926L12.6772 3.80399L12.1016 4.07866L11.6834 3.21785L13.2183 2.4821L13.6389 3.34047L13.0634 3.61515L15.009 7.60287Z" fill="white"/>
<path d="M16.1676 7.12464L15.7642 7.27915L13.816 2.25402L14.2194 2.09952L16.1676 7.12464Z" fill="white"/>
<path d="M16.2783 1.45697L17.0211 5.47903H17.0187L15.5649 1.65317L14.9574 1.81748L16.3988 7.00937L16.7875 6.90392L15.6658 2.86959L15.6756 2.86714L17.1589 6.80091L17.5598 6.69055L16.8121 2.55813L17.9312 6.58755L18.3199 6.48454L16.876 1.29265L16.2783 1.45697Z" fill="white"/>
<path d="M17.7271 1.13324L18.5019 6.46492L20.0442 6.2442L19.9089 5.3049L18.7823 5.46431L18.5806 4.07866L19.5719 3.93642L19.4366 3.00693L18.4453 3.14918L18.283 2.01858L19.3628 1.86408L19.2251 0.919875L17.7271 1.13324Z" fill="white"/>
<path d="M22.5974 6.22703H22.1055L21.9874 5.7488C21.9251 5.8954 21.8423 6.03246 21.7414 6.15591C21.698 6.21219 21.6421 6.25765 21.5781 6.28872C21.5141 6.31979 21.4437 6.33561 21.3725 6.33494C21.1831 6.33494 21.0306 6.17063 20.9174 5.84445C20.8002 5.4989 20.7485 5.13465 20.7649 4.77026C20.7652 4.50741 20.7924 4.24526 20.8461 3.98792C20.912 3.70837 21.0287 3.44321 21.1904 3.20558L21.2495 3.14427C21.1993 2.98372 21.1607 2.81981 21.1339 2.65378C21.0976 2.43087 21.0819 2.20511 21.0871 1.97934C21.0797 1.66191 21.1349 1.3461 21.2495 1.04986C21.3552 0.821776 21.4955 0.713867 21.6504 0.713867C21.8054 0.713867 21.889 0.819324 21.9874 1.02043C22.1041 1.33374 22.1543 1.66777 22.135 2.00142C22.1359 2.3083 22.086 2.61323 21.9874 2.90393C21.936 3.04962 21.8674 3.18873 21.7832 3.3184L22.0563 4.26505C22.0833 4.13262 22.1079 4.0198 22.1252 3.88982C22.1473 3.73287 22.1621 3.5661 22.1719 3.38707H22.5286C22.5133 3.68597 22.483 3.98392 22.4375 4.27977C22.3955 4.52854 22.3371 4.77431 22.2629 5.01551L22.5974 6.22703ZM21.4389 3.8138C21.3602 3.94107 21.2942 4.0758 21.2421 4.216C21.1959 4.37535 21.1735 4.54063 21.1757 4.7065C21.1692 4.8553 21.1858 5.0042 21.2249 5.14794C21.279 5.34169 21.3577 5.43734 21.4709 5.43979C21.5324 5.43979 21.5938 5.3981 21.6553 5.31471C21.7134 5.23421 21.7613 5.1469 21.798 5.05475L21.4389 3.8138ZM21.7414 1.62864C21.7144 1.55016 21.675 1.51092 21.6209 1.51092C21.5668 1.51092 21.5348 1.54771 21.5053 1.62619C21.4641 1.7401 21.4449 1.86076 21.4487 1.9818C21.4471 2.09195 21.4562 2.202 21.4758 2.31043C21.5021 2.44185 21.5374 2.57132 21.5815 2.69792C21.6391 2.601 21.6861 2.49823 21.7218 2.39136C21.7623 2.26273 21.7839 2.12889 21.7857 1.99406C21.793 1.87059 21.778 1.74682 21.7414 1.62864Z" fill="white"/>
<path d="M24.3267 1.35642C24.5357 1.07438 24.7424 0.959115 24.9391 0.988544C25.1359 1.01797 25.2958 1.20681 25.3942 1.54035C25.5483 2.05537 25.5319 2.85243 25.345 3.93152C25.1556 4.99834 24.9022 5.75125 24.5825 6.18289C24.3808 6.46084 24.1774 6.58591 23.9724 6.55812C23.7683 6.52133 23.6158 6.33494 23.5149 5.9965C23.36 5.48393 23.3796 4.69178 23.5666 3.6225C23.7535 2.55322 24.0093 1.78805 24.3267 1.35642ZM23.8716 5.17983C23.9183 5.43979 24.0093 5.57958 24.1397 5.6041C24.2701 5.62863 24.4029 5.52317 24.5333 5.29509C24.7536 4.84406 24.899 4.36035 24.9637 3.86285C25.073 3.3687 25.1012 2.86017 25.0474 2.35703C25.0006 2.11178 24.9145 1.95727 24.7817 1.9352C24.6489 1.91313 24.5185 2.01613 24.3857 2.24421C24.1667 2.70005 24.0214 3.18759 23.9552 3.68872C23.8468 4.17797 23.8177 4.6814 23.8691 5.17983" fill="white"/>
<path d="M27.0029 3.44593C27.0434 3.253 27.0665 3.05683 27.0718 2.85978C27.0718 2.61454 26.9955 2.4821 26.8627 2.44532C26.7298 2.40853 26.6167 2.49682 26.4642 2.69056C26.2036 3.11981 26.0103 3.58626 25.8911 4.07376C25.7656 4.47933 25.6832 4.8969 25.6451 5.31962C25.6229 5.6973 25.6894 5.91066 25.8443 5.95481C25.9501 5.98424 26.0608 5.92538 26.1739 5.77823C26.3246 5.56794 26.4432 5.33652 26.5257 5.09154L26.9094 5.2019C26.7545 5.66479 26.5342 6.10329 26.2551 6.50416C26.0091 6.82544 25.7804 6.95542 25.5615 6.89165C25.3425 6.82789 25.1851 6.54586 25.1581 6.0431C25.17 5.33379 25.2885 4.63027 25.5098 3.95604C25.6843 3.2715 25.9621 2.61739 26.3338 2.01613C26.6167 1.60166 26.8824 1.43244 27.1283 1.50111C27.3743 1.56978 27.5121 1.8371 27.5391 2.29326C27.5515 2.71868 27.5001 3.14356 27.3866 3.55383L27.0029 3.44593Z" fill="white"/>
<path d="M29.4553 3.48271L28.523 3.10503L28.0901 4.16205L28.9436 4.5054L28.5845 5.37602L27.731 5.03268L27.1972 6.33004L28.1688 6.72243L27.8097 7.60042L26.4765 7.06087L28.523 2.07499L29.8169 2.59737L29.4553 3.48271Z" fill="white"/>
<path d="M28.1221 7.76228L27.7531 7.56609L30.9508 3.15163L31.3542 3.36745L29.3864 8.42691L29.0076 8.2258L29.4282 7.18595L28.7739 6.84506L28.1221 7.76228ZM29.3126 6.08234L29.7505 6.31532L30.5548 4.32882L29.3126 6.08234Z" fill="white"/>
<path d="M33.4376 4.68933L33.7402 4.89779L30.6409 9.31715L30.3211 9.09398L31.8904 5.51091L31.8855 5.50846L29.6791 8.65499L29.3741 8.44407L32.471 4.02226L32.8178 4.2626L31.273 7.77209H31.278L33.4376 4.68933Z" fill="white"/>
<path d="M33.7131 9.5109C33.366 9.90933 32.9493 10.2417 32.4833 10.4919C32.161 10.6366 31.9126 10.6243 31.7453 10.4551C31.7039 10.4145 31.6713 10.366 31.6493 10.3125C31.6273 10.2589 31.6164 10.2015 31.6174 10.1436C31.6121 9.93958 31.6622 9.73788 31.7625 9.55995C31.8541 9.38721 31.9612 9.22305 32.0823 9.06945C32.2289 8.87738 32.3874 8.69471 32.557 8.52255L35.0242 5.93519L35.3218 6.21477L32.9014 8.72856C32.703 8.9189 32.5369 9.14004 32.4095 9.38337C32.3332 9.55014 32.3332 9.66786 32.4095 9.74143C32.4857 9.81501 32.6382 9.83217 32.8079 9.74143C33.0299 9.6106 33.2292 9.44498 33.3983 9.25094L35.8581 6.70036L36.1532 6.97994L33.7131 9.5109Z" fill="white"/>
<path d="M37.4225 8.45388L37.6611 8.73592L33.4942 12.1841L33.2433 11.8849L35.7129 8.84137L35.7056 8.83647L32.7415 11.2914L32.5054 11.0094L36.6698 7.55873L36.9404 7.88L34.515 10.8598L34.5175 10.8622L37.4225 8.45388Z" fill="white"/>
<path d="M33.8607 12.7212L33.632 12.3999L38.062 9.29263L38.2932 9.61636L33.8607 12.7212Z" fill="white"/>
<path d="M39.228 11.0805L39.4395 11.4312L34.3478 13.7292L34.1534 13.4079L38.5933 10.0308L38.8122 10.3938L35.3907 12.9002V12.9027L39.228 11.0805Z" fill="white"/>
<path d="M39.4272 13.5943L38.9992 12.6918L37.9587 13.1774L38.3523 14.0038L37.4938 14.406L37.1002 13.5771L35.8236 14.1731L36.2688 15.1148L35.4055 15.5195L34.793 14.227L39.7027 11.9339L40.2979 13.1896L39.4272 13.5943Z" fill="white"/>
<path d="M40.5636 13.8297L40.8785 14.7371C40.9498 14.9407 40.817 15.1565 40.48 15.3797C40.2113 15.5522 39.9221 15.6906 39.619 15.7917C39.3649 15.8816 39.1019 15.9441 38.8344 15.9781C38.6557 16.012 38.4712 15.9967 38.3006 15.9339C38.2253 16.0538 38.1214 16.1533 37.9981 16.2233C37.7021 16.381 37.3915 16.51 37.0707 16.6084C36.6698 16.7457 36.4189 16.8364 36.3328 16.8757C36.2361 16.9033 36.1503 16.9598 36.0868 17.0375L35.9565 17.0841L35.8113 16.6672C35.9368 16.6084 36.0721 16.552 36.2147 16.4956C36.3574 16.4391 36.5837 16.3607 36.8321 16.2748C37.0869 16.1982 37.334 16.0981 37.5701 15.9756C37.6295 15.9487 37.6767 15.9005 37.7022 15.8405C37.7277 15.7806 37.7297 15.7133 37.7078 15.6519L37.5725 15.2669L35.5629 15.9536L35.4374 15.5857L40.5636 13.8297ZM38.5712 15.4116C38.5896 15.4609 38.6234 15.5031 38.6677 15.5318C38.712 15.5605 38.7644 15.5743 38.8172 15.571C39.0147 15.5659 39.2097 15.5251 39.3927 15.4508C39.544 15.4047 39.688 15.3378 39.8208 15.2521C39.9585 15.1565 40.0102 15.0609 39.9782 14.9677L39.8158 14.4992L38.4285 14.975L38.5712 15.4116Z" fill="white"/>
<path d="M37.6783 17.1455C37.5058 17.1813 37.3399 17.2434 37.1863 17.3294C36.9945 17.4398 36.9158 17.5746 36.9404 17.7242C36.9506 17.7745 36.973 17.8216 37.0056 17.8613C37.0382 17.901 37.0799 17.9323 37.1273 17.9523C37.3129 18.0118 37.5124 18.0118 37.698 17.9523C37.8513 17.927 37.9949 17.8609 38.1137 17.761C38.1878 17.6789 38.2417 17.5806 38.2711 17.4741L38.367 17.246C38.3991 17.1622 38.4361 17.0803 38.4777 17.0008C38.5334 16.9081 38.604 16.8252 38.6868 16.7555C38.8087 16.6606 38.9438 16.5838 39.0877 16.5274C39.3122 16.4402 39.5433 16.3713 39.7789 16.3214C40.1263 16.2359 40.4842 16.2012 40.8416 16.2184C41.2671 16.2528 41.5082 16.3999 41.5795 16.6648C41.6508 16.9296 41.4737 17.1553 41.0875 17.3686C40.7553 17.551 40.3981 17.684 40.0274 17.7635L39.9437 17.3907C40.105 17.3509 40.261 17.2925 40.4086 17.2166C40.5956 17.1087 40.6743 16.9713 40.6546 16.834C40.6423 16.7901 40.6189 16.7501 40.5866 16.7179C40.5543 16.6857 40.5142 16.6623 40.4701 16.6501C40.1625 16.5864 39.8422 16.6426 39.5748 16.807C39.5233 16.8506 39.4821 16.9051 39.4542 16.9664L39.2329 17.4888C39.1688 17.6597 39.0538 17.8069 38.9033 17.9106C38.603 18.099 38.2688 18.2272 37.9193 18.2883C37.247 18.4371 36.7428 18.4428 36.4066 18.3055C36.3148 18.2868 36.2297 18.2444 36.1597 18.1823C36.0897 18.1203 36.0374 18.041 36.0081 17.9523C35.9417 17.6531 36.104 17.3907 36.5001 17.1626C36.8396 16.9796 37.2042 16.8474 37.5824 16.7702L37.6783 17.1455Z" fill="white"/>
<path d="M36.3254 18.8499L36.382 19.2423L41.7541 18.4722L41.6951 18.0798L36.3254 18.8499Z" fill="white"/>
<path d="M40.8711 19.0682L40.9129 19.6494L36.4582 19.956L36.4853 20.3508L40.9399 20.0443L40.9818 20.6255L41.9411 20.5593L41.8304 19.002L40.8711 19.0682Z" fill="white"/>
<path d="M38.554 21.5967L36.5074 21.5305L36.4927 21.9253L38.5195 21.994L41.8968 22.7248L41.9116 22.2809L39.5526 21.8321L41.9362 21.5035L41.9534 21.0375L38.554 21.5967Z" fill="white"/>
<path d="M26.4839 11.1614L27.5908 11.7745L27.8663 11.284L27.207 10.9162L28.2869 8.98852L27.8417 8.74327L26.4839 11.1614ZM26.1789 8.95419L26.0387 9.68993L25.7779 9.59183L26.1789 8.95419ZM25.8247 10.8475L26.3584 11.0486L26.7372 8.22825L26.26 8.04922L24.6612 10.4061L25.1531 10.5949L25.4852 10.0603L25.9353 10.2295L25.8247 10.8475ZM23.997 10.254L24.489 10.3472L25.0105 7.6274L24.5185 7.5342L24.2258 9.067L23.9552 7.42629L23.4633 7.33555L22.9344 10.0504L23.4264 10.1461L23.7117 8.66234L23.997 10.254ZM21.8398 9.48392C21.5938 9.48392 21.5373 9.23867 21.5545 8.76535L21.5692 8.40974C21.5865 7.94131 21.6676 7.68871 21.9062 7.69607C22.1448 7.70342 22.2014 7.96584 22.1842 8.43181V8.78742C22.1645 9.25829 22.0784 9.49128 21.8521 9.48147M21.83 10.0431C22.3072 10.0603 22.654 9.68748 22.6884 8.82911L22.7032 8.42936C22.7352 7.56854 22.4179 7.14916 21.9407 7.132C21.4635 7.11483 21.1093 7.50968 21.0748 8.35823L21.0601 8.75799C21.0281 9.6139 21.3503 10.0137 21.83 10.0333M20.2164 10.0333L20.7255 9.98668L20.4796 7.22519L19.9704 7.26934L20.2164 10.0333ZM18.9865 10.2246L19.4784 10.1289L19.0603 7.95603L19.6137 7.85057L19.5276 7.29141L17.9386 7.59306L18.0444 8.14487L18.5782 8.04432L18.9865 10.2246ZM17.1515 8.7727L17.5303 9.43487L17.2671 9.52807L17.1515 8.7727ZM18.1084 10.4453L18.647 10.2565L17.1097 7.85057L16.6177 8.01979L16.9227 10.85L17.4147 10.6734L17.3237 10.0504L17.8058 9.89103L18.1084 10.4453ZM16.3299 11.1492L16.7727 10.9186L15.4764 8.46614L15.0312 8.69913L15.7691 10.0799L14.5392 8.96645L14.0915 9.2117L15.3854 11.6642L15.8404 11.4189L15.1246 10.0799L16.3299 11.1492Z" fill="white"/>
<path d="M18.6126 31.8113L18.6274 31.1736L18.6126 30.9112H18.2461C18.24 30.9109 18.2338 30.9118 18.228 30.9138C18.2222 30.9158 18.2169 30.919 18.2123 30.9231C18.2077 30.9272 18.204 30.9322 18.2014 30.9377C18.1987 30.9432 18.1972 30.9492 18.1969 30.9553V30.9848C18.1748 31.0265 18.1231 31.2766 17.7197 31.2766C17.6834 31.2809 17.6501 31.2987 17.6264 31.3264C17.6026 31.3542 17.5903 31.3898 17.5918 31.4262C17.5918 31.4262 17.5918 31.5856 17.668 31.5856H18.101C18.101 31.5856 18.1551 31.6151 18.1551 31.7524V33.0571H18.1969V33.1258C18.1981 33.1382 18.2037 33.1497 18.2127 33.1583C18.2218 33.1668 18.2336 33.1719 18.2461 33.1724H18.5634C18.5759 33.1719 18.5877 33.1668 18.5968 33.1583C18.6058 33.1497 18.6114 33.1382 18.6126 33.1258V31.8113Z" fill="white"/>
<path d="M20.5115 31.6371C20.512 31.7275 20.4856 31.8159 20.4356 31.8912C20.3857 31.9666 20.3144 32.0254 20.2308 32.0603C20.1473 32.0952 20.0552 32.1046 19.9663 32.0873C19.8774 32.07 19.7956 32.0267 19.7314 31.963C19.6672 31.8993 19.6233 31.818 19.6055 31.7295C19.5876 31.6409 19.5966 31.5491 19.6311 31.4656C19.6657 31.3821 19.7243 31.3107 19.7996 31.2605C19.8749 31.2102 19.9634 31.1834 20.054 31.1834C20.114 31.1831 20.1734 31.1946 20.2289 31.2173C20.2844 31.2399 20.3349 31.2733 20.3774 31.3154C20.4199 31.3576 20.4536 31.4077 20.4767 31.4629C20.4997 31.5181 20.5115 31.5773 20.5115 31.6371ZM20.9543 32.1056C21.0183 30.6954 19.9876 30.8229 19.9876 30.8229C19.8586 30.8199 19.7307 30.8475 19.6145 30.9035C19.4983 30.9594 19.3971 31.0421 19.3192 31.1448C19.2413 31.2474 19.1891 31.367 19.1667 31.4937C19.1443 31.6205 19.1525 31.7507 19.1905 31.8736C19.2285 31.9966 19.2953 32.1088 19.3854 32.201C19.4755 32.2931 19.5862 32.3626 19.7085 32.4037C19.8308 32.4448 19.9612 32.4563 20.0888 32.4373C20.2165 32.4183 20.3378 32.3693 20.4427 32.2944C20.4427 32.2944 20.4427 32.314 20.4427 32.3263C20.4513 32.3994 20.4424 32.4736 20.4168 32.5426C20.3911 32.6117 20.3494 32.6737 20.2951 32.7236C19.9237 33.116 19.5842 32.6304 19.5842 32.6304H19.1906C19.2546 32.9786 19.626 33.2926 20.2606 33.1871C20.8953 33.0816 20.9543 32.1056 20.9543 32.1056Z" fill="white"/>
<path d="M22.4646 32.7211L22.3884 32.6991L22.4917 32.7751L22.4646 32.7211ZM22.4917 32.287L22.4744 32.3263L22.4425 32.341L21.8521 32.3631L21.8226 32.341V32.2919C21.8522 32.2536 21.8793 32.2135 21.9038 32.1718L22.3834 31.5783L22.4375 31.5513L22.4867 31.5856L22.4917 32.287ZM23.2542 32.65V32.3876C23.2521 32.3786 23.2476 32.3704 23.241 32.3639C23.2345 32.3574 23.2263 32.3529 23.2173 32.3508H23.0008L22.9467 32.3287L22.927 32.2723V30.9799C22.9264 30.9671 22.9211 30.9549 22.912 30.9459C22.9029 30.9368 22.8907 30.9314 22.8778 30.9308H22.5384C22.5312 30.9284 22.5234 30.9284 22.5163 30.9308C22.5083 30.9242 22.4983 30.9206 22.488 30.9206C22.4776 30.9206 22.4676 30.9242 22.4597 30.9308L21.6111 32.0173C21.5779 32.0539 21.549 32.0943 21.525 32.1374C21.5066 32.1594 21.4893 32.1824 21.4733 32.2061C21.4585 32.2249 21.4479 32.2467 21.4424 32.27C21.4368 32.2933 21.4365 32.3175 21.4413 32.341C21.433 32.3506 21.4278 32.3626 21.4266 32.3753V32.6377C21.4266 32.6508 21.4318 32.6632 21.441 32.6724C21.4502 32.6816 21.4627 32.6868 21.4758 32.6868H22.4892V33.143C22.4888 33.1492 22.4898 33.1554 22.492 33.1612C22.4943 33.167 22.4977 33.1723 22.5021 33.1767C22.5065 33.1811 22.5118 33.1845 22.5176 33.1867C22.5235 33.1889 22.5297 33.1899 22.5359 33.1896H22.8655C22.8719 33.1899 22.8782 33.1889 22.8842 33.1867C22.8901 33.1845 22.8956 33.1812 22.9002 33.1768C22.9048 33.1724 22.9085 33.1672 22.911 33.1614C22.9135 33.1556 22.9148 33.1493 22.9147 33.143V32.7726L22.9443 32.7162L23.0033 32.6868H23.2173C23.2299 32.6862 23.2418 32.6807 23.2505 32.6716C23.2592 32.6625 23.264 32.6503 23.264 32.6377" fill="white"/>
<path d="M24.1864 31.7475C24.1864 31.7475 24.1864 31.7034 24.1864 31.6568C24.1954 31.5741 24.2102 31.4921 24.2307 31.4115C24.2307 31.3183 24.3635 31.2815 24.3635 31.2815H25.1851C25.2245 31.2815 25.2294 31.2374 25.2294 31.2374V30.9921C25.2294 30.9406 25.1704 30.9333 25.1704 30.9333C25.1704 30.9333 24.1102 30.9333 24.0143 30.9333C23.9183 30.9333 23.9208 31.0436 23.9208 31.0436C23.9208 31.0436 23.7437 32.0246 23.7388 32.0957C23.7366 32.1126 23.741 32.1296 23.7511 32.1433C23.7612 32.157 23.7761 32.1663 23.7929 32.1693H24.1323C24.6046 31.8382 24.8481 32.2233 24.8481 32.2233C24.8917 32.2833 24.919 32.3536 24.9272 32.4273C24.9355 32.501 24.9245 32.5755 24.8952 32.6437C24.866 32.7118 24.8196 32.7713 24.7605 32.8162C24.7013 32.8612 24.6315 32.8901 24.5579 32.9002C24.4618 32.9208 24.3616 32.9076 24.2741 32.8629C24.1867 32.8182 24.1175 32.7447 24.0782 32.6549C24.0743 32.6417 24.0677 32.6295 24.0588 32.6189C24.0499 32.6084 24.0389 32.5998 24.0266 32.5936H23.7092C23.6954 32.594 23.6819 32.5977 23.6698 32.6046C23.6578 32.6114 23.6477 32.6211 23.6404 32.6328C23.8864 33.582 25.3475 33.4667 25.3967 32.4465C25.3106 31.3821 24.1963 31.7573 24.1963 31.7573" fill="white"/>
<path d="M16.3299 34.4231V34.9602C16.3299 34.9602 16.3299 35.0976 16.4037 35.0755L19.0357 34.4648C19.0357 34.4648 20.3861 33.9964 20.5607 35.5807C20.5607 35.6298 20.5927 35.6347 20.5927 35.6347H22.1104C22.1104 35.6347 22.1621 35.5905 22.1621 35.5488C22.1621 35.5071 22.2801 34.1387 23.7634 34.4452C25.2466 34.7518 26.3412 35.0657 26.3412 35.0657V34.2858L24.0708 33.7193C24.0708 33.7193 22.2162 32.9492 21.3651 35.0853C21.3651 35.0853 20.819 33.143 18.8512 33.6457C16.8834 34.1485 16.4332 34.2539 16.4332 34.2539C16.4332 34.2539 16.3176 34.2858 16.3176 34.3275C16.3145 34.3593 16.3145 34.3913 16.3176 34.4231" fill="white"/>
<path d="M35.1546 31.875C35.0242 31.7892 34.6626 31.9829 34.4486 32.2576C34.365 32.3631 34.1879 32.6304 34.3797 32.8168C34.6257 32.9198 34.9824 32.6721 35.157 32.3802C35.2874 32.1669 35.2849 31.978 35.1546 31.875Z" fill="white"/>
<path d="M6.50561 33.0522C6.45673 32.9677 6.40336 32.8858 6.34572 32.807C6.30391 32.7457 6.25963 32.6819 6.19076 32.5617C6.12188 32.4415 6.02349 32.2919 5.94478 32.1595L5.80457 31.9339L5.75292 31.8603C5.67666 31.7328 5.59795 31.6151 5.50694 31.5734C5.41593 31.5317 5.35935 31.6151 5.26096 31.6813C5.26096 31.6813 5.24374 31.6813 5.24374 31.7009C5.24719 31.7203 5.25297 31.7393 5.26096 31.7573C5.45037 32.1178 5.65453 32.471 5.93002 32.9026L5.95216 32.9394C6.10709 33.1986 6.28754 33.4418 6.49085 33.6653C6.50561 33.68 6.52037 33.6948 6.53758 33.6948C6.61621 33.6859 6.68971 33.6514 6.74667 33.5967C6.76622 33.5811 6.78006 33.5596 6.78602 33.5354C6.74224 33.4008 6.67293 33.2759 6.58186 33.1675C6.55439 33.1305 6.52893 33.092 6.50561 33.0522Z" fill="white"/>
<path d="M20.5115 38.8425H20.4132C20.3262 38.8342 20.2387 38.8499 20.1601 38.888C20.0815 38.9261 20.0151 38.985 19.9679 39.0583C19.917 39.1554 19.8936 39.2644 19.9001 39.3737C19.9066 39.483 19.9428 39.5885 20.0048 39.6788C20.0477 39.7467 20.11 39.8003 20.1836 39.8326C20.2572 39.8649 20.3389 39.8746 20.4181 39.8603C20.5367 39.8204 20.6387 39.7425 20.7082 39.6386C20.7776 39.5348 20.8105 39.4109 20.8018 39.2864C20.819 39.1895 20.7986 39.0897 20.7447 39.0073C20.6908 38.9248 20.6074 38.8659 20.5115 38.8425Z" fill="white"/>
<path d="M35.2431 22.7469C31.2583 23.0854 30.7909 26.2392 26.6339 24.2184C22.3515 22.1559 21.2052 22.3251 18.2707 23.1663C16.1946 23.7549 14.6253 26.1534 11.2333 23.88C8.81533 22.4919 7.16237 22.4502 6.06777 22.4919C5.15877 22.5403 4.27546 22.8098 3.49485 23.2766C2.64468 23.7539 1.89339 24.3881 1.28105 25.1454C1.28105 25.1454 2.4888 33.0669 9.58278 37.9449C16.9031 42.9774 25.527 42.7297 32.3086 38.6291C34.6029 37.2385 36.5949 35.4042 38.1672 33.2342C39.7396 31.0643 40.8605 28.6025 41.4639 25.994V25.967C41.4639 25.967 39.2304 22.4109 35.2431 22.7469ZM36.6649 27.1148C36.7313 26.9701 36.7903 26.8205 36.8493 26.6758C36.9084 26.5311 36.9453 26.4305 36.9969 26.3226C37.0399 26.2227 37.0883 26.1253 37.1421 26.0308C37.2297 25.8764 37.2974 25.7116 37.3438 25.5403C37.3438 25.5059 37.3069 25.3147 37.4766 25.2607C37.5922 25.2215 37.7226 25.3318 37.8185 25.4275C37.8551 25.465 37.8955 25.4987 37.939 25.528C38.0694 25.604 38.2096 25.6801 38.3572 25.7536L38.4039 25.7782C38.646 25.8842 38.8668 26.0329 39.0558 26.2172L39.0976 26.2687C39.1659 26.3241 39.2105 26.4033 39.2224 26.4903C39.2343 26.5773 39.2125 26.6655 39.1615 26.7371C39.0902 26.8327 38.8787 26.6954 38.5884 26.5066C38.3043 26.2934 37.9845 26.1323 37.6439 26.0308C37.6439 26.0308 37.5824 26.0112 37.5602 26.0553L36.6452 28.0786C36.628 28.1154 36.6132 28.1571 36.596 28.2012C36.5148 28.4023 36.4213 28.6329 36.1828 28.6917C36.1623 28.6903 36.1425 28.6837 36.1252 28.6726C36.108 28.6614 36.094 28.6461 36.0844 28.6279C35.9884 28.4514 36.2541 27.9364 36.4853 27.4851C36.5493 27.3527 36.6181 27.2202 36.6649 27.1148ZM9.25071 30.0283C10.8594 30.8523 13.3635 30.9946 13.3635 30.9946C16.5415 31.0829 18.037 30.3717 20.1893 29.1454C21.9702 28.1325 23.2025 29.6065 24.4718 30.1951C25.8966 30.7868 27.4248 31.0915 28.9682 31.0915C30.5117 31.0915 32.0399 30.7868 33.4647 30.1951C33.4647 30.1951 29.4553 36.2453 21.7168 36.2135C12.9453 36.1742 9.25071 30.0283 9.25071 30.0283ZM21.1585 37.5746C21.1191 37.6285 21.0084 37.6359 20.9961 37.6359C20.9076 37.6359 20.5042 37.6359 20.209 37.6359H19.84C19.5645 37.6359 19.5596 37.4912 19.5596 37.4863C19.6211 37.241 20.1549 37.2582 20.5903 37.3097H20.728C20.9199 37.3097 21.1363 37.3342 21.1831 37.5059C21.1856 37.5185 21.1846 37.5315 21.1803 37.5436C21.1759 37.5557 21.1684 37.5664 21.1585 37.5746ZM11.0537 33.7266L11.1447 33.8076C11.3169 33.9547 11.4645 34.0823 11.6367 34.2441C11.7179 34.3201 11.8064 34.3913 11.8827 34.4624C11.991 34.5454 12.0937 34.6356 12.1901 34.7322C12.2475 34.7798 12.2946 34.8384 12.3289 34.9046C12.3631 34.9707 12.3837 35.043 12.3894 35.1172C12.387 35.1244 12.3829 35.1309 12.3773 35.1361C12.3717 35.1413 12.3648 35.1449 12.3574 35.1466H12.3279C12.2429 35.145 12.1591 35.1258 12.0819 35.0902C11.8883 34.9912 11.7135 34.8592 11.5654 34.7003C11.4748 34.6061 11.3769 34.5192 11.2726 34.4403L11.0021 34.1951C10.8938 34.0945 10.7856 34.0136 10.6798 33.9327C10.4239 33.7622 10.2068 33.5399 10.0428 33.2803C10.036 33.2713 10.0312 33.2609 10.0286 33.25C10.0261 33.239 10.0259 33.2276 10.028 33.2165C10.028 33.1822 10.0797 33.1675 10.1116 33.1552H10.1313C10.4265 33.1233 10.6626 33.3637 10.8692 33.5746C10.9381 33.6187 10.9971 33.6776 11.0537 33.7266ZM10.9504 33.0228C11.066 32.8977 11.253 33.0596 11.3218 33.1209C11.3907 33.1822 11.4645 33.2386 11.5383 33.295L11.6933 33.4201C11.8115 33.5225 11.9241 33.6314 12.0303 33.7463L12.0475 33.7634C12.2934 34.0087 12.3943 34.1681 12.3623 34.2294C12.3594 34.2344 12.3555 34.2387 12.3508 34.242C12.3462 34.2454 12.3409 34.2478 12.3353 34.249H12.2762C12.0414 34.2005 11.826 34.0845 11.6564 33.9155L11.5949 33.8664L11.5162 33.8076C11.3376 33.6852 11.1813 33.5334 11.0537 33.3588C10.9873 33.2778 10.8742 33.1111 10.9504 33.0228ZM33.0564 31.6273C33.1203 31.5587 33.1843 31.4851 33.2458 31.414C33.3073 31.3428 33.3171 31.3306 33.354 31.2913C33.461 31.1772 33.5744 31.0691 33.6935 30.9676C33.9394 30.7592 34.0796 30.6635 34.1436 30.6831H34.1608V30.7003C34.1903 30.9063 33.9936 31.1319 33.8214 31.3306L33.7722 31.3894C33.7528 31.4087 33.7348 31.4292 33.7181 31.4508C33.5934 31.6172 33.4421 31.7622 33.2704 31.8799H33.2532C33.1794 31.9294 33.0953 31.9613 33.0072 31.9731C32.9805 31.9737 32.9544 31.965 32.9334 31.9486C32.9208 31.9374 32.9107 31.9239 32.9035 31.9087C32.8963 31.8935 32.8923 31.8771 32.8916 31.8603C32.899 31.7867 32.9998 31.6788 33.0564 31.6273ZM23.7535 28.3852C22.226 27.2938 20.2336 27.5023 19.2989 28.2576C13.1937 32.1816 7.93473 27.8383 7.93473 27.8383L7.34193 26.4502C7.51067 26.4244 7.68236 26.4244 7.8511 26.4502C8.14627 26.4943 9.16462 27.1663 9.16462 27.1663C10.2666 28.0075 13.9144 29.3956 17.1367 28.0075C22.0145 25.0645 23.4977 26.8278 24.9391 27.7132C29.352 29.7316 32.2348 28.2576 33.632 27.3355C35.0291 26.4134 35.2874 26.6194 35.2874 26.6194L35.4153 26.7028C35.2693 27.1728 35.0696 27.6246 34.82 28.0492C29.6127 31.4164 25.2786 29.479 23.7535 28.3852ZM35.2161 29.685C35.3661 29.685 35.5481 29.8787 35.7228 30.0651C35.8086 30.1689 35.9098 30.2591 36.0229 30.3324C36.1026 30.2884 36.1715 30.2272 36.2246 30.1534C36.3303 30.0283 36.4509 29.8861 36.6255 29.9866C36.7214 30.1313 36.5886 30.2564 36.4632 30.379C36.3949 30.4373 36.3352 30.505 36.2861 30.5801C36.3577 30.6979 36.4564 30.797 36.5739 30.8695C36.7436 30.9946 36.9035 31.1148 36.7928 31.3159C36.7658 31.3441 36.7334 31.3664 36.6974 31.3816C36.6615 31.3968 36.6227 31.4045 36.5837 31.4042C36.3746 31.4042 36.136 31.1883 35.9171 30.9921C35.8531 30.9357 35.7941 30.8818 35.7351 30.8327C35.676 30.7837 35.5653 30.7003 35.4645 30.6267C35.1669 30.4011 34.8569 30.1706 34.8594 30.0062C34.8643 29.7953 34.9799 29.6874 35.2161 29.685ZM7.30011 23.799C8.91126 23.799 10.1412 24.8928 11.2357 25.4373C13.4495 26.4477 14.7532 26.07 16.111 25.6482C17.4688 25.2264 18.2732 24.1326 20.8608 23.9315C23.4485 23.7304 25.2294 24.9394 26.629 25.6482C28.0286 26.357 30.235 26.406 31.9716 25.4029C33.6246 24.0565 36.2639 23.9658 36.2639 23.9658L35.986 25.192C35.4768 25.3196 34.3896 25.3563 33.3712 25.9032C31.5043 27.2497 29.9792 27.4189 28.1541 27.3355C26.2502 27.2472 25.1458 26.1093 23.7461 25.5256C22.3465 24.9419 20.819 25.062 19.8105 25.3147C18.802 25.5673 17.1835 26.6586 15.8257 27.0804C14.4679 27.5023 12.0499 27.4606 10.1018 26.1975C8.15365 24.9345 6.87703 25.0473 6.87703 25.0473C6.7934 24.9639 6.63106 23.8015 6.63106 23.8015L7.30011 23.799ZM3.65227 24.7653C3.67316 24.7487 3.6973 24.7366 3.72314 24.7299C3.74898 24.7231 3.77595 24.7218 3.80232 24.7261C4.04496 24.8543 4.23154 25.0674 4.32625 25.3245C4.33624 25.3481 4.34775 25.371 4.36069 25.3931C4.43694 25.5427 4.49597 25.6923 4.55255 25.837C4.60912 25.9817 4.64602 26.0823 4.70013 26.1853L4.72473 26.2515C4.98793 26.791 5.31754 27.5979 5.35935 27.7034C5.61053 27.7102 5.8608 27.6703 6.09728 27.5856C6.17354 27.5636 6.25225 27.539 6.34326 27.517C6.35724 27.3511 6.30708 27.1861 6.20305 27.0559C6.16562 26.9942 6.13194 26.9303 6.1022 26.8646C6.07023 26.7959 5.27572 25.1479 5.23636 25.0007C5.22734 24.9773 5.22376 24.952 5.22589 24.927C5.22802 24.9019 5.23581 24.8777 5.24866 24.856C5.26435 24.8334 5.28811 24.8176 5.31508 24.8119C5.42085 24.7261 5.59795 24.8855 5.60533 24.8904C5.86607 25.1356 6.19322 25.967 6.34326 26.3619L6.37278 26.4379L6.8057 27.3845C6.88441 27.4271 6.94478 27.4969 6.97542 27.5807C6.9831 27.6132 6.98355 27.6469 6.97675 27.6795C6.96995 27.7121 6.95606 27.7429 6.93607 27.7696C6.74526 27.9272 6.51911 28.0366 6.27685 28.0884C6.03967 28.1694 5.78571 28.1888 5.53892 28.1448C5.59747 28.319 5.68027 28.4841 5.78489 28.6353C5.82425 28.7015 5.86361 28.7677 5.90296 28.8413V28.8585H5.88329C5.79062 28.8979 5.6913 28.9196 5.59057 28.9222C5.53506 28.9232 5.48016 28.9106 5.43069 28.8855C5.26096 28.7996 5.19947 28.5789 5.13059 28.3214C5.10846 28.2454 5.08878 28.1644 5.06172 28.0761L4.76901 27.23C4.54359 27.3532 4.28751 27.4093 4.03108 27.3919C4.03108 27.3919 3.85151 27.3061 3.87857 27.1687C3.90907 27.0706 3.96565 26.9825 4.04231 26.9139C4.11896 26.8452 4.21283 26.7985 4.31395 26.7788L4.37299 26.7616C4.41972 26.7616 4.50581 26.7248 4.51811 26.7028L3.61784 24.9419C3.60744 24.912 3.60515 24.88 3.6112 24.849C3.61724 24.8179 3.63142 24.7891 3.65227 24.7653ZM4.44924 28.7677L4.38282 28.8291C4.05141 29.0292 3.68641 29.168 3.30544 29.2386C3.30544 29.2386 3.12096 29.2214 3.05947 29.1209C3.04633 29.0968 3.03945 29.0698 3.03945 29.0424C3.03945 29.015 3.04633 28.988 3.05947 28.9639C3.07273 28.9169 3.0958 28.8731 3.12716 28.8355C3.15852 28.7979 3.19748 28.7673 3.24149 28.7457L3.85889 28.4514C3.73781 27.9531 3.55087 27.4732 3.30298 27.024C3.13679 26.7067 2.99136 26.3791 2.8676 26.043C2.85564 26.0183 2.84903 25.9913 2.8482 25.9638C2.84736 25.9364 2.85232 25.909 2.86276 25.8836C2.87319 25.8582 2.88887 25.8352 2.90877 25.8162C2.92868 25.7972 2.95236 25.7826 2.97829 25.7733C2.9923 25.7673 3.00736 25.7643 3.02257 25.7643C3.03779 25.7643 3.05284 25.7673 3.06685 25.7733C3.10825 25.7948 3.14471 25.8246 3.17393 25.8609C3.20315 25.8973 3.22448 25.9392 3.23657 25.9842L4.13931 28.0614C4.17534 28.1337 4.21643 28.2034 4.2623 28.2699C4.38615 28.4059 4.45305 28.5841 4.44924 28.7677ZM7.61496 33.5378C7.59578 33.5529 7.5777 33.5692 7.56085 33.5869C7.30521 33.7821 7.03555 33.9583 6.75404 34.1141C6.72602 34.1261 6.69889 34.14 6.67287 34.1558C6.62309 34.1919 6.56445 34.214 6.50315 34.2196C6.48132 34.2189 6.45974 34.2147 6.43919 34.2073C6.34245 34.1242 6.26591 34.0202 6.21535 33.9032C6.21535 33.8836 6.19568 33.8689 6.1883 33.8566C6.06285 33.6457 5.97184 33.5084 5.87345 33.3661C5.77505 33.2239 5.72094 33.143 5.62747 32.986C5.45528 32.7138 5.2708 32.4244 5.0814 32.135C5.01556 32.0267 4.93248 31.9298 4.83542 31.848C4.75963 31.8064 4.70314 31.7369 4.678 31.6543C4.67066 31.6264 4.66951 31.5973 4.6746 31.5689C4.6797 31.5405 4.69093 31.5136 4.70751 31.49C4.76605 31.4149 4.84203 31.3551 4.92889 31.3159C4.96798 31.2944 5.00576 31.2706 5.04204 31.2447C5.18225 31.1417 5.28802 31.051 5.41347 30.9529C5.53635 30.8568 5.67321 30.7798 5.81933 30.7248C5.90999 30.7223 5.99812 30.7548 6.06531 30.8156C6.09667 30.8642 6.11334 30.9208 6.11334 30.9786C6.11334 31.0365 6.09667 31.0931 6.06531 31.1417C6.02494 31.1957 5.97386 31.2408 5.91526 31.2742L5.85623 31.3281C5.91772 31.4458 6.6163 32.5053 6.69747 32.6255C6.73191 32.6794 6.7688 32.7481 6.81062 32.8192C6.8875 32.9811 6.99148 33.1287 7.11809 33.2558C7.22386 33.3367 7.33209 33.2558 7.4354 33.1945C7.53871 33.1331 7.60266 33.0841 7.66662 33.1381C7.69422 33.1614 7.71658 33.1903 7.73226 33.2228C7.74794 33.2554 7.75658 33.2908 7.75763 33.3269C7.74779 33.4201 7.67892 33.4789 7.61496 33.5378ZM7.75763 32.4244H7.6986C7.57658 32.4072 7.45967 32.3641 7.35572 32.2982C7.25177 32.2322 7.1632 32.1448 7.09595 32.0418C7.04922 31.978 7.01478 31.9265 6.98526 31.8775C6.91921 31.7743 6.84692 31.6752 6.7688 31.5807C6.67264 31.458 6.5855 31.3285 6.50807 31.1932C6.44903 31.0976 6.39246 31.0093 6.33588 30.9259L6.3162 30.8989C6.21915 30.7891 6.15595 30.6537 6.13418 30.509C6.12577 30.4498 6.13422 30.3894 6.15858 30.3348C6.18294 30.2801 6.22222 30.2334 6.27193 30.2C6.32031 30.1701 6.37042 30.1431 6.42197 30.1191C6.49307 30.0853 6.56134 30.0459 6.62614 30.0013C6.67492 29.9638 6.72095 29.9228 6.76388 29.8787C6.80933 29.828 6.8605 29.7828 6.91639 29.7438C6.93985 29.7267 6.96659 29.7146 6.99495 29.7083C7.0233 29.702 7.05266 29.7016 7.08119 29.707C7.18942 29.7389 7.25584 29.8763 7.31487 29.9964C7.3301 30.0317 7.34735 30.0661 7.36653 30.0994C7.50726 30.3439 7.66251 30.5797 7.83142 30.8057L7.88308 30.8842C7.95687 30.997 8.0774 31.1834 8.16841 31.1834C8.31792 31.1637 8.45516 31.0905 8.5546 30.9774C8.60379 30.8989 8.47588 30.7027 8.39963 30.585L8.35536 30.5164C8.15928 30.2088 7.93532 29.9198 7.6863 29.6531C7.63969 29.6067 7.60574 29.5493 7.58766 29.4862C7.56958 29.4231 7.56797 29.3565 7.58299 29.2926C7.60758 29.2116 7.64448 29.165 7.6986 29.1577C7.85356 29.1356 8.07002 29.4422 8.25942 29.7414L8.29878 29.8027C8.46358 30.0479 8.62593 30.2932 8.79073 30.5384C8.81779 30.5801 8.84731 30.6194 8.87929 30.6611C8.99244 30.8082 9.11051 30.9603 9.05147 31.1515C9.01211 31.2791 8.9334 31.3232 8.82763 31.3968L8.72678 31.4557C8.67235 31.4796 8.61974 31.5075 8.56936 31.539C8.51761 31.5719 8.46332 31.6006 8.40701 31.6249C8.37804 31.6355 8.35006 31.6486 8.32338 31.6641C8.28199 31.6861 8.23826 31.7034 8.19301 31.7156C8.14895 31.7292 8.10179 31.7292 8.05772 31.7156C7.9258 31.6329 7.82204 31.5124 7.76009 31.3698C7.54207 30.9904 7.30396 30.6228 7.04676 30.2687L6.63106 30.5139C6.61876 30.5139 6.59416 30.5335 6.58924 30.5507V30.5752C6.58924 30.6046 6.68517 30.7542 6.72453 30.8205L6.74667 30.8523C6.92377 31.1172 7.10087 31.3723 7.27552 31.6077C7.37883 31.7475 7.43048 31.8113 7.50427 31.8996L7.6986 32.1448L7.74533 32.1988C7.79965 32.2565 7.84979 32.3179 7.89538 32.3827V32.3974H7.87816C7.84869 32.4067 7.81804 32.4116 7.78715 32.4121L7.75763 32.4244ZM8.0405 33.2312C7.99748 33.2169 7.95853 33.1924 7.92687 33.16C7.89522 33.1276 7.87177 33.0881 7.85848 33.0449C7.84892 33.0108 7.85017 32.9745 7.86206 32.9412C7.87395 32.9078 7.8959 32.8789 7.9249 32.8585C8.0651 32.7628 8.19301 32.6672 8.41685 32.5029L8.9088 32.1301L9.01949 32.0369C9.2089 31.875 9.46963 31.6518 9.68609 31.8186C9.71676 31.841 9.74183 31.8701 9.75933 31.9037C9.77683 31.9373 9.78628 31.9745 9.78694 32.0124C9.78167 32.0672 9.76028 32.1192 9.72545 32.162C9.60188 32.3059 9.45465 32.4278 9.29007 32.5225C9.24087 32.5568 9.19168 32.5862 9.1474 32.6206L8.75876 32.8977C8.55178 33.0681 8.30453 33.1829 8.0405 33.2312ZM11.2603 37.8664C11.1694 37.9155 11.0685 37.9431 10.9652 37.9474C10.7586 37.9474 10.6208 37.7929 10.4486 37.604C10.3847 37.5329 10.3183 37.4618 10.242 37.3882C9.80959 36.945 9.34419 36.5351 8.84977 36.162C8.80363 36.1403 8.75316 36.1294 8.70218 36.1301C8.5669 36.1301 8.39717 36.1031 8.36028 35.8701C8.50294 35.593 9.00228 34.9553 9.31713 34.9774C9.41306 34.9774 9.48439 35.0485 9.52621 35.1712C9.58524 35.3379 9.47701 35.4532 9.36386 35.5439L9.31467 35.5856L9.1843 35.6862C9.12526 35.7279 9.05639 35.7769 9.07853 35.848C9.10067 35.9192 9.21628 35.9976 9.30483 36.054L9.38108 36.1055C9.51757 36.2083 9.64586 36.3215 9.7648 36.444C9.8632 36.5445 9.97143 36.6402 10.0747 36.7309L10.1879 36.8339C10.2887 36.9247 10.397 37.013 10.5003 37.1013C10.7801 37.322 11.0387 37.5683 11.2726 37.837L11.2874 37.8542L11.2603 37.8664ZM10.9775 35.9044C10.937 35.904 10.8967 35.8999 10.8569 35.8922C10.5806 35.8272 10.322 35.7024 10.0993 35.5268C9.86518 35.3626 9.68263 35.1355 9.57294 34.872C9.51391 34.6978 9.46471 34.3643 9.5877 34.2196C9.69144 34.1213 9.81873 34.0512 9.95741 34.016C10.0961 33.9808 10.2415 33.9817 10.3797 34.0185C10.6394 34.0758 10.8779 34.204 11.0685 34.3888C11.0927 34.42 11.119 34.4495 11.1472 34.4771L11.1718 34.5041C11.3293 34.6871 11.4564 34.8941 11.5481 35.1172C11.609 35.2297 11.6289 35.3596 11.6047 35.4851C11.5512 35.6217 11.4533 35.7365 11.3268 35.8113H11.3095L11.2874 35.8235C11.1916 35.873 11.0854 35.899 10.9775 35.8995V35.9044ZM13.4372 35.1687L13.3856 35.2128L13.2528 35.3526C13.2331 35.3772 13.2109 35.3992 13.1888 35.4238C13.1224 35.4924 13.0535 35.5611 12.9797 35.6298C12.9077 35.6962 12.8396 35.7666 12.7756 35.8407C12.7756 35.9339 12.8715 36.0271 12.9674 36.1154C13.0634 36.2036 13.1617 36.2968 13.1544 36.39C13.1492 36.4191 13.1374 36.4465 13.1199 36.4703C13.1024 36.4941 13.0797 36.5136 13.0535 36.5274C12.9059 36.5544 12.8075 36.4513 12.7264 36.3483C12.6783 36.283 12.6161 36.2294 12.5443 36.1914C12.4281 36.2459 12.3236 36.3225 12.2369 36.417C12.1877 36.471 12.1409 36.5274 12.0942 36.5838C12.0068 36.7028 11.9043 36.81 11.7892 36.9026C11.6958 36.9706 11.5848 37.0106 11.4694 37.0179C11.4379 37.0192 11.4066 37.0124 11.3784 36.9982C11.3503 36.9804 11.3283 36.9543 11.3156 36.9236C11.3028 36.8929 11.2998 36.859 11.3071 36.8266C11.3218 36.596 11.5358 36.4146 11.7252 36.2527C11.7925 36.1967 11.8566 36.1369 11.9171 36.0737L12.901 35.0117C13.0188 34.8747 13.1584 34.7579 13.3143 34.6659C13.3342 34.6524 13.357 34.6435 13.3808 34.6401C13.4047 34.6367 13.4291 34.6389 13.452 34.6463C13.5271 34.686 13.5843 34.7526 13.6119 34.8327C13.6857 34.9504 13.5283 35.0878 13.4348 35.1687H13.4372ZM16.8219 39.463C16.7171 39.8163 16.5506 40.1484 16.3299 40.444C16.2706 40.487 16.2011 40.5141 16.1282 40.5225C16.1128 40.525 16.097 40.525 16.0815 40.5225C16.0566 40.5133 16.0344 40.4978 16.0172 40.4777C15.9999 40.4575 15.9882 40.4332 15.9831 40.4072C15.9609 40.3652 15.9481 40.3189 15.9455 40.2715C15.943 40.224 15.9508 40.1766 15.9683 40.1325L16.2143 39.5243C15.8017 39.2477 15.3543 39.0267 14.8836 38.867C14.5558 38.7473 14.2362 38.6064 13.9267 38.4452C13.9024 38.4352 13.8803 38.4203 13.862 38.4014C13.8437 38.3825 13.8295 38.36 13.8202 38.3354C13.811 38.3107 13.8069 38.2845 13.8083 38.2582C13.8097 38.232 13.8166 38.2063 13.8283 38.1828C13.8335 38.1687 13.8417 38.156 13.8523 38.1454C13.8629 38.1348 13.8757 38.1266 13.8898 38.1215C13.9313 38.1112 13.9743 38.1091 14.0165 38.1155C14.0587 38.1218 14.0993 38.1363 14.1358 38.1583L16.1405 39.0534C16.2123 39.0817 16.2864 39.1038 16.3619 39.1196C16.5422 39.1382 16.7081 39.2262 16.8243 39.3649L16.8219 39.463ZM17.6926 38.4182C17.7615 38.4403 17.8329 38.4599 17.9066 38.4869H17.9263V38.5041C17.9005 38.5749 17.86 38.6394 17.8075 38.6935C17.7549 38.7476 17.6915 38.79 17.6213 38.818C17.5927 38.8217 17.5638 38.8217 17.5352 38.818C17.3554 38.7892 17.1861 38.7149 17.0433 38.6022C16.9769 38.5605 16.908 38.5163 16.8366 38.4771L16.0544 38.0553C15.9783 38.2853 15.8364 38.4882 15.6461 38.639C15.6338 38.639 15.4616 38.6978 15.4001 38.5826C15.3579 38.4927 15.3406 38.3932 15.3502 38.2944C15.3597 38.1956 15.3956 38.1011 15.4543 38.0209C15.4621 38.0047 15.4711 37.9892 15.4813 37.9743C15.5084 37.9351 15.5576 37.8591 15.5502 37.8345L13.757 37.1675C13.7329 37.1533 13.7128 37.1333 13.6986 37.1093C13.6844 37.0852 13.6766 37.058 13.6758 37.0301C13.6803 37.0049 13.6898 36.9809 13.7037 36.9594C13.7177 36.9379 13.7358 36.9194 13.757 36.9051C14.0153 36.8403 14.2885 36.8726 14.5245 36.9958L14.5884 37.0203C14.7361 37.0763 14.8806 37.1402 15.0213 37.2116C15.1271 37.2631 15.2378 37.3171 15.3509 37.3637L15.41 37.3931C15.9511 37.6065 16.7137 37.967 16.812 38.0136C16.9953 37.8563 17.1479 37.6668 17.2622 37.4544C17.3015 37.3882 17.3409 37.3195 17.3901 37.246C17.2922 37.1168 17.149 37.0292 16.9892 37.0007C16.9213 36.9823 16.8547 36.9593 16.7899 36.932C16.7235 36.9051 15.0853 36.2527 14.9549 36.1669C14.9331 36.1555 14.9141 36.1395 14.8993 36.12C14.8844 36.1005 14.874 36.078 14.8688 36.054C14.865 36.0282 14.8712 36.0019 14.886 35.9805C14.9057 35.8505 15.132 35.848 15.1443 35.848C15.4912 35.848 16.2684 36.2355 16.6448 36.4219L16.7038 36.4513L17.6336 36.8462C17.7162 36.825 17.8036 36.8346 17.8796 36.8732C17.9063 36.8914 17.9288 36.915 17.9457 36.9425C17.9627 36.9699 17.9737 37.0006 17.978 37.0326C17.9432 37.2688 17.8539 37.4938 17.7172 37.6898C17.5996 37.9009 17.4304 38.0789 17.2253 38.2073C17.3732 38.2983 17.5329 38.3684 17.7 38.4158L17.6926 38.4182ZM21.3528 39.5366C21.3199 39.6656 21.2587 39.7858 21.1737 39.8884C21.0886 39.991 20.9818 40.0736 20.8608 40.1301C20.6774 40.2083 20.4799 40.2487 20.2803 40.2487C20.0808 40.2487 19.8833 40.2083 19.6998 40.1301C19.5186 39.9972 19.3885 39.8064 19.3312 39.5896C19.2739 39.3727 19.2929 39.1428 19.385 38.9382C19.4668 38.8116 19.573 38.7024 19.6974 38.6169C19.8308 38.5396 19.9777 38.488 20.1303 38.4648C20.1346 38.4179 20.1551 38.3739 20.1883 38.3404C20.2215 38.3068 20.2653 38.2858 20.3123 38.2809C20.3687 38.2717 20.4265 38.2823 20.4759 38.3109C20.5252 38.3396 20.5631 38.3844 20.5829 38.4379C20.7749 38.4761 20.9547 38.5602 21.1068 38.6831L21.1535 38.7371C21.245 38.8464 21.311 38.9746 21.3468 39.1124C21.3825 39.2503 21.3871 39.3943 21.3602 39.5341L21.3528 39.5366ZM21.6873 38.1485C21.4901 38.222 21.2804 38.257 21.0699 38.2515C20.9986 38.2515 20.9297 38.2515 20.8584 38.2515C20.7432 38.2396 20.6273 38.2346 20.5115 38.2368C20.4058 38.2368 19.5055 38.2098 19.4046 38.1779C19.3776 38.1779 19.1587 38.1558 19.0873 38.0626C19.0778 38.0497 19.0709 38.0351 19.0671 38.0195C19.0633 38.0039 19.0626 37.9877 19.0652 37.9719C19.0656 37.9407 19.078 37.9109 19.0996 37.8885C19.1143 37.8755 19.1314 37.8655 19.15 37.8592C19.1686 37.8529 19.1883 37.8504 19.2079 37.8517C19.2079 37.8517 20.1475 37.8223 21.2421 37.8738C21.3724 37.883 21.5016 37.9035 21.6283 37.9351C21.6522 37.9408 21.6744 37.9519 21.6932 37.9677C21.712 37.9834 21.7268 38.0033 21.7365 38.0258C21.7412 38.0478 21.7398 38.0706 21.7325 38.0918C21.7251 38.1129 21.712 38.1317 21.6947 38.146L21.6873 38.1485ZM23.3846 37.501C23.3846 37.5599 23.3846 37.6138 23.3846 37.6629C23.3846 37.8615 23.3846 38.0528 23.3846 38.2417C23.3846 38.8204 23.3624 39.3698 23.36 39.9707C23.36 40.0393 23.36 40.1203 23.36 40.2036C23.3747 40.4881 23.3895 40.8094 23.2444 40.9614C23.2162 40.9896 23.1823 41.0115 23.145 41.0254C23.1076 41.0394 23.0677 41.0452 23.0279 41.0424C22.7819 41.013 22.7991 40.4759 22.8188 39.8529C22.8408 39.5079 22.8334 39.1617 22.7967 38.818C22.6439 38.775 22.4821 38.775 22.3293 38.818C22.3096 38.818 22.2555 38.8744 22.2973 39.4237V39.4483C22.2973 39.512 22.2973 39.5783 22.3121 39.6445C22.3387 39.8773 22.3445 40.112 22.3293 40.3459C22.3329 40.4139 22.321 40.4819 22.2946 40.5447C22.2682 40.6075 22.2279 40.6636 22.1768 40.7088C22.1397 40.7297 22.0986 40.7425 22.0562 40.7463C22.0138 40.7501 21.9711 40.7449 21.9308 40.7309C21.8054 40.699 21.7955 40.2772 21.7955 39.7279C21.7955 39.642 21.7955 39.5611 21.7955 39.4826C21.7955 39.3526 21.7955 39.2177 21.7955 39.0829C21.7955 38.7812 21.7955 38.4697 21.7759 38.1509V37.967C21.7759 37.9277 21.7759 37.886 21.7759 37.8419C21.7759 37.5427 21.7759 37.1699 21.953 37.0522C22.0129 37.0254 22.0786 37.0142 22.1441 37.0198C22.2095 37.0254 22.2724 37.0475 22.3269 37.0841C22.3269 37.0841 22.3736 37.1209 22.3711 37.2435C22.3687 37.3661 22.3711 38.2441 22.3342 38.3765C22.4326 38.4771 22.6024 38.4354 22.7795 38.3937H22.8041L22.8286 37.6408C22.8286 37.6138 22.7819 36.9296 23.0008 36.8388C23.0554 36.8236 23.1128 36.8214 23.1684 36.8324C23.224 36.8435 23.2761 36.8676 23.3206 36.9026C23.4215 37.0301 23.4018 37.2925 23.3846 37.501ZM24.4939 37.4838C24.5308 36.9002 25.2097 36.7481 25.3253 36.7211C25.3223 36.6727 25.3351 36.6246 25.3616 36.5839C25.3882 36.5433 25.4272 36.5123 25.4729 36.4955C25.5219 36.4872 25.5724 36.4949 25.6167 36.5174C25.661 36.5399 25.6968 36.5761 25.7189 36.6206L25.8788 36.6059H25.9575C26.4273 36.6059 26.6954 36.7751 26.8504 37.1454C26.9087 37.2847 26.9323 37.436 26.919 37.5864C26.9057 37.7368 26.856 37.8817 26.7741 38.0087C26.6382 38.2009 26.4586 38.3585 26.25 38.4684C26.0414 38.5784 25.8097 38.6376 25.5738 38.6414H25.5C25.2306 38.6353 24.9734 38.5285 24.7792 38.3422C24.6768 38.2383 24.5982 38.1134 24.5489 37.9762C24.4996 37.839 24.4809 37.6928 24.4939 37.5476V37.4838ZM28.4099 39.7082C27.8104 40.1448 27.0908 40.3871 26.3486 40.4023C26.1815 40.4046 26.0152 40.3789 25.8566 40.3263C25.7584 40.2983 25.67 40.2435 25.6013 40.1681C25.5327 40.0927 25.4865 39.9997 25.468 39.8995C25.3893 39.4262 26.137 39.024 26.6634 38.8646C26.6704 38.8201 26.6861 38.7775 26.7098 38.7392C26.7334 38.7008 26.7645 38.6676 26.8012 38.6414C26.8321 38.6202 26.8669 38.6053 26.9037 38.5976C26.9404 38.5899 26.9783 38.5896 27.0152 38.5967C27.052 38.6038 27.0871 38.6181 27.1184 38.6388C27.1496 38.6595 27.1764 38.6863 27.1972 38.7174L27.2882 38.7027C27.9204 38.6022 28.5747 38.4992 28.6977 39.1344C28.7051 39.2469 28.6824 39.3593 28.6318 39.4602C28.5812 39.561 28.5046 39.6467 28.4099 39.7082ZM28.8797 37.4691C28.8231 37.5844 28.6337 37.6212 28.4714 37.6555C28.394 37.6694 28.3176 37.6882 28.2426 37.7119C28.2481 37.7559 28.2571 37.7994 28.2697 37.8419C28.3164 38.0406 28.3902 38.3324 28.1688 38.4207H28.1049C28.065 38.42 28.026 38.409 27.9917 38.3888C27.822 38.2833 27.7457 37.9474 27.6719 37.6531C27.6523 37.5721 27.635 37.4936 27.6154 37.425L27.2612 36.1497C27.2454 36.0873 27.2549 36.0212 27.2875 35.9657C27.3202 35.9101 27.3735 35.8697 27.4358 35.8529C27.515 35.823 27.6025 35.823 27.6818 35.8529C27.7031 35.8664 27.7212 35.8843 27.7348 35.9055C27.7484 35.9267 27.7572 35.9506 27.7605 35.9756L27.9228 36.5544C28.0223 36.5486 28.1206 36.5305 28.2155 36.5004C28.3274 36.4524 28.4523 36.4437 28.5698 36.4759C28.5865 36.4871 28.6008 36.5016 28.6118 36.5184C28.6227 36.5353 28.6302 36.5542 28.6337 36.574C28.639 36.5944 28.6398 36.6157 28.636 36.6365C28.6322 36.6573 28.6238 36.6769 28.6116 36.6941C28.5501 36.7873 28.3828 36.8192 28.2328 36.8486C28.1605 36.8589 28.0896 36.877 28.0212 36.9026C28.0409 36.9688 28.0606 37.0448 28.0827 37.1209L28.1393 37.3367C28.2099 37.3236 28.2798 37.3064 28.3484 37.2852C28.5353 37.2337 28.7272 37.1797 28.8231 37.2607C28.8515 37.2874 28.8715 37.3218 28.8807 37.3597C28.8899 37.3976 28.8878 37.4373 28.8748 37.474L28.8797 37.4691ZM32.3234 36.0271L32.2865 36.39C32.2863 36.4257 32.2742 36.4602 32.252 36.4881C32.053 36.6128 31.8469 36.7258 31.6346 36.8266C31.3965 36.9379 31.1678 37.0683 30.9508 37.2165C30.893 37.2614 30.8403 37.3124 30.7934 37.3686C30.7521 37.4351 30.6964 37.4916 30.6305 37.534C30.5645 37.5765 30.4899 37.6037 30.4121 37.6138C30.3831 37.6132 30.3547 37.6055 30.3294 37.5914C30.3041 37.5773 30.2827 37.5572 30.267 37.5329C30.2248 37.4299 30.2248 37.3146 30.267 37.2116L29.8144 36.5421L29.3224 35.8628C29.2866 35.8664 29.2504 35.8621 29.2164 35.8502C29.1824 35.8384 29.1514 35.8192 29.1257 35.7941C29.0875 35.7518 29.0673 35.6964 29.0691 35.6396C29.1527 35.4409 29.4577 35.1981 29.9989 34.9038L30.0776 34.8597C30.3236 34.715 30.5696 34.5777 30.7319 34.7518C30.786 34.9063 30.6852 34.9701 30.4416 35.1246L30.3433 35.1883C30.2695 35.2349 30.1834 35.2815 30.0973 35.3281C29.9957 35.3815 29.8972 35.4405 29.8021 35.5047C29.7959 35.5063 29.7903 35.5094 29.7855 35.5136C29.7808 35.5179 29.7772 35.5233 29.775 35.5292C29.775 35.5292 29.775 35.5292 29.775 35.5464C29.8587 35.6813 30.5843 36.8511 30.6286 36.932C30.6358 36.9341 30.6435 36.9341 30.6507 36.932C30.9853 36.7555 31.2361 36.596 31.4772 36.4415C31.7316 36.2747 31.9943 36.1208 32.2643 35.9805C32.2687 35.9776 32.2739 35.9761 32.2791 35.9761C32.2843 35.9761 32.2895 35.9776 32.2939 35.9805C32.2939 35.9805 32.3455 35.9756 32.3357 36.0295L32.3234 36.0271ZM34.4093 36.5764C34.391 36.6054 34.3661 36.6296 34.3366 36.6471C34.307 36.6646 34.2738 36.6748 34.2395 36.677C34.0944 36.677 33.9591 36.5028 33.8853 36.4097L33.8607 36.3802C33.6314 36.0866 33.425 35.7759 33.2433 35.4507C33.108 35.2227 32.9801 35.0068 32.8448 34.8205C32.7801 34.8539 32.7176 34.8916 32.6579 34.9333C32.5795 34.9865 32.4972 35.0341 32.4119 35.0755C32.5536 35.3473 32.7182 35.6065 32.9039 35.8505C33.1966 36.2699 33.4499 36.6328 33.3368 36.8781C33.3205 36.9005 33.2991 36.9187 33.2742 36.9311C33.2494 36.9435 33.2219 36.9497 33.1941 36.9492C33.1002 36.9304 33.0173 36.8759 32.9629 36.7971L31.3149 34.2834C31.2883 34.2344 31.2579 34.1877 31.2239 34.1436C31.1279 34.0087 31.0271 33.8689 31.1919 33.6948C31.2254 33.666 31.2646 33.6445 31.307 33.6318C31.3494 33.6192 31.394 33.6155 31.4379 33.6212C31.5781 33.6531 31.6838 33.8247 31.7625 33.9915C31.7921 34.0455 31.8216 34.0994 31.8536 34.1509C31.9175 34.2539 31.9716 34.3471 32.0159 34.433C32.0784 34.5542 32.1526 34.6692 32.2373 34.7763C32.2899 34.737 32.345 34.7009 32.4021 34.6684C32.4904 34.6227 32.573 34.5667 32.6481 34.5016C32.5564 34.315 32.4468 34.1376 32.3209 33.9719C32.0749 33.6236 31.829 33.2607 31.9815 32.9909C32.0146 32.9607 32.0534 32.9374 32.0956 32.9222C32.1378 32.907 32.1826 32.9004 32.2274 32.9026C32.2604 32.906 32.2921 32.9169 32.3202 32.9343C32.3483 32.9517 32.3721 32.9753 32.3898 33.0032C32.6604 33.4642 32.9457 33.9106 33.2212 34.3422C33.5926 34.9308 33.9591 35.4851 34.2617 36.059C34.2813 36.0957 34.3035 36.1301 34.3256 36.1644C34.3722 36.2222 34.405 36.2897 34.4216 36.3619C34.4382 36.4341 34.4382 36.5091 34.4216 36.5813L34.4093 36.5764ZM34.6552 33.2411C34.5395 33.2759 34.4194 33.2941 34.2986 33.295C34.2031 33.3007 34.1082 33.2758 34.028 33.2239C33.9385 33.1262 33.8755 33.0074 33.8449 32.8786C33.8144 32.7499 33.8173 32.6155 33.8533 32.4881C33.918 32.3297 34.0005 32.1791 34.0993 32.0393C34.0913 32.0401 34.0832 32.0384 34.0762 32.0345C34.0691 32.0305 34.0635 32.0245 34.06 32.0173C34.0514 31.9835 34.0514 31.9481 34.06 31.9143C33.9655 32.0138 33.8768 32.1186 33.7943 32.2282C33.6216 32.4616 33.4032 32.6576 33.1523 32.8045C33.1332 32.8163 33.1105 32.8207 33.0884 32.8168C33.0739 32.8084 33.0614 32.7971 33.0516 32.7836C33.0419 32.7701 33.0351 32.7546 33.0318 32.7383V32.7211C33.0096 32.4514 33.2458 32.2306 33.4549 32.0467C33.5188 31.9903 33.5779 31.9388 33.627 31.8873C33.7992 31.7034 33.9468 31.5439 34.1411 31.3551C34.2149 31.2815 34.2863 31.203 34.3527 31.1246C34.4373 31.0261 34.5276 30.9328 34.6233 30.845C34.6706 30.7914 34.7284 30.7479 34.7931 30.7171C34.8578 30.6864 34.928 30.669 34.9996 30.666C35.0064 30.6686 35.0124 30.6729 35.0171 30.6785C35.0219 30.6841 35.0251 30.6907 35.0267 30.6978C35.0273 30.7882 35.0062 30.8773 34.9652 30.9578C34.8637 31.1366 34.7313 31.296 34.5741 31.4287C34.4873 31.5124 34.4052 31.6008 34.3281 31.6935L34.2518 31.7696C34.2734 31.7762 34.2935 31.7871 34.3109 31.8015L34.3404 31.8211L34.3601 31.8039L34.3847 31.7843C34.5648 31.6403 34.7665 31.5252 34.9824 31.4434C35.0389 31.4101 35.1018 31.3891 35.167 31.3817C35.2322 31.3744 35.2982 31.3809 35.3607 31.4008C35.4232 31.4207 35.4808 31.4536 35.5296 31.4973C35.5784 31.541 35.6174 31.5945 35.6441 31.6543C35.6526 31.6654 35.6592 31.6779 35.6637 31.6911C35.7232 31.813 35.7388 31.9515 35.708 32.0835C35.6366 32.3391 35.5098 32.576 35.3366 32.7775C35.1691 32.9916 34.9463 33.1561 34.6921 33.2533L34.6552 33.2411ZM38.0989 32.4857C37.8677 32.6549 37.6414 32.4538 37.4225 32.2576C37.3301 32.163 37.226 32.0806 37.1125 32.0124C37.0978 32.0124 37.0535 32.0369 37.024 32.0688L35.3022 33.9277C35.2876 33.9443 35.2699 33.9578 35.25 33.9675C35.2302 33.9772 35.2086 33.9828 35.1865 33.9842C35.1728 33.9874 35.1585 33.9874 35.1447 33.9842C34.9676 33.7389 35.1226 33.5476 35.2579 33.3882L35.3415 33.2877C35.4496 33.1451 35.5663 33.0091 35.6908 32.8805L35.799 32.7653L36.8125 31.6788C36.8257 31.5481 36.8881 31.4271 36.9871 31.3404C37.0978 31.2398 37.2577 31.3796 37.265 31.3845C37.2724 31.3894 37.8947 31.9707 38.1333 32.2306C38.1618 32.2684 38.1766 32.3147 38.1753 32.3619C38.174 32.4091 38.1566 32.4545 38.126 32.4906L38.0989 32.4857ZM40.6054 26.2466C40.0028 27.2226 39.5165 28.2654 39.1566 29.3539C39.132 29.4225 39.1099 29.4937 39.0902 29.5648C39.0676 29.7133 39.0141 29.8554 38.9332 29.9821C38.8523 30.1088 38.7457 30.2172 38.6204 30.3005H38.5835C38.573 30.3004 38.5627 30.298 38.5533 30.2933C38.5439 30.2886 38.5357 30.2819 38.5294 30.2736C38.4113 30.1362 38.5294 29.425 38.6696 29.1822C38.5389 29.1126 38.4033 29.0527 38.2637 29.0032C37.9415 28.8806 37.6094 28.7579 37.5479 28.5397C37.5375 28.4867 37.5396 28.4321 37.5541 28.3802C37.5687 28.3282 37.5952 28.2804 37.6316 28.2405C37.675 28.1802 37.7387 28.1375 37.8111 28.1203C37.854 28.1126 37.898 28.1139 37.9403 28.124C37.9826 28.1341 38.0224 28.1529 38.0571 28.1791C38.1521 28.2729 38.2523 28.3613 38.3572 28.444C38.5464 28.5366 38.7475 28.6026 38.9549 28.6402C38.9746 28.6402 39.0041 28.6206 39.0336 28.5789C39.1282 28.441 39.1827 28.2798 39.191 28.1129C39.0466 27.9807 38.869 27.8901 38.677 27.8505C38.3916 27.7524 38.0965 27.6519 37.9858 27.463C37.9723 27.4109 37.9697 27.3566 37.9781 27.3034C37.9866 27.2503 38.0059 27.1994 38.035 27.154C38.0702 27.1119 38.1147 27.0784 38.1651 27.0563C38.2154 27.0342 38.2702 27.024 38.3252 27.0265C38.48 27.0548 38.623 27.1282 38.736 27.2374C38.736 27.2374 39.191 27.5587 39.3829 27.5243C39.427 27.4771 39.4605 27.4211 39.4813 27.36C39.7811 26.7697 40.0472 26.163 40.2783 25.5427C40.2783 25.5427 40.2783 25.4961 40.3152 25.4888C40.3234 25.4871 40.332 25.4879 40.3398 25.4909C40.3476 25.494 40.3545 25.4992 40.3594 25.5059L40.6177 26.1828L40.6054 26.2466Z" fill="white"/>
<path d="M10.6921 34.6316C10.5667 34.5311 10.2543 34.3226 10.0378 34.5458C9.92961 34.791 10.1805 35.1368 10.4757 35.3158C10.6725 35.4336 10.9332 35.4973 11.0734 35.3158C11.1644 35.1908 10.975 34.8548 10.6921 34.6316Z" fill="white"/>
<path d="M28.0237 39.0829C27.5981 38.9063 26.5011 39.2889 26.2699 39.4532C26.1272 39.5586 25.9452 39.6984 26.0239 39.8799C26.1149 40.1252 26.6561 40.0737 27.0939 39.9584C27.6523 39.8112 28.2328 39.512 28.1959 39.2791C28.1886 39.2335 28.1685 39.191 28.1381 39.1563C28.1076 39.1216 28.068 39.0961 28.0237 39.0829Z" fill="white"/>
<path d="M26.2404 37.9719C26.3366 37.8777 26.3984 37.7539 26.4158 37.6205C26.4332 37.4871 26.4052 37.3518 26.3363 37.2361C26.2108 37.0105 25.7115 36.8952 25.3524 37.0816C25.2579 37.1375 25.1794 37.2167 25.1247 37.3117C25.0699 37.4066 25.0408 37.5141 25.04 37.6236C25.0307 37.7217 25.0472 37.8205 25.0877 37.9104C25.1282 38.0002 25.1915 38.078 25.2712 38.1362C25.4297 38.2132 25.6084 38.2388 25.7823 38.2093C25.9561 38.1798 26.1163 38.0968 26.2404 37.9719Z" fill="white"/>
</svg>
