<svg width="22" height="23" viewBox="0 0 22 23" fill="none" xmlns="http://www.w3.org/2000/svg">
<path fill-rule="evenodd" clip-rule="evenodd" d="M16.2377 10.235C16.2377 13.5223 13.5728 16.1872 10.2855 16.1872C6.99825 16.1872 4.33337 13.5223 4.33337 10.235C4.33337 6.94771 6.99825 4.28284 10.2855 4.28284C13.5728 4.28284 16.2377 6.94771 16.2377 10.235ZM15.2862 18.8415C13.8168 19.6971 12.1084 20.1872 10.2855 20.1872C4.78911 20.1872 0.333374 15.7314 0.333374 10.235C0.333374 4.73857 4.78911 0.282837 10.2855 0.282837C15.782 0.282837 20.2377 4.73857 20.2377 10.235C20.2377 12.4601 19.5075 14.5146 18.2736 16.172L20.8319 18.7303C21.6129 19.5114 21.6129 20.7777 20.8319 21.5587C20.0508 22.3398 18.7845 22.3398 18.0035 21.5587L15.2862 18.8415Z" fill="#4167D0"/>
</svg>
