<svg width="472" height="471" viewBox="0 0 472 471" fill="none" xmlns="http://www.w3.org/2000/svg">
<path d="M227.581 124.444L227.129 135.071C227.129 135.071 228.652 136.814 225.353 136.814H174.85C172.082 136.885 169.408 137.837 167.221 139.532C165.034 141.226 163.449 143.574 162.697 146.232C160.047 155.651 136.896 257.227 136.896 257.227C136.896 257.227 147.245 266.083 165.348 263.244C165.348 263.244 165.771 263.469 166.222 260.826C166.673 258.183 176.148 198.665 177.924 189.022C179.701 179.379 182.548 161.442 183.225 159.249C184.325 157.928 184.325 158.153 185.65 158.153L203.753 158.378C203.753 158.378 204.402 157.928 204.402 159.474C204.402 161.02 195.181 247.528 195.181 247.528C195.181 247.528 194.758 249.299 195.858 248.849C196.958 248.4 212.777 241.399 223.435 241.399C223.435 241.399 224.31 241.202 224.535 239.234C224.761 237.266 227.355 159.755 227.355 159.755C227.355 159.755 227.129 158.434 228.878 158.434H246.332C246.332 158.434 248.08 158.209 248.08 160.402C248.08 162.595 250.534 240.528 250.534 240.528C250.534 240.528 250.534 241.202 251.831 241.399C253.128 241.596 273.233 245.56 277.66 249.074L279.183 249.496L271.682 158.603L290.687 158.378C290.687 158.378 291.787 157.703 292.21 159.699C292.633 161.695 307.663 262.597 307.663 262.597C307.663 262.597 307.437 263.666 309.185 264.34C310.934 265.015 328.191 265.858 336.114 258.717L336.34 257.199L312.513 147.554C312.513 147.554 312.287 137.067 296.412 136.842C280.536 136.617 248.306 136.842 248.306 136.842L247.432 116.038C247.029 115.648 246.498 115.419 245.937 115.391L229.019 115.194C229.019 115.194 228.144 114.969 228.144 116.263C228.144 117.556 227.721 124.697 227.721 124.697" fill="#EFF4FE"/>
<path d="M0.841306 228.382L26.0784 237.716L0.700316 237.294L0.615723 242.186L62.8203 243.17L62.8767 238.307L41.8692 237.969L35.6375 235.551L63.0458 228.86L63.1304 222.506L26.3322 232.009L0.925899 222.085L0.841306 228.382Z" fill="#EFF4FE"/>
<path d="M5.97332 208.871C2.67417 206.453 1.20788 203.979 1.60265 201.421C1.99742 198.862 4.05586 196.922 7.89078 195.517C13.8123 193.38 23.033 193.193 35.5529 194.954C47.96 196.726 56.6731 199.481 61.7769 203.192C65.1043 205.638 66.5988 208.112 66.2322 210.642C65.8656 213.172 63.7226 215.14 59.8313 216.602C53.9097 218.739 44.7454 218.908 32.3383 217.165C19.9313 215.421 11.0489 212.582 5.97332 208.871ZM50.3004 212.554C53.2894 211.851 54.8966 210.698 55.1504 209.04C55.4042 207.381 54.1635 205.863 51.5129 204.373C46.2703 201.873 40.631 200.303 34.848 199.734C29.1315 198.678 23.2765 198.602 17.5345 199.509C14.5455 200.212 12.9382 201.364 12.6844 202.995C12.4306 204.626 13.6713 206.2 16.3501 207.69C21.6804 210.185 27.4054 211.735 33.2689 212.273C38.963 213.348 44.7997 213.443 50.526 212.554" fill="#EFF4FE"/>
<path d="M6.84746 181.291L10.062 169.82C10.7952 167.234 13.5022 165.997 18.1548 165.997C21.8311 166.019 25.4858 166.559 29.011 167.599C31.9518 168.382 34.7909 169.505 37.4704 170.945C39.3931 171.835 41.0252 173.248 42.1794 175.021C43.6722 174.311 45.322 173.991 46.973 174.094C50.7996 174.491 54.5775 175.263 58.2522 176.399C62.9613 177.692 65.8938 178.479 67.0781 178.732C68.1565 179.101 69.3272 179.101 70.4055 178.732L71.9282 179.154L70.4619 184.412C68.8828 184.187 67.2473 183.849 65.5273 183.427C63.8072 183.006 61.1566 182.331 58.2522 181.544C55.3429 180.615 52.3488 179.975 49.3135 179.632C48.5426 179.541 47.7649 179.733 47.1262 180.173C46.4876 180.613 46.0321 181.271 45.8451 182.022L44.4352 186.942L67.9241 193.436L66.5988 198.075L6.84746 181.291ZM36.2297 178.479C36.3948 177.887 36.3723 177.259 36.1653 176.68C35.9584 176.101 35.577 175.601 35.0735 175.246C33.2198 173.915 31.1216 172.959 28.8982 172.435C27.1608 171.905 25.3573 171.621 23.5406 171.591C21.5949 171.591 20.467 172.266 20.1287 173.475L18.465 179.379L34.6788 183.877L36.2297 178.479Z" fill="#EFF4FE"/>
<path d="M15.335 153.598L72.8305 177.102L79.6544 160.739L69.5314 156.578L64.5685 168.527L49.5955 162.398L53.9661 151.911L43.8995 147.779L39.557 158.293L27.3755 153.317L32.141 141.847L21.9615 137.658L15.335 153.598Z" fill="#EFF4FE"/>
<path d="M81.9384 156.522L79.4006 161.02L29.293 123.46L32.1128 118.512L90.5388 141.34L88.0292 145.951L75.9041 141.116L71.5334 148.847L81.9384 156.522ZM62.8485 142.465L65.8374 137.151L42.9126 127.817L62.8485 142.465Z" fill="#EFF4FE"/>
<path d="M109.826 116.937L106.865 120.452L69.616 89.9195L104.046 123.853L101.028 127.48L61.0156 100.294L60.931 100.35L98.2086 130.882L95.276 134.396L47.3114 95.0925L51.9077 89.554L90.9335 115.981H90.9618L57.3217 83.0596L61.8615 77.6336L109.826 116.937Z" fill="#EFF4FE"/>
<path d="M113.83 113.226L110.024 116.712L73.9302 65.7131L78.1035 61.9739L126.66 101.334L122.741 104.989L112.843 96.695L106.301 102.74L113.83 113.226ZM100.013 94.0242L104.497 89.8914L85.576 74.0349L100.013 94.0242Z" fill="#EFF4FE"/>
<path d="M90.99 50.8688L100.718 43.9246C102.918 42.3502 105.85 42.9968 109.544 45.8645C112.378 48.1659 114.882 50.8428 116.988 53.8208C118.842 56.2852 120.385 58.9667 121.585 61.8052C122.551 63.685 122.943 65.8062 122.713 67.906C124.326 68.2422 125.818 69.01 127.027 70.1271C129.785 72.7697 132.261 75.6905 134.415 78.8425C137.234 82.7785 139.067 85.1682 139.857 86.1241C140.646 87.0799 141.774 88.0358 142.479 88.1202L143.41 89.3853L138.926 92.5903C137.855 91.4377 136.783 90.1444 135.712 88.7668C134.64 87.3892 132.892 85.1963 131.228 82.7785C129.531 80.2489 127.585 77.8944 125.42 75.7499C124.877 75.196 124.148 74.8612 123.373 74.8093C122.598 74.7574 121.83 74.9922 121.218 75.4688L117.045 78.4489L131.285 98.1289L127.337 100.94L90.99 50.8688ZM115.719 66.8658C116.226 66.5143 116.61 66.0137 116.817 65.434C117.025 64.8543 117.045 64.2245 116.876 63.6327C116.216 61.4795 115.143 59.4745 113.717 57.7287C112.698 56.2346 111.474 54.8907 110.08 53.7364C108.529 52.5838 107.26 52.3588 106.217 53.0898L101.198 56.6884L111.039 70.2395L115.719 66.8658Z" fill="#EFF4FE"/>
<path d="M150.318 85.6742L146.06 88.1764L114.422 35.0405L118.652 32.5383L150.318 85.6742Z" fill="#EFF4FE"/>
<path d="M163.12 79.0955L158.665 81.2322L136.389 35.5465L129.79 38.6953L124.997 28.8272L142.592 20.3929L147.414 30.2329L140.816 33.3817L163.12 79.0955Z" fill="#EFF4FE"/>
<path d="M176.401 73.6132L171.777 75.3844L149.444 17.7783L154.069 16.0071L176.401 73.6132Z" fill="#EFF4FE"/>
<path d="M177.67 8.64118L186.186 54.7486H186.158L169.493 10.8903L162.528 12.774L179.052 72.2918L183.507 71.0829L170.649 24.835L170.762 24.8069L187.765 69.9021L192.361 68.637L183.789 21.2645L196.619 67.4562L201.074 66.2754L184.522 6.75752L177.67 8.64118Z" fill="#EFF4FE"/>
<path d="M194.279 4.9301L203.161 66.0505L220.841 63.5202L219.29 52.7524L206.376 54.5799L204.063 38.6953L215.427 37.0647L213.876 26.4094L202.513 28.04L200.652 15.0793L213.03 13.3081L211.451 2.48416L194.279 4.9301Z" fill="#EFF4FE"/>
<path d="M250.111 63.3234H244.471L243.118 57.8411C242.403 59.5216 241.454 61.0929 240.298 62.5081C239.8 63.1533 239.159 63.6744 238.425 64.0306C237.691 64.3867 236.884 64.5681 236.068 64.5604C233.897 64.5604 232.149 62.6768 230.851 58.9376C229.508 54.9764 228.916 50.8008 229.103 46.6235C229.106 43.6103 229.418 40.6052 230.034 37.6551C230.789 34.4504 232.127 31.4108 233.981 28.6866L234.658 27.9838C234.083 26.1433 233.64 24.2643 233.333 22.3609C232.917 19.8057 232.737 17.2176 232.797 14.6295C232.712 10.9905 233.344 7.37029 234.658 3.97421C235.871 1.35959 237.478 0.122559 239.254 0.122559C241.031 0.122559 241.99 1.33147 243.118 3.63684C244.455 7.22856 245.031 11.0577 244.809 14.8825C244.82 18.4005 244.248 21.8961 243.118 25.2286C242.528 26.8987 241.742 28.4935 240.777 29.9799L243.907 40.832C244.217 39.3138 244.499 38.0206 244.697 36.5305C244.95 34.7312 245.12 32.8194 245.232 30.7671H249.321C249.147 34.1937 248.798 37.6092 248.278 41.0007C247.795 43.8526 247.127 46.67 246.276 49.435L250.111 63.3234ZM236.829 35.659C235.927 37.118 235.171 38.6624 234.574 40.2697C234.044 42.0964 233.787 43.9911 233.812 45.8926C233.737 47.5983 233.928 49.3054 234.376 50.9531C234.997 53.1742 235.899 54.2706 237.196 54.2987C237.901 54.2987 238.606 53.8208 239.311 52.8649C239.976 51.942 240.526 50.9411 240.946 49.8848L236.829 35.659ZM240.298 10.6092C239.988 9.70952 239.536 9.25969 238.916 9.25969C238.296 9.25969 237.929 9.68141 237.591 10.5811C237.118 11.8869 236.898 13.2701 236.942 14.6576C236.924 15.9204 237.028 17.182 237.252 18.4249C237.554 19.9315 237.959 21.4157 238.465 22.867C239.125 21.756 239.663 20.5778 240.072 19.3527C240.537 17.8781 240.784 16.3438 240.805 14.7982C240.889 13.3828 240.717 11.9639 240.298 10.6092Z" fill="#EFF4FE"/>
<path d="M269.934 7.48849C272.331 4.25535 274.699 2.93398 276.955 3.27135C279.211 3.60873 281.044 5.77352 282.172 9.59706C283.939 15.5011 283.751 24.6382 281.608 37.0085C279.436 49.2382 276.532 57.8692 272.866 62.8173C270.554 66.0036 268.223 67.4374 265.873 67.1188C263.533 66.6971 261.785 64.5604 260.628 60.6807C258.852 54.8048 259.078 45.7239 261.221 33.4661C263.364 21.2082 266.296 12.4366 269.934 7.48849ZM264.717 51.3186C265.253 54.2987 266.296 55.9012 267.791 56.1824C269.285 56.4635 270.808 55.2546 272.302 52.64C274.828 47.4696 276.495 41.9245 277.237 36.2213C278.49 30.5566 278.813 24.727 278.196 18.9591C277.66 16.1477 276.673 14.3765 275.15 14.1235C273.628 13.8704 272.133 15.0512 270.611 17.6659C268.1 22.8914 266.434 28.4804 265.676 34.2251C264.433 39.8337 264.099 45.6048 264.689 51.3186" fill="#EFF4FE"/>
<path d="M300.613 31.4418C301.078 29.2302 301.342 26.9814 301.403 24.7225C301.403 21.9111 300.528 20.3929 299.006 19.9712C297.483 19.5495 296.186 20.5616 294.438 22.7826C291.45 27.7033 289.234 33.0506 287.868 38.6391C286.429 43.2884 285.484 48.0753 285.048 52.9211C284.794 57.2507 285.555 59.6967 287.332 60.2027C288.544 60.5401 289.813 59.8654 291.11 58.1785C292.838 55.7679 294.197 53.115 295.143 50.3065L299.542 51.5717C297.766 56.878 295.24 61.9049 292.041 66.5003C289.221 70.1833 286.599 71.6733 284.089 70.9424C281.579 70.2114 279.775 66.9783 279.465 61.2148C279.601 53.0836 280.96 45.0187 283.497 37.2896C285.497 29.4423 288.682 21.9438 292.943 15.0512C296.186 10.2999 299.231 8.36004 302.051 9.14723C304.871 9.93443 306.45 12.9989 306.76 18.2281C306.903 23.105 306.313 27.9757 305.012 32.6789L300.613 31.4418Z" fill="#EFF4FE"/>
<path d="M328.726 31.8636L318.039 27.534L313.076 39.6512L322.861 43.5872L318.744 53.5678L308.96 49.6318L302.841 64.5042L313.979 69.0025L309.862 79.0674L294.579 72.8822L318.039 15.726L332.871 21.7143L328.726 31.8636Z" fill="#EFF4FE"/>
<path d="M313.443 80.9229L309.213 78.6738L345.871 28.0681L350.495 30.5422L327.937 88.5419L323.594 86.2365L328.416 74.3161L320.916 70.4082L313.443 80.9229ZM327.091 61.6647L332.11 64.3355L341.331 41.563L327.091 61.6647Z" fill="#EFF4FE"/>
<path d="M374.379 45.6958L377.847 48.0855L342.318 98.7474L338.652 96.189L356.642 55.114L356.586 55.0859L331.292 91.1565L327.796 88.7387L363.297 38.0487L367.273 40.8039L349.565 81.0354H349.621L374.379 45.6958Z" fill="#EFF4FE"/>
<path d="M377.537 100.968C373.558 105.536 368.781 109.346 363.438 112.214C359.744 113.873 356.896 113.732 354.979 111.792C354.504 111.327 354.13 110.771 353.877 110.157C353.625 109.544 353.501 108.885 353.512 108.222C353.451 105.883 354.026 103.57 355.176 101.531C356.226 99.5505 357.453 97.6686 358.842 95.9078C360.522 93.7059 362.339 91.612 364.284 89.6383L392.566 59.9778L395.978 63.1828L368.232 91.9999C365.957 94.1819 364.053 96.7169 362.592 99.5064C361.718 101.418 361.718 102.768 362.592 103.611C363.466 104.455 365.214 104.651 367.16 103.611C369.704 102.111 371.989 100.213 373.928 97.9883L402.125 68.7495L405.509 71.9545L377.537 100.968Z" fill="#EFF4FE"/>
<path d="M420.059 88.8512L422.794 92.0843L375.027 131.613L372.151 128.183L400.462 93.2932L400.377 93.237L366.399 121.379L363.692 118.146L411.431 78.5894L414.532 82.2724L386.729 116.431L386.758 116.459L420.059 88.8512Z" fill="#EFF4FE"/>
<path d="M379.229 137.77L376.606 134.087L427.391 98.4662L430.041 102.177L379.229 137.77Z" fill="#EFF4FE"/>
<path d="M440.757 118.962L443.182 122.982L384.812 149.325L382.584 145.642L433.481 106.929L435.991 111.09L396.768 139.822V139.85L440.757 118.962Z" fill="#EFF4FE"/>
<path d="M443.041 147.779L438.134 137.433L426.206 142.999L430.718 152.474L420.877 157.084L416.365 147.582L401.731 154.414L406.835 165.209L396.937 169.848L389.916 155.032L446.199 128.745L453.023 143.14L443.041 147.779Z" fill="#EFF4FE"/>
<path d="M456.068 150.478L459.677 160.88C460.495 163.213 458.972 165.687 455.109 168.246C452.029 170.223 448.714 171.81 445.24 172.969C442.327 174 439.311 174.716 436.245 175.106C434.197 175.494 432.082 175.319 430.126 174.6C429.263 175.974 428.071 177.114 426.658 177.917C423.264 179.725 419.704 181.203 416.027 182.331C411.431 183.905 408.555 184.946 407.568 185.396C406.46 185.712 405.476 186.36 404.748 187.251L403.253 187.785L401.59 183.006C403.028 182.331 404.579 181.684 406.214 181.038C407.85 180.391 410.444 179.492 413.292 178.508C416.213 177.63 419.045 176.481 421.751 175.078C422.433 174.769 422.973 174.216 423.266 173.529C423.558 172.841 423.581 172.07 423.33 171.366L421.779 166.953L398.742 174.825L397.304 170.607L456.068 150.478ZM433.228 168.611C433.439 169.177 433.827 169.661 434.334 169.99C434.842 170.319 435.443 170.476 436.047 170.439C438.312 170.38 440.548 169.913 442.646 169.061C444.379 168.532 446.03 167.766 447.552 166.784C449.131 165.687 449.723 164.591 449.357 163.523L447.496 158.153L431.592 163.607L433.228 168.611Z" fill="#EFF4FE"/>
<path d="M422.992 188.488C421.015 188.899 419.113 189.61 417.352 190.597C415.153 191.862 414.251 193.408 414.533 195.123C414.65 195.699 414.907 196.239 415.28 196.694C415.654 197.15 416.132 197.508 416.676 197.738C418.803 198.419 421.09 198.419 423.217 197.738C424.975 197.448 426.621 196.69 427.983 195.545C428.833 194.603 429.451 193.477 429.788 192.255L430.887 189.641C431.255 188.68 431.679 187.741 432.156 186.829C432.794 185.767 433.604 184.817 434.553 184.018C435.951 182.93 437.499 182.05 439.149 181.403C441.722 180.404 444.372 179.614 447.073 179.042C451.055 178.061 455.158 177.664 459.254 177.861C464.133 178.255 466.896 179.941 467.714 182.978C468.531 186.014 466.501 188.601 462.074 191.046C458.265 193.137 454.171 194.661 449.921 195.573L448.962 191.299C450.81 190.843 452.599 190.173 454.292 189.303C456.435 188.066 457.337 186.492 457.111 184.918C456.971 184.414 456.702 183.956 456.331 183.587C455.961 183.217 455.501 182.949 454.996 182.809C451.47 182.08 447.798 182.724 444.732 184.608C444.142 185.108 443.67 185.732 443.351 186.436L440.813 192.424C440.079 194.383 438.76 196.071 437.034 197.26C433.592 199.419 429.761 200.889 425.755 201.589C418.048 203.295 412.267 203.361 408.414 201.786C407.362 201.572 406.386 201.085 405.583 200.375C404.781 199.664 404.182 198.754 403.846 197.738C403.084 194.308 404.945 191.299 409.485 188.685C413.377 186.587 417.558 185.071 421.892 184.187L422.992 188.488Z" fill="#EFF4FE"/>
<path d="M407.483 208.027L408.132 212.526L469.716 203.698L469.039 199.2L407.483 208.027Z" fill="#EFF4FE"/>
<path d="M459.593 210.53L460.072 217.193L409.006 220.707L409.316 225.233L460.382 221.719L460.862 228.382L471.859 227.623L470.59 209.771L459.593 210.53Z" fill="#EFF4FE"/>
<path d="M433.03 239.515L409.57 238.756L409.4 243.283L432.636 244.07L471.351 252.448L471.52 247.359L444.479 242.214L471.802 238.447L472 233.105L433.03 239.515Z" fill="#EFF4FE"/>
<path d="M294.663 119.889L307.352 126.918L310.511 121.295L302.953 117.078L315.332 94.9801L310.229 92.1686L294.663 119.889ZM291.167 94.5864L289.559 103.021L286.571 101.896L291.167 94.5864ZM287.106 116.291L293.225 118.596L297.568 86.2646L292.097 84.2123L273.769 111.23L279.408 113.395L283.215 107.266L288.375 109.206L287.106 116.291ZM266.155 109.487L271.795 110.555L277.773 79.3766L272.133 78.3083L268.778 95.8797L265.676 77.0713L260.036 76.031L253.974 107.154L259.613 108.25L262.884 91.2409L266.155 109.487ZM241.426 100.659C238.606 100.659 237.957 97.8477 238.155 92.4217L238.324 88.3451C238.521 82.9753 239.452 80.0795 242.187 80.1638C244.922 80.2482 245.571 83.2564 245.373 88.5981V92.6747C245.148 98.0726 244.161 100.743 241.567 100.631M241.313 107.069C246.783 107.266 250.759 102.993 251.154 93.1526L251.323 88.57C251.69 78.7019 248.052 73.8944 242.582 73.6976C237.111 73.5008 233.051 78.0272 232.656 87.7547L232.487 92.3373C232.12 102.149 235.814 106.732 241.313 106.957M222.815 106.957L228.652 106.423L225.832 74.7659L219.995 75.272L222.815 106.957ZM208.716 109.15L214.356 108.053L209.562 83.144L215.907 81.935L214.92 75.525L196.704 78.983L197.916 85.3088L204.035 84.1561L208.716 109.15ZM187.68 92.506L192.023 100.097L189.006 101.165L187.68 92.506ZM198.65 111.68L204.825 109.515L187.201 81.935L181.562 83.8749L185.058 116.319L190.698 114.295L189.654 107.154L195.181 105.326L198.65 111.68ZM178.262 119.749L183.338 117.106L168.478 88.9917L163.374 91.6626L171.833 107.491L157.734 94.727L152.602 97.5385L167.434 125.653L172.651 122.841L164.445 107.491L178.262 119.749Z" fill="#EFF4FE"/>
<path d="M204.43 356.611L204.599 349.302L204.43 346.293H200.229C200.158 346.29 200.088 346.3 200.021 346.323C199.955 346.346 199.894 346.383 199.841 346.43C199.789 346.477 199.746 346.534 199.716 346.597C199.686 346.66 199.668 346.729 199.665 346.799V347.137C199.411 347.615 198.819 350.482 194.194 350.482C193.778 350.532 193.396 350.736 193.124 351.054C192.852 351.371 192.711 351.78 192.728 352.197C192.728 352.197 192.728 354.025 193.602 354.025H198.565C198.565 354.025 199.185 354.362 199.185 355.937V370.893H199.665V371.681C199.678 371.823 199.743 371.955 199.846 372.053C199.95 372.151 200.086 372.209 200.229 372.215H203.866C204.009 372.209 204.145 372.151 204.248 372.053C204.352 371.955 204.417 371.823 204.43 371.681V356.611Z" fill="#EFF4FE"/>
<path d="M226.199 354.615C226.204 355.651 225.902 356.664 225.329 357.528C224.756 358.392 223.939 359.066 222.981 359.466C222.023 359.866 220.967 359.974 219.948 359.776C218.929 359.577 217.992 359.081 217.255 358.351C216.519 357.621 216.017 356.689 215.812 355.674C215.607 354.659 215.71 353.606 216.106 352.649C216.502 351.692 217.174 350.873 218.037 350.297C218.9 349.721 219.915 349.414 220.954 349.414C221.641 349.41 222.323 349.542 222.959 349.802C223.595 350.062 224.174 350.444 224.661 350.927C225.148 351.411 225.535 351.985 225.799 352.618C226.063 353.251 226.199 353.93 226.199 354.615ZM231.274 359.985C232.008 343.819 220.193 345.281 220.193 345.281C218.714 345.247 217.247 345.563 215.915 346.205C214.583 346.846 213.423 347.794 212.53 348.971C211.638 350.147 211.039 351.518 210.782 352.971C210.526 354.424 210.619 355.917 211.055 357.326C211.491 358.736 212.257 360.022 213.289 361.079C214.322 362.135 215.591 362.932 216.993 363.403C218.395 363.874 219.89 364.006 221.353 363.788C222.816 363.57 224.207 363.009 225.409 362.15C225.409 362.15 225.409 362.375 225.409 362.515C225.508 363.354 225.407 364.204 225.113 364.995C224.818 365.787 224.34 366.498 223.717 367.07C219.46 371.568 215.568 366.001 215.568 366.001H211.057C211.79 369.994 216.048 373.592 223.323 372.383C230.598 371.175 231.274 359.985 231.274 359.985Z" fill="#EFF4FE"/>
<path d="M248.588 367.042L247.714 366.789L248.898 367.66L248.588 367.042ZM248.898 362.065L248.701 362.515L248.334 362.684L241.567 362.937L241.228 362.684V362.122C241.567 361.683 241.878 361.223 242.159 360.744L247.657 353.94L248.278 353.631L248.842 354.025L248.898 362.065ZM257.639 366.226V363.218C257.616 363.115 257.563 363.021 257.489 362.947C257.414 362.872 257.32 362.82 257.216 362.796H254.735L254.115 362.543L253.889 361.897V347.081C253.882 346.934 253.821 346.795 253.716 346.691C253.612 346.587 253.473 346.525 253.325 346.518H249.434C249.352 346.49 249.262 346.49 249.18 346.518C249.089 346.443 248.974 346.402 248.856 346.402C248.737 346.402 248.623 346.443 248.532 346.518L238.803 358.973C238.423 359.393 238.092 359.856 237.816 360.35C237.605 360.603 237.408 360.865 237.224 361.138C237.054 361.353 236.933 361.603 236.869 361.87C236.806 362.138 236.802 362.415 236.858 362.684C236.762 362.794 236.702 362.932 236.688 363.078V366.086C236.688 366.235 236.748 366.378 236.854 366.483C236.959 366.589 237.103 366.648 237.252 366.648H248.87V371.877C248.866 371.949 248.877 372.02 248.902 372.086C248.928 372.153 248.967 372.214 249.018 372.264C249.068 372.315 249.129 372.354 249.196 372.379C249.263 372.405 249.334 372.416 249.406 372.411H253.184C253.257 372.415 253.33 372.404 253.398 372.379C253.466 372.354 253.529 372.315 253.581 372.265C253.634 372.215 253.676 372.155 253.705 372.088C253.734 372.022 253.748 371.95 253.748 371.877V367.632L254.087 366.986L254.763 366.648H257.216C257.361 366.641 257.497 366.578 257.597 366.474C257.697 366.369 257.752 366.23 257.752 366.086" fill="#EFF4FE"/>
<path d="M268.326 355.88C268.326 355.88 268.326 355.374 268.326 354.84C268.429 353.892 268.599 352.953 268.834 352.029C268.834 350.96 270.357 350.539 270.357 350.539H279.775C280.226 350.539 280.282 350.033 280.282 350.033V347.221C280.282 346.631 279.606 346.546 279.606 346.546C279.606 346.546 267.452 346.546 266.353 346.546C265.253 346.546 265.281 347.812 265.281 347.812C265.281 347.812 263.251 359.057 263.194 359.873C263.17 360.066 263.22 360.261 263.336 360.418C263.451 360.575 263.623 360.682 263.815 360.716H267.706C273.12 356.921 275.912 361.335 275.912 361.335C276.411 362.023 276.724 362.829 276.819 363.673C276.913 364.518 276.787 365.372 276.452 366.154C276.117 366.935 275.584 367.617 274.907 368.132C274.229 368.647 273.429 368.979 272.584 369.094C271.483 369.33 270.334 369.18 269.332 368.667C268.329 368.155 267.536 367.312 267.086 366.283C267.041 366.131 266.965 365.991 266.863 365.87C266.761 365.749 266.635 365.65 266.494 365.58H262.856C262.697 365.584 262.542 365.627 262.404 365.705C262.267 365.784 262.151 365.895 262.067 366.03C264.886 376.91 281.636 375.588 282.2 363.893C281.213 351.691 268.439 355.993 268.439 355.993" fill="#EFF4FE"/>
<path d="M178.262 386.553V392.71C178.262 392.71 178.262 394.284 179.108 394.031L209.28 387.031C209.28 387.031 224.761 381.661 226.763 399.823C226.763 400.385 227.129 400.441 227.129 400.441H244.527C244.527 400.441 245.12 399.935 245.12 399.457C245.12 398.979 246.473 383.292 263.476 386.806C280.48 390.32 293.028 393.919 293.028 393.919V384.979L267.001 378.484C267.001 378.484 245.74 369.656 235.983 394.144C235.983 394.144 229.724 371.877 207.165 377.641C184.607 383.404 179.447 384.613 179.447 384.613C179.447 384.613 178.121 384.979 178.121 385.457C178.086 385.821 178.086 386.188 178.121 386.553" fill="#EFF4FE"/>
<path d="M394.061 357.342C392.566 356.358 388.421 358.579 385.968 361.728C385.009 362.937 382.979 366.001 385.179 368.138C387.998 369.319 392.087 366.479 394.089 363.134C395.583 360.688 395.555 358.523 394.061 357.342Z" fill="#EFF4FE"/>
<path d="M65.6401 370.837C65.0798 369.868 64.468 368.93 63.8072 368.026C63.3278 367.323 62.8203 366.592 62.0307 365.214C61.2412 363.837 60.1133 362.122 59.2109 360.603L57.6036 358.017L57.0115 357.174C56.1374 355.712 55.235 354.362 54.1917 353.884C53.1484 353.406 52.4998 354.362 51.3719 355.121C51.3719 355.121 51.1745 355.121 51.1745 355.346C51.214 355.569 51.2803 355.786 51.3719 355.993C53.5432 360.126 55.8836 364.174 59.0417 369.122L59.2955 369.544C61.0716 372.515 63.1403 375.303 65.4709 377.866C65.64 378.034 65.8092 378.203 66.0066 378.203C66.908 378.102 67.7506 377.706 68.4035 377.078C68.6276 376.9 68.7862 376.653 68.8546 376.376C68.3527 374.833 67.5582 373.402 66.5142 372.158C66.1992 371.734 65.9074 371.293 65.6401 370.837Z" fill="#EFF4FE"/>
<path d="M226.199 437.215H225.071C224.074 437.119 223.07 437.3 222.17 437.736C221.269 438.173 220.507 438.848 219.967 439.689C219.384 440.801 219.115 442.051 219.189 443.304C219.264 444.557 219.679 445.766 220.39 446.802C220.882 447.58 221.595 448.194 222.439 448.565C223.284 448.936 224.22 449.046 225.127 448.882C226.487 448.425 227.657 447.532 228.453 446.341C229.249 445.151 229.626 443.731 229.526 442.304C229.723 441.193 229.489 440.049 228.871 439.104C228.253 438.158 227.298 437.483 226.199 437.215Z" fill="#EFF4FE"/>
<path d="M395.076 252.701C349.395 256.581 344.038 292.736 296.383 269.57C247.291 245.925 234.151 247.865 200.511 257.509C176.712 264.256 158.721 291.752 119.836 265.69C92.1179 249.777 73.1689 249.299 60.6208 249.777C50.2004 250.333 40.0745 253.422 31.1258 258.774C21.3799 264.245 12.7673 271.515 5.74774 280.197C5.74774 280.197 19.5929 371.006 100.916 426.925C184.833 484.616 283.694 481.776 361.436 434.769C387.737 418.828 410.572 397.8 428.597 372.924C446.621 348.048 459.471 319.827 466.388 289.924V289.615C466.388 289.615 440.785 248.849 395.076 252.701ZM411.374 302.772C412.136 301.114 412.812 299.399 413.489 297.74C414.166 296.081 414.589 294.929 415.181 293.692C415.673 292.547 416.229 291.43 416.845 290.346C417.849 288.576 418.626 286.687 419.157 284.723C419.157 284.33 418.734 282.137 420.68 281.518C422.005 281.068 423.499 282.333 424.599 283.43C425.019 283.86 425.482 284.247 425.981 284.583C427.475 285.454 429.083 286.326 430.774 287.169L431.31 287.45C434.085 288.665 436.616 290.37 438.783 292.483L439.262 293.073C440.045 293.708 440.557 294.616 440.693 295.614C440.829 296.611 440.579 297.622 439.995 298.443C439.177 299.539 436.752 297.965 433.425 295.8C430.168 293.357 426.502 291.51 422.597 290.346C422.597 290.346 421.892 290.121 421.638 290.627L411.149 313.821C410.951 314.243 410.782 314.721 410.585 315.227C409.654 317.533 408.583 320.175 405.848 320.85C405.613 320.834 405.386 320.759 405.188 320.631C404.991 320.503 404.83 320.327 404.72 320.119C403.62 318.095 406.665 312.191 409.316 307.018C410.049 305.5 410.839 303.981 411.374 302.772ZM97.1089 336.172C115.55 345.619 144.256 347.249 144.256 347.249C180.687 348.261 197.832 340.108 222.505 326.051C242.92 314.44 257.047 331.337 271.597 338.084C287.931 344.867 305.449 348.36 323.143 348.36C340.837 348.36 358.356 344.867 374.689 338.084C374.689 338.084 328.726 407.442 240.016 407.076C139.462 406.627 97.1089 336.172 97.1089 336.172ZM233.615 422.68C233.164 423.298 231.895 423.383 231.754 423.383C230.739 423.383 226.114 423.383 222.73 423.383H218.501C215.343 423.383 215.286 421.724 215.286 421.668C215.991 418.856 222.11 419.053 227.101 419.643H228.68C230.88 419.643 233.361 419.925 233.897 421.893C233.925 422.037 233.914 422.186 233.865 422.325C233.815 422.464 233.729 422.586 233.615 422.68ZM117.778 378.569L118.821 379.496C120.795 381.183 122.487 382.645 124.461 384.501C125.391 385.372 126.406 386.188 127.281 387.003C128.523 387.955 129.7 388.988 130.805 390.095C131.463 390.642 132.003 391.314 132.396 392.072C132.788 392.83 133.024 393.659 133.089 394.509C133.063 394.592 133.015 394.667 132.951 394.726C132.886 394.785 132.808 394.827 132.723 394.847H132.384C131.41 394.828 130.45 394.608 129.565 394.2C127.345 393.065 125.341 391.552 123.643 389.73C122.605 388.65 121.483 387.654 120.288 386.75L117.186 383.938C115.945 382.786 114.704 381.858 113.492 380.93C110.558 378.976 108.069 376.428 106.189 373.452C106.111 373.348 106.056 373.23 106.027 373.104C105.997 372.978 105.995 372.848 106.019 372.721C106.019 372.327 106.612 372.158 106.978 372.018H107.204C110.587 371.652 113.294 374.408 115.663 376.826C116.453 377.332 117.129 378.006 117.778 378.569ZM116.594 370.5C117.919 369.066 120.062 370.921 120.852 371.624C121.641 372.327 122.487 372.974 123.333 373.62L125.109 375.054C126.465 376.229 127.755 377.477 128.973 378.793L129.17 378.99C131.99 381.802 133.146 383.629 132.779 384.332C132.746 384.389 132.701 384.438 132.648 384.477C132.594 384.515 132.533 384.543 132.469 384.557H131.792C129.1 384 126.631 382.671 124.686 380.733L123.981 380.171L123.079 379.496C121.033 378.093 119.24 376.353 117.778 374.351C117.017 373.424 115.72 371.512 116.594 370.5ZM370.008 354.503C370.741 353.716 371.474 352.872 372.179 352.057C372.884 351.241 372.997 351.101 373.42 350.651C374.647 349.343 375.946 348.104 377.311 346.94C380.131 344.55 381.738 343.454 382.471 343.679H382.669V343.876C383.007 346.237 380.751 348.824 378.778 351.101L378.214 351.776C377.992 351.997 377.785 352.231 377.593 352.479C376.164 354.387 374.43 356.049 372.461 357.398H372.264C371.419 357.966 370.454 358.332 369.444 358.467C369.138 358.473 368.839 358.374 368.598 358.186C368.454 358.058 368.338 357.902 368.255 357.728C368.173 357.554 368.127 357.366 368.119 357.174C368.203 356.33 369.36 355.093 370.008 354.503ZM263.364 317.336C245.853 304.825 223.012 307.215 212.297 315.874C142.31 360.857 82.023 311.066 82.023 311.066L75.2273 295.154C77.1617 294.858 79.1299 294.858 81.0643 295.154C84.448 295.66 96.122 303.363 96.122 303.363C108.755 313.006 150.572 328.919 187.511 313.006C243.428 279.269 260.431 299.483 276.955 309.632C327.542 332.77 360.59 315.874 376.606 305.303C392.623 294.732 395.584 297.093 395.584 297.093L397.05 298.049C395.376 303.438 393.086 308.617 390.226 313.484C330.531 352.085 280.846 329.875 263.364 317.336ZM394.766 332.236C396.486 332.236 398.573 334.457 400.575 336.594C401.558 337.784 402.718 338.817 404.015 339.658C404.928 339.154 405.718 338.453 406.327 337.606C407.539 336.172 408.921 334.542 410.923 335.694C412.023 337.353 410.5 338.787 409.062 340.193C408.279 340.861 407.595 341.637 407.032 342.498C407.854 343.848 408.984 344.985 410.331 345.815C412.277 347.249 414.11 348.627 412.841 350.932C412.532 351.255 412.16 351.512 411.748 351.686C411.335 351.86 410.892 351.948 410.444 351.944C408.047 351.944 405.312 349.47 402.802 347.221C402.069 346.575 401.392 345.956 400.716 345.394C400.039 344.831 398.77 343.876 397.614 343.032C394.202 340.446 390.649 337.803 390.677 335.919C390.733 333.501 392.059 332.264 394.766 332.236ZM74.748 264.762C93.2176 264.762 107.317 277.301 119.865 283.542C145.243 295.125 160.188 290.796 175.753 285.96C191.318 281.125 200.539 268.586 230.203 266.28C259.867 263.975 280.282 277.835 296.327 285.96C312.372 294.085 337.665 294.647 357.573 283.149C376.522 267.714 406.778 266.674 406.778 266.674L403.592 280.731C397.755 282.193 385.291 282.615 373.617 288.884C352.215 304.319 334.732 306.259 313.81 305.303C291.984 304.291 279.324 291.246 263.279 284.554C247.234 277.863 229.724 279.241 218.162 282.137C206.601 285.032 188.047 297.543 172.482 302.379C156.917 307.215 129.198 306.737 106.865 292.258C84.5326 277.779 69.8979 279.072 69.8979 279.072C68.9392 278.116 67.0781 264.79 67.0781 264.79L74.748 264.762ZM32.9305 275.839C33.17 275.649 33.4467 275.511 33.7429 275.433C34.0391 275.356 34.3483 275.341 34.6506 275.389C37.4321 276.86 39.571 279.303 40.6567 282.249C40.7713 282.52 40.9031 282.783 41.0515 283.036C41.9256 284.751 42.6024 286.466 43.2509 288.125C43.8995 289.784 44.3224 290.936 44.9428 292.117L45.2248 292.876C48.242 299.061 52.0205 308.311 52.4998 309.52C55.3793 309.599 58.2482 309.141 60.9592 308.17C61.8333 307.917 62.7357 307.636 63.779 307.383C63.9393 305.481 63.3643 303.591 62.1717 302.098C61.7425 301.391 61.3564 300.658 61.0156 299.905C60.649 299.118 51.5411 280.225 51.0899 278.538C50.9865 278.269 50.9454 277.98 50.9698 277.693C50.9943 277.405 51.0835 277.127 51.2309 276.879C51.4108 276.62 51.6831 276.439 51.9923 276.373C53.2048 275.389 55.235 277.217 55.3196 277.273C58.3086 280.084 62.0589 289.615 63.779 294.141L64.1174 295.013L69.0802 305.865C69.9825 306.353 70.6746 307.153 71.0258 308.114C71.1138 308.486 71.119 308.872 71.0411 309.246C70.9631 309.621 70.8039 309.973 70.5747 310.279C68.3873 312.086 65.7949 313.34 63.0176 313.934C60.2987 314.862 57.3874 315.085 54.5583 314.58C55.2296 316.577 56.1788 318.47 57.3781 320.203C57.8292 320.962 58.2804 321.722 58.7316 322.565V322.762H58.506C57.4437 323.214 56.3052 323.462 55.1504 323.493C54.5141 323.504 53.8847 323.359 53.3176 323.071C51.3719 322.087 50.667 319.557 49.8774 316.605C49.6236 315.733 49.3981 314.805 49.0879 313.793L45.7323 304.094C43.1482 305.505 40.2126 306.149 37.273 305.949C37.273 305.949 35.2145 304.965 35.5247 303.391C35.8744 302.266 36.523 301.256 37.4017 300.469C38.2805 299.682 39.3565 299.147 40.5157 298.921L41.1925 298.724C41.7282 298.724 42.7152 298.302 42.8562 298.049L32.5357 277.863C32.4165 277.521 32.3903 277.154 32.4596 276.798C32.5289 276.443 32.6914 276.112 32.9305 275.839ZM42.0666 321.722L41.3053 322.424C37.5061 324.719 33.3218 326.31 28.9546 327.119C28.9546 327.119 26.8398 326.923 26.1348 325.77C25.9843 325.494 25.9054 325.185 25.9054 324.87C25.9054 324.556 25.9843 324.247 26.1348 323.971C26.2869 323.431 26.5513 322.929 26.9108 322.498C27.2703 322.067 27.7169 321.716 28.2215 321.469L35.2991 318.095C33.9111 312.383 31.7681 306.881 28.9264 301.732C27.0212 298.095 25.3541 294.339 23.9354 290.487C23.7983 290.203 23.7225 289.893 23.7129 289.579C23.7033 289.264 23.7602 288.95 23.8798 288.659C23.9994 288.367 24.1791 288.104 24.4073 287.886C24.6355 287.668 24.907 287.501 25.2043 287.394C25.3648 287.326 25.5374 287.291 25.7118 287.291C25.8863 287.291 26.0589 287.326 26.2194 287.394C26.694 287.641 27.112 287.983 27.447 288.399C27.7819 288.815 28.0264 289.296 28.1651 289.812L38.5137 313.625C38.9267 314.453 39.3978 315.252 39.9236 316.014C41.3434 317.574 42.1103 319.616 42.0666 321.722ZM78.3573 376.404C78.1374 376.576 77.9301 376.764 77.7369 376.966C74.8064 379.204 71.7151 381.224 68.488 383.011C68.1668 383.147 67.8558 383.307 67.5575 383.489C66.9868 383.902 66.3146 384.155 65.6119 384.22C65.3616 384.211 65.1142 384.164 64.8787 384.079C63.7697 383.126 62.8923 381.934 62.3127 380.593C62.3127 380.368 62.0871 380.199 62.0025 380.059C60.5644 377.641 59.5211 376.066 58.3932 374.436C57.2653 372.805 56.6449 371.877 55.5734 370.078C53.5996 366.957 51.4847 363.64 49.3135 360.322C48.5587 359.081 47.6064 357.97 46.4937 357.033C45.6248 356.555 44.9773 355.759 44.689 354.812C44.605 354.492 44.5917 354.158 44.6501 353.833C44.7086 353.508 44.8373 353.199 45.0274 352.928C45.6984 352.068 46.5694 351.382 47.5652 350.932C48.0133 350.686 48.4464 350.414 48.8623 350.117C50.4696 348.936 51.6821 347.896 53.1202 346.771C54.5288 345.669 56.0977 344.788 57.7728 344.157C58.8121 344.128 59.8224 344.501 60.5926 345.197C60.9521 345.755 61.1432 346.404 61.1432 347.067C61.1432 347.729 60.9521 348.378 60.5926 348.936C60.1298 349.554 59.5443 350.071 58.8726 350.454L58.1958 351.073C58.9008 352.422 66.909 364.568 67.8395 365.945C68.2343 366.564 68.6572 367.351 69.1366 368.166C70.0179 370.022 71.2099 371.714 72.6613 373.171C73.8738 374.098 75.1145 373.171 76.2989 372.468C77.4832 371.765 78.2163 371.203 78.9495 371.821C79.2658 372.089 79.5222 372.42 79.7019 372.793C79.8816 373.166 79.9807 373.572 79.9928 373.986C79.88 375.054 79.0904 375.729 78.3573 376.404ZM79.9928 363.64H79.316C77.9173 363.443 76.577 362.949 75.3854 362.193C74.1938 361.436 73.1784 360.434 72.4075 359.254C71.8718 358.523 71.477 357.933 71.1386 357.37C70.3814 356.187 69.5528 355.051 68.6572 353.969C67.5549 352.562 66.5559 351.077 65.6683 349.526C64.9915 348.43 64.3429 347.418 63.6944 346.462L63.4688 346.153C62.3562 344.894 61.6317 343.342 61.3822 341.683C61.2857 341.004 61.3826 340.312 61.6619 339.685C61.9411 339.059 62.3913 338.524 62.9613 338.14C63.5159 337.798 64.0903 337.488 64.6813 337.212C65.4963 336.826 66.279 336.374 67.0218 335.863C67.581 335.432 68.1087 334.963 68.6008 334.457C69.1218 333.876 69.7084 333.357 70.3491 332.911C70.6181 332.715 70.9246 332.577 71.2497 332.504C71.5747 332.431 71.9113 332.426 72.2384 332.489C73.4791 332.855 74.2404 334.429 74.9172 335.807C75.0918 336.211 75.2895 336.606 75.5093 336.988C77.1227 339.79 78.9023 342.494 80.8387 345.084L81.4309 345.984C82.2768 347.277 83.6585 349.414 84.7018 349.414C86.4158 349.188 87.989 348.349 89.1289 347.052C89.6929 346.153 88.2266 343.904 87.3524 342.554L86.8449 341.767C84.5971 338.241 82.0297 334.929 79.175 331.871C78.6408 331.34 78.2515 330.681 78.0443 329.958C77.837 329.234 77.8186 328.47 77.9907 327.738C78.2727 326.81 78.6957 326.276 79.316 326.192C81.0925 325.939 83.5739 329.453 85.7451 332.883L86.1963 333.586C88.0856 336.397 89.9466 339.209 91.8359 342.02C92.1461 342.498 92.4844 342.948 92.851 343.426C94.1481 345.113 95.5016 346.856 94.8249 349.049C94.3737 350.511 93.4714 351.017 92.2589 351.86L91.1028 352.535C90.4788 352.809 89.8757 353.129 89.2981 353.491C88.7048 353.867 88.0825 354.196 87.437 354.475C87.1049 354.597 86.7842 354.747 86.4783 354.924C86.0038 355.176 85.5025 355.374 84.9838 355.515C84.4787 355.671 83.9381 355.671 83.4329 355.515C81.9206 354.567 80.7312 353.185 80.021 351.551C77.5217 347.201 74.792 342.988 71.8436 338.927L67.0781 341.739C66.9372 341.739 66.6552 341.964 66.5988 342.161V342.442C66.5988 342.779 67.6985 344.494 68.1497 345.253L68.4035 345.619C70.4337 348.655 72.4639 351.579 74.466 354.278C75.6503 355.88 76.2425 356.611 77.0884 357.623L79.316 360.435L79.8518 361.053C80.4744 361.715 81.0492 362.419 81.5719 363.162V363.331H81.3745C81.0367 363.437 80.6853 363.494 80.3312 363.499L79.9928 363.64ZM83.2355 372.889C82.7424 372.724 82.2958 372.444 81.9329 372.073C81.57 371.701 81.3012 371.249 81.1489 370.753C81.0393 370.362 81.0536 369.947 81.1899 369.564C81.3262 369.182 81.5778 368.85 81.9102 368.616C83.5175 367.52 84.9838 366.423 87.5498 364.539L93.1894 360.266L94.4583 359.198C96.6295 357.342 99.6185 354.784 102.1 356.696C102.452 356.952 102.739 357.285 102.939 357.671C103.14 358.056 103.248 358.483 103.256 358.917C103.196 359.545 102.95 360.142 102.551 360.632C101.135 362.281 99.4468 363.679 97.5601 364.764C96.9961 365.158 96.4322 365.495 95.9246 365.889L91.4693 369.066C89.0966 371.02 86.2622 372.336 83.2355 372.889ZM120.147 426.025C119.104 426.588 117.947 426.905 116.763 426.953C114.394 426.953 112.815 425.182 110.841 423.017C110.108 422.202 109.347 421.387 108.473 420.543C103.516 415.463 98.1805 410.764 92.5126 406.486C91.9837 406.238 91.4052 406.113 90.8208 406.121C89.2699 406.121 87.3242 405.811 86.9013 403.14C88.5367 399.964 94.2609 392.654 97.8702 392.907C98.97 392.907 99.7877 393.722 100.267 395.128C100.944 397.04 99.7031 398.361 98.406 399.401L97.842 399.879L96.3475 401.032C95.6708 401.51 94.8813 402.072 95.135 402.887C95.3888 403.703 96.7141 404.602 97.7292 405.249L98.6034 405.839C100.168 407.017 101.639 408.314 103.002 409.719C104.13 410.872 105.371 411.968 106.555 413.009L107.852 414.189C109.008 415.229 110.249 416.242 111.433 417.254C114.641 419.785 117.605 422.608 120.288 425.688L120.457 425.885L120.147 426.025ZM116.904 403.534C116.44 403.529 115.977 403.482 115.522 403.393C112.354 402.648 109.389 401.218 106.837 399.204C104.153 397.323 102.06 394.72 100.803 391.698C100.126 389.702 99.5621 385.878 100.972 384.22C102.161 383.093 103.62 382.289 105.21 381.886C106.8 381.482 108.467 381.492 110.052 381.914C113.028 382.571 115.762 384.041 117.947 386.159C118.225 386.517 118.526 386.855 118.849 387.171L119.131 387.481C120.937 389.579 122.394 391.952 123.446 394.509C124.143 395.798 124.372 397.288 124.094 398.726C123.48 400.292 122.359 401.609 120.908 402.466H120.711L120.457 402.606C119.358 403.173 118.141 403.472 116.904 403.478V403.534ZM145.102 395.1L144.51 395.606L142.987 397.208C142.761 397.489 142.507 397.742 142.254 398.024C141.492 398.811 140.703 399.598 139.857 400.385C139.031 401.146 138.25 401.953 137.516 402.803C137.516 403.871 138.616 404.94 139.716 405.952C140.816 406.964 141.944 408.032 141.859 409.101C141.799 409.433 141.664 409.748 141.464 410.021C141.263 410.294 141.003 410.518 140.703 410.675C139.011 410.984 137.883 409.803 136.953 408.623C136.402 407.874 135.689 407.259 134.866 406.823C133.533 407.448 132.335 408.327 131.341 409.41C130.777 410.028 130.241 410.675 129.706 411.322C128.704 412.686 127.529 413.915 126.209 414.977C125.138 415.756 123.867 416.214 122.543 416.298C122.182 416.313 121.823 416.236 121.5 416.073C121.178 415.868 120.926 415.57 120.78 415.218C120.633 414.866 120.599 414.477 120.682 414.105C120.852 411.462 123.305 409.382 125.476 407.526C126.247 406.884 126.982 406.199 127.675 405.474L138.955 393.3C140.305 391.729 141.906 390.39 143.692 389.336C143.92 389.181 144.181 389.079 144.455 389.04C144.729 389.001 145.008 389.026 145.271 389.111C146.132 389.566 146.787 390.33 147.104 391.248C147.95 392.598 146.145 394.172 145.074 395.1H145.102ZM183.902 444.328C182.701 448.378 180.792 452.185 178.262 455.573C177.582 456.067 176.786 456.377 175.95 456.473C175.773 456.503 175.592 456.503 175.414 456.473C175.129 456.368 174.875 456.191 174.677 455.96C174.48 455.728 174.345 455.45 174.287 455.152C174.032 454.67 173.885 454.139 173.856 453.596C173.826 453.052 173.916 452.509 174.117 452.003L176.937 445.031C172.207 441.86 167.078 439.326 161.682 437.496C157.924 436.124 154.26 434.508 150.713 432.66C150.434 432.545 150.181 432.374 149.971 432.158C149.761 431.941 149.598 431.683 149.492 431.401C149.386 431.119 149.34 430.818 149.356 430.517C149.372 430.216 149.45 429.922 149.585 429.652C149.644 429.491 149.738 429.345 149.86 429.223C149.982 429.102 150.128 429.008 150.29 428.949C150.765 428.831 151.258 428.808 151.742 428.88C152.226 428.953 152.691 429.119 153.11 429.371L176.091 439.633C176.914 439.956 177.763 440.21 178.629 440.392C180.696 440.605 182.598 441.614 183.93 443.203L183.902 444.328ZM193.884 432.351C194.674 432.604 195.491 432.829 196.337 433.138H196.563V433.335C196.267 434.147 195.803 434.887 195.2 435.507C194.598 436.127 193.87 436.613 193.066 436.934C192.739 436.977 192.407 436.977 192.079 436.934C190.018 436.603 188.077 435.751 186.44 434.46C185.678 433.982 184.889 433.476 184.071 433.026L175.104 428.19C174.231 430.828 172.604 433.153 170.423 434.881C170.282 434.881 168.309 435.556 167.604 434.235C167.119 433.205 166.922 432.064 167.031 430.931C167.14 429.799 167.552 428.716 168.224 427.797C168.314 427.611 168.417 427.432 168.534 427.262C168.844 426.813 169.408 425.941 169.324 425.66L148.767 418.013C148.491 417.851 148.261 417.621 148.098 417.346C147.935 417.07 147.845 416.758 147.837 416.438C147.888 416.15 147.997 415.874 148.156 415.627C148.316 415.381 148.524 415.169 148.767 415.005C151.729 414.263 154.86 414.633 157.565 416.045L158.298 416.326C159.991 416.968 161.647 417.7 163.261 418.519C164.474 419.109 165.743 419.728 167.04 420.262L167.716 420.599C173.92 423.045 182.661 427.178 183.789 427.712C185.89 425.91 187.639 423.737 188.949 421.302C189.401 420.543 189.852 419.756 190.416 418.913C189.294 417.432 187.652 416.427 185.819 416.101C185.041 415.89 184.278 415.627 183.535 415.314C182.774 415.005 163.994 407.526 162.5 406.542C162.25 406.412 162.032 406.229 161.862 406.005C161.691 405.782 161.572 405.524 161.513 405.249C161.469 404.953 161.54 404.652 161.71 404.406C161.936 402.915 164.53 402.887 164.671 402.887C168.647 402.887 177.557 407.329 181.872 409.466L182.548 409.803L193.207 414.33C194.154 414.086 195.157 414.196 196.027 414.639C196.333 414.848 196.591 415.119 196.785 415.434C196.98 415.748 197.106 416.1 197.155 416.467C196.756 419.175 195.733 421.754 194.166 424.001C192.818 426.421 190.878 428.462 188.526 429.933C190.221 430.976 192.053 431.78 193.969 432.323L193.884 432.351ZM235.842 445.171C235.466 446.651 234.764 448.028 233.789 449.205C232.814 450.381 231.589 451.327 230.203 451.975C228.1 452.872 225.836 453.335 223.548 453.335C221.261 453.335 218.997 452.872 216.893 451.975C214.816 450.452 213.325 448.265 212.668 445.779C212.011 443.293 212.229 440.657 213.284 438.311C214.223 436.86 215.44 435.609 216.865 434.628C218.395 433.742 220.079 433.151 221.828 432.885C221.877 432.347 222.112 431.843 222.493 431.459C222.873 431.074 223.376 430.833 223.915 430.777C224.561 430.671 225.224 430.793 225.79 431.121C226.356 431.449 226.789 431.964 227.017 432.576C229.218 433.014 231.279 433.979 233.023 435.387L233.558 436.006C234.607 437.259 235.364 438.729 235.773 440.309C236.183 441.889 236.235 443.54 235.927 445.143L235.842 445.171ZM239.677 429.259C237.416 430.102 235.013 430.503 232.6 430.439C231.782 430.439 230.992 430.439 230.175 430.439C228.854 430.303 227.526 430.246 226.199 430.271C224.986 430.271 214.666 429.961 213.51 429.596C213.2 429.596 210.69 429.343 209.872 428.275C209.762 428.127 209.683 427.959 209.64 427.78C209.596 427.601 209.589 427.416 209.618 427.234C209.624 426.877 209.765 426.536 210.013 426.278C210.182 426.129 210.378 426.015 210.591 425.943C210.804 425.871 211.029 425.841 211.254 425.857C211.254 425.857 222.026 425.519 234.574 426.11C236.067 426.216 237.548 426.451 239.001 426.813C239.274 426.878 239.529 427.005 239.745 427.186C239.96 427.367 240.13 427.595 240.241 427.853C240.295 428.104 240.279 428.366 240.195 428.608C240.11 428.851 239.961 429.066 239.762 429.23L239.677 429.259ZM259.134 421.836C259.134 422.511 259.134 423.13 259.134 423.692C259.134 425.969 259.134 428.162 259.134 430.327C259.134 436.962 258.88 443.259 258.852 450.147C258.852 450.935 258.852 451.862 258.852 452.818C259.021 456.08 259.19 459.762 257.527 461.506C257.204 461.829 256.815 462.079 256.387 462.239C255.959 462.399 255.501 462.465 255.045 462.433C252.225 462.096 252.423 455.939 252.648 448.798C252.9 444.843 252.815 440.874 252.395 436.934C250.643 436.441 248.789 436.441 247.037 436.934C246.811 436.934 246.191 437.58 246.67 443.878V444.159C246.67 444.89 246.67 445.649 246.84 446.408C247.144 449.077 247.211 451.768 247.037 454.449C247.078 455.229 246.942 456.008 246.639 456.728C246.336 457.449 245.875 458.092 245.289 458.61C244.864 458.849 244.392 458.995 243.906 459.039C243.42 459.083 242.93 459.023 242.469 458.863C241.031 458.497 240.918 453.662 240.918 447.364C240.918 446.38 240.918 445.452 240.918 444.553C240.918 443.063 240.918 441.516 240.918 439.97C240.918 436.512 240.918 432.941 240.693 429.287V427.178C240.693 426.728 240.693 426.25 240.693 425.744C240.693 422.314 240.693 418.041 242.723 416.691C243.409 416.384 244.163 416.256 244.913 416.32C245.663 416.384 246.384 416.638 247.009 417.057C247.009 417.057 247.545 417.479 247.516 418.884C247.488 420.29 247.516 430.355 247.093 431.873C248.221 433.026 250.167 432.548 252.197 432.07H252.479L252.761 423.439C252.761 423.13 252.225 415.286 254.735 414.245C255.361 414.07 256.019 414.045 256.656 414.172C257.293 414.299 257.891 414.575 258.401 414.977C259.557 416.438 259.331 419.447 259.134 421.836ZM271.851 421.64C272.274 414.948 280.057 413.205 281.382 412.896C281.348 412.341 281.494 411.789 281.798 411.323C282.103 410.858 282.55 410.502 283.074 410.31C283.636 410.214 284.214 410.302 284.722 410.561C285.23 410.819 285.641 411.234 285.894 411.743L287.727 411.575H288.629C294.015 411.575 297.088 413.515 298.865 417.76C299.534 419.357 299.804 421.091 299.652 422.815C299.499 424.539 298.929 426.2 297.991 427.656C296.432 429.86 294.373 431.666 291.982 432.927C289.591 434.187 286.935 434.866 284.23 434.91H283.384C280.296 434.839 277.348 433.615 275.122 431.48C273.947 430.288 273.047 428.857 272.482 427.284C271.917 425.711 271.702 424.034 271.851 422.371V421.64ZM316.742 447.139C309.87 452.144 301.621 454.921 293.112 455.096C291.197 455.122 289.291 454.827 287.473 454.224C286.347 453.903 285.333 453.275 284.546 452.411C283.759 451.546 283.23 450.48 283.018 449.332C282.115 443.906 290.687 439.295 296.722 437.468C296.801 436.958 296.982 436.469 297.253 436.03C297.524 435.591 297.88 435.21 298.301 434.91C298.655 434.666 299.055 434.495 299.476 434.407C299.897 434.319 300.331 434.316 300.754 434.397C301.176 434.478 301.579 434.642 301.937 434.88C302.295 435.117 302.602 435.424 302.841 435.781L303.884 435.612C311.131 434.46 318.632 433.279 320.041 440.56C320.127 441.85 319.866 443.14 319.286 444.296C318.706 445.452 317.828 446.433 316.742 447.139ZM322.128 421.471C321.479 422.792 319.308 423.214 317.447 423.608C316.56 423.767 315.684 423.983 314.825 424.254C314.888 424.758 314.991 425.257 315.135 425.744C315.671 428.021 316.517 431.367 313.979 432.379H313.246C312.789 432.371 312.342 432.245 311.949 432.014C310.003 430.805 309.129 426.953 308.283 423.579C308.057 422.652 307.86 421.752 307.634 420.965L303.574 406.345C303.393 405.63 303.502 404.872 303.876 404.236C304.251 403.599 304.861 403.135 305.576 402.944C306.484 402.6 307.487 402.6 308.396 402.944C308.64 403.098 308.848 403.303 309.004 403.546C309.16 403.789 309.26 404.063 309.298 404.349L311.159 410.984C312.299 410.919 313.426 410.711 314.515 410.366C315.797 409.815 317.229 409.716 318.575 410.085C318.767 410.213 318.931 410.379 319.057 410.572C319.182 410.766 319.268 410.982 319.308 411.209C319.369 411.443 319.378 411.688 319.334 411.926C319.291 412.164 319.195 412.39 319.055 412.587C318.35 413.655 316.432 414.021 314.712 414.358C313.884 414.476 313.07 414.683 312.287 414.977C312.513 415.736 312.738 416.607 312.992 417.479L313.64 419.953C314.45 419.803 315.251 419.606 316.037 419.362C318.18 418.772 320.38 418.153 321.479 419.081C321.805 419.388 322.035 419.782 322.14 420.217C322.245 420.651 322.221 421.106 322.072 421.527L322.128 421.471ZM361.605 404.94L361.182 409.101C361.18 409.509 361.041 409.905 360.787 410.225C358.506 411.655 356.143 412.95 353.71 414.105C350.979 415.381 348.358 416.876 345.871 418.575C345.208 419.09 344.603 419.674 344.066 420.318C343.592 421.081 342.954 421.729 342.198 422.215C341.442 422.701 340.587 423.014 339.695 423.13C339.363 423.123 339.038 423.034 338.747 422.873C338.457 422.711 338.212 422.48 338.032 422.202C337.547 421.022 337.547 419.699 338.032 418.519L332.843 410.844L327.204 403.056C326.793 403.098 326.378 403.049 325.988 402.913C325.598 402.776 325.243 402.557 324.948 402.269C324.511 401.784 324.279 401.149 324.299 400.498C325.258 398.22 328.755 395.437 334.958 392.063L335.86 391.557C338.68 389.899 341.5 388.324 343.361 390.32C343.981 392.091 342.825 392.822 340.034 394.594L338.906 395.325C338.06 395.859 337.073 396.393 336.086 396.927C334.922 397.539 333.792 398.215 332.702 398.951C332.632 398.97 332.566 399.005 332.512 399.054C332.458 399.103 332.417 399.164 332.392 399.233C332.392 399.233 332.392 399.233 332.392 399.429C333.351 400.976 341.669 414.386 342.177 415.314C342.26 415.338 342.348 415.338 342.431 415.314C346.265 413.29 349.142 411.462 351.905 409.691C354.821 407.778 357.833 406.014 360.928 404.406C360.979 404.373 361.037 404.355 361.098 404.355C361.158 404.355 361.216 404.373 361.267 404.406C361.267 404.406 361.859 404.349 361.746 404.968L361.605 404.94ZM385.517 411.237C385.307 411.57 385.022 411.847 384.684 412.048C384.345 412.248 383.964 412.365 383.571 412.39C381.908 412.39 380.357 410.394 379.511 409.326L379.229 408.988C376.599 405.622 374.233 402.06 372.151 398.333C370.6 395.718 369.134 393.244 367.583 391.108C366.841 391.491 366.125 391.923 365.44 392.401C364.541 393.011 363.598 393.556 362.62 394.031C364.244 397.147 366.131 400.119 368.26 402.915C371.615 407.723 374.52 411.884 373.223 414.695C373.036 414.953 372.79 415.161 372.505 415.303C372.22 415.445 371.905 415.516 371.587 415.511C370.51 415.295 369.559 414.67 368.936 413.768L350.044 384.951C349.739 384.39 349.39 383.854 349.001 383.348C347.901 381.802 346.745 380.199 348.634 378.203C349.018 377.873 349.468 377.627 349.954 377.482C350.44 377.336 350.951 377.295 351.454 377.36C353.061 377.725 354.274 379.693 355.176 381.605C355.514 382.223 355.853 382.842 356.219 383.432C356.952 384.613 357.573 385.681 358.08 386.665C358.797 388.056 359.647 389.374 360.618 390.601C361.222 390.15 361.853 389.737 362.507 389.364C363.52 388.841 364.466 388.199 365.327 387.453C364.276 385.313 363.02 383.279 361.577 381.38C358.757 377.388 355.937 373.227 357.686 370.134C358.065 369.788 358.51 369.52 358.994 369.347C359.478 369.173 359.992 369.097 360.505 369.122C360.883 369.161 361.246 369.286 361.569 369.485C361.891 369.685 362.164 369.955 362.366 370.275C365.468 375.56 368.739 380.677 371.897 385.625C376.155 392.373 380.357 398.726 383.825 405.305C384.051 405.727 384.304 406.121 384.558 406.514C385.092 407.176 385.468 407.95 385.658 408.778C385.849 409.606 385.848 410.466 385.658 411.294L385.517 411.237ZM388.337 373.002C387.01 373.402 385.634 373.61 384.248 373.62C383.153 373.686 382.066 373.4 381.146 372.805C380.12 371.685 379.398 370.323 379.048 368.847C378.697 367.371 378.73 365.83 379.144 364.371C379.885 362.555 380.831 360.829 381.964 359.226C381.872 359.235 381.779 359.216 381.698 359.17C381.618 359.125 381.553 359.056 381.513 358.973C381.415 358.585 381.415 358.18 381.513 357.792C380.43 358.933 379.413 360.134 378.467 361.391C376.487 364.066 373.984 366.314 371.108 367.998C370.889 368.133 370.628 368.183 370.375 368.138C370.209 368.042 370.065 367.913 369.953 367.758C369.842 367.603 369.764 367.426 369.726 367.238V367.042C369.472 363.949 372.179 361.419 374.576 359.31C375.309 358.664 375.986 358.073 376.55 357.483C378.524 355.374 380.216 353.547 382.443 351.382C383.289 350.539 384.107 349.639 384.868 348.739C385.838 347.611 386.874 346.541 387.97 345.534C388.513 344.92 389.175 344.421 389.917 344.069C390.658 343.716 391.464 343.516 392.284 343.482C392.362 343.513 392.431 343.562 392.486 343.626C392.54 343.69 392.577 343.766 392.595 343.847C392.602 344.883 392.361 345.905 391.89 346.828C390.727 348.877 389.209 350.704 387.406 352.225C386.411 353.185 385.47 354.199 384.586 355.262L383.712 356.133C383.96 356.21 384.19 356.334 384.389 356.499L384.727 356.724L384.953 356.527L385.235 356.302C387.301 354.651 389.612 353.332 392.087 352.394C392.734 352.012 393.455 351.771 394.203 351.687C394.95 351.603 395.707 351.678 396.424 351.906C397.14 352.134 397.8 352.511 398.36 353.012C398.92 353.513 399.367 354.126 399.672 354.812C399.77 354.94 399.846 355.082 399.898 355.234C400.579 356.631 400.758 358.219 400.405 359.732C399.587 362.663 398.133 365.379 396.147 367.688C394.228 370.142 391.674 372.028 388.76 373.142L388.337 373.002ZM427.814 364.343C425.163 366.283 422.569 363.977 420.059 361.728C419.001 360.643 417.807 359.698 416.506 358.917C416.337 358.917 415.83 359.198 415.491 359.563L395.753 380.874C395.586 381.064 395.382 381.218 395.155 381.329C394.927 381.44 394.68 381.505 394.427 381.521C394.27 381.558 394.106 381.558 393.948 381.521C391.918 378.709 393.694 376.516 395.245 374.689L396.204 373.536C397.443 371.902 398.78 370.343 400.208 368.869L401.449 367.548L413.066 355.093C413.218 353.594 413.933 352.208 415.068 351.213C416.337 350.061 418.17 351.663 418.255 351.719C418.339 351.776 425.473 358.439 428.208 361.419C428.535 361.852 428.705 362.382 428.689 362.924C428.674 363.465 428.475 363.985 428.124 364.399L427.814 364.343ZM456.547 292.82C449.639 304.008 444.065 315.963 439.939 328.441C439.657 329.228 439.403 330.043 439.177 330.859C438.918 332.561 438.305 334.19 437.377 335.642C436.45 337.095 435.229 338.338 433.792 339.293H433.369C433.248 339.292 433.13 339.263 433.023 339.21C432.915 339.156 432.821 339.079 432.748 338.984C431.395 337.409 432.748 329.256 434.356 326.473C432.858 325.674 431.303 324.988 429.703 324.42C426.009 323.015 422.202 321.609 421.497 319.107C421.378 318.5 421.402 317.874 421.569 317.279C421.735 316.683 422.039 316.135 422.456 315.677C422.954 314.986 423.685 314.497 424.515 314.299C425.006 314.211 425.51 314.226 425.995 314.342C426.481 314.458 426.937 314.673 427.334 314.974C428.424 316.049 429.572 317.063 430.774 318.01C432.943 319.072 435.249 319.829 437.627 320.26C437.852 320.26 438.19 320.035 438.529 319.557C439.613 317.976 440.238 316.128 440.334 314.215C438.678 312.7 436.641 311.66 434.44 311.207C431.169 310.082 427.785 308.93 426.517 306.765C426.362 306.167 426.332 305.544 426.429 304.935C426.526 304.326 426.748 303.743 427.081 303.222C427.485 302.739 427.995 302.356 428.572 302.102C429.149 301.849 429.778 301.732 430.408 301.76C432.183 302.085 433.821 302.926 435.117 304.178C435.117 304.178 440.334 307.861 442.533 307.468C443.038 306.926 443.423 306.284 443.661 305.584C447.098 298.817 450.148 291.862 452.797 284.751C452.797 284.751 452.797 284.217 453.22 284.133C453.315 284.114 453.413 284.123 453.502 284.158C453.592 284.192 453.67 284.252 453.728 284.33L456.688 292.089L456.547 292.82Z" fill="#EFF4FE"/>
<path d="M113.633 388.943C112.195 387.79 108.614 385.4 106.132 387.959C104.892 390.77 107.768 394.734 111.151 396.787C113.407 398.136 116.396 398.867 118.004 396.787C119.047 395.353 116.876 391.501 113.633 388.943Z" fill="#EFF4FE"/>
<path d="M312.315 439.97C307.437 437.946 294.861 442.332 292.21 444.215C290.575 445.424 288.488 447.027 289.39 449.107C290.434 451.919 296.637 451.328 301.656 450.007C308.057 448.32 314.712 444.89 314.289 442.219C314.205 441.697 313.976 441.209 313.627 440.812C313.278 440.414 312.823 440.122 312.315 439.97Z" fill="#EFF4FE"/>
<path d="M291.872 427.234C292.975 426.154 293.684 424.736 293.883 423.207C294.083 421.677 293.762 420.126 292.971 418.8C291.533 416.214 285.809 414.892 281.692 417.029C280.609 417.669 279.71 418.577 279.082 419.666C278.455 420.755 278.12 421.987 278.111 423.242C278.005 424.367 278.193 425.499 278.658 426.529C279.123 427.559 279.848 428.451 280.762 429.118C282.579 430.001 284.628 430.294 286.62 429.956C288.613 429.618 290.449 428.666 291.872 427.234Z" fill="#EFF4FE"/>
</svg>
