<svg xmlns="http://www.w3.org/2000/svg" width="18" height="18" fill="none"><g fill="#4571E9" clip-path="url(#a)"><path d="M17.018.982A3.33 3.33 0 0 0 14.648 0H3.352A3.355 3.355 0 0 0 0 3.352v11.296A3.355 3.355 0 0 0 3.352 18h11.296A3.355 3.355 0 0 0 18 14.648V3.352a3.33 3.33 0 0 0-.982-2.37Zm-.073 13.666a2.3 2.3 0 0 1-2.297 2.297H3.352a2.3 2.3 0 0 1-2.297-2.297V3.352a2.3 2.3 0 0 1 2.297-2.297h11.296c.614 0 1.19.239 1.625.672.433.434.672 1.011.672 1.625v11.296Z"/><path d="M12.169 7.646a.527.527 0 0 0-.746 0L9.527 9.54V3.916a.527.527 0 0 0-1.054 0v5.626L6.577 7.646a.527.527 0 1 0-.746.746l2.796 2.796a.527.527 0 0 0 .746 0l2.796-2.796a.527.527 0 0 0 0-.746ZM14.084 13.557H3.916a.527.527 0 0 0 0 1.054h10.168a.527.527 0 0 0 0-1.054Z"/></g><defs><clipPath id="a"><path fill="#fff" d="M0 0h18v18H0z"/></clipPath></defs></svg>