<svg width="180" height="43" viewBox="0 0 180 43" fill="none" xmlns="http://www.w3.org/2000/svg">
<g clip-path="url(#clip0_175_367)">
<path d="M30.7009 6.92433H30.6204C33.2959 8.36302 35.5325 10.4885 37.0961 13.0784C38.6598 15.6683 39.4931 18.6275 39.5089 21.6463C39.5195 24.6298 38.7222 27.5613 37.2003 30.1347C35.6784 32.708 33.4878 34.8287 30.8573 36.2752L30.75 36.3416C34.3198 35.8349 37.5852 34.0665 39.9453 31.3618C42.3055 28.6571 43.6019 25.198 43.5959 21.6207C43.5899 18.0434 42.282 14.5886 39.9128 11.8917C37.5436 9.19473 34.2724 7.4371 30.7009 6.94206V6.92433Z" fill="#0099D8"/>
<path d="M6.57812 21.6463C6.57928 25.2804 7.90403 28.7917 10.3084 31.5336C12.7128 34.2754 16.0349 36.0632 19.6628 36.5677L16.2353 21.6463H21.6694V0L19.9891 6.68052C16.2942 7.11363 12.888 8.8765 10.4162 11.6349C7.94432 14.3934 6.57867 17.9556 6.57812 21.6463Z" fill="#0099D8"/>
<path d="M12.8568 36.3239C9.28857 35.8294 6.02119 34.0709 3.65804 31.373C1.29488 28.6752 -0.00444181 25.2203 -9.37227e-08 21.6463C0.0190618 18.0664 1.33192 14.612 3.7001 11.9106C6.06828 9.20915 9.33468 7.43995 12.906 6.92433H12.9909C10.3154 8.36302 8.07886 10.4885 6.51519 13.0784C4.95151 15.6683 4.11819 18.6275 4.10239 21.6463C4.09184 24.6292 4.88868 27.5603 6.40972 30.1335C7.93076 32.7067 10.1202 34.8277 12.7496 36.2752L12.8568 36.3239Z" fill="#0F3E8E"/>
<path d="M36.9662 21.6463C36.9651 17.9782 35.6157 14.4364 33.1707 11.6847C30.7258 8.93287 27.3531 7.15999 23.6848 6.69824L27.099 21.6463H21.6694V43L23.2826 36.6431C27.032 36.2715 30.5085 34.5311 33.0371 31.7599C35.5657 28.9886 36.966 25.3841 36.9662 21.6463Z" fill="#0F3E8E"/>
<path d="M60.2443 18.5654V20.906H57.9473V18.5875H51.7222V17.763H54.8862V16.7212H51.1547V15.8346H57.8579V13.7777H51.691V12.9177H59.4667C60.0343 12.9177 60.213 13.525 60.213 13.7556V15.8479H60.7761V16.7345H57.0938V17.7763H59.4354C59.542 17.7707 59.6486 17.7871 59.7484 17.8246C59.8482 17.8621 59.939 17.9198 60.0151 17.994C60.0912 18.0683 60.1509 18.1574 60.1903 18.2558C60.2298 18.3541 60.2482 18.4596 60.2443 18.5654Z" fill="#0F3E8E"/>
<path d="M57.4066 23.3042V25.1306H53.4874V25.964H57.2234C57.7954 25.964 57.9697 25.7069 57.9697 25.7069V22.5107H60.2041V27.0412H57.9697V26.5093C57.9697 26.5093 57.7641 26.8196 56.9776 26.8196H51.9457C51.8639 26.8235 51.7821 26.811 51.7053 26.7828C51.6286 26.7547 51.5583 26.7114 51.4988 26.6556C51.3581 26.4872 51.2906 26.2704 51.3111 26.0527V24.2795H55.2615V23.3574H51.3111V22.5107H56.6737C56.8764 22.5211 57.0669 22.6101 57.204 22.7585C57.3411 22.907 57.4139 23.103 57.4066 23.3042ZM60.1907 30.3128H52.33C52.2407 30.3207 52.1507 30.3098 52.066 30.2808C51.9813 30.2518 51.9037 30.2053 51.8384 30.1443C51.7675 30.0625 51.7139 29.9674 51.6809 29.8645C51.6478 29.7617 51.6361 29.6533 51.6463 29.5459V27.5466H53.8807V27.9589H57.925V27.5466H60.1594L60.1907 30.3128ZM57.9562 28.8277H53.8941V29.4484H57.9384L57.9562 28.8277Z" fill="#0F3E8E"/>
<path d="M84.7201 22.9496H64.1322V24.8646H72.261V30.2773H77.0158V24.8646H84.7201V22.9496Z" fill="#0F3E8E"/>
<path d="M66.6258 21.4645H83.7727V12.9709H79.0179V15.5155H69.6333V12.9798H64.8695V19.585C64.855 19.824 64.8895 20.0635 64.9708 20.289C65.0522 20.5145 65.1787 20.7213 65.3428 20.897C65.507 21.0726 65.7053 21.2135 65.9257 21.311C66.1462 21.4086 66.3844 21.4608 66.6258 21.4645ZM79.0179 17.4394V19.5584H69.6333V17.4394H79.0179Z" fill="#0F3E8E"/>
<path d="M107.417 12.9576H102.631V14.1412H100.258V12.9576H87.9376V14.7574H95.5346C95.6374 15.9543 95.5346 20.9636 87.0707 21.3315L88.1387 23.0781C88.1387 23.0781 93.9974 23.2333 98.0372 20.0992H102.622V22.9806C101.124 22.6125 99.5852 22.4309 98.0416 22.4398C92.8757 22.4398 88.6884 24.3282 88.6884 26.6644C88.6884 29.0006 92.8757 30.8846 98.0416 30.8846C103.208 30.8846 107.426 28.9918 107.426 26.6644L107.417 12.9576ZM99.4225 18.1753C99.7501 17.5033 99.9789 16.7882 100.102 16.0519H102.636V18.1753H99.4225ZM93.5505 26.5979C93.5505 25.3523 95.5838 24.346 98.0863 24.346C100.589 24.346 102.622 25.3523 102.622 26.5979C102.622 27.8436 100.593 28.8499 98.0863 28.8499C95.5793 28.8499 93.5505 27.8347 93.5505 26.5979Z" fill="#0F3E8E"/>
<path d="M178.834 14.8372C178.843 14.6003 178.805 14.3639 178.722 14.1416C178.639 13.9193 178.513 13.7155 178.35 13.542C178.187 13.3684 177.991 13.2287 177.773 13.1306C177.556 13.0326 177.321 12.9784 177.082 12.9709H160.923V14.8904H174.088V28.3977H172.3V20.8617H168.18V28.3977H166.598V20.8617H162.482V28.3977H159.403V30.3039H180V28.3977H178.838V14.8417" fill="#0F3E8E"/>
<path d="M111.631 26.5625C111.63 26.8081 111.677 27.0516 111.77 27.2791C111.864 27.5065 112.002 27.7133 112.176 27.8876C112.351 28.0619 112.558 28.2003 112.787 28.2946C113.016 28.389 113.261 28.4376 113.508 28.4376H113.535H120.337C120.556 28.4376 122.147 28.4376 122.629 27.7594V30.3128H126.749V20.609H127.983V30.2685H132.103V12.9798H127.983V18.6939H126.749V12.9709H122.629V25.8266C122.102 26.5758 120.73 26.5137 120.73 26.5137H116.4V14.8727H121.15V12.9709H111.64V26.5536L111.631 26.5625Z" fill="#0F3E8E"/>
<path d="M158.545 15.5022H156.221V12.9754H151.471V22.7989H156.221V17.4172H158.545V15.5022Z" fill="#0F3E8E"/>
<path d="M154.336 23.8938H136.845V25.8044H151.493V30.2862H156.244V25.7113C156.24 25.2222 156.042 24.7543 155.692 24.4097C155.342 24.065 154.869 23.8716 154.376 23.8716" fill="#0F3E8E"/>
<path d="M147.025 14.886H149.795V13.1128H145.237V12.1198H140.491V13.1305H136.058V14.9037H138.927C136.952 15.5243 135.799 16.8808 135.799 18.5033C135.799 21.1143 139.007 23.2333 142.949 23.2333C146.89 23.2333 150.099 21.1143 150.099 18.5033C150.153 16.8454 148.915 15.4135 147.025 14.886ZM142.98 20.9902C142.285 21.0142 141.609 20.7641 141.1 20.2946C140.591 19.8252 140.29 19.1747 140.263 18.4856C140.319 17.8085 140.629 17.1769 141.132 16.7164C141.636 16.2559 142.295 16.0002 142.98 16.0002C143.665 16.0002 144.325 16.2559 144.828 16.7164C145.332 17.1769 145.642 17.8085 145.697 18.4856C145.684 18.828 145.603 19.1644 145.458 19.4756C145.314 19.7869 145.109 20.0668 144.856 20.2995C144.602 20.5321 144.305 20.7128 143.98 20.8314C143.656 20.9499 143.312 21.0039 142.967 20.9902H142.98Z" fill="#0F3E8E"/>
</g>
<defs>
<clipPath id="clip0_175_367">
<rect width="180" height="43" fill="white"/>
</clipPath>
</defs>
</svg>
