<svg width="180" height="45" viewBox="0 0 180 45" fill="none" xmlns="http://www.w3.org/2000/svg">
<g clip-path="url(#clip0_2_214)">
<path d="M30.7009 7.92433H30.6204C33.2959 9.36302 35.5325 11.4885 37.0961 14.0784C38.6598 16.6683 39.4931 19.6275 39.5089 22.6463C39.5195 25.6298 38.7222 28.5613 37.2003 31.1347C35.6784 33.708 33.4878 35.8287 30.8573 37.2752L30.75 37.3416C34.3198 36.8349 37.5852 35.0665 39.9453 32.3618C42.3055 29.6571 43.6019 26.198 43.5959 22.6207C43.5899 19.0434 42.282 15.5886 39.9128 12.8917C37.5436 10.1947 34.2724 8.4371 30.7009 7.94206V7.92433Z" fill="#0099D8"/>
<path d="M6.57812 22.6463C6.57928 26.2804 7.90403 29.7917 10.3084 32.5336C12.7128 35.2754 16.0349 37.0632 19.6628 37.5677L16.2353 22.6463H21.6694V1L19.9891 7.68052C16.2942 8.11363 12.888 9.8765 10.4162 12.6349C7.94432 15.3934 6.57867 18.9556 6.57812 22.6463Z" fill="#0099D8"/>
<path d="M12.8568 37.3239C9.28857 36.8294 6.02119 35.0709 3.65804 32.373C1.29488 29.6752 -0.00444181 26.2203 -9.37227e-08 22.6463C0.0190618 19.0664 1.33192 15.612 3.7001 12.9106C6.06828 10.2091 9.33468 8.43995 12.906 7.92433H12.9909C10.3154 9.36302 8.07886 11.4885 6.51519 14.0784C4.95151 16.6683 4.11819 19.6275 4.10239 22.6463C4.09184 25.6292 4.88868 28.5603 6.40972 31.1335C7.93076 33.7067 10.1202 35.8277 12.7496 37.2752L12.8568 37.3239Z" fill="white"/>
<path d="M36.9662 22.6463C36.9651 18.9782 35.6157 15.4364 33.1707 12.6847C30.7258 9.93288 27.3531 8.15999 23.6848 7.69825L27.099 22.6463H21.6694V44L23.2826 37.6431C27.032 37.2715 30.5085 35.5311 33.0371 32.7599C35.5657 29.9886 36.966 26.3841 36.9662 22.6463Z" fill="white"/>
<path d="M60.2443 19.5654V21.906H57.9473V19.5875H51.7222V18.763H54.8862V17.7212H51.1547V16.8346H57.8579V14.7777H51.691V13.9177H59.4667C60.0343 13.9177 60.213 14.5251 60.213 14.7556V16.8479H60.7761V17.7345H57.0938V18.7763H59.4354C59.542 18.7707 59.6486 18.7871 59.7484 18.8246C59.8482 18.8621 59.939 18.9198 60.0151 18.9941C60.0912 19.0683 60.1509 19.1574 60.1903 19.2558C60.2298 19.3541 60.2482 19.4596 60.2443 19.5654Z" fill="white"/>
<path d="M57.4066 24.3042V26.1306H53.4874V26.964H57.2234C57.7954 26.964 57.9697 26.7069 57.9697 26.7069V23.5107H60.2041V28.0412H57.9697V27.5093C57.9697 27.5093 57.7641 27.8196 56.9776 27.8196H51.9457C51.8639 27.8235 51.7821 27.811 51.7053 27.7828C51.6286 27.7546 51.5583 27.7114 51.4988 27.6556C51.3581 27.4872 51.2906 27.2704 51.3111 27.0527V25.2795H55.2615V24.3574H51.3111V23.5107H56.6737C56.8764 23.5211 57.0669 23.6101 57.204 23.7585C57.3411 23.907 57.4139 24.103 57.4066 24.3042ZM60.1907 31.3128H52.33C52.2407 31.3207 52.1507 31.3098 52.066 31.2808C51.9813 31.2518 51.9037 31.2053 51.8384 31.1443C51.7675 31.0625 51.7139 30.9674 51.6809 30.8645C51.6478 30.7617 51.6361 30.6533 51.6463 30.5459V28.5466H53.8807V28.9589H57.925V28.5466H60.1594L60.1907 31.3128ZM57.9562 29.8277H53.8941V30.4483H57.9384L57.9562 29.8277Z" fill="white"/>
<path d="M84.7201 23.9496H64.1322V25.8646H72.261V31.2773H77.0158V25.8646H84.7201V23.9496Z" fill="white"/>
<path d="M66.6258 22.4645H83.7727V13.9709H79.0179V16.5155H69.6333V13.9798H64.8695V20.5849C64.855 20.824 64.8895 21.0635 64.9708 21.289C65.0522 21.5145 65.1787 21.7213 65.3428 21.897C65.507 22.0726 65.7053 22.2135 65.9257 22.311C66.1462 22.4086 66.3844 22.4608 66.6258 22.4645ZM79.0179 18.4394V20.5584H69.6333V18.4394H79.0179Z" fill="white"/>
<path d="M107.417 13.9576H102.631V15.1412H100.258V13.9576H87.9376V15.7574H95.5346C95.6374 16.9543 95.5346 21.9636 87.0707 22.3315L88.1387 24.0781C88.1387 24.0781 93.9974 24.2333 98.0372 21.0992H102.622V23.9806C101.124 23.6125 99.5852 23.4309 98.0416 23.4398C92.8757 23.4398 88.6884 25.3282 88.6884 27.6644C88.6884 30.0006 92.8757 31.8846 98.0416 31.8846C103.208 31.8846 107.426 29.9918 107.426 27.6644L107.417 13.9576ZM99.4225 19.1753C99.7501 18.5033 99.9789 17.7882 100.102 17.0519H102.636V19.1753H99.4225ZM93.5505 27.5979C93.5505 26.3523 95.5838 25.346 98.0863 25.346C100.589 25.346 102.622 26.3523 102.622 27.5979C102.622 28.8436 100.593 29.8499 98.0863 29.8499C95.5793 29.8499 93.5505 28.8347 93.5505 27.5979Z" fill="white"/>
<path d="M178.834 15.8372C178.843 15.6003 178.805 15.3639 178.722 15.1416C178.639 14.9193 178.513 14.7155 178.35 14.542C178.187 14.3684 177.991 14.2286 177.773 14.1306C177.556 14.0326 177.321 13.9783 177.082 13.9709H160.923V15.8904H174.088V29.3977H172.3V21.8616H168.18V29.3977H166.598V21.8616H162.482V29.3977H159.403V31.3039H180V29.3977H178.838V15.8416" fill="white"/>
<path d="M111.631 27.5625C111.63 27.8081 111.677 28.0516 111.77 28.2791C111.864 28.5065 112.002 28.7133 112.176 28.8876C112.351 29.0619 112.558 29.2002 112.787 29.2946C113.016 29.389 113.261 29.4376 113.508 29.4376H113.535H120.337C120.556 29.4376 122.147 29.4376 122.629 28.7594V31.3128H126.749V21.609H127.983V31.2685H132.103V13.9798H127.983V19.6939H126.749V13.9709H122.629V26.8266C122.102 27.5758 120.73 27.5137 120.73 27.5137H116.4V15.8727H121.15V13.9709H111.64V27.5536L111.631 27.5625Z" fill="white"/>
<path d="M158.545 16.5022H156.221V13.9754H151.471V23.7989H156.221V18.4172H158.545V16.5022Z" fill="white"/>
<path d="M154.336 24.8938H136.845V26.8044H151.493V31.2862H156.244V26.7113C156.24 26.2222 156.042 25.7543 155.692 25.4097C155.342 25.065 154.869 24.8716 154.376 24.8717" fill="white"/>
<path d="M147.025 15.886H149.795V14.1128H145.237V13.1198H140.491V14.1305H136.058V15.9037H138.927C136.952 16.5243 135.799 17.8808 135.799 19.5033C135.799 22.1143 139.007 24.2333 142.949 24.2333C146.89 24.2333 150.099 22.1143 150.099 19.5033C150.153 17.8454 148.915 16.4135 147.025 15.886ZM142.98 21.9902C142.285 22.0142 141.609 21.7641 141.1 21.2946C140.591 20.8252 140.29 20.1747 140.263 19.4856C140.319 18.8085 140.629 18.1769 141.132 17.7164C141.636 17.2559 142.295 17.0002 142.98 17.0002C143.665 17.0002 144.325 17.2559 144.828 17.7164C145.332 18.1769 145.642 18.8085 145.697 19.4856C145.684 19.828 145.603 20.1644 145.458 20.4756C145.314 20.7869 145.109 21.0668 144.856 21.2995C144.602 21.5321 144.305 21.7128 143.98 21.8314C143.656 21.9499 143.312 22.0039 142.967 21.9902H142.98Z" fill="white"/>
</g>
<defs>
<clipPath id="clip0_2_214">
<rect width="180" height="43" fill="white" transform="translate(0 1)"/>
</clipPath>
</defs>
</svg>
