<svg xmlns="http://www.w3.org/2000/svg" viewBox="0 0 20 18"><path d="M18.23 1.98C17.08.89 15.55.29 13.92.29c-1.44 0-2.81.47-3.9 1.33A6.262 6.262 0 0 0 6.12.29c-1.64 0-3.17.6-4.32 1.69C.65 3.08.01 4.53.01 6.07s.64 3 1.79 4.09l7.8 7.39a.62.62 0 0 0 .83 0l7.79-7.38v-.01c2.37-2.25 2.37-5.92 0-8.17Z" style="fill:#fff;stroke-width:0"/><path d="M18.23 1.98C17.08.89 15.55.29 13.92.29c-1.44 0-2.81.47-3.9 1.33A6.262 6.262 0 0 0 6.12.29c-1.64 0-3.17.6-4.32 1.69C.65 3.07.01 4.53.01 6.07s.63 3 1.79 4.09 7.8 7.39 7.8 7.39c.11.1.26.16.41.16.15 0 .3-.06.41-.16l7.79-7.38v-.01c2.37-2.25 2.37-5.92 0-8.17Zm-.83 7.39-7.39 7-7.39-7c-.93-.89-1.44-2.06-1.44-3.3s.51-2.42 1.44-3.3c.94-.89 2.19-1.38 3.49-1.37 1.32 0 2.55.49 3.48 1.37.23.22.6.22.83 0 .94-.89 2.19-1.38 3.49-1.37 1.32 0 2.55.49 3.49 1.37 1.92 1.82 1.92 4.78 0 6.6Z" style="stroke-width:0;fill:#ff0202"/></svg>