<svg width="20" height="21" viewBox="0 0 20 21" fill="none" xmlns="http://www.w3.org/2000/svg">
<path d="M19.4897 5.12759H15.3808C15.0873 5.12759 14.8916 4.93711 14.8916 4.6514V0.556161C14.8916 0.365685 14.7938 0.270447 14.5981 0.270447H5.30406C4.32574 0.270447 3.64092 1.03235 3.64092 1.88949V7.60378H1.29295C0.705957 7.60378 0.216797 8.07997 0.216797 8.6514V13.7943C0.216797 14.3657 0.705957 14.8419 1.29295 14.8419H3.54309V18.6514C3.54309 19.6038 4.32574 20.2704 5.20623 20.2704H18.0222C19.0006 20.2704 19.6854 19.5085 19.6854 18.6514V5.31807C19.7832 5.22283 19.6854 5.12759 19.4897 5.12759ZM0.901621 13.7943V8.6514C0.901621 8.46092 1.09729 8.27045 1.29295 8.27045H14.7938C14.9894 8.27045 15.1851 8.46092 15.1851 8.6514V13.7943C15.1851 13.9847 14.9894 14.1752 14.7938 14.1752H1.29295C0.999453 14.2704 0.901621 14.08 0.901621 13.7943Z" fill="white"/>
<path d="M19.6854 5.12759L14.7938 0.365685C14.6959 0.270447 14.5003 0.270447 14.4024 0.270447C14.3046 0.365685 14.2068 0.460923 14.2068 0.556161V4.55616C14.2068 5.22283 14.6959 5.69902 15.3807 5.69902H19.4897C19.6854 5.69902 19.7832 5.60378 19.7832 5.4133C19.7832 5.31807 19.7832 5.22283 19.6854 5.12759Z" fill="#D1E8DA"/>
<path d="M2.95609 13.2228C2.6626 13.2228 2.46693 13.0324 2.46693 12.8419C2.46693 12.6514 2.6626 12.4609 2.95609 12.4609C3.15176 12.4609 3.44525 12.6514 3.44525 12.8419C3.34742 13.0324 3.15176 13.2228 2.95609 13.2228Z" fill="white"/>
<path d="M4.71707 13.0324C4.61924 13.1276 4.52141 13.2228 4.32574 13.2228C4.13008 13.2228 3.93442 13.0324 3.93442 12.8419C3.93442 12.7466 3.93442 12.7466 4.03225 12.6514L4.91274 11.2228L4.13008 9.98473C4.13008 9.88949 4.13008 9.8895 4.13008 9.79426C4.13008 9.60378 4.32574 9.50854 4.52141 9.50854C4.71707 9.50854 4.8149 9.60378 4.91274 9.79426L5.49973 10.7466L6.08672 9.79426C6.08672 9.60378 6.18455 9.50854 6.38022 9.50854C6.57588 9.50854 6.77154 9.60378 6.77154 9.79426C6.77154 9.8895 6.77154 9.88949 6.77154 9.98473L5.89106 11.3181L6.77154 12.7466C6.77154 12.7466 6.86938 12.8419 6.86938 12.9371C6.86938 13.1276 6.67371 13.3181 6.47805 13.3181C6.28239 13.3181 6.18455 13.2228 6.08672 13.1276L5.4019 11.9847L4.71707 13.0324Z" fill="white"/>
<path d="M9.41301 13.2228H7.94553C7.74987 13.2228 7.5542 13.0324 7.5542 12.8419V9.79426C7.5542 9.60378 7.74987 9.4133 7.94553 9.4133C8.04336 9.50854 8.23903 9.60378 8.23903 9.79426V12.5562H9.41301C9.60868 12.5562 9.80434 12.6514 9.80434 12.8419C9.80434 13.0324 9.60868 13.2228 9.41301 13.2228Z" fill="white"/>
<path d="M11.9566 11.7943C11.8588 11.7943 11.6631 11.699 11.5653 11.699C11.0762 11.5085 10.4892 11.4133 10.4892 10.6514C10.4892 9.98473 10.9783 9.60378 11.761 9.60378C12.0545 9.60378 12.8371 9.69902 12.8371 10.08C12.8371 10.2704 12.7393 10.3657 12.4458 10.3657C12.348 10.3657 12.2501 10.3657 12.1523 10.2704C12.0545 10.2704 11.9566 10.1752 11.761 10.1752C11.4675 10.1752 11.2718 10.2704 11.2718 10.5562C11.2718 10.7466 11.3697 10.8419 11.4675 10.9371C11.5653 11.0324 11.761 11.0324 11.8588 11.0324C12.348 11.2228 12.935 11.4133 12.935 12.08C12.935 12.8419 12.348 13.2228 11.5653 13.2228C11.174 13.2228 10.3913 13.1276 10.3913 12.7466C10.3913 12.5562 10.587 12.4609 10.7827 12.4609C10.8805 12.4609 10.9783 12.4609 11.0762 12.5562C11.174 12.5562 11.3697 12.6514 11.5653 12.6514C11.9566 12.6514 12.1523 12.4609 12.1523 12.1752C12.1523 11.8895 12.0545 11.7943 11.9566 11.7943Z" fill="white"/>
</svg>
