<svg width="18" height="18" viewBox="0 0 18 18" fill="none" xmlns="http://www.w3.org/2000/svg">
<g clip-path="url(#clip0_134_222)">
<path d="M9 0C10.78 0 12.5201 0.527841 14.0001 1.51677C15.4802 2.50571 16.6337 3.91131 17.3149 5.55585C17.9961 7.20038 18.1743 9.00998 17.8271 10.7558C17.4798 12.5016 16.6226 14.1053 15.364 15.364C14.1053 16.6226 12.5016 17.4798 10.7558 17.8271C9.00998 18.1743 7.20038 17.9961 5.55585 17.3149C3.91131 16.6337 2.50571 15.4802 1.51677 14.0001C0.527841 12.5201 0 10.78 0 9C0.00275532 6.6139 0.951851 4.32631 2.63908 2.63908C4.32631 0.951851 6.6139 0.00275532 9 0ZM9 16.8743C10.5577 16.8743 12.0804 16.4124 13.3756 15.547C14.6708 14.6815 15.6802 13.4514 16.2763 12.0123C16.8723 10.5731 17.0282 8.98952 16.7242 7.46176C16.4202 5.93399 15.67 4.53069 14.5685 3.42931C13.4669 2.32793 12.0635 1.57795 10.5357 1.27422C9.00785 0.970481 7.42428 1.12663 5.98522 1.72292C4.54615 2.31921 3.31623 3.32885 2.451 4.62417C1.58577 5.91948 1.12409 7.44229 1.12435 9C1.12642 11.088 1.95688 13.0899 3.43344 14.5662C4.91 16.0425 6.912 16.8726 9 16.8743Z" fill="white"/>
<path d="M6.00043 6.93739C6.14726 6.93887 6.28757 6.99826 6.39083 7.10266L8.99349 9.70532L11.5962 7.10266C11.7016 6.99722 11.8446 6.93799 11.9937 6.93799C12.1428 6.93799 12.2858 6.99722 12.3913 7.10266C12.4967 7.2081 12.5559 7.3511 12.5559 7.50022C12.5559 7.64933 12.4967 7.79234 12.3913 7.89777L9.39821 10.8908C9.29255 10.9964 9.14933 11.0556 9 11.0556C8.85067 11.0556 8.70745 10.9964 8.60179 10.8908L5.60873 7.89777C5.53047 7.81891 5.47727 7.71866 5.45582 7.60964C5.43437 7.50061 5.44563 7.38768 5.48819 7.28505C5.53075 7.18241 5.6027 7.09464 5.695 7.03278C5.7873 6.97093 5.89583 6.93774 6.00694 6.93739H6.00043Z" fill="white"/>
</g>
<defs>
<clipPath id="clip0_134_222">
<rect width="18" height="18" fill="white"/>
</clipPath>
</defs>
</svg>
