<svg width="18" height="18" viewBox="0 0 18 18" fill="none" xmlns="http://www.w3.org/2000/svg">
<g clip-path="url(#clip0_134_219)">
<path d="M0 9C-7.78076e-08 7.21997 0.527841 5.47991 1.51677 3.99987C2.50571 2.51983 3.91131 1.36628 5.55585 0.685088C7.20038 0.0038988 9.00998 -0.17433 10.7558 0.172937C12.5016 0.520204 14.1053 1.37737 15.364 2.63604C16.6226 3.89471 17.4798 5.49836 17.8271 7.24419C18.1743 8.99002 17.9961 10.7996 17.3149 12.4442C16.6337 14.0887 15.4802 15.4943 14.0001 16.4832C12.5201 17.4722 10.78 18 9 18C6.6139 17.9972 4.32631 17.0482 2.63908 15.3609C0.951852 13.6737 0.00275542 11.3861 0 9ZM16.8743 9C16.8743 7.44229 16.4124 5.91956 15.547 4.62439C14.6815 3.32922 13.4514 2.31978 12.0123 1.72373C10.5731 1.12768 8.98952 0.971788 7.46176 1.27578C5.93399 1.57977 4.53069 2.32998 3.42931 3.43154C2.32793 4.5331 1.57795 5.93653 1.27422 7.46434C0.970481 8.99215 1.12663 10.5757 1.72292 12.0148C2.31921 13.4538 3.32885 14.6838 4.62417 15.549C5.91948 16.4142 7.44229 16.8759 9 16.8757C11.088 16.8736 13.0899 16.0431 14.5662 14.5666C16.0425 13.09 16.8726 11.088 16.8743 9Z" fill="white"/>
<path d="M6.93739 11.9996C6.93887 11.8527 6.99826 11.7124 7.10266 11.6092L9.70532 9.00651L7.10266 6.40385C6.99722 6.29841 6.93799 6.15541 6.93799 6.00629C6.93799 5.85718 6.99722 5.71417 7.10266 5.60874C7.2081 5.5033 7.3511 5.44406 7.50022 5.44406C7.64933 5.44406 7.79234 5.5033 7.89777 5.60874L10.8908 8.6018C10.9964 8.70745 11.0556 8.85067 11.0556 9C11.0556 9.14933 10.9964 9.29256 10.8908 9.39821L7.89777 12.3913C7.81891 12.4695 7.71866 12.5227 7.60964 12.5442C7.50061 12.5656 7.38768 12.5544 7.28505 12.5118C7.18241 12.4693 7.09464 12.3973 7.03278 12.305C6.97093 12.2127 6.93774 12.1042 6.93739 11.9931V11.9996Z" fill="white"/>
</g>
<defs>
<clipPath id="clip0_134_219">
<rect width="18" height="18" fill="white" transform="translate(0 18) rotate(-90)"/>
</clipPath>
</defs>
</svg>
