<svg width="19" height="20" viewBox="0 0 19 20" fill="none" xmlns="http://www.w3.org/2000/svg">
<g clip-path="url(#clip0_134_227)">
<path d="M16.0411 15.8328H6.45893C5.85135 15.8321 5.26887 15.5904 4.83924 15.1608C4.40961 14.7311 4.16791 14.1486 4.16715 13.5411V2.29179C4.16791 1.6842 4.40961 1.10172 4.83924 0.672094C5.26887 0.242466 5.85135 0.000765221 6.45893 0H16.0411C16.6486 0.000765221 17.2311 0.242466 17.6608 0.672094C18.0904 1.10172 18.3321 1.6842 18.3328 2.29179V13.5411C18.3321 14.1486 18.0904 14.7311 17.6608 15.1608C17.2311 15.5904 16.6486 15.8321 16.0411 15.8328ZM6.45893 1.25072C6.18269 1.25072 5.91775 1.36036 5.72228 1.55556C5.52681 1.75075 5.41681 2.01555 5.41642 2.29179V13.5411C5.41642 13.8176 5.52626 14.0827 5.72177 14.2782C5.91728 14.4737 6.18244 14.5836 6.45893 14.5836H16.0411C16.3176 14.5836 16.5827 14.4737 16.7782 14.2782C16.9737 14.0827 17.0836 13.8176 17.0836 13.5411V2.29179C17.0832 2.01555 16.9732 1.75075 16.7777 1.55556C16.5822 1.36036 16.3173 1.25072 16.0411 1.25072H6.45893Z" fill="#222222"/>
<path d="M12.2903 20H2.29179C1.6842 19.9992 1.10172 19.7575 0.672094 19.3279C0.242466 18.8983 0.000765221 18.3158 0 17.7082V4.37536C0.000765221 3.76778 0.242466 3.1853 0.672094 2.75567C1.10172 2.32604 1.6842 2.08434 2.29179 2.08357H2.70821C2.87388 2.08357 3.03276 2.14938 3.1499 2.26653C3.26704 2.38367 3.33285 2.54255 3.33285 2.70821C3.33285 2.87388 3.26704 3.03276 3.1499 3.1499C3.03276 3.26704 2.87388 3.33285 2.70821 3.33285H2.29179C2.01555 3.33323 1.75075 3.44324 1.55556 3.63871C1.36036 3.83417 1.25072 4.09912 1.25072 4.37536V17.7082C1.25111 17.9842 1.36091 18.2488 1.55607 18.4439C1.75122 18.6391 2.0158 18.7489 2.29179 18.7493H12.2903C12.5663 18.7489 12.8309 18.6391 13.0261 18.4439C13.2212 18.2488 13.331 17.9842 13.3314 17.7082V17.2918C13.3391 17.1311 13.4084 16.9796 13.5248 16.8686C13.6413 16.7577 13.7959 16.6958 13.9568 16.6958C14.1176 16.6958 14.2723 16.7577 14.3887 16.8686C14.5051 16.9796 14.5744 17.1311 14.5821 17.2918V17.7082C14.5814 18.3158 14.3397 18.8983 13.91 19.3279C13.4804 19.7575 12.8979 19.9992 12.2903 20Z" fill="#222222"/>
<path d="M14.3754 7.08502H8.12464C7.96398 7.07729 7.81246 7.00803 7.7015 6.8916C7.59053 6.77517 7.52863 6.6205 7.52863 6.45966C7.52863 6.29882 7.59053 6.14415 7.7015 6.02772C7.81246 5.91128 7.96398 5.84202 8.12464 5.8343H14.3754C14.536 5.84202 14.6875 5.91128 14.7985 6.02772C14.9095 6.14415 14.9714 6.29882 14.9714 6.45966C14.9714 6.6205 14.9095 6.77517 14.7985 6.8916C14.6875 7.00803 14.536 7.07729 14.3754 7.08502Z" fill="#222222"/>
<path d="M14.3754 9.58357H8.12464C7.96398 9.57585 7.81246 9.50659 7.7015 9.39016C7.59053 9.27372 7.52863 9.11905 7.52863 8.95821C7.52863 8.79737 7.59053 8.6427 7.7015 8.52627C7.81246 8.40984 7.96398 8.34058 8.12464 8.33285H14.3754C14.536 8.34058 14.6875 8.40984 14.7985 8.52627C14.9095 8.6427 14.9714 8.79737 14.9714 8.95821C14.9714 9.11905 14.9095 9.27372 14.7985 9.39016C14.6875 9.50659 14.536 9.57585 14.3754 9.58357Z" fill="#222222"/>
<path d="M14.3754 12.0836H8.12464C7.96398 12.0758 7.81246 12.0066 7.7015 11.8902C7.59053 11.7737 7.52863 11.6191 7.52863 11.4582C7.52863 11.2974 7.59053 11.1427 7.7015 11.0263C7.81246 10.9098 7.96398 10.8406 8.12464 10.8329H14.3754C14.536 10.8406 14.6875 10.9098 14.7985 11.0263C14.9095 11.1427 14.9714 11.2974 14.9714 11.4582C14.9714 11.6191 14.9095 11.7737 14.7985 11.8902C14.6875 12.0066 14.536 12.0758 14.3754 12.0836Z" fill="#222222"/>
</g>
<defs>
<clipPath id="clip0_134_227">
<rect width="19" height="20" fill="white"/>
</clipPath>
</defs>
</svg>
