<svg width="30" height="31" viewBox="0 0 30 31" fill="none" xmlns="http://www.w3.org/2000/svg">
<rect y="0.5" width="30" height="30" rx="5" fill="black"/>
<path d="M19.1515 14.9863L11.8837 7.71854C11.8157 7.65058 11.7349 7.59668 11.646 7.55993C11.5571 7.52318 11.4619 7.5043 11.3657 7.50437C11.2695 7.50443 11.1743 7.52344 11.0855 7.5603C10.9966 7.59717 10.9159 7.65117 10.848 7.71923C10.78 7.78729 10.7261 7.86806 10.6894 7.95695C10.6526 8.04583 10.6337 8.14108 10.6338 8.23727C10.6339 8.33345 10.6529 8.42868 10.6897 8.51751C10.7266 8.60635 10.7806 8.68705 10.8487 8.75502L17.5933 15.4997L10.8486 22.2443C10.7805 22.3124 10.7265 22.3931 10.6896 22.4821C10.6527 22.571 10.6337 22.6663 10.6337 22.7626C10.6337 22.8589 10.6527 22.9542 10.6896 23.0431C10.7265 23.132 10.7805 23.2128 10.8486 23.2808C10.9165 23.3489 10.9972 23.4029 11.086 23.4398C11.1748 23.4767 11.27 23.4956 11.3662 23.4956C11.4624 23.4956 11.5576 23.4767 11.6464 23.4398C11.7352 23.4029 11.8159 23.3489 11.8837 23.2808L19.1515 16.0214C19.2196 15.9535 19.2736 15.8728 19.3104 15.784C19.3473 15.6952 19.3663 15.6 19.3663 15.5038C19.3663 15.4077 19.3473 15.3124 19.3104 15.2236C19.2736 15.1348 19.2196 15.0542 19.1515 14.9863Z" fill="white"/>
</svg>
