<svg width="10" height="17" viewBox="0 0 10 17" fill="none" xmlns="http://www.w3.org/2000/svg">
<path d="M0.84853 9.01373L8.11625 16.2815C8.18431 16.3494 8.26508 16.4033 8.35397 16.4401C8.44285 16.4768 8.53811 16.4957 8.63429 16.4956C8.73047 16.4956 8.8257 16.4766 8.91453 16.4397C9.00337 16.4028 9.08407 16.3488 9.15204 16.2808C9.22001 16.2127 9.2739 16.1319 9.31065 16.043C9.3474 15.9542 9.36628 15.8589 9.36621 15.7627C9.36615 15.6665 9.34714 15.5713 9.31028 15.4825C9.27341 15.3936 9.21941 15.3129 9.15135 15.245L2.40668 8.50031L9.15135 1.75565C9.21948 1.68763 9.27353 1.60685 9.31041 1.51793C9.34729 1.429 9.36627 1.33368 9.36627 1.23741C9.36627 1.14114 9.34729 1.04581 9.31041 0.95689C9.27353 0.867965 9.21948 0.787184 9.15135 0.719169C9.08345 0.651082 9.00279 0.59706 8.91398 0.560201C8.82517 0.523341 8.72996 0.504368 8.6338 0.504368C8.53765 0.504368 8.44243 0.523341 8.35362 0.560201C8.26481 0.59706 8.18415 0.651082 8.11625 0.719169L0.84853 7.97863C0.780442 8.04653 0.72642 8.12719 0.689561 8.216C0.652701 8.30482 0.633728 8.40003 0.633728 8.49618C0.633728 8.59234 0.652701 8.68755 0.689561 8.77636C0.72642 8.86517 0.780442 8.94584 0.84853 9.01373Z" fill="white"/>
</svg>
