<svg width="14" height="14" viewBox="0 0 14 14" fill="none" xmlns="http://www.w3.org/2000/svg">
<g clip-path="url(#clip0_153_178)">
<mask id="mask0_153_178" style="mask-type:luminance" maskUnits="userSpaceOnUse" x="0" y="0" width="14" height="14">
<path d="M14 0H0V14H14V0Z" fill="white"/>
</mask>
<g mask="url(#mask0_153_178)">
<path d="M12.3957 14H1.60425C1.17894 13.9995 0.771205 13.8303 0.470466 13.5295C0.169726 13.2288 0.000535655 12.8211 0 12.3957V1.60425C0.000535655 1.17894 0.169726 0.771205 0.470466 0.470466C0.771205 0.169726 1.17894 0.000535655 1.60425 0H12.3957C12.8211 0.000535655 13.2288 0.169726 13.5295 0.470466C13.8303 0.771205 13.9995 1.17894 14 1.60425V12.3957C13.9995 12.8211 13.8303 13.2288 13.5295 13.5295C13.2288 13.8303 12.8211 13.9995 12.3957 14Z" fill="white"/>
<path d="M10.0628 7.56274H3.93725C3.82128 7.56274 3.71007 7.51007 3.62807 7.4163C3.54607 7.32253 3.5 7.19535 3.5 7.06274C3.5 6.93014 3.54607 6.80296 3.62807 6.70919C3.71007 6.61542 3.82128 6.56274 3.93725 6.56274H10.0628C10.1787 6.56274 10.2899 6.61542 10.3719 6.70919C10.4539 6.80296 10.5 6.93014 10.5 7.06274C10.5 7.19535 10.4539 7.32253 10.3719 7.4163C10.2899 7.51007 10.1787 7.56274 10.0628 7.56274Z" fill="#666666"/>
<path d="M7.06274 10.5C6.99708 10.5 6.93207 10.4887 6.8714 10.4667C6.81074 10.4447 6.75562 10.4125 6.70919 10.3719C6.66276 10.3313 6.62593 10.2831 6.6008 10.2301C6.57568 10.177 6.56274 10.1202 6.56274 10.0628V3.93725C6.56274 3.82128 6.61542 3.71007 6.70919 3.62807C6.80296 3.54607 6.93014 3.5 7.06274 3.5C7.19535 3.5 7.32253 3.54607 7.4163 3.62807C7.51007 3.71007 7.56274 3.82128 7.56274 3.93725V10.0628C7.56274 10.1202 7.54981 10.177 7.52468 10.2301C7.49956 10.2831 7.46273 10.3313 7.4163 10.3719C7.36987 10.4125 7.31475 10.4447 7.25409 10.4667C7.19342 10.4887 7.12841 10.5 7.06274 10.5Z" fill="#666666"/>
<path d="M12.3957 14H1.60425C1.17894 13.9995 0.771205 13.8303 0.470466 13.5295C0.169726 13.2288 0.000535655 12.8211 0 12.3957V1.60425C0.000535655 1.17894 0.169726 0.771205 0.470466 0.470466C0.771205 0.169726 1.17894 0.000535655 1.60425 0H12.3957C12.8211 0.000535655 13.2288 0.169726 13.5295 0.470466C13.8303 0.771205 13.9995 1.17894 14 1.60425V12.3957C13.9995 12.8211 13.8303 13.2288 13.5295 13.5295C13.2288 13.8303 12.8211 13.9995 12.3957 14ZM1.60425 0.874494C1.41097 0.875029 1.22576 0.952118 1.08918 1.08889C0.952605 1.22566 0.875773 1.41096 0.875506 1.60425V12.3957C0.875774 12.5889 0.952638 12.7741 1.08925 12.9108C1.22585 13.0474 1.41106 13.1242 1.60425 13.1245H12.3957C12.589 13.1242 12.7743 13.0474 12.9111 12.9108C13.0479 12.7742 13.125 12.589 13.1255 12.3957V1.60425C13.125 1.41087 13.0479 1.22557 12.9112 1.08882C12.7744 0.952085 12.5891 0.875028 12.3957 0.874494H1.60425Z" fill="#666666"/>
</g>
</g>
<defs>
<clipPath id="clip0_153_178">
<rect width="14" height="14" fill="white"/>
</clipPath>
</defs>
</svg>
