<svg width="14" height="14" viewBox="0 0 14 14" fill="none" xmlns="http://www.w3.org/2000/svg">
<g clip-path="url(#clip0_134_215)">
<path d="M4.83402 9.60323C4.74812 9.60178 4.66453 9.57512 4.59366 9.52655C4.52279 9.47799 4.46775 9.40966 4.4354 9.33007C4.40305 9.25048 4.3948 9.16314 4.41169 9.0789C4.42857 8.99466 4.46984 8.91724 4.53037 8.85627L8.85629 4.5253C8.89689 4.48469 8.9451 4.45248 8.99815 4.4305C9.05121 4.40853 9.10807 4.39722 9.1655 4.39722C9.22292 4.39722 9.27979 4.40853 9.33284 4.4305C9.38589 4.45248 9.4341 4.48469 9.47471 4.5253C9.51531 4.5659 9.54752 4.61411 9.5695 4.66716C9.59148 4.72022 9.60279 4.77708 9.60279 4.83451C9.60279 4.89193 9.59148 4.9488 9.5695 5.00185C9.54752 5.0549 9.51531 5.10311 9.47471 5.14372L5.14374 9.47469C5.10324 9.51562 5.055 9.54807 5.00182 9.57014C4.94864 9.59221 4.8916 9.60346 4.83402 9.60323Z" fill="#666666"/>
<path d="M9.16598 9.60323C9.10841 9.60346 9.05136 9.59221 8.99818 9.57014C8.945 9.54807 8.89676 9.51562 8.85627 9.47469L4.5253 5.14372C4.44329 5.06171 4.39722 4.95048 4.39722 4.83451C4.39722 4.71853 4.44329 4.6073 4.5253 4.5253C4.6073 4.44329 4.71853 4.39722 4.83451 4.39722C4.95048 4.39722 5.06171 4.44329 5.14372 4.5253L9.47469 8.85627C9.53522 8.91724 9.57649 8.99466 9.59338 9.0789C9.61026 9.16314 9.60202 9.25048 9.56966 9.33007C9.53731 9.40966 9.48227 9.47799 9.4114 9.52655C9.34053 9.57512 9.25695 9.60178 9.17104 9.60323H9.16598Z" fill="#666666"/>
<path d="M12.3957 14H1.60425C1.17894 13.9995 0.771205 13.8303 0.470466 13.5295C0.169726 13.2288 0.000535655 12.8211 0 12.3957L0 1.60425C0.000535655 1.17894 0.169726 0.771205 0.470466 0.470466C0.771205 0.169726 1.17894 0.000535655 1.60425 0L12.3957 0C12.8211 0.000535655 13.2288 0.169726 13.5295 0.470466C13.8303 0.771205 13.9995 1.17894 14 1.60425V12.3957C13.9995 12.8211 13.8303 13.2288 13.5295 13.5295C13.2288 13.8303 12.8211 13.9995 12.3957 14ZM1.60425 0.874494C1.41097 0.875029 1.22576 0.952118 1.08918 1.08889C0.952605 1.22566 0.875773 1.41096 0.875506 1.60425V12.3957C0.875774 12.5889 0.952638 12.7741 1.08925 12.9108C1.22585 13.0474 1.41106 13.1242 1.60425 13.1245H12.3957C12.5889 13.1242 12.7741 13.0474 12.9108 12.9108C13.0474 12.7741 13.1242 12.5889 13.1245 12.3957V1.60425C13.1242 1.41096 13.0474 1.22566 12.9108 1.08889C12.7742 0.952118 12.589 0.875029 12.3957 0.874494H1.60425Z" fill="#666666"/>
</g>
<defs>
<clipPath id="clip0_134_215">
<rect width="14" height="14" fill="white"/>
</clipPath>
</defs>
</svg>
