<svg width="180" height="38" viewBox="0 0 180 38" fill="none" xmlns="http://www.w3.org/2000/svg">
<g clip-path="url(#clip0_1461_2792)">
<path d="M62.8183 11.4618V13.7732H60.5682V11.4823H54.493V10.6709H57.5817V9.64809H53.9339V8.78215H60.4932V6.73662H54.4589V5.89795H62.0478C62.5933 5.89795 62.7706 6.49797 62.7706 6.72298V8.76851H63.3229V9.63445H59.7432V10.6572H62.0478C62.1525 10.6551 62.2565 10.6748 62.3532 10.7149C62.4499 10.7551 62.5372 10.8148 62.6096 10.8905C62.682 10.9661 62.7379 11.0559 62.7739 11.1542C62.8098 11.2526 62.8249 11.3573 62.8183 11.4618Z" fill="white"/>
<path d="M60.0432 16.1324V17.9257H56.218V18.7507H59.8659C60.425 18.7507 60.5955 18.4984 60.5955 18.4984V15.3483H62.7842V19.828H60.5955V19.303C60.5955 19.303 60.3909 19.603 59.6273 19.603H54.7044C54.6215 19.6104 54.538 19.6002 54.4592 19.5732C54.3805 19.5462 54.3084 19.5029 54.2475 19.4462C54.1794 19.3642 54.128 19.2697 54.0965 19.1679C54.0649 19.0661 54.0536 18.9591 54.0634 18.853V17.1075H57.9567V16.1801H54.0634V15.3483H59.3204C59.52 15.3572 59.708 15.4446 59.8434 15.5914C59.9788 15.7383 60.0506 15.9328 60.0432 16.1324ZM62.7706 23.0327H55.0862C54.9991 23.039 54.9117 23.0271 54.8296 22.9978C54.7474 22.9684 54.6722 22.9223 54.6089 22.8622C54.4723 22.6988 54.4061 22.488 54.4248 22.2758V20.3121H56.5931V20.7212H60.5478V20.3121H62.7433L62.7706 23.0327ZM60.575 21.5735H56.5931V22.1872H60.5478L60.575 21.5735Z" fill="white"/>
<path d="M86.7374 15.7847H66.6161V17.6666H74.5596V22.9986H79.2098V17.6666H86.7374V15.7847Z" fill="white"/>
<path d="M69.0572 14.3187H85.8101V5.95248H81.1394V8.46849H71.9823V5.9593H67.3389V12.4641C67.3251 12.6998 67.3591 12.9359 67.4388 13.1582C67.5185 13.3805 67.6423 13.5844 67.8028 13.7576C67.9633 13.9308 68.1571 14.0698 68.3727 14.1662C68.5882 14.2627 68.8211 14.3145 69.0572 14.3187ZM81.1394 10.3504V12.4368H71.9823V10.3504H81.1394Z" fill="white"/>
<path d="M108.918 5.93887H104.24V7.10483H101.922V5.93887H89.8807V7.71167H97.3128C97.415 8.89126 97.3128 13.8483 89.042 14.1892L90.0852 15.9074C90.0852 15.9074 95.8127 16.0574 99.7606 12.9755H104.24V15.812C102.775 15.4469 101.27 15.266 99.7606 15.2733C94.7149 15.2733 90.6239 17.1416 90.6239 19.4394C90.6239 21.7372 94.7149 23.5986 99.7606 23.5986C104.806 23.5986 108.918 21.7372 108.918 19.4394V5.93887ZM101.104 11.0868C101.431 10.4234 101.661 9.71599 101.786 8.98672H104.261V11.0868H101.104ZM95.3695 19.3712C95.3695 18.1439 97.3537 17.1552 99.8015 17.1552C102.249 17.1552 104.233 18.1439 104.233 19.3712C104.233 20.5985 102.249 21.5872 99.8015 21.5872C97.3537 21.5872 95.3695 20.5917 95.3695 19.3712Z" fill="white"/>
<path d="M178.711 7.79346C178.721 7.55984 178.685 7.32655 178.604 7.10713C178.523 6.88771 178.4 6.68654 178.24 6.51527C178.081 6.34401 177.89 6.20607 177.677 6.10946C177.464 6.01285 177.234 5.95949 177 5.95248H161.202V7.84119H174.068V21.1372H172.316V13.7187H168.293V21.1372H166.745V13.7187H162.722V21.1372H159.722V23.0122H179.85V21.1372H178.711V7.79346Z" fill="white"/>
<path d="M113.036 19.3439C113.034 19.5853 113.08 19.8248 113.171 20.0484C113.262 20.2721 113.396 20.4756 113.566 20.6473C113.736 20.8189 113.938 20.9554 114.16 21.0488C114.383 21.1423 114.622 21.1908 114.863 21.1917H121.511C121.73 21.1917 123.284 21.1917 123.755 20.5099V23.0259H127.778V13.48H128.984V23.0259H133.014V5.97976H129.005V11.5913H127.798V5.95248H123.775V18.628C123.257 19.3644 121.921 19.3098 121.921 19.3098H117.686V7.82074H122.33V5.95248H113.043V19.3439H113.036Z" fill="white"/>
<path d="M158.883 8.44805H156.613V5.95932H151.969V15.6347H156.613V10.3299H158.883V8.44805Z" fill="white"/>
<path d="M154.779 16.712H137.678V18.5939H151.997V23.0054H156.64V18.5189C156.638 18.2775 156.589 18.0388 156.494 17.8168C156.399 17.5948 156.261 17.3939 156.088 17.2258C155.914 17.0576 155.709 16.9256 155.485 16.8374C155.26 16.7492 155.02 16.7066 154.779 16.712Z" fill="white"/>
<path d="M147.606 7.83439H150.333V6.1366H145.915V5.11383H141.271V6.1366H136.942V7.86166H139.744C137.814 8.47532 136.689 9.81174 136.689 11.4141C136.689 13.9846 139.826 16.0711 143.692 16.0711C147.558 16.0711 150.688 13.9573 150.688 11.3868C150.688 9.78446 149.474 8.35259 147.606 7.83439ZM143.658 13.8551C142.979 13.879 142.318 13.6325 141.821 13.1697C141.324 12.7069 141.03 12.0657 141.005 11.3868C141.053 10.7162 141.354 10.0887 141.846 9.63065C142.338 9.17257 142.985 8.91791 143.658 8.91791C144.33 8.91791 144.977 9.17257 145.47 9.63065C145.962 10.0887 146.262 10.7162 146.31 11.3868C146.285 12.0657 145.992 12.7069 145.495 13.1697C144.997 13.6325 144.337 13.879 143.658 13.8551Z" fill="white"/>
<path d="M54.2066 32.1285V26.7828H55.6112C56.1655 26.7192 56.7264 26.8163 57.2272 27.0624C57.4663 27.2012 57.665 27.4 57.8037 27.6392C57.9424 27.8784 58.0163 28.1496 58.0181 28.4261C58.0208 28.6912 57.9604 28.9531 57.8418 29.1902C57.7233 29.4274 57.55 29.6329 57.3363 29.7898C56.7923 30.0763 56.1739 30.1905 55.5635 30.117H55.3385V32.1626L54.2066 32.1285ZM55.5157 29.142C55.8013 29.1592 56.0879 29.1386 56.368 29.0806C56.5244 29.0488 56.6646 28.9631 56.7643 28.8385C56.8639 28.7139 56.9167 28.5583 56.9135 28.3988C56.9061 28.2425 56.8452 28.0934 56.7409 27.9767C56.6366 27.86 56.4953 27.7827 56.3408 27.7579C56.0678 27.7171 55.7914 27.7034 55.5157 27.717H55.3112V29.1147L55.5157 29.142Z" fill="white"/>
<path d="M59.8318 26.7828V30.1171C59.8017 30.3634 59.8394 30.6133 59.9409 30.8398C60.02 30.9796 60.135 31.0957 60.2741 31.176C60.4132 31.2563 60.5712 31.298 60.7318 31.2966C60.8776 31.298 61.0216 31.2647 61.152 31.1995C61.2824 31.1343 61.3955 31.0391 61.4819 30.9216C61.6204 30.6776 61.6777 30.3958 61.6455 30.1171V26.7828H62.7296V30.1171C62.7566 30.3749 62.732 30.6356 62.657 30.8838C62.5821 31.132 62.4584 31.3627 62.2933 31.5626C62.0887 31.7764 61.8433 31.9469 61.5715 32.064C61.2998 32.1811 61.0073 32.2425 60.7114 32.2444C60.136 32.2201 59.5918 31.9761 59.1909 31.5626C59.009 31.3622 58.8717 31.1254 58.7882 30.868C58.7048 30.6106 58.677 30.3383 58.7068 30.0693V26.7828H59.8318Z" fill="white"/>
<path d="M63.8888 26.7828H64.9934V29.0943L66.8207 26.7828H68.1844L65.9343 29.4079L68.1844 32.1353H66.8207L64.9661 29.7898V32.1353H63.8888V26.7828Z" fill="white"/>
<path d="M70.3254 30.1511L68.3617 26.7828H69.5822L70.8777 29.2443L72.1732 26.7828H73.3869L71.43 30.1511V32.1285H70.3254V30.1511Z" fill="white"/>
<path d="M79.7757 29.4829C79.6952 30.2505 79.3333 30.9611 78.7598 31.4776C78.1862 31.9941 77.4418 32.2799 76.6699 32.2799C75.8981 32.2799 75.1537 31.9941 74.5801 31.4776C74.0066 30.9611 73.6447 30.2505 73.5641 29.4829C73.6447 28.7153 74.0066 28.0048 74.5801 27.4883C75.1537 26.9718 75.8981 26.6859 76.6699 26.6859C77.4418 26.6859 78.1862 26.9718 78.7598 27.4883C79.3333 28.0048 79.6952 28.7153 79.7757 29.4829ZM74.6756 29.4829C74.717 29.9843 74.9455 30.4517 75.3155 30.7925C75.6856 31.1332 76.1703 31.3224 76.6734 31.3224C77.1764 31.3224 77.6611 31.1332 78.0312 30.7925C78.4013 30.4517 78.6297 29.9843 78.6712 29.4829C78.6297 28.9816 78.4013 28.5142 78.0312 28.1734C77.6611 27.8327 77.1764 27.6435 76.6734 27.6435C76.1703 27.6435 75.6856 27.8327 75.3155 28.1734C74.9455 28.5142 74.717 28.9816 74.6756 29.4829Z" fill="white"/>
<path d="M80.6622 26.7828H81.9031L84.385 30.683V26.7828H85.4896V32.1285H84.2691L81.7668 28.2352V32.1285H80.6622V26.7828Z" fill="white"/>
<path d="M91.0603 28.3511C90.8636 28.131 90.6215 27.9561 90.3508 27.8384C90.0801 27.7207 89.7872 27.663 89.492 27.6692C88.9988 27.6692 88.5193 27.8322 88.1284 28.1329C87.9215 28.2961 87.7531 28.503 87.6353 28.7387C87.5174 28.9744 87.453 29.2331 87.4465 29.4966C87.4538 29.7323 87.5083 29.9641 87.6067 30.1784C87.705 30.3927 87.8453 30.5851 88.0193 30.7443C88.4389 31.1315 88.9893 31.3458 89.5602 31.3444C89.909 31.3462 90.2525 31.2589 90.558 31.0906C90.8635 30.9223 91.1209 30.6787 91.3057 30.383H88.8102V29.4011H92.6967V29.517C92.6967 31.0784 91.2307 32.2444 89.5329 32.2444C87.8352 32.2444 86.3419 31.0444 86.3419 29.4761C86.3946 28.6849 86.7569 27.9464 87.3504 27.4205C87.9439 26.8947 88.7207 26.6239 89.5125 26.6669C90.1022 26.6481 90.6855 26.7945 91.1963 27.0897C91.7072 27.3849 92.1253 27.8171 92.4035 28.3374L91.0603 28.3511Z" fill="white"/>
<path d="M95.6627 26.7828H96.9037L99.3856 30.683V26.7828H100.49V32.1285H99.2629L96.7673 28.2352V32.1285H95.6627V26.7828Z" fill="white"/>
<path d="M103.64 26.7828H104.506L107.015 32.1285H105.795L105.154 30.7648H103.04L102.358 32.1285H101.138L103.64 26.7828ZM104.718 29.783L104.077 28.1602L103.443 29.783H104.718Z" fill="white"/>
<path d="M108.202 27.7442H107.104V26.7828H110.459V27.7442H109.341V32.1285H108.236L108.202 27.7442Z" fill="white"/>
<path d="M110.984 26.7828H112.088V32.1285H110.984V26.7828Z" fill="white"/>
<path d="M119.145 29.4829C119.065 30.2505 118.703 30.9611 118.129 31.4776C117.556 31.9941 116.811 32.2799 116.04 32.2799C115.268 32.2799 114.523 31.9941 113.95 31.4776C113.376 30.9611 113.014 30.2505 112.934 29.4829C113.014 28.7153 113.376 28.0048 113.95 27.4883C114.523 26.9718 115.268 26.6859 116.04 26.6859C116.811 26.6859 117.556 26.9718 118.129 27.4883C118.703 28.0048 119.065 28.7153 119.145 29.4829ZM114.038 29.4829C114.089 29.9788 114.321 30.4384 114.691 30.7726C115.061 31.1068 115.541 31.2918 116.04 31.2918C116.538 31.2918 117.019 31.1068 117.388 30.7726C117.758 30.4384 117.991 29.9788 118.041 29.4829C117.991 28.9871 117.758 28.5275 117.388 28.1933C117.019 27.8591 116.538 27.6741 116.04 27.6741C115.541 27.6741 115.061 27.8591 114.691 28.1933C114.321 28.5275 114.089 28.9871 114.038 29.4829Z" fill="white"/>
<path d="M120.005 26.7828H121.246L123.741 30.683V26.7828H124.846V32.1285H123.625L121.123 28.2352V32.1285H120.005V26.7828Z" fill="white"/>
<path d="M127.975 26.7828H128.869L131.378 32.1285H130.157L129.516 30.7648H127.403L126.721 32.1285H125.5L127.975 26.7828ZM129.053 29.783L128.412 28.1602L127.778 29.783H129.053Z" fill="white"/>
<path d="M131.957 26.7828H133.062V31.1671H134.882V32.1285H131.957V26.7828Z" fill="white"/>
<path d="M138.864 26.7828V30.1171C138.836 30.364 138.876 30.614 138.98 30.8398C139.058 30.9795 139.171 31.0958 139.309 31.1762C139.447 31.2566 139.605 31.2982 139.764 31.2966C139.911 31.2969 140.056 31.2632 140.187 31.1981C140.318 31.133 140.433 31.0384 140.521 30.9216C140.655 30.6759 140.71 30.395 140.678 30.1171V26.7828H141.783V30.1171C141.81 30.3749 141.785 30.6356 141.71 30.8838C141.635 31.132 141.511 31.3627 141.346 31.5626C141.142 31.7764 140.896 31.9469 140.625 32.064C140.353 32.1811 140.06 32.2425 139.764 32.2444C139.189 32.2201 138.645 31.9761 138.244 31.5626C138.062 31.3622 137.925 31.1254 137.841 30.868C137.758 30.6106 137.73 30.3383 137.76 30.0693V26.7828H138.864Z" fill="white"/>
<path d="M142.921 26.7828H144.162L146.644 30.683V26.7828H147.756V32.1285H146.528L144.026 28.2352V32.1285H142.921V26.7828Z" fill="white"/>
<path d="M148.894 26.7828H150.006V32.1285H148.908L148.894 26.7828Z" fill="white"/>
<path d="M150.688 26.7828H151.853L153.456 30.8739L155.058 26.7828H156.224L153.913 32.1285H153.006L150.688 26.7828Z" fill="white"/>
<path d="M156.824 26.7828H160.029V27.7442H157.929V28.9716H159.974V29.9398H157.929V31.1671H160.029V32.1285H156.824V26.7828Z" fill="white"/>
<path d="M160.983 26.7828H162.708C163.254 26.7339 163.8 26.8657 164.263 27.1579C164.47 27.3107 164.638 27.5087 164.757 27.7368C164.875 27.9649 164.939 28.217 164.945 28.4738C164.93 28.9095 164.755 29.3244 164.454 29.6398C164.159 29.9098 163.792 30.0876 163.397 30.1512L165.013 32.1285H163.649L162.081 30.083V32.1285H160.983V26.7828ZM162.695 29.3193C163.005 29.347 163.316 29.2676 163.574 29.0943C163.66 29.0238 163.729 28.9353 163.776 28.8351C163.823 28.7349 163.847 28.6255 163.847 28.5147C163.851 28.3954 163.823 28.2772 163.767 28.1719C163.711 28.0666 163.628 27.9779 163.527 27.9147C163.277 27.7699 162.988 27.7078 162.702 27.7374H162.088V29.3193H162.695Z" fill="white"/>
<path d="M166.37 30.6216C166.37 31.0512 166.752 31.3034 167.195 31.3034C167.291 31.3109 167.388 31.299 167.479 31.2685C167.57 31.2381 167.655 31.1897 167.727 31.1262C167.8 31.0626 167.859 30.9853 167.901 30.8986C167.943 30.812 167.967 30.7178 167.972 30.6216C167.972 30.0352 167.42 29.8648 166.929 29.7216C166.55 29.6431 166.196 29.4721 165.899 29.2238C165.756 29.0942 165.64 28.9367 165.559 28.7609C165.478 28.585 165.434 28.3946 165.429 28.2011C165.445 27.9857 165.502 27.7755 165.599 27.5824C165.696 27.3894 165.83 27.2174 165.993 27.0762C166.157 26.935 166.346 26.8273 166.551 26.7595C166.756 26.6916 166.973 26.6648 167.188 26.6805C167.62 26.6577 168.043 26.8037 168.369 27.0874C168.694 27.3712 168.897 27.7706 168.934 28.2011H167.795C167.778 28.0369 167.697 27.8862 167.569 27.7815C167.441 27.6768 167.278 27.6267 167.113 27.6419C167.036 27.6362 166.959 27.6467 166.886 27.6727C166.813 27.6987 166.747 27.7398 166.691 27.7931C166.635 27.8464 166.591 27.9109 166.561 27.9824C166.532 28.0538 166.518 28.1306 166.52 28.2079C166.52 28.5965 166.915 28.7465 167.27 28.8897C167.684 28.9834 168.076 29.1521 168.429 29.3875C168.632 29.5159 168.798 29.6958 168.91 29.9089C169.021 30.1221 169.074 30.3609 169.063 30.6012C168.997 31.0629 168.769 31.4859 168.419 31.7941C168.069 32.1022 167.62 32.2751 167.154 32.2817C166.687 32.2883 166.234 32.1281 165.875 31.8299C165.516 31.5318 165.276 31.1154 165.197 30.6557L166.37 30.6216Z" fill="white"/>
<path d="M169.854 26.7828H170.959V32.1285H169.854V26.7828Z" fill="white"/>
<path d="M172.718 27.7442H171.62V26.7828H174.934V27.7442H173.823V32.1285H172.718V27.7442Z" fill="white"/>
<path d="M176.932 30.1511L174.975 26.7828H176.195L177.491 29.2443L178.786 26.7828H180.007L178.043 30.1511V32.1285H176.939L176.932 30.1511Z" fill="white"/>
<path d="M18.0484 27.1238C16.0465 26.8454 14.213 25.8516 12.8869 24.3262C11.5608 22.8009 10.8317 20.847 10.8345 18.8257C10.8443 16.8001 11.5805 14.8452 12.9093 13.3162C14.238 11.7873 16.0712 10.7857 18.0757 10.4936H18.1234C16.621 11.3093 15.3652 12.5135 14.4872 13.9804C13.6093 15.4472 13.1413 17.123 13.1323 18.8325C13.1281 20.5175 13.5764 22.1726 14.4304 23.6251C15.2844 25.0776 16.5127 26.2741 17.9871 27.0897L18.0484 27.1238Z" fill="white"/>
<path d="M31.5694 18.8257C31.5709 16.7514 30.8153 14.7479 29.4444 13.1911C28.0735 11.6344 26.1815 10.6316 24.1237 10.3708L26.0328 18.8257H22.9918V30.8944L23.8986 27.3079C26.0007 27.0951 27.9489 26.1097 29.366 24.5427C30.7832 22.9757 31.5683 20.9385 31.5694 18.8257Z" fill="white"/>
<path d="M22.9918 37.106C35.5377 37.106 45.7108 28.8625 45.7108 18.6962C45.7108 8.52988 35.5377 0.26593 22.9918 0.26593C10.4459 0.26593 0.26593 8.51624 0.26593 18.6825C0.26593 28.8488 10.439 37.106 22.9918 37.106Z" stroke="white" stroke-width="0.78"/>
<path d="M22.9918 31.8694C32.2239 31.8694 39.7106 25.9646 39.7106 18.6757C39.7106 11.3868 32.2239 5.48883 22.9918 5.48883C13.7596 5.48883 6.26614 11.3936 6.26614 18.6757C6.26614 25.9578 13.7528 31.8694 22.9918 31.8694Z" stroke="white" stroke-width="0.31"/>
<path d="M28.0852 27.1238C30.0865 26.844 31.9192 25.8499 33.245 24.3248C34.5709 22.7997 35.3004 20.8466 35.2991 18.8257C35.2892 16.8001 34.5531 14.8452 33.2243 13.3162C31.8955 11.7873 30.0624 10.7857 28.0579 10.4936H28.0102C29.5113 11.3102 30.7657 12.5147 31.6425 13.9816C32.5192 15.4484 32.9861 17.1237 32.9944 18.8325C32.9993 20.5168 32.5521 22.1715 31.6993 23.6239C30.8466 25.0763 29.6196 26.2732 28.1465 27.0897L28.0852 27.1238Z" fill="white"/>
<path d="M22.044 10.3572C19.9774 10.5887 18.0667 11.5679 16.6717 13.1102C15.2768 14.6525 14.4939 16.6517 14.4704 18.7311C14.447 20.8105 15.1846 22.8268 16.5443 24.4002C17.9041 25.9737 19.7922 26.9957 21.8531 27.2738L19.9439 18.8394H22.9918V6.56616L22.044 10.3572Z" fill="white"/>
<path d="M7.3162 26.1487L5.03884 27.5874L4.62292 26.9056C4.43264 26.6642 4.30814 26.3776 4.26154 26.0737C4.24508 25.9322 4.26748 25.7889 4.32634 25.6591C4.38521 25.5294 4.47831 25.4181 4.59564 25.3373C4.71653 25.2699 4.85267 25.2344 4.99111 25.2344C5.12956 25.2344 5.2657 25.2699 5.38658 25.3373C5.67981 25.5183 5.91611 25.7783 6.06843 26.0874L6.13661 26.1896L6.99573 25.651L7.3162 26.1487ZM5.6525 26.3328C5.5734 26.1937 5.47969 26.0634 5.37295 25.9442C5.31912 25.8824 5.24555 25.8411 5.16475 25.8275C5.08395 25.8138 5.00091 25.8285 4.92975 25.8692C4.86451 25.9202 4.81875 25.992 4.80014 26.0727C4.78152 26.1533 4.79117 26.238 4.82747 26.3124C4.89403 26.4502 4.97155 26.5824 5.0593 26.7078L5.12066 26.8033L5.71387 26.4283L5.6525 26.3328Z" fill="white"/>
<path d="M3.32059 24.4918L4.88883 23.8645C5.01025 23.834 5.11959 23.7674 5.20248 23.6736C5.25462 23.6042 5.28771 23.5224 5.29848 23.4363C5.30924 23.3502 5.2973 23.2628 5.26385 23.1827C5.23705 23.1072 5.19376 23.0387 5.13715 22.9821C5.08053 22.9255 5.01201 22.8822 4.93656 22.8554C4.79733 22.8235 4.65119 22.8454 4.52745 22.9168L2.95921 23.5168L2.72739 22.9645L4.28881 22.3645C4.41008 22.3105 4.54132 22.2827 4.67405 22.2827C4.80678 22.2827 4.93803 22.3105 5.05929 22.3645C5.34854 22.5052 5.57468 22.7491 5.69328 23.0481C5.81188 23.3471 5.81436 23.6797 5.70023 23.9805C5.6457 24.1084 5.56269 24.2222 5.45753 24.3131C5.35236 24.4041 5.22782 24.4699 5.09338 24.5055L3.52514 25.0987L3.32059 24.4918Z" fill="white"/>
<path d="M2.46827 21.9145L2.37963 21.3008L3.53195 21.1372L2.22963 20.2712L2.12735 19.5417L3.61377 20.5985L4.7729 19.1598L4.882 19.8894L3.85923 21.0826L5.02519 20.919L5.11383 21.5326L2.46827 21.9145Z" fill="white"/>
<path d="M3.87968 18.0143L2.10007 18.9757L2.15461 18.2939L3.45012 17.6666L2.27053 16.8484L2.32508 16.1665L3.92741 17.3939L4.91608 17.4757L4.86835 18.0893L3.87968 18.0143Z" fill="white"/>
<path d="M4.85474 12.7027C5.22857 12.8879 5.51499 13.2122 5.65264 13.606C5.79028 13.9998 5.76821 14.4319 5.59113 14.8096C5.49076 15.2139 5.2363 15.5628 4.88212 15.7819C4.52795 16.0011 4.10212 16.073 3.69561 15.9824C3.32058 15.7984 3.03266 15.4747 2.8937 15.0808C2.75473 14.6868 2.77581 14.2541 2.9524 13.8755C3.05274 13.4699 3.30822 13.1197 3.66395 12.9004C4.01967 12.6811 4.44724 12.6102 4.85474 12.7027ZM3.89334 15.396C4.15695 15.4546 4.43297 15.4093 4.66407 15.2696C4.89516 15.1299 5.06357 14.9066 5.1343 14.646C5.24168 14.3989 5.25066 14.1202 5.15942 13.8667C5.06817 13.6133 4.88358 13.4042 4.64337 13.2823C4.38039 13.2204 4.10362 13.2644 3.87275 13.4047C3.64188 13.545 3.4754 13.7704 3.40923 14.0323C3.29432 14.2776 3.2807 14.5583 3.37131 14.8136C3.46193 15.0688 3.64949 15.2781 3.89334 15.396Z" fill="white"/>
<path d="M4.09106 11.3595L4.48653 10.7936H6.89344L5.27747 9.6481L5.63203 9.13672L7.84121 10.664L7.45256 11.23L5.04565 11.2709L6.66162 12.3823L6.30706 12.8937L4.09106 11.3595Z" fill="white"/>
<path d="M8.71397 7.22072C8.55217 7.21074 8.39004 7.23403 8.23759 7.28915C8.08513 7.34427 7.94559 7.43005 7.82758 7.54119C7.62399 7.72186 7.47914 7.95933 7.41165 8.22303C7.37867 8.35481 7.37691 8.49246 7.40651 8.62504C7.4361 8.75761 7.49623 8.88145 7.58211 8.9867C7.67047 9.07559 7.77748 9.14373 7.8954 9.18618C8.01333 9.22864 8.13922 9.24434 8.26396 9.23216C8.56802 9.20374 8.85374 9.07409 9.07535 8.86396C9.21892 8.73926 9.33041 8.58187 9.40042 8.40506C9.47043 8.22825 9.49691 8.0372 9.47764 7.84802L8.44124 8.78214L8.12759 8.4344L9.74356 6.97526L9.77765 7.02298C10.0149 7.36883 10.107 7.79389 10.0344 8.20692C9.96169 8.61995 9.73 8.98803 9.389 9.23216C9.10723 9.54692 8.71382 9.7394 8.29238 9.76869C7.87094 9.79797 7.45469 9.66175 7.1321 9.38898C6.89952 9.04345 6.80807 8.62197 6.87655 8.21112C6.94502 7.80027 7.16822 7.43123 7.50029 7.17981C7.72884 6.95564 8.01227 6.79545 8.3222 6.71528C8.63213 6.6351 8.95768 6.63776 9.26627 6.72297L8.71397 7.22072Z" fill="white"/>
<path d="M10.7322 4.83429L11.3527 4.52064L13.4801 5.6525L12.5937 3.90016L13.146 3.62061L14.3596 6.0207L13.746 6.32753L11.5914 5.2093L12.4778 6.96164L11.9255 7.23438L10.7322 4.83429Z" fill="white"/>
<path d="M15.1028 2.9183L15.5597 2.77512L17.7279 4.91611L17.0802 5.12066L16.5279 4.56837L15.396 4.92292L15.2597 5.70023L14.5778 5.90478L15.1028 2.9183ZM16.1256 4.17971L15.546 3.49787L15.4506 4.38427L16.1256 4.17971Z" fill="white"/>
<path d="M17.8984 2.67964L17.2916 2.79555L17.2029 2.32508L19.0234 1.97052L19.1121 2.44781L18.5052 2.56372L18.9143 4.73199L18.3075 4.8479L17.8984 2.67964Z" fill="white"/>
<path d="M19.4734 1.92281L20.0871 1.84781L20.4144 4.52064L19.8007 4.59564L19.4734 1.92281Z" fill="white"/>
<path d="M24.2736 3.02738C24.2288 3.44173 24.0243 3.8223 23.7035 4.08835C23.3827 4.35441 22.9709 4.485 22.5554 4.45244C22.1423 4.49911 21.7273 4.38271 21.3987 4.12801C21.0702 3.87331 20.854 3.50043 20.7962 3.08875C20.8361 2.67379 21.0368 2.29091 21.3554 2.02203C21.6739 1.75316 22.0851 1.61964 22.5008 1.65006C22.9182 1.59981 23.3385 1.71629 23.6705 1.97419C24.0024 2.23209 24.2192 2.61057 24.2736 3.02738ZM21.4167 3.02738C21.4667 3.28734 21.6056 3.52177 21.8097 3.69037C22.0138 3.85897 22.2702 3.9512 22.5349 3.9512C22.7996 3.9512 23.0561 3.85897 23.2602 3.69037C23.4642 3.52177 23.6032 3.28734 23.6532 3.02738C23.5966 2.77296 23.455 2.54541 23.2517 2.38233C23.0484 2.21924 22.7956 2.13036 22.5349 2.13036C22.2743 2.13036 22.0215 2.21924 21.8182 2.38233C21.6149 2.54541 21.4732 2.77296 21.4167 3.02738Z" fill="white"/>
<path d="M25.0373 1.73871L25.7192 1.82735L26.8442 3.9547L27.1033 2.04554L27.717 2.12054L27.3692 4.77291L26.6874 4.68427L25.5555 2.54328L25.2964 4.48654L24.6896 4.40472L25.0373 1.73871Z" fill="white"/>
<path d="M29.708 2.57736L30.1716 2.70691L30.7921 5.67975L30.1102 5.48884L30.0011 4.72517L28.8625 4.4047L28.3238 4.97063L27.642 4.78654L29.708 2.57736ZM29.8716 4.19333L29.7557 3.31375L29.1898 3.9956L29.8716 4.19333Z" fill="white"/>
<path d="M32.0467 3.34103L32.6194 3.57968L31.7603 5.62521L32.7285 6.00704L32.5376 6.45024L31.0307 5.81613L32.0467 3.34103Z" fill="white"/>
<path d="M35.8582 5.25021L34.9309 6.6139C34.8471 6.7095 34.7948 6.8285 34.7809 6.95482C34.7821 7.0415 34.8044 7.12657 34.846 7.20263C34.8876 7.27868 34.9472 7.34342 35.0195 7.3912C35.0805 7.43898 35.1509 7.47339 35.2261 7.49219C35.3013 7.51098 35.3796 7.51375 35.4559 7.5003C35.5849 7.44073 35.6904 7.33999 35.7559 7.21392L36.6832 5.81614L37.2014 6.16388L36.2673 7.52757C36.2067 7.64561 36.121 7.74891 36.0161 7.8302C35.9113 7.91149 35.7898 7.96879 35.6604 7.99804C35.3426 8.05257 35.0159 7.9853 34.7454 7.80964C34.475 7.63397 34.2807 7.36283 34.2013 7.05028C34.1741 6.91573 34.1771 6.77682 34.2101 6.64358C34.2432 6.51033 34.3053 6.38608 34.3922 6.2798L35.3263 4.91611L35.8582 5.25021Z" fill="white"/>
<path d="M38.0264 6.76389L38.5242 7.24799L38.1833 9.62763L39.5469 8.21621L39.9901 8.64578L38.1219 10.5822L37.631 10.0981L37.9855 7.71847L36.6218 9.12988L36.1377 8.70032L38.0264 6.76389Z" fill="white"/>
<path d="M40.5356 9.40262L40.9107 9.89355L38.7628 11.5232L38.3947 11.0254L40.5356 9.40262Z" fill="white"/>
<path d="M41.3743 10.439L41.6811 11.0118L40.3174 12.7641L42.5471 12.5937L42.8471 13.1664L39.8674 13.296L39.6288 12.8459L41.3743 10.439Z" fill="white"/>
<path d="M43.0516 13.9096L43.5357 15.6347L43.0653 15.7642L42.7516 14.6324L42.1584 14.8028L42.4584 15.8801L41.9948 16.0165L41.688 14.9324L41.0947 15.096L41.4084 16.2279L40.9447 16.3574L40.4606 14.6324L43.0516 13.9096Z" fill="white"/>
<path d="M43.7062 16.5825L43.7744 17.5439C43.8179 17.8397 43.7703 18.1417 43.638 18.4098C43.5758 18.5286 43.4855 18.6304 43.375 18.7065C43.2645 18.7825 43.1371 18.8305 43.0039 18.8462C42.7815 18.8488 42.5667 18.7658 42.4039 18.6144C42.2531 18.4547 42.1493 18.2565 42.1039 18.0416L41.1834 19.0235L41.1288 18.2598L42.097 17.3189L41.0675 17.387L41.0266 16.7734L43.7062 16.5825ZM42.4993 17.6257C42.4953 17.798 42.5454 17.9673 42.6425 18.1098C42.6785 18.1543 42.7243 18.1897 42.7764 18.2134C42.8285 18.2371 42.8854 18.2483 42.9425 18.2462C43.0046 18.2392 43.0639 18.2168 43.1151 18.1811C43.1663 18.1453 43.2077 18.0974 43.2357 18.0416C43.2985 17.8956 43.3175 17.7345 43.2903 17.578V17.237L42.4925 17.2916L42.4993 17.6257Z" fill="white"/>
<path d="M41.8379 19.7735C41.6266 19.7735 41.4766 19.9439 41.4425 20.1894C41.4176 20.2888 41.433 20.3941 41.4854 20.4822C41.5378 20.5703 41.6228 20.6342 41.722 20.6599C42.0152 20.7008 42.1379 20.4076 42.247 20.1417C42.3124 19.9405 42.4218 19.7564 42.5675 19.603C42.6396 19.5338 42.7254 19.4805 42.8193 19.4464C42.9133 19.4124 43.0133 19.3983 43.113 19.4053C43.3328 19.4663 43.5209 19.609 43.6388 19.8042C43.7567 19.9995 43.7954 20.2324 43.7471 20.4553C43.6789 20.9667 43.2834 21.3826 42.8607 21.3213L42.9425 20.694C43.03 20.6888 43.1123 20.6509 43.173 20.5876C43.2337 20.5244 43.2682 20.4407 43.2698 20.353C43.2798 20.3135 43.2814 20.2724 43.2746 20.2322C43.2678 20.192 43.2526 20.1537 43.2302 20.1197C43.2077 20.0857 43.1784 20.0568 43.1442 20.0347C43.1099 20.0127 43.0714 19.998 43.0312 19.9917C42.8334 19.9917 42.7311 20.1758 42.6493 20.3667C42.579 20.5897 42.4681 20.7977 42.322 20.9803C42.2463 21.0861 42.1418 21.168 42.021 21.2163C41.9002 21.2647 41.768 21.2774 41.6402 21.2531C41.3955 21.1814 41.1879 21.018 41.0609 20.7969C40.9338 20.5758 40.8971 20.3142 40.9584 20.0667C41.0334 19.5007 41.4493 19.0439 41.9129 19.1053L41.8379 19.7735Z" fill="white"/>
<path d="M43.3653 22.194L43.2016 22.7872L40.6106 22.0713L40.7743 21.4713L43.3653 22.194Z" fill="white"/>
<path d="M42.3561 23.7691L42.588 23.2031L43.038 23.3872L42.3561 25.0987L41.9061 24.9146L42.1448 24.335L40.0992 23.4963L40.3379 22.9236L42.3561 23.7691Z" fill="white"/>
<path d="M40.1742 25.4737H42.2198L41.8516 26.0464L40.4197 26.0055L41.1015 27.2806L40.7402 27.8533L39.8879 26.026L39.0492 25.4941L39.3765 24.9691L40.1742 25.4737Z" fill="white"/>
<path d="M25.0441 32.7285H24.0964V32.9672H23.6327V32.7285H21.1985V33.0899H22.6986C22.6986 33.3285 22.6986 34.324 21.0281 34.399L21.2394 34.7468C21.9297 34.7534 22.6063 34.554 23.1827 34.174H24.0827V34.774C23.7896 34.6913 23.4872 34.6454 23.1827 34.6377C22.1599 34.6377 21.3349 35.0127 21.3349 35.4763C21.3349 35.94 22.1599 36.3218 23.1827 36.3218C24.2055 36.3218 25.0305 35.94 25.0305 35.4763L25.0441 32.7285ZM23.4623 33.7717C23.5279 33.6381 23.5738 33.4958 23.5986 33.349H24.0964V33.7717H23.4623ZM22.3099 35.4559C22.3099 35.2036 22.7054 35.0059 23.2032 35.0059C23.7009 35.0059 24.0964 35.2036 24.0964 35.4559C24.0964 35.7082 23.6941 35.8991 23.2032 35.8991C22.7122 35.8991 22.3099 35.715 22.3099 35.4559Z" fill="white"/>
<path d="M20.1485 34.7399L16.1665 33.9013L16.0915 34.2695L17.6598 34.6036L17.4348 35.6604L18.3552 35.8513L18.5803 34.7945L20.0667 35.115L20.1485 34.7399Z" fill="white"/>
<path d="M16.712 33.7104L19.4394 34.2899L20.0121 34.4127L20.3735 32.7285L19.453 32.5376L19.3507 33.0354L17.5302 32.6535L17.6393 32.1558L16.7188 31.958L16.4461 33.2467C16.4295 33.2946 16.4234 33.3454 16.4282 33.3959C16.4329 33.4463 16.4484 33.4951 16.4736 33.539C16.4988 33.583 16.5331 33.621 16.5742 33.6505C16.6154 33.6801 16.6623 33.7005 16.712 33.7104ZM19.2689 33.4104L19.1803 33.8263L17.3666 33.4445L17.4552 33.0285L19.2689 33.4104Z" fill="white"/>
<path d="M14.6801 31.583L14.3187 32.3126L12.7641 31.6307L12.6073 31.9648L14.0937 32.6467C14.3187 32.7558 14.4346 32.6876 14.4346 32.6876L15.0483 31.3648L15.9347 31.7739L15.096 33.5944L14.2028 33.1853L14.3051 32.9672C14.3051 32.9672 14.1619 33.0558 13.8551 32.9126L11.8573 31.9853C11.8224 31.972 11.7906 31.9519 11.7637 31.9261C11.7368 31.9004 11.7153 31.8695 11.7004 31.8353C11.6765 31.7411 11.6886 31.6414 11.7345 31.5557L12.0686 30.8739L13.6369 31.583L13.8073 31.208L12.2732 30.4784L12.43 30.1443L14.571 31.133C14.6425 31.1805 14.6934 31.2532 14.7137 31.3366C14.7339 31.4201 14.7219 31.508 14.6801 31.583ZM14.4824 34.9036L11.3663 33.4513C11.2938 33.4218 11.2352 33.3657 11.2027 33.2944C11.1784 33.2025 11.1906 33.1048 11.2368 33.0217L11.5913 32.2239L12.4777 32.633L12.4027 32.8035L14.0051 33.5467L14.0801 33.3831L14.9733 33.7922L14.4824 34.9036ZM13.8619 33.8945L12.2732 33.1512L12.1573 33.3967L13.7596 34.1399L13.8619 33.8945Z" fill="white"/>
<path d="M10.1049 31.5421L9.46401 32.3262L8.70716 31.6989L9.34128 30.9284L7.29575 29.2375L7.52075 28.9647L8.56398 29.8239L8.85035 29.4761L7.61621 28.467L7.85486 28.1738L10.064 30.0011L10.6231 29.3193L8.57761 27.6488L8.80944 27.3624L11.3868 29.4693C11.4462 29.5346 11.4791 29.6197 11.4791 29.7079C11.4791 29.7962 11.4462 29.8813 11.3868 29.9466L10.8141 30.6284L11.005 30.7784L10.7663 31.0716L9.54583 30.0761L9.25946 30.4239L10.0299 31.0512C10.0691 31.0769 10.1024 31.1105 10.1277 31.1499C10.153 31.1894 10.1697 31.2336 10.1767 31.2799C10.1838 31.3262 10.1811 31.3735 10.1687 31.4187C10.1563 31.4638 10.1346 31.5059 10.1049 31.5421Z" fill="white"/>
<path d="M26.4351 35.3332C26.4549 35.4295 26.5117 35.5142 26.5933 35.569C26.6749 35.6239 26.7748 35.6445 26.8715 35.6264L28.1874 35.3468C28.2283 35.3468 28.5352 35.2718 28.6033 35.1218L28.7056 35.6195L29.5102 35.4559L29.1147 33.5672L29.3534 33.5195L29.742 35.4013L30.5398 35.2309L29.8579 31.8626L29.0397 32.0467L29.2716 33.1581L29.0329 33.2058L28.8011 32.0467L28.0033 32.2103L28.5283 34.7741C28.4602 34.9445 28.1942 34.9854 28.1942 34.9854L27.3556 35.1627L26.8783 32.8922L27.7988 32.6944L27.717 32.3262L25.9101 32.6876L26.4624 35.3332H26.4351Z" fill="white"/>
<path d="M34.7263 30.1512L34.3104 30.3353L34.099 29.8784L33.2467 30.2671L34.0513 32.0467L34.9104 31.658L34.4672 30.683L34.8831 30.4921L34.7263 30.1512Z" fill="white"/>
<path d="M34.6581 32.0467L31.508 33.4104L31.6648 33.7581L34.2968 32.5921L34.665 33.4104L35.5241 33.0217L35.1491 32.1967C35.1286 32.1527 35.0996 32.1133 35.0638 32.0805C35.028 32.0478 34.9861 32.0225 34.9404 32.006C34.8948 31.9895 34.8464 31.9822 34.798 31.9845C34.7495 31.9868 34.702 31.9987 34.6581 32.0194" fill="white"/>
<path d="M32.599 30.9762L33.0967 30.7512L32.9535 30.4307L32.1353 30.7989L32.0467 30.6216L31.1944 31.0034L31.2762 31.1875L30.4784 31.5489L30.6216 31.8694L31.1398 31.6376C31.0001 31.7369 30.898 31.8804 30.8497 32.0449C30.8015 32.2094 30.81 32.3853 30.8739 32.5444C31.0853 33.0149 31.8353 33.1376 32.5512 32.8171C33.2672 32.4967 33.6626 31.8489 33.4513 31.3716C33.3718 31.2217 33.2455 31.102 33.0916 31.0306C32.9377 30.9591 32.7647 30.94 32.599 30.9762ZM32.3739 32.4149C32.2513 32.4699 32.1123 32.4758 31.9855 32.4314C31.8586 32.3871 31.7536 32.2957 31.6921 32.1762C31.64 32.0806 31.6181 31.9715 31.6292 31.8633C31.6403 31.755 31.684 31.6526 31.7545 31.5696C31.825 31.4867 31.9189 31.427 32.024 31.3985C32.129 31.37 32.2402 31.374 32.343 31.41C32.4457 31.4459 32.5352 31.5122 32.5995 31.5999C32.6639 31.6877 32.7001 31.793 32.7034 31.9018C32.7068 32.0106 32.6771 32.1178 32.6183 32.2094C32.5595 32.301 32.4743 32.3726 32.3739 32.4149Z" fill="white"/>
<path d="M37.856 27.4715C37.7969 27.3969 37.7108 27.3486 37.6163 27.3371C37.5218 27.3256 37.4267 27.3519 37.3514 27.4101L34.9172 29.4557L35.1627 29.742L37.1469 28.0647L38.8856 30.1102L38.6128 30.3421L37.6446 29.1966L37.0241 29.7216L37.9924 30.8671L37.7537 31.0648L36.8196 29.9466L36.1377 30.4784L37.106 31.6239L36.6423 32.0126L36.8878 32.299L39.997 29.6739L39.7447 29.3875L39.5742 29.5307L37.8287 27.4851" fill="white"/>
</g>
<defs>
<clipPath id="clip0_1461_2792">
<rect width="180" height="37.3719" fill="white"/>
</clipPath>
</defs>
</svg>
