<svg width="830" height="178" viewBox="0 0 830 178" fill="none" xmlns="http://www.w3.org/2000/svg">
<path d="M497.669 141.844C497.952 142.384 498.331 142.868 498.79 143.271C499.342 142.919 499.823 142.468 500.209 141.94C500.529 141.495 500.707 140.964 500.721 140.417C500.769 139.87 500.622 139.323 500.305 138.873C500.159 138.704 499.977 138.57 499.772 138.481C499.566 138.393 499.344 138.352 499.12 138.362C498.893 138.347 498.665 138.385 498.454 138.472C498.243 138.558 498.055 138.692 497.904 138.863C497.562 139.283 497.384 139.812 497.402 140.353C497.378 140.864 497.469 141.373 497.669 141.844ZM500.134 156.228C500.857 155.506 501.424 154.644 501.799 153.694L497.979 149.212C497.231 149.733 496.593 150.395 496.101 151.16C495.71 151.873 495.498 152.669 495.482 153.481C495.403 154.385 495.64 155.288 496.154 156.037C496.39 156.348 496.697 156.599 497.049 156.768C497.402 156.936 497.79 157.018 498.181 157.006C498.542 157.011 498.9 156.944 499.235 156.811C499.57 156.678 499.876 156.48 500.134 156.228ZM504.989 157.176C504.209 158.647 503.117 159.929 501.788 160.934C500.718 161.773 499.393 162.224 498.032 162.212C497.045 162.195 496.076 161.945 495.204 161.482C494.332 161.02 493.583 160.358 493.017 159.55C491.656 157.84 490.966 155.694 491.075 153.513C491.095 152.03 491.461 150.572 492.142 149.254C492.889 147.936 493.898 146.783 495.108 145.868C494.445 145.109 493.918 144.241 493.55 143.302C493.075 141.976 492.957 140.548 493.208 139.162C493.459 137.775 494.07 136.479 494.98 135.402C495.519 134.757 496.194 134.239 496.959 133.887C497.723 133.535 498.556 133.358 499.398 133.369C500.183 133.389 500.953 133.592 501.646 133.962C502.339 134.332 502.935 134.858 503.389 135.498C504.501 136.883 505.073 138.623 505 140.396C504.968 141.559 504.649 142.696 504.072 143.707C503.475 144.764 502.665 145.685 501.692 146.411L503.677 148.839L505.885 142.802L510.452 142.855L507.006 152.438L512.181 158.241L509.343 161.935L504.989 157.176Z" fill="#1E288B"/>
<path d="M268.265 23.2005V16.7483H279.896V23.2005H295.902V32.0059H283.759C288.973 33.4681 292.615 36.1548 294.685 40.0659C296.642 43.8964 297.179 48.2936 296.201 52.4807C295.115 56.4449 292.614 59.8759 289.169 62.1272C285.014 64.9665 279.878 66.3861 273.761 66.3861C268.363 66.5677 263.052 65.0027 258.619 61.9249C255.247 59.5999 252.833 56.1354 251.822 52.1719C250.763 48.1108 251.274 43.8008 253.252 40.0979C255.265 36.2861 258.769 33.5994 263.763 32.0378H251.705V23.2005H268.265ZM265.619 40.4599C264.725 41.398 264.028 42.5046 263.568 43.7149C263.108 44.9252 262.895 46.2148 262.941 47.5084C262.863 50.1192 263.826 52.6542 265.619 54.5569C266.675 55.6064 267.939 56.4248 269.33 56.9601C270.721 57.4953 272.208 57.7357 273.697 57.666C275.216 57.7393 276.734 57.5097 278.163 56.9905C279.592 56.4713 280.903 55.6729 282.02 54.6421C282.963 53.782 283.713 52.7316 284.219 51.5605C284.725 50.3893 284.975 49.1242 284.954 47.8491C285.024 45.1731 284.031 42.578 282.19 40.6302C281.061 39.5444 279.722 38.7008 278.254 38.1514C276.785 37.6021 275.22 37.3586 273.654 37.436C272.178 37.3624 270.703 37.5929 269.321 38.1131C267.939 38.6334 266.679 39.4322 265.619 40.4599ZM315.386 17.2274V41.7695H323.389V51.3521H315.386V75.7451H303.766V17.1848L315.386 17.2274ZM269.962 88.0428H315.845V97.1463H258.331V71.1774H269.962V88.0428Z" fill="#1E288B"/>
<path d="M405.178 57.1655H377.168V68.473H401.71V97.881H390.186V77.5765H341.635V68.473H365.516V57.1655H338.253V48.0621H388.809C389.293 45.5976 389.649 43.1099 389.876 40.6089C390.097 38.2665 390.211 35.6153 390.218 32.6554V28.0557H341.614V18.9416H401.731V27.5553C401.731 30.9092 401.614 34.3164 401.401 37.7661C401.07 41.6737 400.643 45.1128 400.141 48.0621H405.178V57.1655Z" fill="#1E288B"/>
<path d="M432.889 23.5625V16.8441H444.424V23.5625H456.609V32.4637H446.686C450.385 34.9765 453.131 39.5052 454.923 46.0497C456.644 52.4688 457.215 59.1407 456.609 65.7579C455.991 73.204 454.308 79.3014 451.562 84.0501C448.425 89.4163 444.36 92.103 439.366 92.1101C434.372 92.1172 430.392 89.4305 427.426 84.0501C424.673 79.2943 423.019 73.1969 422.464 65.7579C421.804 59.1507 422.317 52.4792 423.979 46.0497C425.772 39.5549 428.543 35.0262 432.291 32.4637H422.048V23.5625H432.889ZM435.023 44.5165C434.079 49.6031 433.657 54.7725 433.764 59.9445C433.686 65.1474 434.107 70.3457 435.023 75.4683C436.09 80.4371 437.548 82.9214 439.398 82.9214C441.361 82.9214 442.876 80.4371 443.944 75.4683C444.979 70.3604 445.455 65.1551 445.363 59.9445C445.482 54.7646 445.006 49.5882 443.944 44.5165C442.93 40.0872 441.425 37.8832 439.398 37.8832C437.371 37.8832 436.037 40.0872 435.023 44.5165ZM460.461 17.2913H471.996V50.1702H478.121V17.2913H489.538V97.9555H478.121V59.6251H471.996V97.9555H460.461V17.2913Z" fill="#1E288B"/>
<path d="M543.339 23.4241C546.896 27.4062 548.674 32.4957 548.674 38.6924C548.674 44.8892 546.896 49.9502 543.339 53.8755C539.419 58.2906 533.899 60.5017 526.778 60.5088C519.657 60.5159 514.169 58.3048 510.314 53.8755C506.757 49.9147 504.978 44.8537 504.978 38.6924C504.978 32.5312 506.757 27.4417 510.314 23.4241C514.176 19.0729 519.665 16.8938 526.778 16.8867C533.892 16.8796 539.412 19.0587 543.339 23.4241ZM518.967 29.5464C517.452 31.7823 516.695 34.87 516.695 38.6924C516.695 42.5148 517.452 45.528 518.967 47.7533C519.884 48.9539 521.067 49.927 522.423 50.5969C523.778 51.2667 525.271 51.6152 526.784 51.6152C528.296 51.6152 529.789 51.2667 531.144 50.5969C532.5 49.927 533.683 48.9539 534.6 47.7533C536.172 45.5245 536.958 42.5042 536.958 38.6924C536.958 34.8381 536.168 31.7823 534.6 29.5464C533.665 28.3713 532.477 27.4221 531.124 26.7696C529.77 26.1171 528.287 25.7782 526.784 25.7782C525.28 25.7782 523.797 26.1171 522.443 26.7696C521.09 27.4221 519.902 28.3713 518.967 29.5464ZM567.721 17.3019V26.1818H575.638V35.0936H567.721V45.2299H575.638V54.1949H567.721V62.7128H556.09V17.2593L567.721 17.3019ZM525.434 77.1612C522.588 78.6732 521.166 80.5719 521.166 82.8576C521.166 85.0403 522.595 86.8929 525.434 88.3942C528.635 90.1332 533.091 91.0028 538.804 91.0028C544.694 91.0028 549.318 90.1332 552.675 88.3942C555.631 86.8929 557.125 85.0403 557.125 82.8576C557.125 80.6749 555.631 78.6732 552.675 77.1612C549.311 75.408 544.705 74.5313 538.857 74.5313C533.166 74.5313 528.71 75.3973 525.487 77.1293M561.649 70.8367C566.515 74.0806 568.948 78.0769 568.948 82.8256C568.948 87.5743 566.515 91.5209 561.649 94.6655C556.143 98.2856 548.713 100.103 539.359 100.117C529.826 100.117 522.357 98.2997 516.951 94.6655C512.128 91.4713 509.716 87.5247 509.716 82.8256C509.716 78.1266 512.128 74.1303 516.951 70.8367C522.393 67.2024 529.862 65.3853 539.359 65.3853C548.727 65.3853 556.157 67.2024 561.649 70.8367Z" fill="#1E288B"/>
<path d="M616.933 27.9705H603.477V79.7059H624.039V17.2487H635.681V49.2972H644.292V17.2487H655.922V97.9235H644.292V58.4965H635.681V98.0087H624.039V88.6071H591.953V18.9736H616.933V27.9705Z" fill="#1E288B"/>
<path d="M692.277 22.04V16.8441H703.918V22.04H719.924V30.6537H707.951C712.935 32.0485 716.488 34.4548 718.451 37.8619C720.365 41.0135 720.841 44.7188 719.881 48.9777C718.759 52.8167 716.285 56.1217 712.913 58.2835C708.446 61.2048 703.186 62.6842 697.847 62.5211C691.843 62.5211 686.792 61.1015 682.695 58.2622C679.395 56.0699 676.982 52.7796 675.887 48.9777C674.877 44.7188 675.296 41.0135 677.146 37.8619C679.159 34.4548 682.663 32.052 687.656 30.6537H675.802V22.04H692.277ZM689.737 38.7137C688.908 39.4762 688.251 40.4059 687.809 41.4413C687.367 42.4766 687.152 43.5939 687.176 44.7188C687.175 45.8632 687.405 46.996 687.852 48.0497C688.3 49.1034 688.955 50.0564 689.78 50.8517C690.847 51.8788 692.112 52.6785 693.499 53.2021C694.886 53.7256 696.365 53.962 697.847 53.8968C699.338 53.9618 700.828 53.7288 702.228 53.2114C703.628 52.6939 704.91 51.9025 705.999 50.8836C706.863 50.1098 707.556 49.1648 708.034 48.1089C708.511 47.0529 708.763 45.9092 708.773 44.7507C708.789 43.602 708.549 42.4641 708.069 41.4198C707.589 40.3755 706.882 39.451 705.999 38.7137C703.676 36.9188 700.822 35.9448 697.884 35.9448C694.946 35.9448 692.092 36.9188 689.769 38.7137M739.547 17.2061V36.2542H747.453V45.4535H739.547V62.9896H727.873V17.2061H739.547ZM739.547 68.3665V97.8597H727.873V77.4807H681.137V68.3665H739.547Z" fill="#1E288B"/>
<path d="M825.892 18.9416V49.6485C825.916 55.4789 825.559 61.3047 824.825 67.0889C824.143 72.6717 822.983 78.1859 821.357 83.5709H810.1C811.51 78.9783 812.559 74.2828 813.237 69.5271C813.975 64.3321 814.331 59.0904 814.304 53.8436V28.8436H765.732V18.9416H825.892ZM829.349 92.2166H762.339V83.3154H770.875V46.9015H782.516V83.3154H791.533V46.9015H803.164V83.3154H829.392L829.349 92.2166Z" fill="#1E288B"/>
<path d="M228.721 30.4301C228.956 29.1524 229.137 27.6511 229.286 25.9688C229.436 24.2866 229.478 22.7746 229.478 21.2095V16.9506H199.601V21.7738H223.204V23.6264C223.204 24.9822 223.151 26.196 223.044 27.2678C222.941 28.3409 222.777 29.4074 222.553 30.462H197.937V35.2427H211.211V39.9275H199.612V44.7188H223.247V54.1204H229.478V39.8956H217.442V35.2107H231.154V30.4301H228.721Z" fill="#1E288B"/>
<path d="M207.177 90.5023H223.599V92.7809H207.177V90.5023ZM223.599 85.7749H207.177V83.1344H200.946V97.5615H229.756V83.1344H223.567L223.599 85.7749Z" fill="#1E288B"/>
<path d="M199.036 67.9619V80.8878H223.546V81.7502H229.745V59.9445H223.546V76.2136H205.267V72.5829H218.605V60.6579H199.036V65.332H212.416V67.9619H199.036Z" fill="#1E288B"/>
<path d="M217.026 133.688L208.116 145.475L218.541 161.126H212.267L204.915 149.329L203.186 152.353V161.126H197.926V133.688H203.186V144.25L210.592 133.688H217.026Z" fill="#1E288B"/>
<path d="M234.995 140.715C235.012 140.219 234.926 139.724 234.742 139.263C234.558 138.801 234.281 138.382 233.928 138.032C232.922 137.208 231.659 136.764 230.358 136.775C229.057 136.787 227.801 137.254 226.811 138.096C226.467 138.44 226.196 138.849 226.013 139.298C225.83 139.748 225.738 140.23 225.744 140.715V153.556C225.717 154.63 226.064 155.679 226.725 156.526C227.165 157.062 227.726 157.485 228.363 157.759C229 158.034 229.694 158.151 230.385 158.102C231.088 158.167 231.796 158.058 232.446 157.783C233.096 157.508 233.668 157.076 234.109 156.526C234.724 155.617 235.027 154.534 234.974 153.439L234.995 140.715ZM240.33 152.299C240.448 154.455 239.92 156.597 238.815 158.454C237.268 160.583 234.462 161.648 230.417 161.648C226.373 161.648 223.492 160.583 221.966 158.454C220.848 156.604 220.33 154.454 220.483 152.299V142.163C220.325 140.098 220.838 138.037 221.945 136.286C223.471 134.156 226.277 133.092 230.396 133.092C234.515 133.092 237.215 134.156 238.794 136.286C239.908 138.04 240.438 140.101 240.309 142.174L240.33 152.299Z" fill="#1E288B"/>
<path d="M249.069 144.878H253.903C254.619 144.853 255.332 144.778 256.037 144.655C256.223 144.619 256.399 144.547 256.557 144.443C256.714 144.339 256.85 144.204 256.955 144.048C257.1 143.675 257.162 143.275 257.136 142.877V139.225C257.168 138.801 257.091 138.375 256.912 137.989C256.67 137.671 256.315 137.457 255.92 137.393C255.133 137.238 254.332 137.167 253.53 137.18C252.772 137.18 251.278 137.18 249.037 137.18L249.069 144.878ZM243.734 133.688H251.897C254.554 133.565 257.214 133.853 259.782 134.54C260.581 134.723 261.294 135.172 261.804 135.812C262.314 136.452 262.59 137.246 262.589 138.064V141.791C262.689 142.946 262.424 144.104 261.831 145.102C261.17 145.943 259.846 146.507 257.872 146.805C258.825 147.099 259.736 147.514 260.583 148.041C261.163 148.404 261.643 148.905 261.981 149.499C262.271 150.021 262.445 150.598 262.493 151.192C262.556 151.9 262.58 152.611 262.567 153.322V161.073H257.168V151.331C257.191 150.833 257.141 150.334 257.019 149.851C256.947 149.637 256.832 149.44 256.682 149.272C256.531 149.103 256.348 148.967 256.144 148.871C255.375 148.59 254.57 148.418 253.754 148.36C252.687 148.264 251.054 148.211 249.027 148.211V161.073H243.691L243.734 133.688Z" fill="#1E288B"/>
<path d="M266.153 133.688H280.718V137.276H271.477V145.23H280.152V148.669H271.477V157.474H281.017V161.126H266.153V133.688Z" fill="#1E288B"/>
<path d="M290.833 150.34H296.233L293.565 138.628L290.833 150.34ZM297.524 133.688L304.214 161.126H298.879L297.172 154.088H289.916L288.241 161.126H282.841L289.532 133.688H297.524Z" fill="#1E288B"/>
<path d="M346.533 133.688V161.126H341.219V138.128L335.959 161.126H330.72L325.363 138.128V161.126H320.028V133.688H329.546L330.986 140.651L333.302 154.44L337.186 133.688H346.533Z" fill="#1E288B"/>
<path d="M357.3 150.34H362.699L360.042 138.628L357.3 150.34ZM363.99 133.688L370.691 161.126H365.356L363.648 154.088H356.393L354.717 161.126H349.318L356.009 133.688H363.99Z" fill="#1E288B"/>
<path d="M378.801 144.878H379.686C381.671 144.878 382.973 144.878 383.645 144.878C384.361 144.852 385.073 144.777 385.779 144.655C385.963 144.619 386.138 144.547 386.294 144.443C386.45 144.338 386.583 144.204 386.686 144.048C386.841 143.678 386.907 143.277 386.878 142.877V139.225C386.91 138.801 386.833 138.375 386.654 137.989C386.412 137.671 386.057 137.457 385.662 137.393C384.871 137.239 384.066 137.167 383.261 137.18C382.514 137.18 381.009 137.18 378.769 137.18L378.801 144.878ZM373.465 133.688H381.65C384.299 133.566 386.952 133.853 389.514 134.54C390.312 134.723 391.025 135.172 391.535 135.812C392.045 136.452 392.322 137.246 392.32 138.064V141.791C392.426 142.947 392.16 144.106 391.562 145.102C390.911 145.943 389.588 146.507 387.614 146.805C388.561 147.097 389.466 147.512 390.303 148.041C390.892 148.4 391.38 148.902 391.722 149.499C392.025 150.027 392.204 150.617 392.245 151.224C392.314 151.932 392.338 152.643 392.32 153.354V161.105H386.921V151.363C386.946 150.865 386.899 150.367 386.782 149.883C386.71 149.669 386.595 149.472 386.445 149.304C386.294 149.135 386.112 148.999 385.907 148.903C385.131 148.621 384.319 148.449 383.496 148.392C382.428 148.296 380.817 148.243 378.779 148.243V161.105H373.444L373.465 133.688Z" fill="#1E288B"/>
<path d="M401.71 133.677H396.279V161.126H401.71V133.677Z" fill="#1E288B"/>
<path d="M422.859 133.688V137.244H415.603V161.126H410.161V137.244H404.111V133.688H422.859Z" fill="#1E288B"/>
<path d="M430.936 133.677H425.494V161.126H430.936V133.677Z" fill="#1E288B"/>
<path d="M461.688 133.688V161.126H456.364V138.128L451.114 161.126H445.875L440.508 138.128V161.126H435.183V133.688H444.701L446.142 140.651L448.446 154.44L452.331 133.688H461.688Z" fill="#1E288B"/>
<path d="M465.605 133.688H480.17V137.276H470.929V145.23H479.604V148.669H470.929V157.474H480.479V161.126H465.605V133.688Z" fill="#1E288B"/>
<path d="M536.872 140.715C536.885 140.219 536.797 139.726 536.614 139.265C536.431 138.803 536.156 138.384 535.805 138.032C534.839 137.209 533.607 136.763 532.336 136.775C531.066 136.786 529.842 137.256 528.891 138.096C528.228 138.805 527.868 139.745 527.888 140.715V153.556C527.86 154.624 528.195 155.671 528.838 156.526C529.259 157.058 529.803 157.479 530.424 157.754C531.045 158.029 531.724 158.148 532.402 158.102C533.09 158.166 533.784 158.054 534.418 157.779C535.052 157.503 535.607 157.073 536.029 156.526C536.637 155.615 536.932 154.532 536.872 153.439V140.715ZM542.058 152.257C542.174 154.409 541.658 156.547 540.575 158.411C539.081 160.541 536.36 161.605 532.412 161.605C528.4 161.605 525.679 160.541 524.196 158.411C523.108 156.55 522.606 154.406 522.755 152.257V142.121C522.605 140.056 523.109 137.996 524.196 136.233C525.679 134.103 528.4 133.038 532.412 133.038C536.424 133.038 539.049 134.103 540.575 136.233C541.667 137.995 542.185 140.052 542.058 142.121V152.257Z" fill="#1E288B"/>
<path d="M565.053 143.59H559.878V140.055C559.893 139.615 559.804 139.178 559.619 138.778C559.433 138.379 559.157 138.028 558.811 137.755C557.784 137.016 556.531 136.659 555.268 136.744C554.007 136.664 552.763 137.068 551.79 137.872C551.361 138.296 551.027 138.805 550.81 139.367C550.593 139.928 550.498 140.529 550.531 141.13V153.843C550.507 154.434 550.607 155.023 550.823 155.573C551.04 156.123 551.369 156.621 551.79 157.038C552.259 157.462 552.808 157.79 553.405 158.002C554.002 158.214 554.635 158.306 555.268 158.273C555.886 158.307 556.505 158.219 557.089 158.015C557.673 157.81 558.211 157.493 558.672 157.08C559.096 156.611 559.422 156.063 559.631 155.467C559.839 154.871 559.927 154.239 559.888 153.609V151.075H565.064V152.14C565.064 155.121 564.445 157.368 563.186 158.869C561.638 160.732 559.046 161.669 555.343 161.669C551.466 161.669 548.763 160.743 547.233 158.89C545.988 157.357 545.366 154.844 545.366 151.352V143.334C545.366 140.055 545.988 137.617 547.233 136.02C548.763 134.068 551.377 133.092 555.076 133.092C558.693 133.092 561.34 133.89 562.983 135.487C563.694 136.208 564.245 137.069 564.602 138.015C564.958 138.962 565.112 139.972 565.053 140.981V143.59Z" fill="#1E288B"/>
<path d="M568.745 133.688H582.915V137.276H573.931V145.23H582.36V148.669H573.931V157.474H583.214V161.126H568.745V133.688Z" fill="#1E288B"/>
<path d="M592.764 150.34H598.014L595.421 138.628L592.764 150.34ZM599.262 133.688L605.771 161.126H600.564L598.9 154.088H591.868L590.235 161.126H584.996L591.494 133.688H599.262Z" fill="#1E288B"/>
<path d="M626.92 133.688V161.126H619.536L613.358 140.279V161.126H608.183V133.688H615.172L621.67 154.578V133.688H626.92Z" fill="#1E288B"/>
<path d="M662.634 133.656V152.257C662.659 153.471 662.584 154.686 662.41 155.888C662.267 156.971 661.872 158.007 661.258 158.911C660.526 159.846 659.535 160.546 658.409 160.924C654.896 161.946 651.165 161.946 647.653 160.924C646.501 160.555 645.484 159.855 644.729 158.911C644.09 158.017 643.683 156.978 643.545 155.888C643.38 154.685 643.305 153.471 643.321 152.257V133.656H648.656V154.099C648.543 155.1 648.764 156.111 649.285 156.974C649.872 157.623 651.153 157.943 653.095 157.943C655.037 157.943 656.189 157.623 656.755 156.974C657.27 156.108 657.487 155.099 657.374 154.099V133.656H662.634Z" fill="#1E288B"/>
<path d="M685.277 133.688V161.126H677.882L671.715 140.279V161.126H666.539V133.688H673.529L680.027 154.578V133.688H685.277Z" fill="#1E288B"/>
<path d="M694.304 133.677H689.012V161.126H694.304V133.677Z" fill="#1E288B"/>
<path d="M719.123 133.688L712.497 161.126H703.779L697.377 133.688H702.627L708.186 157.112L708.592 155.345C709.381 152.129 709.958 149.733 710.32 148.158C710.993 145.421 711.579 142.909 712.102 140.609L713.735 133.645L719.123 133.688Z" fill="#1E288B"/>
<path d="M721.748 133.688H735.908V137.276H726.924V145.23H735.364V148.669H726.924V157.474H736.207V161.126H721.748V133.688Z" fill="#1E288B"/>
<path d="M744.572 144.878H749.257C749.973 144.854 750.686 144.78 751.391 144.655C751.573 144.62 751.745 144.549 751.898 144.444C752.05 144.34 752.179 144.205 752.277 144.048C752.427 143.677 752.489 143.276 752.458 142.877V139.225C752.487 138.802 752.414 138.378 752.244 137.989C752.014 137.674 751.67 137.46 751.284 137.393C750.515 137.239 749.732 137.167 748.947 137.18C748.236 137.18 746.785 137.18 744.594 137.18L744.572 144.878ZM739.387 133.688H747.336C749.915 133.565 752.498 133.852 754.987 134.54C755.776 134.73 756.478 135.183 756.976 135.823C757.474 136.463 757.74 137.253 757.729 138.064V141.791C757.829 142.944 757.572 144.099 756.993 145.102C756.353 145.943 755.072 146.507 753.141 146.805C754.067 147.098 754.95 147.513 755.766 148.041C756.34 148.404 756.813 148.906 757.142 149.499C757.431 150.033 757.609 150.62 757.665 151.224C757.665 151.65 757.729 152.353 757.729 153.354V161.105H752.479V151.363C752.502 150.865 752.452 150.366 752.33 149.883C752.267 149.669 752.159 149.472 752.014 149.303C751.868 149.134 751.689 148.998 751.487 148.903C750.737 148.622 749.95 148.45 749.15 148.392C748.083 148.296 746.536 148.243 744.572 148.243V161.105H739.387V133.688Z" fill="#1E288B"/>
<path d="M779.251 141.982H773.969V139.48C774.061 138.678 773.835 137.872 773.34 137.233C772.405 136.59 771.266 136.309 770.139 136.446C768.923 136.307 767.698 136.613 766.692 137.308C766.205 137.991 765.984 138.828 766.073 139.661C766.06 140.085 766.085 140.509 766.148 140.928C766.25 141.289 766.437 141.622 766.692 141.897C767.122 142.294 767.608 142.628 768.133 142.887C768.688 143.196 769.573 143.654 770.811 144.25L772.465 145.027C774.194 145.868 775.389 146.486 776.05 146.859C776.893 147.313 777.666 147.887 778.344 148.562C778.922 149.194 779.343 149.953 779.571 150.777C779.843 151.855 779.965 152.966 779.934 154.078C779.934 156.697 779.209 158.581 777.715 159.763C776.221 160.945 773.628 161.658 770.096 161.658C766.564 161.658 764.195 161.084 762.776 159.955C762.168 159.42 761.694 158.751 761.391 158C761.089 157.249 760.968 156.438 761.037 155.632V151.937H766.287V154.908C766.195 155.758 766.423 156.612 766.927 157.304C767.482 157.911 768.592 158.219 770.245 158.219C771.527 158.357 772.812 157.995 773.831 157.208C774.122 156.885 774.344 156.505 774.484 156.094C774.623 155.682 774.677 155.246 774.642 154.812C774.692 153.642 774.287 152.497 773.511 151.618C771.815 150.139 769.905 148.926 767.845 148.019C765.929 147.161 764.135 146.055 762.509 144.729C761.933 144.097 761.49 143.355 761.205 142.549C760.921 141.742 760.802 140.887 760.856 140.034C760.783 139.052 760.946 138.068 761.333 137.162C761.719 136.256 762.316 135.456 763.075 134.827C764.59 133.677 766.895 133.092 769.947 133.092C772.38 132.967 774.812 133.355 777.085 134.231C777.693 134.445 778.221 134.837 778.602 135.355C778.983 135.874 779.198 136.495 779.219 137.138L779.251 141.982Z" fill="#1E288B"/>
<path d="M788.951 133.677H783.648V161.126H788.951V133.677Z" fill="#1E288B"/>
<path d="M809.502 133.688V137.244H802.438V161.126H797.156V137.244H791.277V133.688H809.502Z" fill="#1E288B"/>
<path d="M830 133.688L822.605 151.384V161.126H817.462V151.384L810.324 133.688H815.659C816.182 135.168 816.726 136.882 817.43 138.894C817.793 140.044 818.316 141.62 818.977 143.622L820.045 146.816L824.665 133.667L830 133.688Z" fill="#1E288B"/>
<path d="M210.048 108.763V125.862H205.811L202.279 116.205V125.862H198.267V108.763H202.301L206.035 118.75V108.763H210.048Z" fill="#1E288B"/>
<path d="M219.726 119.751C219.662 119.101 219.576 118.303 219.448 117.355C219.352 116.769 219.203 115.768 219 114.331L218.616 111.648C218.221 113.671 217.922 115.353 217.72 116.684C217.517 118.015 217.378 118.941 217.303 119.751H219.726ZM221.945 108.741L225.146 125.862H220.547L220.11 122.668H217.037L216.482 125.862H211.968L214.828 108.741H221.945Z" fill="#1E288B"/>
<path d="M237.022 108.741V112.031H234.035V125.862H229.158V112.031H226.181V108.741H237.022Z" fill="#1E288B"/>
<path d="M243.766 108.752H238.943V125.873H243.766V108.752Z" fill="#1E288B"/>
<path d="M253.796 113.107C253.841 112.563 253.761 112.017 253.562 111.51C253.44 111.37 253.286 111.264 253.112 111.199C252.939 111.134 252.753 111.112 252.569 111.137C252.343 111.108 252.113 111.146 251.908 111.246C251.703 111.346 251.532 111.505 251.417 111.701C251.275 112.155 251.217 112.632 251.246 113.107V121.145C251.218 121.685 251.283 122.225 251.438 122.742C251.515 122.974 251.669 123.173 251.875 123.304C252.081 123.436 252.326 123.493 252.569 123.466C252.792 123.485 253.014 123.433 253.206 123.318C253.397 123.204 253.548 123.032 253.636 122.828C253.754 122.362 253.797 121.88 253.764 121.401V113.107H253.796ZM258.641 118.75C258.66 119.715 258.6 120.68 258.459 121.635C258.373 122.464 258.122 123.267 257.723 123.999C257.289 124.708 256.649 125.269 255.888 125.607C254.839 126.049 253.707 126.256 252.569 126.214C251.404 126.257 250.243 126.05 249.165 125.607C248.397 125.286 247.753 124.726 247.33 124.009C246.92 123.275 246.656 122.469 246.551 121.635C246.454 120.677 246.411 119.713 246.423 118.75V115.811C246.411 114.848 246.453 113.884 246.551 112.926C246.654 112.098 246.919 111.299 247.33 110.573C247.762 109.864 248.403 109.306 249.165 108.975C250.251 108.563 251.408 108.372 252.569 108.411C253.702 108.373 254.831 108.565 255.888 108.975C256.646 109.312 257.286 109.869 257.723 110.573C258.124 111.3 258.374 112.1 258.459 112.926C258.6 113.881 258.661 114.846 258.641 115.811V118.75Z" fill="#1E288B"/>
<path d="M272.896 108.763V125.862H268.66L265.128 116.205V125.862H261.116V108.763H265.15L268.884 118.75V108.763H272.896Z" fill="#1E288B"/>
<path d="M282.575 119.751C282.511 119.101 282.425 118.303 282.297 117.355C282.201 116.769 282.052 115.768 281.849 114.331L281.465 111.648C281.07 113.671 280.771 115.353 280.569 116.684C280.366 118.015 280.227 118.941 280.152 119.751H282.575ZM284.773 108.741L287.974 125.862H283.375L282.927 122.668H279.864L279.309 125.862H274.796L277.655 108.741H284.773Z" fill="#1E288B"/>
<path d="M294.824 108.763V122.572H298.602V125.862H290.001V108.763H294.824Z" fill="#1E288B"/>
<path d="M85.8863 47.0825L85.7156 51.1072C85.7156 51.1072 86.2918 51.7673 85.0434 51.7673H65.9326C64.8849 51.794 63.8731 52.1547 63.0456 52.7965C62.2181 53.4383 61.6181 54.3276 61.3337 55.3342C60.3307 58.9011 51.5702 97.3699 51.5702 97.3699C51.5702 97.3699 55.4863 100.724 62.3367 99.6484C62.3367 99.6484 62.4967 99.7336 62.6675 98.7327C62.8382 97.7319 66.4235 75.1915 67.0957 71.5394C67.768 67.8874 68.8457 61.0944 69.1018 60.2639C69.5179 59.7635 69.5179 59.8487 70.0194 59.8487L76.8698 59.9338C76.8698 59.9338 77.1152 59.7635 77.1152 60.3491C77.1152 60.9347 73.626 93.6965 73.626 93.6965C73.626 93.6965 73.466 94.3673 73.8821 94.197C74.2983 94.0266 80.2844 91.3754 84.3178 91.3754C84.3178 91.3754 84.6486 91.3009 84.7339 90.5556C84.8193 89.8103 85.801 60.4556 85.801 60.4556C85.801 60.4556 85.7156 59.9551 86.3772 59.9551H92.9822C92.9822 59.9551 93.6438 59.87 93.6438 60.7005C93.6438 61.5309 94.5721 91.0454 94.5721 91.0454C94.5721 91.0454 94.5721 91.3009 95.0629 91.3754C95.5538 91.45 103.162 92.9512 104.837 94.2822L105.413 94.4419L102.575 60.019L109.767 59.9338C109.767 59.9338 110.183 59.6783 110.343 60.4343C110.503 61.1902 116.19 99.4035 116.19 99.4035C116.19 99.4035 116.105 99.8081 116.767 100.064C117.428 100.319 123.958 100.639 126.957 97.9342L127.042 97.3592L118.026 55.8346C118.026 55.8346 117.94 51.8632 111.933 51.778C105.925 51.6928 93.7291 51.778 93.7291 51.778L93.3983 43.899C93.2458 43.7516 93.0449 43.6645 92.8328 43.6541L86.4305 43.5795C86.4305 43.5795 86.0998 43.4944 86.0998 43.9841C86.0998 44.4739 85.9397 47.1783 85.9397 47.1783" fill="#1E288B"/>
<path d="M0.0853635 86.4457L9.6354 89.9806L0.0320113 89.8209L0 91.6736L23.539 92.0462L23.5603 90.2042L15.6109 90.0765L13.2527 89.1608L23.6243 86.6267L23.6564 84.2204L9.73144 87.8192L0.117375 84.0607L0.0853635 86.4457Z" fill="#1E288B"/>
<path d="M2.02738 79.0565C0.778942 78.1408 0.224079 77.2038 0.373465 76.2349C0.522851 75.266 1.30179 74.5313 2.75297 73.999C4.99376 73.1898 8.483 73.1188 13.2207 73.786C17.9157 74.4568 21.2128 75.5003 23.1442 76.9057C24.4033 77.832 24.9688 78.769 24.8301 79.7272C24.6914 80.6855 23.8804 81.4308 22.4079 81.9845C20.1671 82.7937 16.6992 82.8576 12.0042 82.1974C7.30925 81.5373 3.94806 80.4619 2.02738 79.0565ZM18.8013 80.4513C19.9324 80.1851 20.5406 79.7485 20.6366 79.1203C20.7327 78.4921 20.2632 77.9172 19.2601 77.3529C17.2763 76.4062 15.1423 75.8117 12.9539 75.5961C10.7907 75.1964 8.57513 75.1676 6.40226 75.5109C5.2712 75.7771 4.66298 76.2136 4.56695 76.8312C4.47091 77.4487 4.94041 78.045 5.9541 78.6093C7.97115 79.554 10.1375 80.1412 12.3564 80.3448C14.5111 80.752 16.7198 80.788 18.8867 80.4513" fill="#1E288B"/>
<path d="M2.35817 68.6114L3.5746 64.2673C3.85203 63.2878 4.87639 62.8193 6.63701 62.8193C8.02816 62.8279 9.41115 63.0322 10.7451 63.4262C11.858 63.7227 12.9323 64.1479 13.9463 64.6932C14.6739 65.0305 15.2915 65.5656 15.7282 66.2371C16.2931 65.968 16.9174 65.847 17.5422 65.8857C18.9902 66.0361 20.4198 66.3286 21.8104 66.7588C23.5923 67.2486 24.7021 67.5467 25.1502 67.6425C25.5583 67.7821 26.0013 67.7821 26.4093 67.6425L26.9855 67.8022L26.4307 69.7933C25.8331 69.7081 25.2142 69.5803 24.5633 69.4206C23.9124 69.2609 22.9094 69.0054 21.8104 68.7073C20.7095 68.3556 19.5765 68.1131 18.4278 67.9832C18.1361 67.9487 17.8418 68.0216 17.6002 68.1882C17.3585 68.3548 17.1861 68.6038 17.1154 68.8883L16.5819 70.7515L25.4703 73.2111L24.9688 74.9679L2.35817 68.6114ZM13.4768 67.5467C13.5392 67.3225 13.5307 67.0845 13.4524 66.8653C13.3741 66.6461 13.2298 66.4564 13.0393 66.3223C12.3378 65.8179 11.5438 65.4561 10.7024 65.2575C10.045 65.0567 9.36253 64.9492 8.67507 64.9381C7.93881 64.9381 7.51199 65.1936 7.38394 65.6515L6.75439 67.8874L12.8899 69.591L13.4768 67.5467Z" fill="#1E288B"/>
<path d="M5.56997 58.1238L27.327 67.025L29.9092 60.8282L26.0786 59.2524L24.2006 63.7775L18.5346 61.4564L20.1885 57.485L16.3791 55.9198L14.7359 59.9019L10.1262 58.0173L11.9295 53.6732L8.07752 52.0868L5.56997 58.1238Z" fill="#1E288B"/>
<path d="M30.7735 59.2311L29.8132 60.9347L10.8518 46.7099L11.9189 44.8359L34.028 53.4816L33.0784 55.2277L28.4901 53.3964L26.8361 56.3244L30.7735 59.2311ZM23.5497 53.9075L24.6807 51.8951L16.0057 48.3602L23.5497 53.9075Z" fill="#1E288B"/>
<path d="M41.3266 44.2397L40.2062 45.5706L26.1106 34.0076L39.1392 46.8589L37.9974 48.2324L22.8561 37.9365L22.8241 37.9578L36.9304 49.5208L35.8207 50.8517L17.6702 35.9667L19.4095 33.8692L34.1774 43.8777H34.1881L21.4583 31.4096L23.1762 29.3547L41.3266 44.2397Z" fill="#1E288B"/>
<path d="M42.8418 42.8342L41.4013 44.1545L27.7431 24.8402L29.3224 23.4241L47.6969 38.3304L46.2137 39.7146L42.4683 36.5736L39.9928 38.8628L42.8418 42.8342ZM37.6133 35.5621L39.3099 33.9969L32.15 27.9918L37.6133 35.5621Z" fill="#1E288B"/>
<path d="M34.1987 19.2184L37.8801 16.5885C38.7123 15.9923 39.8221 16.2372 41.2199 17.3232C42.2921 18.1948 43.2399 19.2086 44.0369 20.3364C44.7382 21.2697 45.3223 22.2852 45.7762 23.3603C46.1419 24.0722 46.2903 24.8755 46.203 25.6707C46.8136 25.798 47.378 26.0888 47.8356 26.5119C48.8793 27.5127 49.8162 28.6188 50.6312 29.8125C51.6983 31.3032 52.3918 32.2082 52.6906 32.5702C52.9894 32.9322 53.4162 33.2942 53.683 33.3262L54.0351 33.8053L52.3385 35.0191C51.933 34.5825 51.5275 34.0928 51.1221 33.5711C50.7166 33.0493 50.055 32.2188 49.4255 31.3032C48.7833 30.3452 48.0469 29.4535 47.2274 28.6413C47.0219 28.4316 46.7461 28.3047 46.4528 28.2851C46.1595 28.2655 45.8692 28.3544 45.6375 28.5349L44.0582 29.6635L49.4468 37.1166L47.9529 38.1813L34.1987 19.2184ZM43.5567 25.2768C43.7485 25.1437 43.8937 24.9541 43.9721 24.7345C44.0506 24.515 44.0583 24.2765 43.9942 24.0523C43.7445 23.2369 43.3387 22.4776 42.7991 21.8164C42.4135 21.2506 41.9502 20.7416 41.4226 20.3045C40.8358 19.8679 40.3556 19.7828 39.9608 20.0596L38.0614 21.4224L41.7854 26.5545L43.5567 25.2768Z" fill="#1E288B"/>
<path d="M56.6494 32.3998L55.0381 33.3475L43.0659 13.224L44.6665 12.2764L56.6494 32.3998Z" fill="#1E288B"/>
<path d="M61.4937 29.9084L59.8078 30.7176L51.3782 13.4156L48.8813 14.6081L47.0673 10.8709L53.7257 7.67673L55.5503 11.4033L53.0534 12.5958L61.4937 29.9084Z" fill="#1E288B"/>
<path d="M66.5195 27.8321L64.7696 28.5029L56.3186 6.68653L58.0685 6.01574L66.5195 27.8321Z" fill="#1E288B"/>
<path d="M66.9997 3.22614L70.2221 20.6878H70.2115L63.9053 4.07793L61.2697 4.7913L67.5225 27.3317L69.2085 26.8739L64.3427 9.35901L64.3854 9.34836L70.8197 26.4267L72.559 25.9476L69.3152 8.00679L74.1702 25.5004L75.8561 25.0532L69.5926 2.51277L66.9997 3.22614Z" fill="#1E288B"/>
<path d="M73.2846 1.82069L76.6458 24.968L83.3361 24.0097L82.7492 19.9318L77.8622 20.6239L76.9872 14.6081L81.2874 13.9906L80.7005 9.95526L76.4003 10.5728L75.6961 5.66438L80.3804 4.9936L79.7829 0.894376L73.2846 1.82069Z" fill="#1E288B"/>
<path d="M94.412 23.9352H92.2779L91.7658 21.859C91.4954 22.4954 91.1362 23.0905 90.6987 23.6264C90.5104 23.8708 90.2679 24.0681 89.9901 24.203C89.7124 24.3379 89.407 24.4066 89.0982 24.4037C88.2765 24.4037 87.615 23.6903 87.1241 22.2742C86.6159 20.7741 86.3915 19.1927 86.4626 17.6107C86.4637 16.4695 86.5816 15.3314 86.8147 14.2142C87.1006 13.0005 87.607 11.8494 88.3085 10.8177L88.5646 10.5515C88.3469 9.85449 88.1793 9.14286 88.0631 8.42204C87.9056 7.45431 87.8378 6.47417 87.8604 5.49402C87.8282 4.11588 88.0674 2.74483 88.5646 1.45868C89.0235 0.468483 89.6317 0 90.3039 0C90.9762 0 91.339 0.457835 91.7658 1.33092C92.2718 2.69116 92.4898 4.14131 92.406 5.58985C92.4099 6.92216 92.1936 8.246 91.7658 9.50807C91.5426 10.1406 91.2453 10.7445 90.8801 11.3075L92.0645 15.4173C92.1819 14.8424 92.2886 14.3526 92.3633 13.7883C92.4593 13.1069 92.5234 12.3829 92.566 11.6056H94.1133C94.0473 12.9033 93.9155 14.1968 93.7185 15.4812C93.5359 16.5613 93.2828 17.6283 92.9609 18.6754L94.412 23.9352ZM89.3863 13.4582C89.0447 14.0108 88.7588 14.5957 88.5326 15.2044C88.3321 15.8962 88.235 16.6138 88.2445 17.3339C88.2162 17.9799 88.2882 18.6263 88.4579 19.2504C88.6927 20.0915 89.0341 20.5068 89.525 20.5174C89.7917 20.5174 90.0585 20.3364 90.3253 19.9744C90.5771 19.6249 90.7849 19.2458 90.9441 18.8458L89.3863 13.4582ZM90.6987 3.97146C90.5813 3.63074 90.4106 3.46038 90.1759 3.46038C89.9411 3.46038 89.8024 3.62009 89.6744 3.96081C89.4956 4.45535 89.4123 4.97921 89.4289 5.50467C89.4221 5.98291 89.4614 6.46069 89.5463 6.93142C89.6605 7.50199 89.8138 8.06407 90.0051 8.61369C90.2548 8.19293 90.4587 7.74676 90.6134 7.28278C90.7893 6.72432 90.8828 6.14326 90.8908 5.55791C90.9225 5.02188 90.8575 4.48453 90.6987 3.97146Z" fill="#1E288B"/>
<path d="M101.913 2.7896C102.82 1.56516 103.717 1.06473 104.57 1.1925C105.424 1.32027 106.118 2.14011 106.544 3.58815C107.213 5.82409 107.142 9.28447 106.331 13.9693C105.509 18.6009 104.41 21.8696 103.023 23.7436C102.148 24.9503 101.266 25.4933 100.377 25.3726C99.4912 25.2129 98.8296 24.4037 98.3921 22.9344C97.7199 20.7091 97.8052 17.27 98.6162 12.6277C99.4271 7.9855 100.537 4.66353 101.913 2.7896ZM99.9393 19.3888C100.142 20.5174 100.537 21.1243 101.102 21.2308C101.668 21.3373 102.244 20.8794 102.81 19.8892C103.765 17.9311 104.396 15.8311 104.677 13.6712C105.151 11.5259 105.274 9.31812 105.04 7.13371C104.837 6.06898 104.464 5.3982 103.887 5.30237C103.311 5.20655 102.746 5.65373 102.169 6.64394C101.219 8.62295 100.589 10.7396 100.302 12.9152C99.8316 15.0393 99.7055 17.2249 99.9286 19.3888" fill="#1E288B"/>
<path d="M113.523 11.8611C113.699 11.0235 113.799 10.1719 113.822 9.31642C113.822 8.25169 113.491 7.67673 112.915 7.51702C112.338 7.35731 111.848 7.74061 111.186 8.58175C110.055 10.4453 109.217 12.4704 108.7 14.5868C108.156 16.3476 107.798 18.1605 107.633 19.9957C107.537 21.6354 107.825 22.5617 108.497 22.7534C108.956 22.8811 109.436 22.6256 109.927 21.9867C110.58 21.0738 111.095 20.0691 111.453 19.0055L113.117 19.4846C112.445 21.4942 111.49 23.398 110.279 25.1384C109.212 26.5332 108.22 27.0975 107.27 26.8206C106.32 26.5438 105.637 25.3194 105.52 23.1367C105.572 20.0572 106.086 17.0029 107.046 14.0758C107.803 11.1039 109.008 8.26407 110.62 5.65374C111.848 3.85434 113 3.11967 114.067 3.41779C115.134 3.71592 115.732 4.87648 115.849 6.85688C115.903 8.70382 115.68 10.5484 115.187 12.3296L113.523 11.8611Z" fill="#1E288B"/>
<path d="M124.161 12.0208L120.117 10.3812L118.239 14.9702L121.942 16.4608L120.384 20.2406L116.681 18.75L114.366 24.3824L118.581 26.086L117.023 29.8977L111.239 27.5553L120.117 5.90927L125.73 8.17715L124.161 12.0208Z" fill="#1E288B"/>
<path d="M118.378 30.6004L116.777 29.7487L130.649 10.5835L132.399 11.5204L123.862 33.4859L122.219 32.6128L124.044 28.0983L121.206 26.6183L118.378 30.6004ZM123.542 23.307L125.442 24.3185L128.931 15.6942L123.542 23.307Z" fill="#1E288B"/>
<path d="M141.437 17.2593L142.749 18.1644L129.304 37.3509L127.917 36.3819L134.725 20.8262L134.704 20.8155L125.132 34.4761L123.809 33.5604L137.243 14.3633L138.748 15.4067L132.047 30.643H132.068L141.437 17.2593Z" fill="#1E288B"/>
<path d="M142.632 38.192C141.126 39.9218 139.318 41.3647 137.297 42.4509C135.899 43.0791 134.821 43.0259 134.095 42.2912C133.916 42.1151 133.774 41.9045 133.679 41.672C133.583 41.4395 133.536 41.1902 133.541 40.939C133.517 40.0531 133.735 39.1774 134.17 38.4049C134.567 37.655 135.032 36.9423 135.557 36.2755C136.193 35.4416 136.881 34.6486 137.617 33.9011L148.319 22.6682L149.61 23.882L139.11 34.7955C138.25 35.6218 137.529 36.5819 136.976 37.6383C136.646 38.3623 136.646 38.8734 136.976 39.1928C137.307 39.5123 137.969 39.5868 138.705 39.1928C139.668 38.6248 140.532 37.9058 141.266 37.0634L151.936 25.9901L153.217 27.2039L142.632 38.192Z" fill="#1E288B"/>
<path d="M158.723 33.603L159.758 34.8274L141.682 49.7976L140.594 48.4986L151.307 35.2853L151.275 35.264L138.417 45.922L137.393 44.6975L155.458 29.7167L156.631 31.1115L146.11 44.048L146.121 44.0587L158.723 33.603Z" fill="#1E288B"/>
<path d="M143.272 52.1294L142.28 50.7346L161.497 37.2444L162.5 38.6498L143.272 52.1294Z" fill="#1E288B"/>
<path d="M166.555 45.0063L167.473 46.5289L145.385 56.5054L144.542 55.1106L163.802 40.4492L164.752 42.025L149.909 52.9066V52.9173L166.555 45.0063Z" fill="#1E288B"/>
<path d="M167.419 55.9198L165.562 52.0016L161.049 54.1098L162.756 57.6979L159.032 59.4441L157.325 55.8453L151.787 58.4326L153.718 62.5211L149.973 64.278L147.316 58.6668L168.614 48.7116L171.197 54.163L167.419 55.9198Z" fill="#1E288B"/>
<path d="M172.349 56.9419L173.715 60.8815C174.024 61.7652 173.448 62.7022 171.986 63.6711C170.821 64.42 169.566 65.0209 168.251 65.4598C167.149 65.8501 166.008 66.1214 164.848 66.269C164.073 66.4162 163.272 66.3499 162.532 66.0774C162.205 66.598 161.754 67.0296 161.22 67.3338C159.936 68.0184 158.588 68.5782 157.197 69.0054C155.458 69.6016 154.369 69.9956 153.996 70.1659C153.576 70.2859 153.204 70.5311 152.929 70.8687L152.363 71.071L151.734 69.2609C152.278 69.0054 152.865 68.7605 153.484 68.5156C154.102 68.2707 155.084 67.93 156.162 67.5573C157.267 67.2248 158.339 66.7899 159.363 66.2584C159.621 66.1413 159.825 65.932 159.936 65.6718C160.047 65.4115 160.055 65.1193 159.961 64.8529L159.374 63.1813L150.656 66.1625L150.112 64.5654L172.349 56.9419ZM163.706 63.8095C163.786 64.0239 163.932 64.207 164.125 64.3316C164.317 64.4563 164.544 64.5159 164.773 64.5016C165.63 64.4794 166.476 64.3026 167.27 63.9798C167.926 63.7796 168.551 63.4893 169.126 63.1174C169.724 62.7022 169.948 62.2869 169.809 61.8823L169.105 59.8487L163.087 61.9143L163.706 63.8095Z" fill="#1E288B"/>
<path d="M159.832 71.3372C159.084 71.4928 158.365 71.7621 157.698 72.1357C156.866 72.6148 156.525 73.2004 156.631 73.8499C156.676 74.0682 156.773 74.2724 156.914 74.4449C157.056 74.6175 157.237 74.7531 157.442 74.8401C158.247 75.0983 159.113 75.0983 159.918 74.8401C160.583 74.7303 161.206 74.4434 161.721 74.0096C162.043 73.653 162.277 73.2264 162.404 72.7639L162.82 71.7737C162.959 71.4098 163.12 71.0543 163.3 70.709C163.542 70.3066 163.848 69.9469 164.207 69.6442C164.736 69.2323 165.322 68.8988 165.947 68.654C166.92 68.2754 167.923 67.9763 168.945 67.7596C170.452 67.3884 172.005 67.2377 173.555 67.3125C175.401 67.4615 176.446 68.1004 176.756 69.2503C177.065 70.4002 176.297 71.3797 174.622 72.3061C173.18 73.0976 171.631 73.6751 170.023 74.0203L169.66 72.4019C170.359 72.229 171.036 71.9753 171.677 71.6459C172.488 71.1774 172.829 70.5812 172.744 69.9849C172.69 69.7944 172.589 69.6208 172.449 69.4809C172.308 69.341 172.134 69.2396 171.943 69.1864C170.609 68.9102 169.219 69.154 168.059 69.8678C167.836 70.0572 167.657 70.2935 167.537 70.5599L166.576 72.8278C166.298 73.5697 165.799 74.2088 165.146 74.6591C163.844 75.4767 162.394 76.0336 160.878 76.2988C157.962 76.9447 155.774 76.9696 154.316 76.3733C153.918 76.2924 153.548 76.108 153.245 75.8387C152.941 75.5695 152.714 75.225 152.587 74.8401C152.299 73.5411 153.003 72.4019 154.721 71.4117C156.194 70.6172 157.776 70.0432 159.416 69.7081L159.832 71.3372Z" fill="#1E288B"/>
<path d="M153.964 78.737L154.209 80.4406L177.513 77.0974L177.257 75.3938L153.964 78.737Z" fill="#1E288B"/>
<path d="M173.683 79.6846L173.864 82.2081L154.54 83.539L154.657 85.2532L173.981 83.9223L174.163 86.4457L178.324 86.1582L177.844 79.3972L173.683 79.6846Z" fill="#1E288B"/>
<path d="M163.631 90.6621L154.753 90.3746L154.689 92.0888L163.482 92.3869L178.132 95.5598L178.196 93.6327L167.963 91.6842L178.303 90.2574L178.378 88.2345L163.631 90.6621Z" fill="#1E288B"/>
<path d="M111.271 45.3576L116.073 48.0195L117.268 45.89L114.408 44.2929L119.093 35.9241L117.161 34.8594L111.271 45.3576ZM109.948 35.775L109.34 38.9692L108.209 38.5434L109.948 35.775ZM108.412 43.9948L110.727 44.8679L112.37 32.6234L110.3 31.8462L103.365 42.0783L105.499 42.8981L106.939 40.577L108.892 41.3117L108.412 43.9948ZM100.484 41.4181L102.618 41.8227L104.88 30.0148L102.746 29.6102L101.476 36.2648L100.302 29.1418L98.168 28.7478L95.8739 40.5344L98.008 40.9496L99.2457 34.508L100.484 41.4181ZM91.1255 38.0749C90.0585 38.0749 89.8131 37.0101 89.8878 34.9552L89.9518 33.4113C90.0265 31.3777 90.3786 30.281 91.4136 30.313C92.4487 30.3449 92.6941 31.4842 92.6194 33.5072V35.051C92.534 37.0953 92.1606 38.1068 91.1789 38.0642M91.0829 40.5025C93.1529 40.577 94.6574 38.9586 94.8068 35.232L94.8709 33.4965C95.0096 29.7593 93.6331 27.9386 91.563 27.8641C89.493 27.7895 87.9564 29.5038 87.807 33.1877L87.743 34.9233C87.6043 38.6392 89.0021 40.3747 91.0829 40.4599M84.0831 40.4599L86.2918 40.2576L85.2248 28.2687L83.016 28.4603L84.0831 40.4599ZM78.7478 41.2904L80.8819 40.8751L79.0679 31.4416L81.4688 30.9837L81.0953 28.5562L74.2022 29.8658L74.6611 32.2614L76.9765 31.8249L78.7478 41.2904ZM70.7877 34.9871L72.4309 37.8619L71.2892 38.2665L70.7877 34.9871ZM74.9385 42.2486L77.2753 41.4288L70.6063 30.9837L68.4722 31.7184L69.7953 44.0054L71.9294 43.2388L71.5346 40.5344L73.626 39.8423L74.9385 42.2486ZM67.2238 45.3044L69.1444 44.3036L63.5211 33.6562L61.5898 34.6677L64.7909 40.6622L59.4557 35.8283L57.5137 36.893L63.1263 47.5404L65.1003 46.4756L61.9952 40.6622L67.2238 45.3044Z" fill="#1E288B"/>
<path d="M77.1259 135.008L77.1899 132.24L77.1259 131.101H75.536C75.5094 131.099 75.4827 131.103 75.4576 131.112C75.4324 131.121 75.4093 131.134 75.3895 131.152C75.3696 131.17 75.3535 131.192 75.3421 131.216C75.3306 131.24 75.324 131.266 75.3226 131.292V131.42C75.2266 131.601 75.0025 132.687 73.2525 132.687C73.0951 132.706 72.9505 132.783 72.8476 132.903C72.7447 133.024 72.6912 133.178 72.6977 133.337C72.6977 133.337 72.6977 134.029 73.0285 134.029H74.9065C74.9065 134.029 75.1412 134.156 75.1412 134.753V140.417H75.3226V140.715C75.3277 140.769 75.3521 140.819 75.3914 140.856C75.4306 140.893 75.482 140.915 75.536 140.917H76.9125C76.9666 140.915 77.018 140.893 77.0572 140.856C77.0964 140.819 77.1208 140.769 77.1259 140.715V135.008Z" fill="#1E288B"/>
<path d="M85.3635 134.252C85.3656 134.644 85.251 135.028 85.0342 135.355C84.8174 135.682 84.5082 135.938 84.1457 136.089C83.7833 136.241 83.3839 136.282 82.9982 136.207C82.6125 136.131 82.2579 135.944 81.9792 135.667C81.7006 135.39 81.5105 135.038 81.4331 134.653C81.3556 134.269 81.3943 133.87 81.5442 133.508C81.6941 133.145 81.9484 132.835 82.2751 132.617C82.6017 132.399 82.9858 132.282 83.3788 132.282C83.6389 132.281 83.8968 132.331 84.1375 132.429C84.3782 132.528 84.5971 132.673 84.7816 132.856C84.966 133.039 85.1124 133.256 85.2122 133.496C85.3121 133.736 85.3635 133.993 85.3635 134.252ZM87.2842 136.286C87.5616 130.164 83.0907 130.717 83.0907 130.717C82.531 130.704 81.9762 130.824 81.472 131.067C80.9679 131.31 80.5289 131.669 80.1911 132.115C79.8534 132.56 79.6267 133.079 79.5296 133.63C79.4325 134.18 79.468 134.745 79.6329 135.279C79.7979 135.813 80.0877 136.3 80.4784 136.7C80.8691 137.1 81.3495 137.402 81.88 137.58C82.4106 137.759 82.976 137.809 83.5297 137.726C84.0835 137.644 84.6096 137.431 85.0647 137.106C85.0647 137.106 85.0647 137.191 85.0647 137.244C85.1022 137.562 85.0637 137.884 84.9524 138.183C84.8411 138.483 84.6602 138.752 84.4245 138.969C82.8133 140.673 81.3407 138.564 81.3407 138.564H79.6335C79.9109 140.076 81.5221 141.439 84.2751 140.981C87.0281 140.524 87.2842 136.286 87.2842 136.286Z" fill="#1E288B"/>
<path d="M93.8358 138.958L93.505 138.863L93.9532 139.193L93.8358 138.958ZM93.9532 137.074L93.8785 137.244L93.7398 137.308L91.1789 137.404L91.0508 137.308V137.095C91.1792 136.929 91.2968 136.755 91.403 136.573L93.4837 133.997L93.7185 133.88L93.9319 134.029L93.9532 137.074ZM97.261 138.65V137.51C97.2521 137.471 97.2323 137.436 97.204 137.408C97.1757 137.379 97.14 137.36 97.101 137.351H96.162L95.9272 137.255L95.8419 137.01V131.399C95.8393 131.343 95.816 131.29 95.7765 131.251C95.737 131.212 95.6842 131.188 95.6285 131.186H94.1559C94.1248 131.175 94.091 131.175 94.0599 131.186C94.0254 131.157 93.982 131.142 93.9372 131.142C93.8924 131.142 93.849 131.157 93.8145 131.186L90.1332 135.903C89.9893 136.062 89.864 136.237 89.7597 136.424C89.6799 136.52 89.6051 136.619 89.5356 136.722C89.4712 136.804 89.4253 136.899 89.4014 137C89.3774 137.101 89.3759 137.206 89.3969 137.308C89.3606 137.35 89.3382 137.402 89.3329 137.457V138.596C89.3329 138.653 89.3554 138.707 89.3954 138.747C89.4354 138.787 89.4897 138.809 89.5463 138.809H93.9425V140.79C93.941 140.817 93.9452 140.844 93.9548 140.869C93.9645 140.894 93.9793 140.917 93.9985 140.936C94.0176 140.955 94.0406 140.97 94.0659 140.98C94.0912 140.989 94.1182 140.994 94.1453 140.992H95.5751C95.6026 140.993 95.6301 140.989 95.656 140.98C95.6818 140.97 95.7054 140.956 95.7254 140.937C95.7454 140.918 95.7613 140.895 95.7721 140.87C95.783 140.844 95.7886 140.817 95.7885 140.79V139.182L95.9166 138.937L96.1727 138.809H97.101C97.1557 138.807 97.2073 138.783 97.245 138.743C97.2828 138.704 97.3038 138.651 97.3037 138.596" fill="#1E288B"/>
<path d="M101.305 134.731C101.305 134.731 101.305 134.54 101.305 134.337C101.344 133.978 101.408 133.623 101.497 133.273C101.497 132.868 102.073 132.708 102.073 132.708H105.637C105.808 132.708 105.829 132.517 105.829 132.517V131.452C105.829 131.228 105.573 131.196 105.573 131.196C105.573 131.196 100.974 131.196 100.558 131.196C100.142 131.196 100.153 131.676 100.153 131.676C100.153 131.676 99.3845 135.935 99.3631 136.243C99.3537 136.316 99.3729 136.39 99.4166 136.45C99.4603 136.509 99.5251 136.55 99.5979 136.563H101.07C103.119 135.125 104.175 136.797 104.175 136.797C104.365 137.058 104.483 137.363 104.519 137.683C104.554 138.002 104.507 138.326 104.38 138.622C104.253 138.918 104.052 139.176 103.795 139.371C103.539 139.566 103.236 139.692 102.916 139.736C102.5 139.825 102.065 139.768 101.685 139.574C101.306 139.38 101.006 139.061 100.836 138.671C100.819 138.614 100.79 138.56 100.751 138.515C100.713 138.469 100.665 138.431 100.612 138.405H99.2351C99.175 138.406 99.1163 138.423 99.0641 138.452C99.012 138.482 98.9681 138.524 98.9363 138.575C100.003 142.696 106.342 142.195 106.555 137.766C106.182 133.145 101.348 134.774 101.348 134.774" fill="#1E288B"/>
<path d="M67.2238 146.348V148.679C67.2238 148.679 67.2238 149.276 67.5439 149.18L78.9612 146.529C78.9612 146.529 84.8193 144.495 85.5769 151.373C85.5769 151.586 85.7156 151.607 85.7156 151.607H92.2993C92.2993 151.607 92.5234 151.416 92.5234 151.235C92.5234 151.054 93.0355 145.113 99.4698 146.443C105.904 147.774 110.652 149.137 110.652 149.137V145.751L100.804 143.292C100.804 143.292 92.7581 139.949 89.0661 149.222C89.0661 149.222 86.6973 140.79 78.161 142.972C69.6246 145.155 67.6719 145.613 67.6719 145.613C67.6719 145.613 67.1704 145.751 67.1704 145.932C67.1569 146.07 67.1569 146.21 67.1704 146.348" fill="#1E288B"/>
<path d="M148.885 135.285C148.319 134.912 146.751 135.754 145.822 136.946C145.459 137.404 144.691 138.564 145.523 139.374C146.59 139.821 148.138 138.745 148.895 137.478C149.461 136.552 149.45 135.732 148.885 135.285Z" fill="#1E288B"/>
<path d="M24.606 140.396C24.394 140.029 24.1625 139.673 23.9125 139.331C23.7311 139.065 23.539 138.788 23.2402 138.266C22.9414 137.745 22.5146 137.095 22.1732 136.52L21.565 135.541L21.3409 135.221C21.0101 134.667 20.6686 134.156 20.2738 133.975C19.879 133.794 19.6336 134.156 19.2068 134.444C19.2068 134.444 19.1321 134.444 19.1321 134.529C19.147 134.613 19.1721 134.696 19.2068 134.774C20.0284 136.339 20.9141 137.872 22.1091 139.746L22.2052 139.906C22.8773 141.031 23.6601 142.087 24.542 143.058C24.606 143.121 24.6701 143.185 24.7447 143.185C25.0858 143.147 25.4047 142.997 25.6517 142.759C25.7366 142.692 25.7966 142.598 25.8225 142.493C25.6325 141.909 25.3319 141.367 24.9368 140.896C24.8176 140.735 24.7072 140.568 24.606 140.396Z" fill="#1E288B"/>
<path d="M85.3635 165.534H84.9367C84.5595 165.498 84.1797 165.566 83.8389 165.732C83.4982 165.897 83.2097 166.153 83.0053 166.471C82.7845 166.892 82.6828 167.366 82.711 167.84C82.7392 168.315 82.8962 168.773 83.1654 169.165C83.3514 169.46 83.6214 169.692 83.9409 169.833C84.2603 169.973 84.6146 170.015 84.958 169.953C85.4726 169.78 85.9152 169.441 86.2164 168.99C86.5176 168.54 86.6605 168.002 86.6226 167.461C86.6972 167.041 86.6086 166.607 86.3748 166.249C86.141 165.891 85.7794 165.636 85.3635 165.534Z" fill="#1E288B"/>
<path d="M149.269 95.6556C131.983 97.125 129.955 110.817 111.922 102.044C93.345 93.0896 88.3726 93.8243 75.6427 97.4763C66.6369 100.032 59.8291 110.445 45.1146 100.575C34.6256 94.5483 27.455 94.3673 22.7067 94.5483C18.7635 94.7588 14.9317 95.9285 11.5454 97.9555C7.85743 100.027 4.59831 102.781 1.94202 106.069C1.94202 106.069 7.18121 140.46 37.9547 161.637C69.71 183.486 107.121 182.41 136.539 164.608C146.492 158.571 155.133 150.607 161.953 141.186C168.774 131.765 173.637 121.078 176.254 109.753V109.636C176.254 109.636 166.566 94.197 149.269 95.6556ZM155.436 114.619C155.724 113.99 155.98 113.341 156.237 112.713C156.493 112.084 156.653 111.648 156.877 111.179C157.063 110.746 157.273 110.323 157.506 109.912C157.886 109.242 158.18 108.527 158.381 107.783C158.381 107.634 158.221 106.803 158.958 106.569C159.459 106.399 160.025 106.878 160.441 107.293C160.6 107.456 160.775 107.603 160.964 107.73C161.529 108.06 162.137 108.39 162.778 108.709L162.98 108.816C164.03 109.276 164.988 109.922 165.808 110.722L165.989 110.945C166.286 111.186 166.479 111.53 166.531 111.907C166.582 112.285 166.488 112.668 166.267 112.979C165.957 113.394 165.04 112.798 163.781 111.978C162.548 111.053 161.161 110.353 159.683 109.912C159.683 109.912 159.416 109.827 159.32 110.019L155.351 118.803C155.276 118.963 155.212 119.144 155.137 119.335C154.785 120.208 154.38 121.209 153.345 121.465C153.256 121.459 153.17 121.43 153.095 121.382C153.021 121.333 152.96 121.267 152.918 121.188C152.502 120.421 153.654 118.185 154.657 116.226C154.935 115.651 155.234 115.076 155.436 114.619ZM36.5142 127.268C43.4927 130.845 54.3552 131.463 54.3552 131.463C68.1414 131.846 74.629 128.758 83.9657 123.435C91.6911 119.037 97.037 125.436 102.543 127.992C108.724 130.561 115.353 131.883 122.048 131.883C128.744 131.883 135.373 130.561 141.554 127.992C141.554 127.992 124.161 154.259 90.592 154.12C52.5412 153.95 36.5142 127.268 36.5142 127.268ZM88.1698 160.029C87.9991 160.264 87.5189 160.296 87.4656 160.296C87.0814 160.296 85.3315 160.296 84.051 160.296H82.4505C81.2554 160.296 81.234 159.667 81.234 159.646C81.5008 158.581 83.8163 158.656 85.7049 158.88H86.3025C87.1348 158.88 88.0738 158.986 88.2765 159.731C88.2874 159.786 88.2832 159.843 88.2644 159.895C88.2456 159.948 88.2129 159.994 88.1698 160.029ZM44.3357 143.324L44.7305 143.675C45.4774 144.314 46.1176 144.868 46.8646 145.57C47.2167 145.9 47.6008 146.209 47.9316 146.518C48.4017 146.879 48.8473 147.27 49.2654 147.689C49.5141 147.896 49.7188 148.151 49.8672 148.438C50.0157 148.725 50.1049 149.039 50.1297 149.361C50.1196 149.392 50.1015 149.42 50.0772 149.443C50.0529 149.465 50.0232 149.481 49.991 149.489H49.863C49.4941 149.481 49.1308 149.398 48.7959 149.244C47.956 148.814 47.1978 148.241 46.5551 147.551C46.1623 147.142 45.7377 146.764 45.2853 146.422L44.1116 145.357C43.6421 144.921 43.1726 144.57 42.7138 144.218C41.6035 143.478 40.6618 142.513 39.9501 141.386C39.9207 141.347 39.8998 141.302 39.8888 141.254C39.8778 141.207 39.8769 141.157 39.8861 141.109C39.8861 140.96 40.1102 140.896 40.2489 140.843H40.3343C41.6147 140.705 42.6391 141.748 43.5354 142.664C43.8342 142.855 44.0902 143.111 44.3357 143.324ZM43.8875 140.268C44.389 139.725 45.2 140.428 45.4987 140.694C45.7975 140.96 46.1176 141.205 46.4377 141.45L47.11 141.993C47.6231 142.438 48.1111 142.91 48.5718 143.409L48.6465 143.483C49.7136 144.548 50.1511 145.24 50.0123 145.506C49.9997 145.528 49.9828 145.547 49.9626 145.561C49.9424 145.576 49.9193 145.586 49.895 145.592H49.6389C48.6203 145.381 47.6856 144.878 46.9499 144.144L46.6832 143.931L46.3417 143.675C45.5673 143.144 44.889 142.485 44.3357 141.727C44.0476 141.375 43.5567 140.651 43.8875 140.268ZM139.783 134.21C140.06 133.912 140.338 133.592 140.604 133.283C140.871 132.975 140.914 132.921 141.074 132.751C141.538 132.256 142.03 131.786 142.546 131.346C143.613 130.441 144.222 130.025 144.499 130.11H144.574V130.185C144.702 131.079 143.848 132.059 143.101 132.921L142.888 133.177C142.804 133.261 142.726 133.349 142.653 133.443C142.112 134.166 141.456 134.795 140.711 135.306H140.636C140.317 135.521 139.951 135.66 139.569 135.711C139.453 135.713 139.34 135.676 139.249 135.604C139.195 135.556 139.151 135.497 139.119 135.431C139.088 135.365 139.071 135.294 139.068 135.221C139.1 134.902 139.537 134.433 139.783 134.21ZM99.4271 120.134C92.8008 115.396 84.1577 116.301 80.103 119.58C53.6189 136.616 30.8056 117.76 30.8056 117.76L28.234 111.733C28.966 111.621 29.7108 111.621 30.4428 111.733C31.7232 111.925 36.1408 114.842 36.1408 114.842C40.9211 118.494 56.7454 124.521 70.7237 118.494C91.8831 105.717 98.3174 113.373 104.57 117.216C123.713 125.979 136.219 119.58 142.28 115.577C148.34 111.573 149.461 112.468 149.461 112.468L150.016 112.83C149.382 114.871 148.516 116.832 147.433 118.675C124.844 133.294 106.043 124.883 99.4271 120.134ZM149.151 125.777C149.802 125.777 150.592 126.618 151.349 127.427C151.722 127.878 152.161 128.269 152.651 128.588C152.997 128.397 153.296 128.131 153.526 127.811C153.985 127.268 154.508 126.65 155.266 127.087C155.682 127.715 155.105 128.258 154.561 128.79C154.265 129.043 154.006 129.337 153.793 129.663C154.104 130.174 154.532 130.605 155.041 130.92C155.778 131.463 156.471 131.984 155.991 132.857C155.874 132.98 155.733 133.077 155.577 133.143C155.421 133.209 155.254 133.242 155.084 133.241C154.177 133.241 153.142 132.304 152.192 131.452C151.915 131.207 151.659 130.973 151.403 130.76C151.147 130.547 150.667 130.185 150.229 129.866C148.938 128.886 147.593 127.885 147.604 127.172C147.626 126.256 148.127 125.788 149.151 125.777ZM28.0526 100.223C35.0417 100.223 40.3769 104.972 45.1253 107.336C54.7287 111.722 60.384 110.083 66.2741 108.251C72.1642 106.42 75.6534 101.671 86.8787 100.798C98.104 99.9252 105.829 105.174 111.901 108.251C117.972 111.329 127.544 111.541 135.077 107.187C142.248 101.341 153.697 100.947 153.697 100.947L152.491 106.271C150.282 106.825 145.566 106.984 141.149 109.359C133.05 115.204 126.434 115.939 118.517 115.577C110.258 115.194 105.467 110.253 99.3951 107.719C93.3236 105.185 86.6973 105.707 82.3224 106.803C77.9475 107.9 70.9264 112.638 65.0363 114.469C59.1462 116.301 48.6572 116.12 40.2062 110.636C31.7552 105.153 26.2173 105.643 26.2173 105.643C25.8545 105.281 25.1502 100.234 25.1502 100.234L28.0526 100.223ZM12.2283 104.418C12.319 104.346 12.4237 104.294 12.5357 104.265C12.6478 104.235 12.7648 104.23 12.8792 104.248C13.9318 104.805 14.7412 105.73 15.152 106.846C15.1954 106.948 15.2453 107.048 15.3014 107.144C15.6322 107.794 15.8883 108.443 16.1337 109.071C16.3791 109.699 16.5392 110.136 16.7739 110.583L16.8806 110.871C18.0224 113.213 19.4522 116.716 19.6336 117.174C20.7232 117.204 21.8088 117.03 22.8347 116.663C23.1655 116.567 23.507 116.461 23.9018 116.365C23.9624 115.644 23.7448 114.928 23.2936 114.363C23.1312 114.095 22.9851 113.818 22.8561 113.533C22.7174 113.234 19.2708 106.079 19.1001 105.441C19.0609 105.339 19.0454 105.229 19.0546 105.12C19.0639 105.012 19.0977 104.906 19.1534 104.812C19.2215 104.714 19.3245 104.646 19.4415 104.621C19.9004 104.248 20.6686 104.94 20.7006 104.961C21.8317 106.026 23.2509 109.636 23.9018 111.35L24.0298 111.68L25.9078 115.79C26.2493 115.974 26.5112 116.277 26.6441 116.642C26.6774 116.782 26.6793 116.929 26.6498 117.07C26.6203 117.212 26.5601 117.345 26.4734 117.461C25.6456 118.146 24.6646 118.62 23.6137 118.846C22.5848 119.197 21.4831 119.281 20.4125 119.09C20.6666 119.847 21.0258 120.563 21.4796 121.22C21.6503 121.507 21.821 121.795 21.9918 122.114V122.189H21.9064C21.5044 122.36 21.0736 122.454 20.6366 122.466C20.3958 122.47 20.1577 122.415 19.943 122.306C19.2068 121.933 18.94 120.975 18.6413 119.857C18.5452 119.527 18.4599 119.176 18.3425 118.792L17.0727 115.119C16.0948 115.654 14.984 115.897 13.8716 115.822C13.8716 115.822 13.0926 115.449 13.21 114.853C13.3423 114.427 13.5878 114.044 13.9203 113.746C14.2528 113.448 14.66 113.246 15.0987 113.16L15.3548 113.085C15.5575 113.085 15.931 112.926 15.9843 112.83L12.0789 105.185C12.0338 105.055 12.0239 104.916 12.0501 104.782C12.0764 104.647 12.1378 104.522 12.2283 104.418ZM15.6855 121.795L15.3974 122.061C13.9598 122.93 12.3764 123.533 10.7238 123.839C10.7238 123.839 9.92351 123.765 9.65675 123.328C9.59978 123.224 9.56993 123.106 9.56993 122.987C9.56993 122.868 9.59978 122.751 9.65675 122.647C9.7143 122.442 9.81435 122.252 9.9504 122.089C10.0864 121.926 10.2554 121.793 10.4464 121.699L13.1246 120.421C12.5994 118.258 11.7884 116.175 10.7131 114.225C9.99218 112.847 9.3613 111.424 8.82445 109.966C8.77256 109.858 8.74388 109.741 8.74026 109.622C8.73664 109.503 8.75815 109.384 8.80342 109.273C8.84869 109.163 8.91669 109.063 9.00303 108.981C9.08937 108.898 9.19212 108.835 9.30462 108.794C9.36536 108.769 9.43069 108.755 9.49669 108.755C9.56269 108.755 9.62802 108.769 9.68876 108.794C9.86835 108.888 10.0265 109.018 10.1533 109.175C10.28 109.333 10.3726 109.515 10.425 109.71L14.3411 118.728C14.4974 119.042 14.6756 119.345 14.8746 119.633C15.4119 120.224 15.7021 120.997 15.6855 121.795ZM29.4184 142.504C29.3352 142.569 29.2567 142.64 29.1836 142.717C28.0747 143.564 26.9049 144.329 25.6837 145.006C25.5622 145.058 25.4445 145.118 25.3316 145.187C25.1156 145.344 24.8613 145.439 24.5954 145.464C24.5007 145.461 24.4071 145.443 24.3179 145.411C23.8983 145.05 23.5663 144.598 23.3469 144.09C23.3469 144.005 23.2616 143.941 23.2295 143.888C22.6854 142.972 22.2905 142.376 21.8637 141.759C21.4369 141.141 21.2022 140.79 20.7967 140.108C20.0498 138.926 19.2495 137.67 18.4278 136.414C18.1422 135.943 17.7819 135.523 17.3608 135.168C17.032 134.987 16.787 134.685 16.6779 134.327C16.6461 134.206 16.6411 134.079 16.6632 133.956C16.6853 133.833 16.734 133.716 16.8059 133.613C17.0599 133.287 17.3894 133.028 17.7663 132.857C17.9358 132.764 18.0997 132.661 18.2571 132.549C18.8653 132.101 19.3242 131.708 19.8684 131.282C20.4014 130.864 20.9951 130.53 21.629 130.291C22.0223 130.281 22.4045 130.422 22.696 130.685C22.8321 130.897 22.9044 131.142 22.9044 131.393C22.9044 131.645 22.8321 131.89 22.696 132.101C22.5209 132.336 22.2993 132.531 22.0451 132.676L21.789 132.911C22.0558 133.422 25.0862 138.021 25.4383 138.543C25.5877 138.777 25.7478 139.076 25.9292 139.384C26.2627 140.087 26.7137 140.728 27.263 141.279C27.7218 141.631 28.1913 141.279 28.6395 141.013C29.0876 140.747 29.365 140.534 29.6425 140.768C29.7622 140.87 29.8592 140.995 29.9272 141.136C29.9952 141.278 30.0327 141.432 30.0373 141.588C29.9946 141.993 29.6958 142.248 29.4184 142.504ZM30.0373 137.67H29.7812C29.2519 137.595 28.7447 137.409 28.2938 137.122C27.8429 136.836 27.4587 136.456 27.1669 136.009C26.9642 135.732 26.8148 135.509 26.6868 135.296C26.4002 134.848 26.0867 134.417 25.7478 134.007C25.3306 133.475 24.9526 132.912 24.6167 132.325C24.3606 131.91 24.1152 131.527 23.8698 131.165L23.7844 131.047C23.3634 130.571 23.0892 129.983 22.9948 129.354C22.9583 129.097 22.995 128.835 23.1006 128.598C23.2063 128.361 23.3767 128.158 23.5923 128.013C23.8022 127.883 24.0196 127.766 24.2432 127.662C24.5516 127.515 24.8478 127.344 25.1289 127.15C25.3405 126.987 25.5402 126.81 25.7264 126.618C25.9236 126.398 26.1456 126.202 26.388 126.033C26.4898 125.958 26.6058 125.906 26.7288 125.878C26.8518 125.851 26.9791 125.849 27.1029 125.873C27.5724 126.011 27.8605 126.607 28.1166 127.129C28.1827 127.282 28.2575 127.432 28.3407 127.576C28.9512 128.638 29.6246 129.662 30.3574 130.643L30.5815 130.984C30.9016 131.473 31.4244 132.282 31.8192 132.282C32.4678 132.197 33.0631 131.879 33.4945 131.388C33.7079 131.047 33.1531 130.196 32.8223 129.685L32.6302 129.386C31.7796 128.051 30.8081 126.797 29.7278 125.639C29.5257 125.437 29.3784 125.188 29.2999 124.914C29.2215 124.64 29.2145 124.351 29.2797 124.073C29.3864 123.722 29.5464 123.52 29.7812 123.488C30.4534 123.392 31.3924 124.723 32.2141 126.022L32.3848 126.288C33.0997 127.353 33.8039 128.418 34.5189 129.482C34.6362 129.663 34.7643 129.834 34.903 130.015C35.3938 130.653 35.906 131.314 35.6499 132.144C35.4792 132.698 35.1378 132.889 34.6789 133.209L34.2414 133.464C34.0053 133.568 33.7771 133.689 33.5585 133.826C33.334 133.969 33.0985 134.094 32.8543 134.199C32.7286 134.245 32.6072 134.302 32.4915 134.369C32.3119 134.465 32.1222 134.54 31.926 134.593C31.7348 134.652 31.5302 134.652 31.3391 134.593C30.7668 134.234 30.3167 133.711 30.048 133.092C29.1022 131.444 28.0693 129.849 26.9535 128.311L25.1502 129.376C25.0969 129.376 24.9902 129.461 24.9688 129.535V129.642C24.9688 129.77 25.385 130.419 25.5557 130.707L25.6517 130.845C26.42 131.995 27.1883 133.102 27.9459 134.124C28.394 134.731 28.6181 135.008 28.9382 135.392L29.7812 136.456L29.9839 136.69C30.2196 136.941 30.4371 137.208 30.6348 137.489V137.553H30.5601C30.4323 137.593 30.2993 137.615 30.1653 137.617L30.0373 137.67ZM31.2644 141.173C31.0778 141.111 30.9088 141.004 30.7715 140.864C30.6341 140.723 30.5324 140.552 30.4748 140.364C30.4333 140.216 30.4387 140.059 30.4903 139.914C30.5419 139.769 30.6371 139.643 30.7629 139.555C31.3711 139.139 31.926 138.724 32.897 138.011L35.031 136.392L35.5112 135.988C36.3328 135.285 37.4639 134.316 38.4029 135.04C38.536 135.137 38.6447 135.264 38.7206 135.409C38.7965 135.555 38.8375 135.717 38.8404 135.881C38.8175 136.119 38.7247 136.345 38.5736 136.531C38.0376 137.156 37.3989 137.685 36.685 138.096C36.4716 138.245 36.2581 138.373 36.0661 138.522L34.3801 139.725C33.4823 140.465 32.4097 140.963 31.2644 141.173ZM45.232 161.296C44.8375 161.509 44.3996 161.63 43.9515 161.648C43.0552 161.648 42.4577 160.977 41.7107 160.157C41.4333 159.848 41.1452 159.54 40.8144 159.22C38.9386 157.296 36.9197 155.517 34.775 153.897C34.5748 153.803 34.3559 153.755 34.1347 153.758C33.5479 153.758 32.8116 153.641 32.6515 152.63C33.2704 151.426 35.4365 148.658 36.8023 148.754C37.2185 148.754 37.5279 149.063 37.7093 149.595C37.9654 150.319 37.4959 150.82 37.0051 151.213L36.7917 151.394L36.2261 151.831C35.97 152.012 35.6713 152.225 35.7673 152.534C35.8633 152.842 36.3648 153.183 36.749 153.428L37.0798 153.652C37.6719 154.098 38.2284 154.589 38.7444 155.121C39.1712 155.558 39.6407 155.973 40.0888 156.367L40.5797 156.814C41.0172 157.208 41.4867 157.591 41.9348 157.975C43.1487 158.933 44.2704 160.002 45.2853 161.169L45.3494 161.243L45.232 161.296ZM44.0049 152.779C43.8293 152.777 43.6543 152.759 43.482 152.725C42.2833 152.443 41.1614 151.902 40.1955 151.139C39.1798 150.426 38.3879 149.44 37.9121 148.296C37.656 147.54 37.4426 146.092 37.9761 145.464C38.4261 145.037 38.9783 144.733 39.5799 144.58C40.1814 144.427 40.8123 144.431 41.412 144.591C42.5382 144.839 43.5727 145.396 44.3997 146.199C44.5048 146.334 44.6189 146.462 44.7411 146.582L44.8478 146.699C45.5311 147.493 46.0823 148.392 46.4804 149.361C46.7443 149.849 46.831 150.413 46.7258 150.958C46.4935 151.551 46.0691 152.049 45.5201 152.374H45.4454L45.3494 152.427C44.9337 152.642 44.4729 152.755 44.0049 152.757V152.779ZM54.6753 149.584L54.4512 149.776L53.875 150.383C53.7897 150.489 53.6936 150.585 53.5976 150.692C53.3095 150.99 53.0107 151.288 52.6906 151.586C52.3783 151.874 52.0826 152.18 51.805 152.502C51.805 152.906 52.2211 153.311 52.6373 153.694C53.0534 154.078 53.4802 154.482 53.4482 154.887C53.4256 155.013 53.3744 155.132 53.2986 155.235C53.2228 155.339 53.1243 155.423 53.0107 155.483C52.3705 155.6 51.9437 155.153 51.5916 154.706C51.3832 154.422 51.1133 154.189 50.802 154.024C50.2975 154.261 49.8444 154.594 49.4682 155.004C49.2547 155.238 49.052 155.483 48.8493 155.728C48.4703 156.245 48.0255 156.71 47.5261 157.112C47.1209 157.407 46.6397 157.581 46.139 157.612C46.0022 157.618 45.8663 157.589 45.7442 157.527C45.6221 157.45 45.5269 157.337 45.4716 157.203C45.4162 157.07 45.4034 156.923 45.4347 156.782C45.4987 155.781 46.4271 154.993 47.2487 154.291C47.5405 154.047 47.8184 153.788 48.081 153.513L52.3492 148.903C52.8603 148.308 53.4659 147.801 54.1418 147.402C54.2282 147.343 54.327 147.304 54.4306 147.29C54.5342 147.275 54.6399 147.284 54.7393 147.317C55.0651 147.489 55.3131 147.778 55.4329 148.126C55.753 148.637 55.0701 149.233 54.6647 149.584H54.6753ZM69.3578 168.228C68.9033 169.762 68.1808 171.204 67.2238 172.487C66.9664 172.674 66.665 172.791 66.3488 172.828C66.2817 172.839 66.2132 172.839 66.146 172.828C66.0379 172.788 65.9418 172.721 65.867 172.633C65.7923 172.545 65.7414 172.44 65.7192 172.327C65.6228 172.145 65.5672 171.944 65.5562 171.738C65.5451 171.532 65.5789 171.326 65.6552 171.135L66.7222 168.494C64.9325 167.293 62.9914 166.334 60.9495 165.641C59.5275 165.121 58.141 164.509 56.7987 163.809C56.693 163.766 56.5974 163.701 56.5179 163.619C56.4384 163.537 56.3767 163.439 56.3367 163.332C56.2966 163.225 56.2791 163.111 56.2851 162.998C56.2912 162.884 56.3208 162.772 56.3719 162.67C56.3943 162.609 56.4298 162.553 56.4759 162.508C56.5219 162.462 56.5775 162.426 56.6387 162.404C56.8183 162.359 57.005 162.35 57.1881 162.378C57.3712 162.405 57.5471 162.468 57.7057 162.563L66.4021 166.45C66.7136 166.572 67.0348 166.669 67.3625 166.737C68.1446 166.818 68.8643 167.2 69.3685 167.802L69.3578 168.228ZM73.1352 163.692C73.434 163.788 73.7434 163.873 74.0635 163.99H74.1489V164.065C74.037 164.372 73.8613 164.652 73.6332 164.887C73.4052 165.122 73.13 165.306 72.8257 165.428C72.7018 165.444 72.5762 165.444 72.4523 165.428C71.6723 165.302 70.9376 164.98 70.3182 164.491C70.0301 164.31 69.7313 164.118 69.4219 163.948L66.0287 162.116C65.6983 163.115 65.0826 163.996 64.2574 164.65C64.204 164.65 63.4571 164.906 63.1903 164.406C63.0071 164.015 62.9322 163.583 62.9735 163.154C63.0148 162.725 63.1708 162.315 63.4251 161.967C63.459 161.897 63.4982 161.829 63.5424 161.765C63.6598 161.595 63.8732 161.265 63.8412 161.158L56.0625 158.262C55.9579 158.201 55.8707 158.114 55.8091 158.009C55.7475 157.905 55.7135 157.787 55.7104 157.666C55.7297 157.556 55.7708 157.452 55.8313 157.359C55.8917 157.265 55.9704 157.185 56.0625 157.123C57.183 156.842 58.368 156.982 59.3917 157.517L59.6691 157.623C60.3096 157.866 60.9365 158.143 61.5471 158.454C62.0059 158.677 62.4861 158.911 62.9769 159.114L63.233 159.242C65.5805 160.168 68.8883 161.733 69.3152 161.935C70.11 161.253 70.7719 160.43 71.2679 159.508C71.4386 159.22 71.6093 158.922 71.8227 158.603C71.3981 158.042 70.7769 157.662 70.0834 157.538C69.789 157.458 69.5003 157.358 69.2191 157.24C68.931 157.123 61.8245 154.291 61.259 153.918C61.1645 153.869 61.082 153.799 61.0175 153.715C60.9529 153.63 60.9079 153.532 60.8855 153.428C60.869 153.316 60.8957 153.202 60.9602 153.109C61.0456 152.544 62.0272 152.534 62.0806 152.534C63.5851 152.534 66.957 154.216 68.5896 155.025L68.8457 155.153L72.8791 156.867C73.2372 156.775 73.6167 156.817 73.9461 156.984C74.0618 157.063 74.1596 157.166 74.2331 157.285C74.3066 157.404 74.3543 157.538 74.3729 157.676C74.2219 158.702 73.8348 159.679 73.2419 160.53C72.7317 161.446 71.9976 162.219 71.1078 162.776C71.7492 163.171 72.4422 163.476 73.1672 163.681L73.1352 163.692ZM89.0128 168.547C88.8702 169.108 88.6048 169.629 88.2358 170.075C87.8668 170.52 87.4033 170.879 86.8787 171.124C86.0828 171.464 85.2261 171.639 84.3605 171.639C83.4948 171.639 82.6381 171.464 81.8422 171.124C81.0561 170.547 80.4917 169.719 80.2432 168.777C79.9947 167.836 80.077 166.838 80.4764 165.949C80.8316 165.4 81.2922 164.926 81.8316 164.555C82.4105 164.219 83.0476 163.995 83.7096 163.894C83.7282 163.691 83.8171 163.5 83.9611 163.354C84.1051 163.208 84.2953 163.117 84.4992 163.096C84.7437 163.056 84.9946 163.102 85.2087 163.226C85.4229 163.351 85.587 163.545 85.6729 163.777C86.5058 163.943 87.2858 164.309 87.9457 164.842L88.1485 165.076C88.5453 165.551 88.8316 166.107 88.9866 166.706C89.1416 167.304 89.1615 167.93 89.0448 168.537L89.0128 168.547ZM90.464 162.521C89.6083 162.84 88.699 162.992 87.7857 162.968C87.4762 162.968 87.1775 162.968 86.868 162.968C86.3683 162.916 85.8658 162.895 85.3635 162.904C84.9047 162.904 80.9993 162.787 80.5618 162.649C80.4444 162.649 79.4948 162.553 79.1853 162.148C79.1438 162.092 79.1139 162.029 79.0974 161.961C79.0809 161.893 79.0781 161.823 79.0893 161.754C79.0912 161.619 79.1446 161.49 79.2387 161.392C79.3023 161.336 79.3767 161.293 79.4573 161.265C79.5379 161.238 79.6232 161.227 79.7082 161.233C79.7082 161.233 83.7843 161.105 88.5326 161.328C89.0977 161.369 89.6582 161.458 90.2079 161.595C90.3115 161.619 90.4079 161.668 90.4894 161.736C90.571 161.804 90.6353 161.891 90.6774 161.989C90.6978 162.084 90.6918 162.183 90.6598 162.275C90.6278 162.367 90.5711 162.448 90.496 162.51L90.464 162.521ZM97.8266 159.71C97.8266 159.966 97.8266 160.2 97.8266 160.413C97.8266 161.275 97.8266 162.106 97.8266 162.926C97.8266 165.438 97.7305 167.823 97.7199 170.432C97.7199 170.73 97.7199 171.081 97.7199 171.443C97.7839 172.678 97.8479 174.073 97.2184 174.733C97.0963 174.856 96.9492 174.951 96.7872 175.011C96.6252 175.072 96.452 175.097 96.2794 175.085C95.2123 174.957 95.287 172.625 95.3724 169.921C95.4677 168.423 95.4355 166.92 95.2763 165.428C94.6135 165.241 93.9118 165.241 93.249 165.428C93.1636 165.428 92.9288 165.673 93.1102 168.058V168.164C93.1102 168.441 93.1102 168.728 93.1743 169.016C93.2896 170.027 93.3146 171.046 93.249 172.061C93.2643 172.356 93.2128 172.651 93.0983 172.924C92.9838 173.197 92.8091 173.44 92.5874 173.637C92.4265 173.727 92.2482 173.783 92.0642 173.799C91.8802 173.816 91.6948 173.793 91.5203 173.733C90.9761 173.594 90.9335 171.763 90.9335 169.378C90.9335 169.005 90.9335 168.654 90.9335 168.313C90.9335 167.749 90.9335 167.163 90.9335 166.578C90.9335 165.268 90.9335 163.916 90.8481 162.532V161.733C90.8481 161.563 90.8481 161.382 90.8481 161.19C90.8481 159.891 90.8481 158.273 91.6164 157.762C91.8762 157.645 92.1615 157.597 92.4453 157.621C92.7291 157.645 93.002 157.741 93.2383 157.9C93.2383 157.9 93.441 158.06 93.4304 158.592C93.4197 159.124 93.4304 162.936 93.2703 163.511C93.6971 163.948 94.4334 163.767 95.2016 163.586H95.3083L95.4151 160.317C95.4151 160.2 95.2123 157.229 96.162 156.835C96.3987 156.769 96.6478 156.759 96.8889 156.807C97.13 156.856 97.3562 156.96 97.5491 157.112C97.9866 157.666 97.9013 158.805 97.8266 159.71ZM102.639 159.635C102.799 157.101 105.744 156.441 106.246 156.324C106.233 156.114 106.288 155.905 106.403 155.729C106.518 155.552 106.688 155.417 106.886 155.345C107.099 155.309 107.317 155.342 107.509 155.44C107.702 155.538 107.857 155.695 107.953 155.888L108.646 155.824H108.988C111.026 155.824 112.189 156.558 112.861 158.166C113.114 158.771 113.217 159.428 113.159 160.081C113.101 160.734 112.886 161.363 112.53 161.914C111.941 162.749 111.162 163.433 110.257 163.91C109.352 164.387 108.347 164.645 107.323 164.661H107.003C105.835 164.634 104.719 164.171 103.877 163.362C103.432 162.911 103.091 162.369 102.878 161.773C102.664 161.177 102.582 160.542 102.639 159.912V159.635ZM119.626 169.293C117.026 171.188 113.904 172.24 110.684 172.306C109.96 172.316 109.238 172.204 108.55 171.976C108.124 171.854 107.741 171.616 107.443 171.289C107.145 170.962 106.945 170.558 106.864 170.123C106.523 168.068 109.767 166.322 112.05 165.63C112.08 165.437 112.149 165.252 112.251 165.085C112.354 164.919 112.489 164.775 112.648 164.661C112.782 164.569 112.933 164.504 113.092 164.471C113.252 164.438 113.416 164.436 113.576 164.467C113.736 164.498 113.888 164.56 114.024 164.65C114.159 164.74 114.276 164.856 114.366 164.991L114.761 164.927C117.503 164.491 120.341 164.044 120.875 166.801C120.907 167.29 120.808 167.778 120.589 168.216C120.37 168.654 120.037 169.025 119.626 169.293ZM121.664 159.572C121.419 160.072 120.597 160.232 119.893 160.381C119.557 160.441 119.226 160.523 118.901 160.626C118.924 160.817 118.964 161.005 119.018 161.19C119.221 162.052 119.541 163.319 118.581 163.703H118.303C118.13 163.7 117.961 163.652 117.812 163.564C117.076 163.107 116.745 161.648 116.425 160.37C116.34 160.019 116.265 159.678 116.18 159.38L114.643 153.843C114.575 153.572 114.616 153.285 114.758 153.044C114.899 152.803 115.13 152.628 115.401 152.555C115.745 152.425 116.124 152.425 116.468 152.555C116.56 152.613 116.639 152.691 116.698 152.783C116.757 152.875 116.795 152.979 116.809 153.087L117.514 155.6C117.945 155.575 118.372 155.497 118.783 155.366C119.269 155.157 119.81 155.12 120.32 155.259C120.392 155.308 120.454 155.371 120.502 155.444C120.55 155.517 120.582 155.599 120.597 155.685C120.62 155.774 120.624 155.867 120.607 155.957C120.591 156.047 120.554 156.132 120.501 156.207C120.234 156.612 119.509 156.75 118.858 156.878C118.544 156.922 118.237 157.001 117.94 157.112C118.026 157.4 118.111 157.73 118.207 158.06L118.453 158.997C118.759 158.94 119.062 158.865 119.36 158.773C120.17 158.549 121.003 158.315 121.419 158.667C121.542 158.783 121.629 158.932 121.669 159.097C121.709 159.261 121.7 159.433 121.643 159.593L121.664 159.572ZM136.603 153.311L136.443 154.887C136.442 155.041 136.39 155.191 136.294 155.313C135.43 155.854 134.536 156.345 133.615 156.782C132.582 157.265 131.59 157.831 130.649 158.475C130.398 158.67 130.169 158.891 129.966 159.135C129.787 159.424 129.545 159.669 129.259 159.853C128.973 160.038 128.65 160.156 128.312 160.2C128.186 160.197 128.063 160.164 127.953 160.102C127.844 160.041 127.751 159.954 127.682 159.848C127.499 159.401 127.499 158.901 127.682 158.454L125.719 155.547L123.585 152.598C123.43 152.613 123.272 152.595 123.125 152.543C122.977 152.492 122.843 152.408 122.731 152.299C122.566 152.116 122.478 151.876 122.486 151.629C122.849 150.766 124.172 149.712 126.519 148.434L126.861 148.243C127.928 147.615 128.995 147.018 129.699 147.774C129.934 148.445 129.496 148.722 128.44 149.393L128.013 149.67C127.693 149.872 127.32 150.074 126.946 150.276C126.506 150.508 126.078 150.764 125.666 151.043C125.639 151.05 125.614 151.063 125.594 151.082C125.573 151.1 125.558 151.124 125.548 151.15C125.548 151.15 125.548 151.15 125.548 151.224C125.911 151.81 129.059 156.888 129.251 157.24C129.282 157.249 129.316 157.249 129.347 157.24C130.798 156.473 131.887 155.781 132.932 155.11C134.036 154.386 135.176 153.718 136.347 153.109C136.366 153.096 136.388 153.09 136.411 153.09C136.434 153.09 136.456 153.096 136.475 153.109C136.475 153.109 136.699 153.087 136.656 153.322L136.603 153.311ZM145.651 155.696C145.572 155.822 145.464 155.927 145.336 156.003C145.208 156.079 145.064 156.123 144.915 156.133C144.286 156.133 143.699 155.377 143.379 154.972L143.272 154.844C142.277 153.569 141.382 152.22 140.594 150.809C140.007 149.819 139.452 148.882 138.865 148.072C138.584 148.218 138.313 148.381 138.054 148.562C137.714 148.794 137.357 149 136.987 149.18C137.602 150.36 138.316 151.485 139.121 152.544C140.391 154.365 141.49 155.941 140.999 157.006C140.929 157.103 140.835 157.182 140.728 157.236C140.62 157.29 140.501 157.317 140.38 157.314C139.973 157.233 139.613 156.996 139.377 156.654L132.228 145.741C132.113 145.528 131.981 145.325 131.833 145.134C131.417 144.548 130.98 143.941 131.695 143.185C131.84 143.06 132.01 142.967 132.194 142.912C132.378 142.857 132.571 142.841 132.762 142.866C133.37 143.004 133.829 143.75 134.17 144.474C134.298 144.708 134.426 144.942 134.565 145.166C134.842 145.613 135.077 146.018 135.269 146.39C135.54 146.917 135.862 147.416 136.229 147.881C136.458 147.71 136.697 147.554 136.944 147.412C137.328 147.214 137.686 146.971 138.011 146.688C137.614 145.878 137.138 145.108 136.592 144.389C135.525 142.877 134.458 141.301 135.12 140.13C135.263 139.998 135.432 139.897 135.615 139.831C135.798 139.766 135.992 139.737 136.187 139.746C136.33 139.761 136.467 139.808 136.589 139.884C136.711 139.959 136.814 140.062 136.891 140.183C138.065 142.185 139.303 144.122 140.498 145.996C142.109 148.552 143.699 150.958 145.011 153.449C145.097 153.609 145.193 153.758 145.289 153.907C145.491 154.158 145.633 154.451 145.705 154.765C145.777 155.078 145.777 155.404 145.705 155.717L145.651 155.696ZM146.719 141.216C146.217 141.367 145.696 141.446 145.171 141.45C144.757 141.475 144.346 141.367 143.998 141.141C143.609 140.717 143.336 140.201 143.203 139.642C143.071 139.083 143.083 138.5 143.24 137.947C143.52 137.259 143.878 136.605 144.307 135.998C144.272 136.002 144.237 135.994 144.206 135.977C144.176 135.96 144.151 135.934 144.136 135.903C144.099 135.756 144.099 135.602 144.136 135.455C143.726 135.887 143.342 136.342 142.984 136.818C142.235 137.832 141.287 138.683 140.199 139.32C140.116 139.372 140.017 139.391 139.921 139.374C139.859 139.337 139.804 139.288 139.762 139.23C139.72 139.171 139.69 139.104 139.676 139.033V138.958C139.58 137.787 140.604 136.829 141.511 136.03C141.789 135.785 142.045 135.562 142.258 135.338C143.005 134.54 143.645 133.848 144.488 133.028C144.809 132.708 145.118 132.368 145.406 132.027C145.773 131.6 146.165 131.194 146.58 130.813C146.785 130.58 147.036 130.392 147.316 130.258C147.597 130.124 147.902 130.049 148.212 130.036C148.242 130.048 148.268 130.066 148.288 130.09C148.309 130.115 148.323 130.143 148.33 130.174C148.333 130.566 148.241 130.953 148.063 131.303C147.623 132.079 147.048 132.771 146.366 133.347C145.99 133.711 145.634 134.095 145.299 134.497L144.969 134.827C145.062 134.856 145.149 134.903 145.225 134.966L145.353 135.051L145.438 134.976L145.545 134.891C146.326 134.266 147.201 133.766 148.138 133.411C148.383 133.266 148.656 133.175 148.938 133.143C149.221 133.111 149.508 133.14 149.779 133.226C150.05 133.313 150.3 133.455 150.511 133.645C150.723 133.835 150.893 134.067 151.008 134.327C151.045 134.375 151.074 134.429 151.093 134.486C151.351 135.016 151.419 135.617 151.285 136.19C150.976 137.3 150.426 138.328 149.674 139.203C148.948 140.132 147.981 140.847 146.879 141.269L146.719 141.216ZM161.657 137.936C160.654 138.671 159.672 137.798 158.723 136.946C158.322 136.535 157.87 136.177 157.378 135.881C157.314 135.881 157.122 135.988 156.994 136.126L149.525 144.197C149.462 144.269 149.385 144.327 149.299 144.369C149.213 144.411 149.119 144.436 149.023 144.442C148.964 144.456 148.902 144.456 148.842 144.442C148.074 143.377 148.746 142.547 149.333 141.854L149.696 141.418C150.165 140.799 150.671 140.209 151.211 139.65L151.68 139.15L156.076 134.433C156.134 133.866 156.405 133.341 156.834 132.964C157.314 132.527 158.008 133.134 158.04 133.156C158.072 133.177 160.771 135.7 161.807 136.829C161.93 136.993 161.994 137.194 161.989 137.399C161.983 137.604 161.907 137.801 161.774 137.958L161.657 137.936ZM172.53 110.849C169.916 115.087 167.807 119.614 166.245 124.34C166.139 124.638 166.043 124.946 165.957 125.255C165.859 125.9 165.627 126.517 165.276 127.067C164.925 127.617 164.463 128.088 163.919 128.449H163.759C163.714 128.449 163.669 128.438 163.628 128.418C163.588 128.398 163.552 128.368 163.524 128.332C163.012 127.736 163.524 124.648 164.133 123.594C163.566 123.292 162.977 123.032 162.372 122.817C160.974 122.285 159.534 121.752 159.267 120.805C159.222 120.575 159.231 120.338 159.294 120.112C159.357 119.887 159.472 119.679 159.63 119.506C159.818 119.244 160.095 119.059 160.409 118.984C160.595 118.951 160.785 118.956 160.969 119C161.153 119.044 161.325 119.126 161.476 119.24C161.888 119.647 162.323 120.03 162.778 120.389C163.598 120.791 164.471 121.078 165.37 121.241C165.456 121.241 165.584 121.156 165.712 120.975C166.122 120.376 166.359 119.676 166.395 118.952C165.768 118.378 164.998 117.984 164.165 117.813C162.927 117.387 161.646 116.95 161.166 116.13C161.108 115.904 161.096 115.668 161.133 115.438C161.17 115.207 161.254 114.986 161.38 114.789C161.533 114.606 161.726 114.461 161.944 114.365C162.163 114.269 162.4 114.224 162.639 114.235C163.31 114.358 163.93 114.677 164.421 115.151C164.421 115.151 166.395 116.546 167.227 116.397C167.418 116.192 167.564 115.949 167.654 115.683C168.954 113.121 170.109 110.486 171.111 107.794C171.111 107.794 171.111 107.591 171.271 107.559C171.307 107.552 171.344 107.556 171.378 107.569C171.412 107.582 171.442 107.605 171.463 107.634L172.584 110.573L172.53 110.849Z" fill="#1E288B"/>
<path d="M42.7671 147.253C42.2229 146.816 40.8678 145.911 39.9288 146.88C39.4593 147.945 40.5477 149.446 41.8281 150.223C42.6818 150.734 43.8128 151.011 44.421 150.223C44.8158 149.68 43.9942 148.222 42.7671 147.253Z" fill="#1E288B"/>
<path d="M117.951 166.578C116.105 165.811 111.346 167.472 110.343 168.185C109.724 168.643 108.934 169.25 109.276 170.038C109.671 171.103 112.018 170.879 113.918 170.379C116.34 169.74 118.858 168.441 118.698 167.429C118.666 167.232 118.579 167.047 118.447 166.896C118.315 166.746 118.143 166.635 117.951 166.578Z" fill="#1E288B"/>
<path d="M110.215 161.754C110.633 161.345 110.901 160.808 110.976 160.229C111.052 159.65 110.93 159.062 110.631 158.56C110.087 157.581 107.921 157.08 106.363 157.889C105.953 158.132 105.613 158.476 105.375 158.888C105.138 159.3 105.011 159.767 105.008 160.242C104.968 160.668 105.039 161.097 105.215 161.487C105.391 161.877 105.665 162.215 106.011 162.468C106.698 162.802 107.474 162.913 108.228 162.785C108.982 162.657 109.677 162.297 110.215 161.754Z" fill="#1E288B"/>
</svg>
