<svg width="180" height="39" viewBox="0 0 180 39" fill="none" xmlns="http://www.w3.org/2000/svg">
<path d="M107.928 30.7366C107.989 30.8537 108.072 30.9585 108.171 31.0458C108.291 30.9697 108.395 30.8719 108.479 30.7574C108.548 30.661 108.587 30.5461 108.59 30.4275C108.6 30.3088 108.569 30.1903 108.5 30.0929C108.468 30.0562 108.429 30.0272 108.384 30.008C108.34 29.9888 108.291 29.98 108.243 29.9822C108.194 29.979 108.144 29.9871 108.098 30.0059C108.053 30.0247 108.012 30.0536 107.979 30.0906C107.905 30.1817 107.866 30.2964 107.87 30.4136C107.865 30.5243 107.885 30.6347 107.928 30.7366ZM108.463 33.8537C108.62 33.6972 108.742 33.5103 108.824 33.3045L107.995 32.3332C107.833 32.4461 107.695 32.5895 107.588 32.7554C107.503 32.9099 107.457 33.0824 107.454 33.2584C107.437 33.4542 107.488 33.6499 107.6 33.8121C107.651 33.8797 107.717 33.934 107.794 33.9705C107.87 34.007 107.955 34.0247 108.039 34.0221C108.118 34.0232 108.195 34.0088 108.268 33.9799C108.341 33.951 108.407 33.9081 108.463 33.8537ZM109.516 34.059C109.347 34.3777 109.11 34.6557 108.822 34.8734C108.589 35.0552 108.302 35.1529 108.007 35.1503C107.793 35.1466 107.583 35.0924 107.394 34.9922C107.205 34.8919 107.042 34.7484 106.919 34.5735C106.624 34.2029 106.474 33.7379 106.498 33.2653C106.503 32.944 106.582 32.6281 106.73 32.3424C106.892 32.0567 107.111 31.807 107.373 31.6087C107.229 31.4441 107.115 31.256 107.035 31.0527C106.932 30.7653 106.906 30.4559 106.961 30.1554C107.015 29.855 107.148 29.5741 107.345 29.3408C107.462 29.2009 107.608 29.0887 107.774 29.0125C107.94 28.9362 108.121 28.8978 108.303 28.9001C108.473 28.9045 108.64 28.9486 108.791 29.0287C108.941 29.1088 109.07 29.2228 109.169 29.3615C109.41 29.6616 109.534 30.0386 109.518 30.4228C109.511 30.6749 109.442 30.9213 109.317 31.1404C109.187 31.3693 109.012 31.5689 108.801 31.7264L109.231 32.2525L109.71 30.9443L110.701 30.9558L109.953 33.0323L111.075 34.2897L110.46 35.0903L109.516 34.059Z" fill="white"/>
<path d="M58.1781 5.02741V3.62924H60.7004V5.02741H64.1715V6.93546H61.5381C62.6689 7.25232 63.4588 7.83451 63.9077 8.68202C64.332 9.51206 64.4484 10.4649 64.2363 11.3722C64.0009 12.2312 63.4585 12.9747 62.7113 13.4626C61.8104 14.0778 60.6965 14.3854 59.3698 14.3854C58.1993 14.4248 57.0474 14.0857 56.0861 13.4187C55.3549 12.9149 54.8313 12.1642 54.6121 11.3053C54.3824 10.4253 54.4931 9.49135 54.9222 8.68894C55.3587 7.86296 56.1185 7.28078 57.2015 6.94239H54.5866V5.02741H58.1781ZM57.6042 8.76739C57.4103 8.97067 57.2591 9.21046 57.1594 9.47272C57.0597 9.73499 57.0134 10.0145 57.0233 10.2948C57.0064 10.8605 57.2153 11.4098 57.6042 11.8221C57.8332 12.0495 58.1073 12.2269 58.4089 12.3429C58.7105 12.4589 59.033 12.511 59.3559 12.4958C59.6854 12.5117 60.0147 12.462 60.3246 12.3495C60.6345 12.237 60.9188 12.064 61.1609 11.8406C61.3655 11.6542 61.5281 11.4266 61.6378 11.1728C61.7475 10.919 61.8019 10.6449 61.7973 10.3686C61.8125 9.78871 61.597 9.22637 61.1979 8.8043C60.9531 8.56901 60.6625 8.38621 60.3441 8.26717C60.0258 8.14812 59.6863 8.09536 59.3467 8.11214C59.0266 8.09618 58.7068 8.14613 58.407 8.25886C58.1072 8.3716 57.8339 8.5447 57.6042 8.76739ZM68.397 3.73306V9.05118H70.1325V11.1277H68.397V16.4135H65.877V3.72383L68.397 3.73306ZM58.546 19.0783H68.4965V21.051H56.0237V15.4237H58.546V19.0783Z" fill="white"/>
<path d="M87.8699 12.3874H81.7955V14.8377H87.1178V21.2102H84.6186V16.8103H74.0896V14.8377H79.2685V12.3874H73.356V10.4147H84.3201C84.425 9.8807 84.5022 9.34164 84.5515 8.79969C84.5993 8.2921 84.624 7.71761 84.6256 7.07621V6.07949H74.085V4.10452H87.1225V5.97105C87.1225 6.69782 87.097 7.43613 87.0507 8.18367C86.979 9.03041 86.8864 9.77564 86.7777 10.4147H87.8699V12.3874Z" fill="white"/>
<path d="M93.8795 5.10585V3.65H96.3811V5.10585H99.0237V7.03468H96.8716C97.6738 7.57918 98.2693 8.56051 98.6581 9.97867C99.0312 11.3697 99.155 12.8154 99.0237 14.2493C98.8895 15.8628 98.5247 17.1841 97.9292 18.2131C97.2488 19.3759 96.3672 19.9581 95.2842 19.9597C94.2012 19.9612 93.3381 19.379 92.6947 18.2131C92.0977 17.1825 91.739 15.8613 91.6187 14.2493C91.4757 12.8176 91.5869 11.3719 91.9473 9.97867C92.3361 8.57128 92.9369 7.58994 93.75 7.03468H91.5284V5.10585H93.8795ZM94.3424 9.64643C94.1376 10.7487 94.0461 11.8688 94.0693 12.9896C94.0523 14.117 94.1438 15.2435 94.3424 16.3535C94.5738 17.4302 94.89 17.9685 95.2911 17.9685C95.7169 17.9685 96.0455 17.4302 96.2769 16.3535C96.5016 15.2466 96.6048 14.1187 96.5847 12.9896C96.6105 11.8671 96.5073 10.7454 96.2769 9.64643C96.0571 8.68664 95.7308 8.20904 95.2911 8.20904C94.8515 8.20904 94.5622 8.68664 94.3424 9.64643ZM99.8591 3.7469H102.361V10.8716H103.689V3.7469H106.165V21.2263H103.689V12.9204H102.361V21.2263H99.8591V3.7469Z" fill="white"/>
<path d="M117.832 5.07586C118.604 5.93875 118.99 7.0416 118.99 8.38439C118.99 9.72719 118.604 10.8239 117.832 11.6745C116.982 12.6312 115.785 13.1103 114.241 13.1119C112.697 13.1134 111.507 12.6343 110.67 11.6745C109.899 10.8162 109.513 9.7195 109.513 8.38439C109.513 7.04929 109.899 5.94644 110.67 5.07586C111.508 4.13298 112.698 3.66077 114.241 3.65923C115.784 3.65769 116.981 4.1299 117.832 5.07586ZM112.547 6.4025C112.219 6.88701 112.054 7.5561 112.054 8.38439C112.054 9.21268 112.219 9.86562 112.547 10.3478C112.746 10.608 113.002 10.8189 113.296 10.964C113.59 11.1092 113.914 11.1847 114.242 11.1847C114.57 11.1847 114.894 11.1092 115.188 10.964C115.482 10.8189 115.738 10.608 115.937 10.3478C116.278 9.86485 116.449 9.21037 116.449 8.38439C116.449 7.54918 116.277 6.88701 115.937 6.4025C115.735 6.14788 115.477 5.94219 115.183 5.8008C114.89 5.6594 114.568 5.58596 114.242 5.58596C113.916 5.58596 113.594 5.6594 113.301 5.8008C113.007 5.94219 112.75 6.14788 112.547 6.4025ZM123.12 3.74921V5.67342H124.837V7.60456H123.12V9.80102H124.837V11.7437H123.12V13.5895H120.598V3.73998L123.12 3.74921ZM113.949 16.7203C113.332 17.048 113.024 17.4594 113.024 17.9547C113.024 18.4277 113.334 18.8291 113.949 19.1544C114.644 19.5313 115.61 19.7197 116.849 19.7197C118.126 19.7197 119.129 19.5313 119.857 19.1544C120.498 18.8291 120.822 18.4277 120.822 17.9547C120.822 17.4817 120.498 17.048 119.857 16.7203C119.128 16.3404 118.129 16.1505 116.861 16.1505C115.626 16.1505 114.66 16.3381 113.961 16.7134M121.803 15.3499C122.859 16.0528 123.386 16.9188 123.386 17.9478C123.386 18.9768 122.859 19.832 121.803 20.5134C120.609 21.2978 118.998 21.6916 116.969 21.6947C114.902 21.6947 113.282 21.3009 112.11 20.5134C111.064 19.8212 110.541 18.966 110.541 17.9478C110.541 16.9295 111.064 16.0635 112.11 15.3499C113.29 14.5623 114.91 14.1686 116.969 14.1686C119.001 14.1686 120.612 14.5623 121.803 15.3499Z" fill="white"/>
<path d="M133.793 6.06103H130.875V17.2718H135.334V3.73768H137.858V10.6824H139.726V3.73768H142.248V21.2194H139.726V12.6758H137.858V21.2378H135.334V19.2006H128.375V4.11144H133.793V6.06103Z" fill="white"/>
<path d="M150.132 4.77592V3.65H152.657V4.77592H156.128V6.64245H153.532C154.612 6.94469 155.383 7.46612 155.809 8.20443C156.224 8.88736 156.327 9.69027 156.119 10.6132C155.876 11.445 155.339 12.1612 154.608 12.6297C153.639 13.2627 152.498 13.5833 151.34 13.5479C150.038 13.5479 148.943 13.2403 148.054 12.625C147.339 12.15 146.815 11.437 146.578 10.6132C146.359 9.69027 146.45 8.88736 146.851 8.20443C147.288 7.46612 148.047 6.94546 149.13 6.64245H146.559V4.77592H150.132ZM149.582 8.38901C149.402 8.55422 149.259 8.7557 149.163 8.98005C149.068 9.20441 149.021 9.44651 149.026 9.69027C149.026 9.93824 149.076 10.1837 149.173 10.4121C149.27 10.6404 149.412 10.8469 149.591 11.0192C149.822 11.2418 150.097 11.4151 150.397 11.5285C150.698 11.642 151.019 11.6932 151.34 11.6791C151.664 11.6932 151.987 11.6427 152.29 11.5306C152.594 11.4184 152.872 11.2469 153.108 11.0261C153.296 10.8585 153.446 10.6537 153.549 10.4249C153.653 10.1961 153.708 9.94823 153.71 9.69719C153.713 9.44827 153.661 9.20169 153.557 8.97539C153.453 8.7491 153.3 8.54878 153.108 8.38901C152.604 8.00005 151.985 7.78899 151.348 7.78899C150.711 7.78899 150.092 8.00005 149.588 8.38901M160.384 3.72845V7.85604H162.098V9.84947H160.384V13.6494H157.852V3.72845H160.384ZM160.384 14.8146V21.2055H157.852V16.7895H147.716V14.8146H160.384Z" fill="white"/>
<path d="M179.109 4.10452V10.7585C179.114 12.0219 179.037 13.2843 178.878 14.5377C178.73 15.7475 178.478 16.9424 178.126 18.1093H175.684C175.99 17.1141 176.218 16.0966 176.365 15.0661C176.525 13.9404 176.602 12.8045 176.596 11.6675V6.25023H166.062V4.10452H179.109ZM179.859 19.9827H165.326V18.0539H167.178V10.1632H169.702V18.0539H171.658V10.1632H174.18V18.0539H179.868L179.859 19.9827Z" fill="white"/>
<path d="M49.6021 6.594C49.653 6.31713 49.6924 5.99182 49.7248 5.62728C49.7571 5.26274 49.7664 4.93512 49.7664 4.59596V3.67307H43.287V4.71824H48.4057V5.11969C48.4057 5.41348 48.3942 5.6765 48.371 5.90876C48.3487 6.1413 48.3131 6.37239 48.2646 6.60092H42.926V7.63686H45.8047V8.65203H43.2893V9.69027H48.415V11.7275H49.7664V8.64511H47.1561V7.62993H50.1297V6.594H49.6021Z" fill="white"/>
<path d="M44.93 19.6113H48.4914V20.105H44.93V19.6113ZM48.4914 18.5869H44.93V18.0147H43.5786V21.1409H49.8266V18.0147H48.4844L48.4914 18.5869Z" fill="white"/>
<path d="M43.1644 14.7269V17.5279H48.4798V17.7147H49.8243V12.9896H48.4798V16.515H44.5158V15.7282H47.4084V13.1442H43.1644V14.157H46.0662V14.7269H43.1644Z" fill="white"/>
<path d="M47.0659 28.9693L45.1336 31.5234L47.3945 34.915H46.0338L44.4394 32.3586L44.0645 33.0138V34.915H42.9237V28.9693H44.0645V31.258L45.6705 28.9693H47.0659Z" fill="white"/>
<path d="M50.9628 30.4921C50.9664 30.3845 50.9477 30.2773 50.9079 30.1773C50.8681 30.0772 50.808 29.9865 50.7314 29.9106C50.5133 29.7322 50.2392 29.6358 49.9571 29.6383C49.675 29.6408 49.4027 29.7421 49.1879 29.9245C49.1134 29.999 49.0546 30.0876 49.0149 30.185C48.9751 30.2825 48.9553 30.3869 48.9565 30.4921V33.2745C48.9506 33.5072 49.0259 33.7347 49.1694 33.9183C49.2646 34.0344 49.3864 34.126 49.5245 34.1854C49.6626 34.2448 49.813 34.2703 49.9631 34.2597C50.1155 34.2738 50.2691 34.25 50.4101 34.1904C50.551 34.1308 50.6749 34.0373 50.7707 33.9183C50.904 33.7213 50.9698 33.4865 50.9582 33.2492L50.9628 30.4921ZM52.1198 33.0023C52.1453 33.4695 52.0309 33.9336 51.7912 34.3359C51.4557 34.7973 50.8471 35.028 49.97 35.028C49.093 35.028 48.4682 34.7973 48.1373 34.3359C47.8948 33.935 47.7824 33.4692 47.8157 33.0023V30.8058C47.7813 30.3584 47.8925 29.9118 48.1327 29.5323C48.4636 29.0708 49.0722 28.8401 49.9654 28.8401C50.8587 28.8401 51.4441 29.0708 51.7866 29.5323C52.0282 29.9124 52.1432 30.359 52.1152 30.8081L52.1198 33.0023Z" fill="white"/>
<path d="M54.015 31.3942H55.0633C55.2185 31.3887 55.3732 31.3725 55.5261 31.3457C55.5664 31.338 55.6047 31.3224 55.6388 31.2998C55.673 31.2773 55.7023 31.2482 55.7251 31.2142C55.7566 31.1335 55.77 31.0469 55.7645 30.9604V30.169C55.7715 30.0772 55.7547 29.985 55.7159 29.9014C55.6635 29.8324 55.5864 29.7861 55.5007 29.7722C55.33 29.7386 55.1563 29.7231 54.9823 29.7261C54.818 29.7261 54.4941 29.7261 54.0081 29.7261L54.015 31.3942ZM52.858 28.9693H54.6283C55.2044 28.9428 55.7812 29.005 56.3384 29.1539C56.5116 29.1936 56.6661 29.2908 56.7767 29.4295C56.8873 29.5683 56.9473 29.7404 56.947 29.9176V30.7251C56.9686 30.9755 56.9112 31.2264 56.7827 31.4426C56.6392 31.6249 56.3523 31.7472 55.9241 31.8118C56.1308 31.8754 56.3283 31.9654 56.5119 32.0794C56.6377 32.1581 56.7419 32.2667 56.8151 32.3955C56.8779 32.5085 56.9158 32.6336 56.9261 32.7623C56.9398 32.9158 56.9452 33.0698 56.9423 33.2238V34.9034H55.7714V32.7923C55.7764 32.6844 55.7655 32.5764 55.739 32.4716C55.7234 32.4253 55.6985 32.3826 55.6659 32.3462C55.6333 32.3097 55.5936 32.2802 55.5493 32.2594C55.3825 32.1985 55.208 32.1612 55.0309 32.1486C54.7995 32.1279 54.4455 32.1163 54.0058 32.1163V34.9034H52.8488L52.858 28.9693Z" fill="white"/>
<path d="M57.7199 28.9693H60.8786V29.7468H58.8746V31.4703H60.7559V32.2155H58.8746V34.1236H60.9434V34.915H57.7199V28.9693Z" fill="white"/>
<path d="M63.0723 32.5778H64.2432L63.6647 30.0398L63.0723 32.5778ZM64.5232 28.9693L65.9742 34.915H64.8171L64.4469 33.3899H62.8733L62.51 34.915H61.3391L62.79 28.9693H64.5232Z" fill="white"/>
<path d="M75.1518 28.9693V34.915H73.9994V29.9314L72.8585 34.915H71.7223L70.5606 29.9314V34.915H69.4036V28.9693H71.4678L71.7802 30.4782L72.2823 33.466L73.1246 28.9693H75.1518Z" fill="white"/>
<path d="M77.4867 32.5778H78.6576L78.0814 30.0398L77.4867 32.5778ZM78.9376 28.9693L80.3908 34.915H79.2338L78.8635 33.3899H77.29L76.9267 34.915H75.7557L77.2067 28.9693H78.9376Z" fill="white"/>
<path d="M82.1495 31.3942H82.3416C82.772 31.3942 83.0543 31.3942 83.2001 31.3942C83.3553 31.3884 83.5099 31.3722 83.6629 31.3457C83.7028 31.338 83.7408 31.3223 83.7746 31.2997C83.8083 31.2772 83.8373 31.2481 83.8596 31.2142C83.8933 31.134 83.9075 31.0471 83.9013 30.9604V30.169C83.9082 30.0772 83.8915 29.985 83.8527 29.9014C83.8003 29.8324 83.7232 29.7861 83.6375 29.7722C83.466 29.7388 83.2915 29.7233 83.1168 29.7261C82.9548 29.7261 82.6285 29.7261 82.1426 29.7261L82.1495 31.3942ZM80.9925 28.9693H82.7674C83.342 28.9429 83.9173 29.0051 84.4728 29.1539C84.646 29.1936 84.8006 29.2908 84.9112 29.4295C85.0217 29.5683 85.0818 29.7404 85.0814 29.9176V30.7251C85.1044 30.9756 85.0468 31.2269 84.9171 31.4426C84.776 31.6249 84.489 31.7472 84.0609 31.8118C84.2663 31.8749 84.4624 31.9649 84.6441 32.0794C84.7717 32.1573 84.8775 32.266 84.9519 32.3955C85.0176 32.5099 85.0563 32.6377 85.0652 32.7693C85.08 32.9226 85.0854 33.0767 85.0814 33.2307V34.9104H83.9105V32.7993C83.916 32.6915 83.9058 32.5835 83.8804 32.4786C83.8648 32.4322 83.8399 32.3896 83.8073 32.3531C83.7747 32.3166 83.735 32.2871 83.6907 32.2663C83.5224 32.2052 83.3464 32.1679 83.1677 32.1555C82.9363 32.1348 82.5869 32.1232 82.1449 32.1232V34.9104H80.9879L80.9925 28.9693Z" fill="white"/>
<path d="M87.1178 28.967H85.94V34.915H87.1178V28.967Z" fill="white"/>
<path d="M91.7043 28.9693V29.7399H90.1307V34.915H88.9506V29.7399H87.6385V28.9693H91.7043Z" fill="white"/>
<path d="M93.4561 28.967H92.2759V34.915H93.4561V28.967Z" fill="white"/>
<path d="M100.125 28.9693V34.915H98.9705V29.9314L97.832 34.915H96.6958L95.5318 29.9314V34.915H94.3771V28.9693H96.4412L96.7536 30.4782L97.2534 33.466L98.0958 28.9693H100.125Z" fill="white"/>
<path d="M100.974 28.9693H104.133V29.7468H102.129V31.4703H104.011V32.2155H102.129V34.1236H104.2V34.915H100.974V28.9693Z" fill="white"/>
<path d="M116.43 30.4921C116.433 30.3846 116.414 30.2777 116.374 30.1777C116.334 30.0778 116.275 29.9869 116.199 29.9106C115.989 29.7324 115.722 29.6356 115.446 29.6382C115.171 29.6407 114.906 29.7424 114.699 29.9245C114.555 30.0782 114.477 30.2818 114.482 30.4921V33.2745C114.476 33.5061 114.548 33.7329 114.688 33.9183C114.779 34.0335 114.897 34.1248 115.032 34.1842C115.166 34.2437 115.314 34.2696 115.461 34.2597C115.61 34.2735 115.76 34.2493 115.898 34.1897C116.035 34.13 116.156 34.0366 116.247 33.9183C116.379 33.7207 116.443 33.486 116.43 33.2492V30.4921ZM117.555 32.9931C117.58 33.4593 117.468 33.9227 117.233 34.3266C116.909 34.7881 116.319 35.0188 115.463 35.0188C114.593 35.0188 114.003 34.7881 113.681 34.3266C113.445 33.9234 113.336 33.4588 113.369 32.9931V30.7966C113.336 30.3492 113.445 29.9028 113.681 29.5207C114.003 29.0593 114.593 28.8286 115.463 28.8286C116.333 28.8286 116.902 29.0593 117.233 29.5207C117.47 29.9027 117.582 30.3484 117.555 30.7966V32.9931Z" fill="white"/>
<path d="M122.542 31.115H121.419V30.349C121.423 30.2537 121.403 30.1589 121.363 30.0724C121.323 29.9858 121.263 29.9099 121.188 29.8507C120.965 29.6906 120.693 29.613 120.42 29.6315C120.146 29.6142 119.876 29.7017 119.665 29.876C119.572 29.9678 119.5 30.0782 119.453 30.1999C119.406 30.3215 119.385 30.4518 119.392 30.582V33.3368C119.387 33.4648 119.409 33.5924 119.456 33.7116C119.503 33.8307 119.574 33.9388 119.665 34.029C119.767 34.121 119.886 34.1921 120.016 34.238C120.145 34.2839 120.282 34.3039 120.42 34.2966C120.554 34.3041 120.688 34.2851 120.815 34.2408C120.941 34.1964 121.058 34.1276 121.158 34.0382C121.25 33.9366 121.32 33.8178 121.366 33.6886C121.411 33.5595 121.43 33.4226 121.422 33.2861V32.737H122.544V32.9677C122.544 33.6137 122.41 34.1005 122.137 34.4258C121.801 34.8296 121.239 35.0326 120.436 35.0326C119.595 35.0326 119.009 34.8319 118.677 34.4305C118.407 34.0982 118.272 33.5537 118.272 32.797V31.0596C118.272 30.349 118.407 29.8207 118.677 29.4746C119.009 29.0516 119.576 28.8401 120.378 28.8401C121.162 28.8401 121.736 29.0131 122.093 29.3592C122.247 29.5153 122.366 29.7019 122.444 29.907C122.521 30.1121 122.554 30.331 122.542 30.5497V31.115Z" fill="white"/>
<path d="M123.342 28.9693H126.415V29.7468H124.467V31.4703H126.295V32.2155H124.467V34.1236H126.48V34.915H123.342V28.9693Z" fill="white"/>
<path d="M128.551 32.5778H129.69L129.127 30.0398L128.551 32.5778ZM129.961 28.9693L131.372 34.915H130.243L129.882 33.3899H128.357L128.003 34.915H126.867L128.276 28.9693H129.961Z" fill="white"/>
<path d="M135.959 28.9693V34.915H134.357L133.017 30.3975V34.915H131.895V28.9693H133.411L134.82 33.496V28.9693H135.959Z" fill="white"/>
<path d="M143.704 28.9624V32.9931C143.709 33.2562 143.693 33.5193 143.655 33.7798C143.624 34.0146 143.539 34.239 143.405 34.4351C143.247 34.6376 143.032 34.7892 142.787 34.8711C142.026 35.0926 141.216 35.0926 140.455 34.8711C140.205 34.7912 139.984 34.6395 139.821 34.4351C139.682 34.2411 139.594 34.016 139.564 33.7798C139.528 33.5191 139.512 33.2562 139.515 32.9931V28.9624H140.672V33.3922C140.648 33.6092 140.696 33.8281 140.809 34.0152C140.936 34.1559 141.214 34.2251 141.635 34.2251C142.056 34.2251 142.306 34.1559 142.429 34.0152C142.54 33.8277 142.588 33.6089 142.563 33.3922V28.9624H143.704Z" fill="white"/>
<path d="M148.614 28.9693V34.915H147.011L145.673 30.3975V34.915H144.551V28.9693H146.066L147.476 33.496V28.9693H148.614Z" fill="white"/>
<path d="M150.572 28.967H149.424V34.915H150.572V28.967Z" fill="white"/>
<path d="M155.954 28.9693L154.517 34.915H152.627L151.238 28.9693H152.377L153.583 34.0452L153.671 33.6622C153.842 32.9654 153.967 32.4463 154.045 32.1048C154.191 31.5118 154.318 30.9673 154.432 30.469L154.786 28.9601L155.954 28.9693Z" fill="white"/>
<path d="M156.524 28.9693H159.595V29.7468H157.646V31.4703H159.476V32.2155H157.646V34.1236H159.659V34.915H156.524V28.9693Z" fill="white"/>
<path d="M161.474 31.3942H162.489C162.645 31.389 162.799 31.3728 162.952 31.3457C162.992 31.3383 163.029 31.3227 163.062 31.3001C163.095 31.2775 163.123 31.2482 163.144 31.2142C163.177 31.1338 163.19 31.0469 163.184 30.9604V30.169C163.19 30.0774 163.174 29.9856 163.137 29.9014C163.087 29.833 163.013 29.7866 162.929 29.7722C162.762 29.7387 162.592 29.7232 162.422 29.7261C162.268 29.7261 161.953 29.7261 161.478 29.7261L161.474 31.3942ZM160.349 28.9693H162.073C162.632 28.9426 163.192 29.0049 163.732 29.1539C163.903 29.1952 164.055 29.2932 164.163 29.432C164.272 29.5707 164.329 29.7419 164.327 29.9176V30.7251C164.348 30.9749 164.293 31.2254 164.167 31.4426C164.028 31.6249 163.751 31.7472 163.332 31.8118C163.533 31.8751 163.724 31.9651 163.901 32.0794C164.026 32.1582 164.128 32.2669 164.2 32.3955C164.262 32.5112 164.301 32.6384 164.313 32.7693C164.313 32.8616 164.327 33.0138 164.327 33.2307V34.9104H163.188V32.7993C163.193 32.6914 163.182 32.5833 163.156 32.4786C163.142 32.4323 163.119 32.3895 163.087 32.3529C163.056 32.3163 163.017 32.2868 162.973 32.2663C162.81 32.2054 162.64 32.1681 162.466 32.1556C162.235 32.1348 161.899 32.1233 161.474 32.1233V34.9104H160.349V28.9693Z" fill="white"/>
<path d="M168.994 30.7666H167.849V30.2244C167.869 30.0506 167.82 29.8759 167.712 29.7376C167.51 29.5981 167.263 29.5374 167.018 29.5669C166.754 29.5368 166.489 29.6032 166.271 29.7537C166.165 29.9016 166.117 30.083 166.136 30.2636C166.134 30.3555 166.139 30.4473 166.153 30.5382C166.175 30.6165 166.215 30.6885 166.271 30.7482C166.364 30.8342 166.469 30.9065 166.583 30.9627C166.703 31.0296 166.895 31.1288 167.164 31.258L167.523 31.4265C167.897 31.6087 168.157 31.7426 168.3 31.8233C168.483 31.9218 168.65 32.0462 168.798 32.1925C168.923 32.3294 169.014 32.4938 169.064 32.6724C169.123 32.9061 169.149 33.1467 169.142 33.3876C169.142 33.9552 168.985 34.3635 168.661 34.6196C168.337 34.8757 167.775 35.0303 167.009 35.0303C166.243 35.0303 165.729 34.9057 165.421 34.6612C165.289 34.5453 165.187 34.4002 165.121 34.2375C165.056 34.0748 165.029 33.8991 165.044 33.7244V32.9238H166.183V33.5676C166.163 33.7518 166.212 33.9368 166.322 34.0867C166.442 34.2182 166.682 34.2851 167.041 34.2851C167.319 34.315 167.598 34.2365 167.819 34.0659C167.882 33.9959 167.93 33.9137 167.96 33.8244C167.991 33.7352 168.002 33.6407 167.995 33.5468C168.006 33.2931 167.918 33.0451 167.749 32.8546C167.382 32.5342 166.967 32.2712 166.521 32.0748C166.105 31.8888 165.716 31.6491 165.363 31.3619C165.238 31.2248 165.142 31.0642 165.081 30.8894C165.019 30.7146 164.993 30.5293 165.005 30.3444C164.989 30.1317 165.025 29.9183 165.108 29.7221C165.192 29.5258 165.322 29.3524 165.486 29.2162C165.815 28.967 166.315 28.8401 166.976 28.8401C167.504 28.813 168.032 28.8971 168.525 29.087C168.656 29.1333 168.771 29.2182 168.854 29.3306C168.936 29.443 168.983 29.5776 168.987 29.7168L168.994 30.7666Z" fill="white"/>
<path d="M171.098 28.967H169.948V34.915H171.098V28.967Z" fill="white"/>
<path d="M175.555 28.9693V29.7399H174.023V34.915H172.877V29.7399H171.602V28.9693H175.555Z" fill="white"/>
<path d="M180 28.9693L178.396 32.8039V34.915H177.281V32.8039L175.733 28.9693H176.89C177.003 29.29 177.121 29.6615 177.274 30.0975C177.353 30.3467 177.466 30.6882 177.61 31.1219L177.841 31.8141L178.843 28.9647L180 28.9693Z" fill="white"/>
<path d="M45.5525 23.5681V27.2735H44.6338L43.8678 25.1809V27.2735H42.9977V23.5681H43.8725L44.6824 25.7323V23.5681H45.5525Z" fill="white"/>
<path d="M47.6513 25.9492C47.6375 25.8084 47.6189 25.6354 47.5912 25.43C47.5704 25.3031 47.538 25.0863 47.494 24.7748L47.4107 24.1934C47.3251 24.6317 47.2603 24.9963 47.2163 25.2847C47.1723 25.5731 47.1423 25.7738 47.126 25.9492H47.6513ZM48.1327 23.5635L48.8269 27.2735H47.8295L47.7347 26.5813H47.0682L46.9479 27.2735H45.969L46.5892 23.5635H48.1327Z" fill="white"/>
<path d="M51.4025 23.5635V24.2764H50.7545V27.2735H49.697V24.2764H49.0514V23.5635H51.4025Z" fill="white"/>
<path d="M52.8649 23.5658H51.819V27.2758H52.8649V23.5658Z" fill="white"/>
<path d="M55.0402 24.5095C55.05 24.3917 55.0325 24.2733 54.9893 24.1634C54.9629 24.1333 54.9294 24.1101 54.8918 24.096C54.8543 24.0819 54.8138 24.0773 54.7741 24.0826C54.725 24.0763 54.6751 24.0845 54.6306 24.1063C54.5862 24.128 54.5492 24.1623 54.5241 24.2049C54.4934 24.3033 54.4808 24.4065 54.4871 24.5095V26.2514C54.481 26.3683 54.4951 26.4854 54.5288 26.5975C54.5454 26.6477 54.5789 26.6907 54.6235 26.7193C54.6682 26.7478 54.7213 26.7602 54.7741 26.7544C54.8223 26.7583 54.8706 26.7471 54.9121 26.7223C54.9536 26.6974 54.9863 26.6603 55.0055 26.6159C55.031 26.515 55.0404 26.4106 55.0332 26.3068V24.5095H55.0402ZM56.0908 25.7323C56.095 25.9414 56.0819 26.1506 56.0514 26.3575C56.0326 26.5371 55.9784 26.7112 55.8918 26.8697C55.7977 27.0235 55.6588 27.145 55.4937 27.2181C55.2664 27.3139 55.0207 27.3588 54.7741 27.3496C54.5214 27.3591 54.2696 27.3142 54.0359 27.2181C53.8691 27.1487 53.7295 27.0273 53.6378 26.872C53.549 26.7129 53.4916 26.5382 53.4689 26.3575C53.4478 26.1498 53.4386 25.9411 53.4412 25.7323V25.0955C53.4384 24.8867 53.4477 24.678 53.4689 24.4702C53.4913 24.2909 53.5487 24.1177 53.6378 23.9603C53.7315 23.8068 53.8705 23.6859 54.0359 23.6143C54.2713 23.525 54.5223 23.4834 54.7741 23.492C55.0198 23.4836 55.2646 23.5252 55.4937 23.6143C55.6582 23.6872 55.7969 23.8078 55.8918 23.9603C55.9787 24.1179 56.033 24.2913 56.0514 24.4702C56.0819 24.6772 56.0951 24.8863 56.0908 25.0955V25.7323Z" fill="white"/>
<path d="M59.1824 23.5681V27.2735H58.2637L57.4977 25.1809V27.2735H56.6276V23.5681H57.5023L58.3123 25.7323V23.5681H59.1824Z" fill="white"/>
<path d="M61.2812 25.9492C61.2673 25.8084 61.2488 25.6354 61.2211 25.43C61.2002 25.3031 61.1678 25.0863 61.1239 24.7748L61.0406 24.1934C60.9549 24.6317 60.8901 24.9963 60.8462 25.2847C60.8022 25.5731 60.7721 25.7738 60.7559 25.9492H61.2812ZM61.7579 23.5635L62.4522 27.2735H61.4548L61.3576 26.5813H60.6935L60.5731 27.2735H59.5943L60.2144 23.5635H61.7579Z" fill="white"/>
<path d="M63.9378 23.5681V26.5606H64.757V27.2735H62.8918V23.5681H63.9378Z" fill="white"/>
<path d="M18.626 10.2025L18.5889 11.0746C18.5889 11.0746 18.7139 11.2176 18.4431 11.2176H14.2986C14.0714 11.2234 13.852 11.3016 13.6725 11.4407C13.4931 11.5797 13.363 11.7724 13.3013 11.9906C13.0838 12.7635 11.1839 21.0994 11.1839 21.0994C11.1839 21.0994 12.0332 21.8262 13.5188 21.5932C13.5188 21.5932 13.5535 21.6116 13.5905 21.3947C13.6276 21.1779 14.4051 16.2935 14.5509 15.5021C14.6967 14.7108 14.9304 13.2388 14.9859 13.0588C15.0762 12.9504 15.0762 12.9688 15.1849 12.9688L16.6706 12.9873C16.6706 12.9873 16.7238 12.9504 16.7238 13.0773C16.7238 13.2041 15.9671 20.3034 15.9671 20.3034C15.9671 20.3034 15.9324 20.4488 16.0226 20.4119C16.1129 20.375 17.4111 19.8005 18.2858 19.8005C18.2858 19.8005 18.3575 19.7843 18.376 19.6228C18.3945 19.4613 18.6074 13.1003 18.6074 13.1003C18.6074 13.1003 18.5889 12.9919 18.7324 12.9919H20.1648C20.1648 12.9919 20.3083 12.9734 20.3083 13.1534C20.3083 13.3334 20.5096 19.7289 20.5096 19.7289C20.5096 19.7289 20.5096 19.7843 20.6161 19.8005C20.7225 19.8166 22.3724 20.1419 22.7357 20.4303L22.8607 20.4649L22.2452 13.0057L23.8048 12.9873C23.8048 12.9873 23.8951 12.9319 23.9298 13.0957C23.9645 13.2595 25.1979 21.5401 25.1979 21.5401C25.1979 21.5401 25.1794 21.6278 25.3229 21.6831C25.4663 21.7385 26.8826 21.8077 27.5328 21.2217L27.5513 21.0971L25.5959 12.099C25.5959 12.099 25.5774 11.2384 24.2746 11.22C22.9718 11.2015 20.3268 11.22 20.3268 11.22L20.2551 9.51262C20.222 9.48068 20.1784 9.46182 20.1324 9.45955L18.744 9.4434C18.744 9.4434 18.6722 9.42494 18.6722 9.53107C18.6722 9.63721 18.6375 10.2232 18.6375 10.2232" fill="white"/>
<path d="M0.0185126 18.7322L2.08961 19.4982L0.00694221 19.4636L0 19.8651L5.10484 19.9458L5.10947 19.5467L3.38549 19.519L2.87408 19.3206L5.12335 18.7714L5.1303 18.25L2.11043 19.0298L0.0254548 18.2154L0.0185126 18.7322Z" fill="white"/>
<path d="M0.439673 17.131C0.168927 16.9326 0.0485955 16.7296 0.0809925 16.5196C0.113389 16.3096 0.282317 16.1505 0.59703 16.0351C1.08298 15.8597 1.83969 15.8444 2.86713 15.9889C3.88532 16.1343 4.60037 16.3604 5.01922 16.665C5.29228 16.8657 5.41493 17.0687 5.38484 17.2764C5.35476 17.484 5.17889 17.6455 4.85955 17.7655C4.37359 17.9408 3.62152 17.9547 2.60333 17.8116C1.58514 17.6686 0.856206 17.4356 0.439673 17.131ZM4.07739 17.4333C4.32268 17.3756 4.45459 17.281 4.47541 17.1449C4.49624 17.0087 4.39442 16.8841 4.1769 16.7619C3.74666 16.5567 3.28387 16.4279 2.80928 16.3812C2.34016 16.2946 1.85967 16.2883 1.38844 16.3627C1.14315 16.4204 1.01125 16.515 0.990422 16.6488C0.969596 16.7826 1.07141 16.9118 1.29125 17.0341C1.72868 17.2388 2.1985 17.3661 2.67969 17.4102C3.14698 17.4984 3.62598 17.5062 4.09591 17.4333" fill="white"/>
<path d="M0.51141 14.8676L0.775214 13.9263C0.835379 13.714 1.05753 13.6125 1.43935 13.6125C1.74105 13.6144 2.04097 13.6587 2.33027 13.744C2.57161 13.8083 2.8046 13.9004 3.02449 14.0186C3.18228 14.0917 3.31622 14.2076 3.41094 14.3531C3.53345 14.2948 3.66884 14.2686 3.80433 14.277C4.11836 14.3096 4.4284 14.373 4.72996 14.4662C5.11641 14.5723 5.35707 14.6369 5.45426 14.6577C5.54276 14.6879 5.63883 14.6879 5.72732 14.6577L5.85228 14.6923L5.73195 15.1237C5.60237 15.1053 5.46815 15.0776 5.32699 15.043C5.18583 15.0084 4.96831 14.953 4.72996 14.8884C4.49121 14.8122 4.2455 14.7597 3.9964 14.7315C3.93314 14.724 3.86931 14.7398 3.8169 14.7759C3.76449 14.812 3.72711 14.866 3.71177 14.9276L3.59607 15.3314L5.52369 15.8644L5.41492 16.245L0.51141 14.8676ZM2.92267 14.6369C2.93622 14.5883 2.93438 14.5368 2.91739 14.4893C2.90041 14.4418 2.86911 14.4007 2.82779 14.3716C2.67567 14.2623 2.50348 14.1839 2.32101 14.1409C2.17844 14.0974 2.03043 14.0741 1.88134 14.0717C1.72167 14.0717 1.62911 14.127 1.60134 14.2262L1.46481 14.7108L2.7954 15.0799L2.92267 14.6369Z" fill="white"/>
<path d="M1.20794 12.595L5.92634 14.5239L6.48634 13.1811L5.65559 12.8396L5.24831 13.8202L4.01954 13.3172L4.37822 12.4566L3.5521 12.1175L3.19573 12.9803L2.19605 12.572L2.58713 11.6306L1.75175 11.2869L1.20794 12.595Z" fill="white"/>
<path d="M6.67378 12.835L6.46551 13.2041L2.35341 10.1217L2.58482 9.71565L7.37957 11.5891L7.17362 11.9675L6.17857 11.5706L5.81989 12.2051L6.67378 12.835ZM5.10715 11.6814L5.35245 11.2453L3.47111 10.4793L5.10715 11.6814Z" fill="white"/>
<path d="M8.9624 9.58645L8.71942 9.87485L5.66253 7.36922L8.48801 10.154L8.24041 10.4516L4.95674 8.22058L4.9498 8.22519L8.009 10.7308L7.76834 11.0192L3.8321 7.79375L4.20929 7.33923L7.41197 9.508H7.41428L4.6536 6.80626L5.02616 6.36097L8.9624 9.58645Z" fill="white"/>
<path d="M9.29099 9.2819L8.97859 9.56799L6.01658 5.38272L6.35907 5.07586L10.3439 8.30595L10.0222 8.60588L9.21 7.92526L8.67314 8.42131L9.29099 9.2819ZM8.1571 7.70607L8.52504 7.36691L6.9723 6.06565L8.1571 7.70607Z" fill="white"/>
<path d="M7.4166 4.16451L8.21495 3.59463C8.39545 3.46543 8.63611 3.51849 8.93926 3.75383C9.17179 3.9427 9.37733 4.16238 9.55017 4.40677C9.70226 4.60901 9.82893 4.82907 9.92736 5.06201C10.0067 5.21628 10.0389 5.39035 10.0199 5.56268C10.1524 5.59026 10.2747 5.65327 10.374 5.74495C10.6003 5.96182 10.8035 6.20151 10.9803 6.46018C11.2117 6.78319 11.3621 6.9793 11.4269 7.05775C11.4917 7.13619 11.5842 7.21464 11.6421 7.22156L11.7185 7.32538L11.3505 7.58841C11.2626 7.49381 11.1746 7.38768 11.0867 7.27463C10.9988 7.16157 10.8553 6.98161 10.7188 6.78319C10.5795 6.5756 10.4198 6.38238 10.2421 6.20639C10.1975 6.16093 10.1377 6.13345 10.0741 6.1292C10.0105 6.12494 9.94754 6.14421 9.89728 6.18332L9.5548 6.42788L10.7234 8.04293L10.3994 8.27365L7.4166 4.16451ZM9.44604 5.47731C9.48762 5.44846 9.51912 5.40738 9.53613 5.35981C9.55314 5.31223 9.55481 5.26055 9.54091 5.21198C9.48677 5.03528 9.39875 4.87074 9.28174 4.72747C9.19812 4.60486 9.09763 4.49457 8.98322 4.39985C8.85595 4.30525 8.75182 4.28679 8.66619 4.34678L8.25429 4.6421L9.0619 5.75418L9.44604 5.47731Z" fill="white"/>
<path d="M12.2854 7.02083L11.936 7.22617L9.33959 2.86555L9.6867 2.66021L12.2854 7.02083Z" fill="white"/>
<path d="M13.336 6.48095L12.9704 6.65629L11.1423 2.90708L10.6008 3.16549L10.2074 2.35566L11.6513 1.6635L12.0471 2.47102L11.5056 2.72943L13.336 6.48095Z" fill="white"/>
<path d="M14.4259 6.03104L14.0464 6.17639L12.2137 1.44893L12.5932 1.30357L14.4259 6.03104Z" fill="white"/>
<path d="M14.5301 0.699084L15.2289 4.4829H15.2266L13.859 0.88366L13.2874 1.03824L14.6434 5.9226L15.0091 5.82339L13.9538 2.02804L13.9631 2.02573L15.3585 5.72649L15.7357 5.62266L15.0322 1.73502L16.0851 5.52576L16.4507 5.42886L15.0924 0.544501L14.5301 0.699084Z" fill="white"/>
<path d="M15.893 0.394533L16.622 5.4104L18.0729 5.20275L17.9456 4.31909L16.8858 4.46906L16.696 3.16549L17.6286 3.03167L17.5013 2.15724L16.5687 2.29106L16.416 1.22743L17.4319 1.08208L17.3023 0.193805L15.893 0.394533Z" fill="white"/>
<path d="M20.4749 5.1866H20.0121L19.901 4.7367C19.8424 4.87461 19.7645 5.00355 19.6696 5.11969C19.6288 5.17264 19.5762 5.21541 19.5159 5.24464C19.4557 5.27386 19.3895 5.28875 19.3225 5.28812C19.1443 5.28812 19.0008 5.13354 18.8944 4.82668C18.7842 4.5016 18.7355 4.15893 18.7509 3.81612C18.7512 3.56884 18.7767 3.32222 18.8273 3.08012C18.8893 2.81713 18.9991 2.56768 19.1513 2.34412L19.2068 2.28644C19.1596 2.1354 19.1232 1.9812 19.098 1.825C19.0639 1.6153 19.0492 1.40291 19.0541 1.19052C19.0471 0.891884 19.099 0.594788 19.2068 0.316087C19.3063 0.101517 19.4382 0 19.584 0C19.7298 0 19.8084 0.0992099 19.901 0.288401C20.0108 0.583157 20.058 0.897395 20.0399 1.21128C20.0407 1.49999 19.9938 1.78685 19.901 2.06034C19.8526 2.19739 19.7881 2.32827 19.7089 2.45025L19.9658 3.34084C19.9913 3.21625 20.0144 3.11012 20.0306 2.98783C20.0514 2.84017 20.0653 2.68328 20.0746 2.51486H20.4101C20.3958 2.79606 20.3672 3.07636 20.3245 3.35468C20.2849 3.58872 20.23 3.81993 20.1602 4.04684L20.4749 5.1866ZM19.385 2.91631C19.3109 3.03605 19.2489 3.16279 19.1998 3.29469C19.1563 3.4446 19.1353 3.60009 19.1374 3.75613C19.1312 3.89612 19.1468 4.03621 19.1836 4.17143C19.2346 4.3537 19.3086 4.44368 19.4151 4.44599C19.4729 4.44599 19.5308 4.40677 19.5886 4.32832C19.6432 4.25258 19.6883 4.17045 19.7228 4.08376L19.385 2.91631ZM19.6696 0.860588C19.6441 0.786758 19.6071 0.749842 19.5562 0.749842C19.5053 0.749842 19.4752 0.784451 19.4475 0.858281C19.4087 0.965445 19.3906 1.07896 19.3942 1.19283C19.3927 1.29646 19.4013 1.39999 19.4197 1.50199C19.4444 1.62563 19.4777 1.74743 19.5192 1.86653C19.5733 1.77535 19.6175 1.67867 19.6511 1.57813C19.6892 1.45712 19.7095 1.3312 19.7113 1.20436C19.7181 1.08821 19.704 0.971767 19.6696 0.860588Z" fill="white"/>
<path d="M22.1017 0.604488C22.2984 0.339159 22.4928 0.230721 22.6779 0.258407C22.863 0.286094 23.0134 0.463749 23.106 0.777529C23.251 1.26204 23.2356 2.01188 23.0597 3.02706C22.8815 4.03069 22.6432 4.739 22.3424 5.14507C22.1526 5.40656 21.9613 5.52422 21.7685 5.49808C21.5764 5.46347 21.4329 5.28812 21.338 4.96973C21.1923 4.48752 21.2108 3.74229 21.3866 2.73635C21.5625 1.73041 21.8032 1.01056 22.1017 0.604488ZM21.6736 4.20142C21.7176 4.44599 21.8032 4.5775 21.9258 4.60057C22.0485 4.62364 22.1734 4.52443 22.2961 4.30986C22.5033 3.88555 22.6401 3.43049 22.701 2.96245C22.8038 2.49758 22.8304 2.01917 22.7797 1.54583C22.7357 1.31511 22.6548 1.16975 22.5298 1.14899C22.4048 1.12822 22.2822 1.22513 22.1572 1.4397C21.9512 1.86854 21.8145 2.32719 21.7523 2.79864C21.6502 3.25891 21.6229 3.73252 21.6713 4.20142" fill="white"/>
<path d="M24.6194 2.57023C24.6575 2.38873 24.6792 2.20418 24.6842 2.01881C24.6842 1.78809 24.6125 1.6635 24.4875 1.62889C24.3625 1.59428 24.2561 1.67734 24.1126 1.85961C23.8674 2.26343 23.6856 2.70225 23.5734 3.16087C23.4554 3.54242 23.3779 3.93526 23.342 4.33294C23.3212 4.68825 23.3837 4.88897 23.5295 4.9305C23.629 4.95819 23.7331 4.90282 23.8396 4.76438C23.9813 4.56655 24.0928 4.34884 24.1705 4.11837L24.5315 4.22219C24.3857 4.65766 24.1785 5.07019 23.9159 5.44732C23.6845 5.74956 23.4693 5.87184 23.2634 5.81186C23.0574 5.75187 22.9093 5.48654 22.8838 5.01356C22.895 4.34627 23.0066 3.68442 23.2148 3.05013C23.3789 2.40614 23.6403 1.79077 23.99 1.22513C24.2561 0.835209 24.506 0.676012 24.7374 0.740614C24.9688 0.805215 25.0984 1.0567 25.1239 1.48584C25.1356 1.88606 25.0872 2.28578 24.9804 2.67175L24.6194 2.57023Z" fill="white"/>
<path d="M26.9265 2.60484L26.0495 2.24953L25.6422 3.24393L26.4452 3.56694L26.1073 4.386L25.3044 4.06299L24.8022 5.2835L25.7163 5.65266L25.3784 6.47864L24.1242 5.97105L26.0495 1.2805L27.2667 1.77194L26.9265 2.60484Z" fill="white"/>
<path d="M25.6723 6.63091L25.3252 6.44634L28.3335 2.29336L28.713 2.4964L26.8617 7.25617L26.5054 7.06698L26.9011 6.08872L26.2855 5.76802L25.6723 6.63091ZM26.7923 5.05048L27.2042 5.26966L27.9609 3.40082L26.7923 5.05048Z" fill="white"/>
<path d="M30.673 3.73998L30.9576 3.9361L28.0419 8.09369L27.7411 7.88373L29.2175 4.5129L29.2128 4.51059L27.1371 7.47074L26.8502 7.27232L29.7636 3.11242L30.0899 3.33853L28.6366 6.64014H28.6413L30.673 3.73998Z" fill="white"/>
<path d="M30.9322 8.27595C30.6056 8.65078 30.2136 8.96347 29.7751 9.19884C29.472 9.33496 29.2383 9.32343 29.0809 9.16423C29.042 9.12607 29.0113 9.08042 28.9906 9.03005C28.9699 8.97968 28.9597 8.92564 28.9606 8.87121C28.9556 8.67924 29.0027 8.48949 29.0971 8.3221C29.1833 8.15959 29.284 8.00515 29.398 7.86066C29.5358 7.67996 29.685 7.50811 29.8446 7.34615L32.1656 4.91205L32.4456 5.17507L30.1685 7.53995C29.9819 7.71902 29.8256 7.92706 29.7057 8.15598C29.634 8.31287 29.634 8.42361 29.7057 8.49283C29.7775 8.56205 29.9209 8.5782 30.0806 8.49283C30.2894 8.36975 30.4769 8.21394 30.636 8.03139L32.9501 5.63189L33.2277 5.89491L30.9322 8.27595Z" fill="white"/>
<path d="M34.4218 7.28155L34.6463 7.54688L30.7262 10.7908L30.4902 10.5093L32.8135 7.64609L32.8066 7.64147L30.0181 9.95099L29.796 9.68566L33.7137 6.43942L33.9682 6.74166L31.6866 9.54492L31.6889 9.54722L34.4218 7.28155Z" fill="white"/>
<path d="M31.071 11.2961L30.8558 10.9938L35.0235 8.07061L35.241 8.37516L31.071 11.2961Z" fill="white"/>
<path d="M36.1203 9.75257L36.3193 10.0825L31.5292 12.2443L31.3464 11.9421L35.5233 8.76508L35.7293 9.10655L32.5104 11.4645V11.4668L36.1203 9.75257Z" fill="white"/>
<path d="M36.3078 12.1175L35.9051 11.2684L34.9263 11.7252L35.2965 12.5028L34.4889 12.8811L34.1187 12.1013L32.9177 12.662L33.3365 13.5479L32.5243 13.9286L31.9481 12.7127L36.5669 10.5555L37.127 11.7368L36.3078 12.1175Z" fill="white"/>
<path d="M37.3769 12.3389L37.6731 13.1926C37.7402 13.3841 37.6152 13.5871 37.2982 13.7971C37.0454 13.9594 36.7734 14.0896 36.4883 14.1847C36.2492 14.2693 36.0017 14.3281 35.7501 14.3601C35.582 14.3919 35.4084 14.3776 35.2479 14.3185C35.1771 14.4313 35.0793 14.5249 34.9633 14.5908C34.6848 14.7391 34.3927 14.8604 34.0909 14.953C33.7137 15.0822 33.4777 15.1676 33.3967 15.2045C33.3057 15.2305 33.225 15.2836 33.1653 15.3568L33.0426 15.4006L32.9061 15.0084C33.0241 14.953 33.1514 14.8999 33.2856 14.8469C33.4198 14.7938 33.6327 14.72 33.8664 14.6392C34.1061 14.5672 34.3385 14.4729 34.5606 14.3578C34.6166 14.3324 34.6609 14.287 34.6849 14.2306C34.7089 14.1742 34.7108 14.1109 34.6902 14.0532L34.563 13.691L32.6724 14.337L32.5543 13.9909L37.3769 12.3389ZM35.5025 13.8271C35.5198 13.8736 35.5516 13.9132 35.5933 13.9402C35.635 13.9673 35.6843 13.9802 35.7339 13.9771C35.9197 13.9723 36.1032 13.934 36.2754 13.864C36.4176 13.8206 36.5531 13.7577 36.678 13.6771C36.8076 13.5871 36.8562 13.4972 36.8261 13.4095L36.6734 12.9688L35.3683 13.4164L35.5025 13.8271Z" fill="white"/>
<path d="M34.6625 15.4583C34.5002 15.492 34.3441 15.5504 34.1997 15.6313C34.0192 15.7352 33.9451 15.8621 33.9682 16.0028C33.9779 16.0501 33.999 16.0943 34.0296 16.1317C34.0602 16.1691 34.0995 16.1985 34.1441 16.2174C34.3187 16.2733 34.5064 16.2733 34.681 16.2174C34.8252 16.1936 34.9603 16.1314 35.0721 16.0374C35.1418 15.9601 35.1925 15.8677 35.2202 15.7675L35.3104 15.5529C35.3406 15.474 35.3754 15.397 35.4145 15.3222C35.4669 15.235 35.5334 15.157 35.6112 15.0914C35.726 15.0022 35.853 14.9299 35.9884 14.8769C36.1996 14.7948 36.417 14.73 36.6387 14.6831C36.9654 14.6026 37.3022 14.57 37.6384 14.5862C38.0387 14.6185 38.2655 14.7569 38.3326 15.0061C38.3997 15.2553 38.2331 15.4675 37.8698 15.6682C37.5572 15.8398 37.2212 15.9649 36.8724 16.0397L36.7937 15.689C36.9454 15.6516 37.0922 15.5966 37.2311 15.5252C37.407 15.4237 37.481 15.2945 37.4625 15.1653C37.4509 15.124 37.4289 15.0864 37.3985 15.056C37.3681 15.0257 37.3304 15.0038 37.2889 14.9922C36.9996 14.9324 36.6982 14.9852 36.4466 15.1399C36.3982 15.1809 36.3595 15.2321 36.3332 15.2899L36.125 15.7813C36.0647 15.9421 35.9565 16.0806 35.8149 16.1781C35.5324 16.3553 35.218 16.476 34.8892 16.5335C34.2567 16.6734 33.7823 16.6788 33.4661 16.5496C33.3798 16.5321 33.2997 16.4921 33.2338 16.4338C33.168 16.3754 33.1188 16.3008 33.0912 16.2174C33.0287 15.9359 33.1815 15.689 33.554 15.4744C33.8734 15.3023 34.2165 15.1779 34.5722 15.1053L34.6625 15.4583Z" fill="white"/>
<path d="M33.3897 17.0618L33.443 17.431L38.4969 16.7065L38.4413 16.3373L33.3897 17.0618Z" fill="white"/>
<path d="M37.6661 17.2671L37.7055 17.8139L33.5147 18.1024L33.5401 18.4738L37.7309 18.1854L37.7703 18.7322L38.6728 18.6699L38.5686 17.2048L37.6661 17.2671Z" fill="white"/>
<path d="M35.4863 19.6459L33.561 19.5836L33.5471 19.955L35.4539 20.0196L38.6311 20.7072L38.645 20.2896L36.4258 19.8674L38.6681 19.5582L38.6843 19.1198L35.4863 19.6459Z" fill="white"/>
<path d="M24.1311 9.8287L25.1725 10.4055L25.4316 9.94406L24.8115 9.59798L25.8273 7.78452L25.4085 7.5538L24.1311 9.8287ZM23.8442 7.75222L23.7123 8.44438L23.467 8.35209L23.8442 7.75222ZM23.511 9.53338L24.0131 9.72257L24.3695 7.06928L23.9206 6.90086L22.4164 9.11808L22.8792 9.29574L23.1916 8.79277L23.6151 8.95196L23.511 9.53338ZM21.7916 8.97504L22.2544 9.06271L22.745 6.50402L22.2822 6.41634L22.0068 7.85835L21.7523 6.31483L21.2895 6.22946L20.7919 8.78354L21.2547 8.87352L21.5232 7.47766L21.7916 8.97504ZM19.7622 8.25057C19.5308 8.25057 19.4775 8.01985 19.4937 7.57456L19.5076 7.24002C19.5238 6.79934 19.6002 6.5617 19.8246 6.56862C20.0491 6.57554 20.1023 6.82241 20.0861 7.26078V7.59533C20.0676 8.03831 19.9866 8.2575 19.7737 8.24827M19.7529 8.77662C20.2018 8.79277 20.5281 8.44207 20.5605 7.63455L20.5744 7.25847C20.6045 6.44864 20.306 6.05411 19.857 6.03796C19.4081 6.02181 19.0749 6.39327 19.0425 7.19157L19.0286 7.56764C18.9985 8.37286 19.3017 8.74893 19.7529 8.76739M18.2349 8.76739L18.7139 8.72355L18.4825 6.12564L18.0035 6.16717L18.2349 8.76739ZM17.0778 8.94735L17.5407 8.85737L17.1473 6.81318L17.6679 6.71397L17.5869 6.18793L16.092 6.47172L16.1916 6.99084L16.6937 6.89624L17.0778 8.94735ZM15.3515 7.58148L15.7079 8.20443L15.4603 8.2921L15.3515 7.58148ZM16.2517 9.155L16.7585 8.97734L15.3122 6.71397L14.8494 6.87317L15.1363 9.53569L15.5992 9.36957L15.5135 8.78354L15.9671 8.63357L16.2517 9.155ZM14.5786 9.81717L14.9952 9.60029L13.7757 7.29308L13.3568 7.51227L14.051 8.81122L12.894 7.76375L12.4728 7.99447L13.69 10.3017L14.1181 10.071L13.4448 8.81122L14.5786 9.81717Z" fill="white"/>
<path d="M16.7261 29.2554L16.74 28.6555L16.7261 28.4086H16.3813C16.3755 28.4083 16.3697 28.4092 16.3643 28.4111C16.3588 28.413 16.3538 28.416 16.3495 28.4198C16.3452 28.4237 16.3417 28.4284 16.3392 28.4336C16.3368 28.4388 16.3353 28.4444 16.335 28.4502V28.4779C16.3142 28.5171 16.2656 28.7524 15.8861 28.7524C15.8519 28.7565 15.8206 28.7732 15.7983 28.7993C15.776 28.8254 15.7644 28.8589 15.7658 28.8932C15.7658 28.8932 15.7658 29.0431 15.8375 29.0431H16.2448C16.2448 29.0431 16.2957 29.0708 16.2957 29.2V30.4275H16.335V30.4921C16.3361 30.5037 16.3414 30.5146 16.3499 30.5226C16.3584 30.5307 16.3696 30.5354 16.3813 30.5359H16.6798C16.6915 30.5354 16.7027 30.5307 16.7112 30.5226C16.7197 30.5146 16.725 30.5037 16.7261 30.4921V29.2554Z" fill="white"/>
<path d="M18.5126 29.0916C18.513 29.1765 18.4882 29.2597 18.4412 29.3306C18.3941 29.4015 18.3271 29.4569 18.2485 29.4897C18.1699 29.5225 18.0833 29.5314 17.9996 29.5151C17.916 29.4988 17.8391 29.4581 17.7786 29.3982C17.7182 29.3382 17.677 29.2618 17.6602 29.1785C17.6434 29.0952 17.6518 29.0087 17.6843 28.9302C17.7168 28.8516 17.772 28.7845 17.8428 28.7372C17.9136 28.69 17.9969 28.6647 18.0821 28.6647C18.1386 28.6644 18.1945 28.6753 18.2467 28.6966C18.2989 28.7179 18.3464 28.7493 18.3864 28.7889C18.4264 28.8286 18.4581 28.8758 18.4798 28.9277C18.5014 28.9796 18.5126 29.0353 18.5126 29.0916ZM18.9291 29.5323C18.9893 28.2056 18.0197 28.3256 18.0197 28.3256C17.8983 28.3228 17.778 28.3487 17.6686 28.4014C17.5593 28.454 17.4641 28.5318 17.3908 28.6284C17.3176 28.7249 17.2684 28.8374 17.2474 28.9567C17.2263 29.0759 17.234 29.1984 17.2698 29.3141C17.3056 29.4298 17.3684 29.5353 17.4531 29.622C17.5379 29.7087 17.6421 29.7741 17.7571 29.8127C17.8722 29.8514 17.9948 29.8622 18.1149 29.8444C18.235 29.8265 18.3491 29.7804 18.4478 29.7099C18.4478 29.7099 18.4478 29.7284 18.4478 29.7399C18.4559 29.8087 18.4476 29.8785 18.4234 29.9434C18.3993 30.0084 18.36 30.0667 18.3089 30.1137C17.9595 30.4828 17.6402 30.026 17.6402 30.026H17.2699C17.3301 30.3536 17.6795 30.6489 18.2765 30.5497C18.8736 30.4505 18.9291 29.5323 18.9291 29.5323Z" fill="white"/>
<path d="M20.3499 30.1114L20.2782 30.0906L20.3754 30.1621L20.3499 30.1114ZM20.3754 29.703L20.3592 29.7399L20.3291 29.7537L19.7737 29.7745L19.746 29.7537V29.7076C19.7738 29.6716 19.7993 29.6338 19.8223 29.5946L20.2736 29.0362L20.3245 29.0108L20.3708 29.0431L20.3754 29.703ZM21.0928 30.0445V29.7976C21.0908 29.7892 21.0865 29.7814 21.0804 29.7753C21.0742 29.7692 21.0665 29.7649 21.058 29.763H20.8544L20.8035 29.7422L20.785 29.6891V28.4732C20.7844 28.4612 20.7794 28.4498 20.7708 28.4412C20.7622 28.4327 20.7508 28.4277 20.7387 28.4271H20.4194C20.4126 28.4248 20.4053 28.4248 20.3985 28.4271C20.3911 28.4209 20.3816 28.4175 20.3719 28.4175C20.3622 28.4175 20.3528 28.4209 20.3453 28.4271L19.547 29.4492C19.5158 29.4837 19.4886 29.5216 19.466 29.5623C19.4487 29.5829 19.4324 29.6045 19.4174 29.6269C19.4034 29.6445 19.3934 29.6651 19.3883 29.687C19.3831 29.7089 19.3827 29.7317 19.3873 29.7537C19.3794 29.7628 19.3745 29.7741 19.3734 29.786V30.0329C19.3734 30.0452 19.3783 30.0569 19.387 30.0655C19.3956 30.0742 19.4074 30.0791 19.4197 30.0791H20.3731V30.5082C20.3727 30.514 20.3737 30.5199 20.3757 30.5254C20.3778 30.5308 20.3811 30.5358 20.3852 30.5399C20.3894 30.5441 20.3943 30.5473 20.3998 30.5494C20.4053 30.5515 20.4112 30.5524 20.417 30.552H20.7271C20.7331 30.5524 20.7391 30.5515 20.7447 30.5494C20.7503 30.5473 20.7554 30.5441 20.7597 30.54C20.7641 30.5359 20.7675 30.531 20.7699 30.5255C20.7722 30.5201 20.7734 30.5142 20.7734 30.5082V30.1598L20.8012 30.1068L20.8567 30.0791H21.058C21.0699 30.0785 21.0811 30.0734 21.0893 30.0648C21.0975 30.0562 21.102 30.0448 21.102 30.0329" fill="white"/>
<path d="M21.9698 29.1954C21.9698 29.1954 21.9698 29.1539 21.9698 29.11C21.9782 29.0322 21.9921 28.9552 22.0114 28.8793C22.0114 28.7916 22.1364 28.757 22.1364 28.757H22.9093C22.9463 28.757 22.951 28.7155 22.951 28.7155V28.4848C22.951 28.4363 22.8954 28.4294 22.8954 28.4294C22.8954 28.4294 21.8981 28.4294 21.8078 28.4294C21.7176 28.4294 21.7199 28.5332 21.7199 28.5332C21.7199 28.5332 21.5533 29.4561 21.5486 29.523C21.5466 29.5389 21.5507 29.5549 21.5602 29.5678C21.5697 29.5807 21.5838 29.5894 21.5995 29.5922H21.9189C22.3632 29.2808 22.5923 29.643 22.5923 29.643C22.6333 29.6995 22.6589 29.7656 22.6667 29.8349C22.6745 29.9042 22.6641 29.9744 22.6366 30.0385C22.6091 30.1026 22.5654 30.1585 22.5098 30.2008C22.4542 30.2431 22.3885 30.2703 22.3192 30.2798C22.2288 30.2992 22.1345 30.2868 22.0523 30.2448C21.97 30.2027 21.9049 30.1336 21.868 30.0491C21.8643 30.0366 21.858 30.0251 21.8497 30.0152C21.8413 30.0053 21.831 29.9972 21.8194 29.9914H21.5209C21.5078 29.9917 21.4951 29.9953 21.4838 30.0017C21.4725 30.0081 21.463 30.0173 21.4561 30.0283C21.6875 30.9212 23.062 30.8128 23.1083 29.853C23.0273 28.8516 21.979 29.2046 21.979 29.2046" fill="white"/>
<path d="M14.5786 31.7126V32.2178C14.5786 32.2178 14.5786 32.347 14.6481 32.3263L17.1241 31.7518C17.1241 31.7518 18.3945 31.3111 18.5588 32.8016C18.5588 32.8477 18.5889 32.8523 18.5889 32.8523H20.0167C20.0167 32.8523 20.0653 32.8108 20.0653 32.7716C20.0653 32.7323 20.1764 31.4449 21.5718 31.7333C22.9672 32.0217 23.9969 32.3171 23.9969 32.3171V31.5834L21.861 31.0504C21.861 31.0504 20.1162 30.3259 19.3155 32.3355C19.3155 32.3355 18.8018 30.5082 16.9506 30.9812C15.0993 31.4542 14.6758 31.5534 14.6758 31.5534C14.6758 31.5534 14.5671 31.5834 14.5671 31.6226C14.5641 31.6525 14.5641 31.6826 14.5671 31.7126" fill="white"/>
<path d="M32.2882 29.3154C32.1656 29.2346 31.8254 29.4169 31.6241 29.6753C31.5454 29.7745 31.3788 30.026 31.5593 30.2013C31.7907 30.2982 32.1262 30.0652 32.2905 29.7907C32.4132 29.5899 32.4109 29.4123 32.2882 29.3154Z" fill="white"/>
<path d="M5.33625 30.4228C5.29027 30.3433 5.24006 30.2663 5.18583 30.1921C5.14649 30.1344 5.10484 30.0744 5.04005 29.9614C4.97525 29.8483 4.88269 29.7076 4.80864 29.583L4.67674 29.3708L4.62814 29.3015C4.55641 29.1816 4.48236 29.0708 4.39673 29.0316C4.31111 28.9924 4.25789 29.0708 4.16533 29.1331C4.16533 29.1331 4.14913 29.1331 4.14913 29.1516C4.15237 29.1698 4.15781 29.1877 4.16533 29.2046C4.34351 29.5438 4.53558 29.876 4.79475 30.2821L4.81558 30.3167C4.96134 30.5606 5.1311 30.7893 5.32236 30.9996C5.33625 31.0135 5.35013 31.0273 5.36633 31.0273C5.4403 31.019 5.50945 30.9866 5.56303 30.935C5.58142 30.9204 5.59444 30.9001 5.60005 30.8774C5.55886 30.7508 5.49366 30.6333 5.40798 30.5313C5.38214 30.4964 5.35819 30.4602 5.33625 30.4228Z" fill="white"/>
<path d="M18.5126 35.8702H18.42C18.3382 35.8623 18.2558 35.8771 18.1819 35.9129C18.108 35.9487 18.0455 36.0042 18.0012 36.0732C17.9533 36.1645 17.9312 36.267 17.9373 36.3699C17.9434 36.4727 17.9775 36.5719 18.0359 36.6569C18.0762 36.7208 18.1348 36.7712 18.204 36.8016C18.2733 36.832 18.3501 36.8411 18.4246 36.8276C18.5362 36.7902 18.6322 36.7168 18.6975 36.6191C18.7629 36.5214 18.7938 36.4049 18.7856 36.2878C18.8018 36.1966 18.7826 36.1027 18.7319 36.0251C18.6812 35.9476 18.6028 35.8922 18.5126 35.8702Z" fill="white"/>
<path d="M32.3715 20.728C28.6227 21.0463 28.1831 24.0134 24.2723 22.1123C20.2435 20.1719 19.1651 20.3311 16.4044 21.1225C14.4514 21.6762 12.975 23.9327 9.78389 21.7939C7.50916 20.488 5.9541 20.4488 4.92434 20.488C4.06919 20.5336 3.2382 20.7871 2.50382 21.2263C1.70402 21.6753 0.997225 22.2719 0.421161 22.9844C0.421161 22.9844 1.55737 30.4367 8.23115 35.0257C15.1178 39.7601 23.231 39.5271 29.6109 35.6694C31.7692 34.3612 33.6432 32.6355 35.1224 30.5941C36.6016 28.5526 37.6561 26.2367 38.2238 23.7827V23.7573C38.2238 23.7573 36.1226 20.4119 32.3715 20.728ZM33.7091 24.8371C33.7715 24.701 33.8271 24.5602 33.8826 24.4241C33.9382 24.288 33.9729 24.1934 34.0215 24.0919C34.0619 23.9979 34.1074 23.9062 34.158 23.8173C34.2404 23.672 34.3042 23.517 34.3477 23.3559C34.3477 23.3236 34.313 23.1436 34.4727 23.0928C34.5815 23.0559 34.7041 23.1597 34.7944 23.2497C34.8288 23.2851 34.8668 23.3168 34.9078 23.3443C35.0304 23.4158 35.1623 23.4874 35.3011 23.5566L35.3451 23.5797C35.5728 23.6794 35.7806 23.8193 35.9583 23.9926L35.9977 24.0411C36.0619 24.0932 36.1039 24.1678 36.1151 24.2496C36.1263 24.3314 36.1058 24.4144 36.0579 24.4818C35.9907 24.5718 35.7917 24.4426 35.5187 24.2649C35.2514 24.0644 34.9505 23.9128 34.6301 23.8173C34.6301 23.8173 34.5722 23.7988 34.5514 23.8404L33.6906 25.7438C33.6744 25.7784 33.6605 25.8177 33.6443 25.8592C33.5679 26.0484 33.48 26.2652 33.2555 26.3206C33.2362 26.3193 33.2176 26.3131 33.2014 26.3026C33.1852 26.2921 33.172 26.2777 33.1629 26.2606C33.0727 26.0945 33.3226 25.61 33.5401 25.1855C33.6003 25.0609 33.6651 24.9363 33.7091 24.8371ZM7.91875 27.578C9.43215 28.3533 11.7879 28.4871 11.7879 28.4871C14.7777 28.5702 16.1846 27.9011 18.2094 26.7475C19.8848 25.7946 21.0442 27.1812 22.2382 27.7349C23.5786 28.2916 25.0163 28.5782 26.4683 28.5782C27.9204 28.5782 29.3581 28.2916 30.6985 27.7349C30.6985 27.7349 26.9265 33.4268 19.6465 33.3968C11.3945 33.3599 7.91875 27.578 7.91875 27.578ZM19.1212 34.6773C19.0841 34.7281 18.98 34.735 18.9684 34.735C18.8851 34.735 18.5056 34.735 18.2279 34.735H17.8808C17.6216 34.735 17.617 34.5989 17.617 34.5943C17.6749 34.3635 18.177 34.3797 18.5866 34.4282H18.7162C18.8967 34.4282 19.1003 34.4512 19.1443 34.6127C19.1467 34.6246 19.1457 34.6368 19.1417 34.6482C19.1376 34.6596 19.1305 34.6696 19.1212 34.6773ZM9.61496 31.0573L9.70058 31.1335C9.86257 31.2719 10.0014 31.3919 10.1634 31.5441C10.2398 31.6157 10.3231 31.6826 10.3948 31.7495C10.4967 31.8276 10.5934 31.9124 10.6841 32.0033C10.738 32.0481 10.7824 32.1032 10.8146 32.1655C10.8468 32.2277 10.8661 32.2957 10.8715 32.3655C10.8693 32.3723 10.8654 32.3784 10.8601 32.3833C10.8548 32.3881 10.8484 32.3916 10.8414 32.3932H10.8137C10.7337 32.3916 10.6549 32.3736 10.5822 32.3401C10.4001 32.2469 10.2357 32.1228 10.0963 31.9733C10.0111 31.8847 9.91902 31.8029 9.82092 31.7287L9.56637 31.498C9.46455 31.4034 9.36273 31.3273 9.26323 31.2511C9.02244 31.0908 8.81822 30.8817 8.66388 30.6374C8.65751 30.6289 8.65298 30.6192 8.65059 30.6089C8.6482 30.5985 8.648 30.5878 8.65 30.5774C8.65 30.5451 8.69859 30.5313 8.72868 30.5197H8.74719C9.02488 30.4897 9.24703 30.7159 9.44141 30.9143C9.5062 30.9558 9.56174 31.0112 9.61496 31.0573ZM9.51777 30.3952C9.62654 30.2775 9.8024 30.4298 9.8672 30.4874C9.93199 30.5451 10.0014 30.5982 10.0708 30.6513L10.2166 30.7689C10.3279 30.8653 10.4337 30.9677 10.5337 31.0758L10.5498 31.0919C10.7813 31.3226 10.8761 31.4726 10.8461 31.5303C10.8433 31.535 10.8396 31.539 10.8353 31.5422C10.8309 31.5454 10.8259 31.5476 10.8206 31.5488H10.7651C10.5442 31.5031 10.3415 31.394 10.1819 31.235L10.1241 31.1888L10.05 31.1335C9.88207 31.0183 9.73496 30.8755 9.61496 30.7112C9.55248 30.6351 9.44604 30.4782 9.51777 30.3952ZM30.3143 29.0823C30.3745 29.0177 30.4347 28.9485 30.4925 28.8816C30.5504 28.8147 30.5596 28.8032 30.5943 28.7663C30.695 28.6589 30.8016 28.5572 30.9137 28.4617C31.1451 28.2656 31.277 28.1756 31.3371 28.1941H31.3533V28.2102C31.3811 28.404 31.196 28.6163 31.034 28.8032L30.9877 28.8586C30.9695 28.8767 30.9525 28.8959 30.9368 28.9162C30.8195 29.0729 30.6772 29.2093 30.5156 29.32H30.4995C30.4301 29.3666 30.3509 29.3966 30.268 29.4077C30.2429 29.4082 30.2184 29.4 30.1986 29.3846C30.1868 29.3741 30.1772 29.3613 30.1705 29.347C30.1637 29.3328 30.1599 29.3173 30.1593 29.3015C30.1662 29.2323 30.2611 29.1308 30.3143 29.0823ZM21.5625 26.0322C20.1255 25.0055 18.2511 25.2016 17.3717 25.9122C11.6282 29.6038 6.68072 25.5177 6.68072 25.5177L6.12303 24.2118C6.28177 24.1876 6.4433 24.1876 6.60204 24.2118C6.87973 24.2534 7.83776 24.8855 7.83776 24.8855C8.87446 25.6769 12.3062 26.9828 15.3377 25.6769C19.9265 22.9083 21.3218 24.5671 22.6779 25.4C26.8293 27.2989 29.5414 25.9122 30.8558 25.0447C32.1702 24.1772 32.4132 24.371 32.4132 24.371L32.5335 24.4495C32.3962 24.8917 32.2083 25.3167 31.9735 25.7161C27.0746 28.8839 22.9972 27.0612 21.5625 26.0322ZM32.3461 27.255C32.4872 27.255 32.6585 27.4373 32.8228 27.6127C32.9035 27.7103 32.9987 27.7951 33.1051 27.8641C33.1801 27.8227 33.2449 27.7652 33.2948 27.6957C33.3944 27.5781 33.5077 27.4442 33.672 27.5388C33.7623 27.675 33.6373 27.7926 33.5193 27.908C33.4551 27.9628 33.3989 28.0265 33.3527 28.0972C33.4201 28.2079 33.5129 28.3012 33.6234 28.3694C33.7831 28.4871 33.9335 28.6001 33.8294 28.7893C33.8041 28.8159 33.7735 28.8369 33.7397 28.8512C33.7059 28.8655 33.6694 28.8727 33.6327 28.8724C33.436 28.8724 33.2115 28.6694 33.0056 28.4848C32.9454 28.4317 32.8899 28.381 32.8344 28.3348C32.7788 28.2887 32.6747 28.2102 32.5798 28.141C32.2998 27.9287 32.0082 27.7119 32.0105 27.5573C32.0152 27.3589 32.1239 27.2573 32.3461 27.255ZM6.08369 21.7177C7.59941 21.7177 8.75644 22.7468 9.78621 23.259C11.8689 24.2095 13.0953 23.8542 14.3727 23.4574C15.6501 23.0605 16.4068 22.0315 18.8412 21.8423C21.2756 21.6531 22.951 22.7906 24.2677 23.4574C25.5844 24.1242 27.6601 24.1703 29.2938 23.2267C30.8489 21.96 33.3319 21.8746 33.3319 21.8746L33.0704 23.0282C32.5914 23.1482 31.5686 23.1828 30.6105 23.6973C28.8541 24.964 27.4194 25.1232 25.7024 25.0447C23.9113 24.9617 22.8723 23.8911 21.5556 23.342C20.2389 22.7929 18.8018 22.906 17.8531 23.1436C16.9043 23.3812 15.3816 24.4079 14.1043 24.8048C12.8269 25.2016 10.5522 25.1624 8.71942 23.9742C6.88667 22.786 5.68567 22.8921 5.68567 22.8921C5.60699 22.8137 5.45426 21.7201 5.45426 21.7201L6.08369 21.7177ZM2.65193 22.6268C2.67158 22.6112 2.69429 22.5998 2.7186 22.5935C2.7429 22.5871 2.76827 22.5859 2.79308 22.5899C3.02135 22.7105 3.19688 22.911 3.28598 23.1528C3.29538 23.175 3.3062 23.1966 3.31838 23.2174C3.39011 23.3582 3.44565 23.4989 3.49888 23.635C3.5521 23.7712 3.58681 23.8658 3.63772 23.9627L3.66086 24.025C3.90847 24.5325 4.21855 25.2916 4.25789 25.3908C4.49419 25.3973 4.72963 25.3597 4.95211 25.2801C5.02385 25.2593 5.0979 25.2362 5.18352 25.2155C5.19667 25.0594 5.14948 24.9042 5.05162 24.7817C5.01639 24.7237 4.98471 24.6636 4.95674 24.6018C4.92666 24.5371 4.17921 22.9867 4.14219 22.8483C4.1337 22.8262 4.13033 22.8025 4.13233 22.7789C4.13433 22.7553 4.14166 22.7325 4.15376 22.7122C4.16852 22.6909 4.19086 22.676 4.21624 22.6706C4.31574 22.5899 4.48235 22.7398 4.4893 22.7445C4.73459 22.9752 5.04236 23.7573 5.18352 24.1288L5.21129 24.2003L5.61856 25.0909C5.69261 25.1309 5.74941 25.1966 5.77823 25.2755C5.78545 25.306 5.78588 25.3377 5.77948 25.3684C5.77309 25.3991 5.76002 25.428 5.74121 25.4531C5.5617 25.6014 5.34896 25.7043 5.12104 25.753C4.89791 25.8292 4.65899 25.8475 4.42682 25.8061C4.48191 25.97 4.5598 26.1253 4.65822 26.2676C4.69525 26.3299 4.73228 26.3921 4.7693 26.4614V26.4775H4.75079C4.66361 26.5146 4.57018 26.535 4.47541 26.5375C4.42319 26.5384 4.37154 26.5265 4.325 26.5029C4.16533 26.4221 4.10748 26.2145 4.04268 25.9722C4.02185 25.9007 4.00334 25.8246 3.97789 25.7415L3.70251 24.9455C3.49044 25.0614 3.24954 25.1142 3.00829 25.0978C3.00829 25.0978 2.83937 25.0171 2.86482 24.8878C2.89351 24.7955 2.94674 24.7127 3.01886 24.6481C3.09097 24.5835 3.17928 24.5396 3.27441 24.521L3.32995 24.5049C3.37392 24.5049 3.45491 24.4702 3.46648 24.4495L2.61953 22.7929C2.60975 22.7648 2.60759 22.7347 2.61328 22.7055C2.61897 22.6763 2.6323 22.6492 2.65193 22.6268ZM3.40168 26.3921L3.3392 26.4498C3.02742 26.6382 2.68404 26.7687 2.32564 26.8351C2.32564 26.8351 2.15209 26.819 2.09423 26.7244C2.08188 26.7017 2.07541 26.6763 2.07541 26.6506C2.07541 26.6248 2.08188 26.5994 2.09423 26.5767C2.10671 26.5324 2.12841 26.4912 2.15792 26.4559C2.18742 26.4205 2.22407 26.3917 2.26548 26.3714L2.84631 26.0945C2.73239 25.6258 2.55653 25.1743 2.32333 24.7517C2.16698 24.4532 2.03016 24.145 1.91374 23.8288C1.90248 23.8055 1.89626 23.7802 1.89548 23.7543C1.89469 23.7285 1.89936 23.7028 1.90918 23.6788C1.91899 23.6549 1.93374 23.6333 1.95247 23.6154C1.97119 23.5976 1.99347 23.5838 2.01787 23.575C2.03104 23.5695 2.04521 23.5666 2.05952 23.5666C2.07384 23.5666 2.088 23.5695 2.10118 23.575C2.14012 23.5953 2.17443 23.6234 2.20192 23.6575C2.2294 23.6917 2.24947 23.7312 2.26085 23.7735L3.11011 25.7277C3.14401 25.7957 3.18267 25.8612 3.22581 25.9238C3.34233 26.0517 3.40527 26.2193 3.40168 26.3921ZM6.37989 30.8797C6.36185 30.8938 6.34483 30.9092 6.32898 30.9258C6.08849 31.1094 5.8348 31.2752 5.56997 31.4219C5.54361 31.4331 5.51809 31.4462 5.4936 31.4611C5.44677 31.495 5.3916 31.5158 5.33393 31.5211C5.3134 31.5204 5.2931 31.5165 5.27377 31.5095C5.18276 31.4313 5.11075 31.3335 5.06319 31.2234C5.06319 31.205 5.04467 31.1911 5.03773 31.1796C4.91971 30.9812 4.83409 30.852 4.74153 30.7182C4.64897 30.5843 4.59806 30.5082 4.51012 30.3605C4.34814 30.1044 4.17458 29.8322 3.9964 29.5599C3.93446 29.458 3.85631 29.3669 3.76499 29.29C3.69369 29.2508 3.64055 29.1854 3.61689 29.1077C3.60999 29.0815 3.60891 29.0541 3.6137 29.0274C3.6185 29.0007 3.62906 28.9754 3.64466 28.9531C3.69973 28.8825 3.77121 28.8263 3.85293 28.7893C3.8897 28.7691 3.92524 28.7468 3.95938 28.7224C4.09128 28.6255 4.19078 28.5402 4.3088 28.4479C4.4244 28.3574 4.55315 28.2851 4.69062 28.2333C4.77591 28.2309 4.85882 28.2615 4.92203 28.3187C4.95153 28.3644 4.96721 28.4177 4.96721 28.4721C4.96721 28.5265 4.95153 28.5798 4.92203 28.6255C4.88405 28.6763 4.836 28.7187 4.78087 28.7501L4.72533 28.8009C4.78318 28.9116 5.44038 29.9083 5.51674 30.0214C5.54914 30.0721 5.58385 30.1367 5.62319 30.2037C5.69552 30.3559 5.79334 30.4948 5.91245 30.6143C6.01196 30.6905 6.11378 30.6143 6.21097 30.5567C6.30816 30.499 6.36832 30.4528 6.42849 30.5036C6.45445 30.5256 6.47549 30.5527 6.49024 30.5833C6.50499 30.6139 6.51312 30.6473 6.51411 30.6812C6.50485 30.7689 6.44006 30.8243 6.37989 30.8797ZM6.51411 29.8322H6.45857C6.34378 29.816 6.2338 29.7755 6.13601 29.7134C6.03822 29.6514 5.95489 29.5691 5.89162 29.4723C5.84766 29.4123 5.81526 29.3638 5.78749 29.3177C5.72535 29.2206 5.65735 29.1274 5.58385 29.0385C5.49339 28.9231 5.41141 28.8012 5.33856 28.674C5.28302 28.584 5.2298 28.5009 5.17658 28.4225L5.15806 28.3971C5.06676 28.2938 5.0073 28.1664 4.98682 28.0303C4.97891 27.9746 4.98686 27.9178 5.00978 27.8664C5.03269 27.815 5.06964 27.771 5.11641 27.7396C5.16193 27.7114 5.20906 27.686 5.25757 27.6634C5.32445 27.6317 5.38868 27.5946 5.44964 27.5527C5.49553 27.5173 5.53883 27.4788 5.57922 27.4373C5.62197 27.3896 5.67012 27.347 5.7227 27.3104C5.74477 27.2943 5.76993 27.283 5.7966 27.277C5.82328 27.2711 5.8509 27.2706 5.87774 27.2758C5.97956 27.3058 6.04204 27.435 6.09758 27.5481C6.11191 27.5813 6.12813 27.6136 6.14617 27.645C6.27857 27.8749 6.42462 28.0968 6.58353 28.3094L6.63213 28.3833C6.70155 28.4894 6.81494 28.6647 6.90056 28.6647C7.04121 28.6462 7.17032 28.5773 7.26387 28.4709C7.31015 28.3971 7.18982 28.2125 7.11808 28.1018L7.07643 28.0372C6.89197 27.7479 6.68127 27.476 6.447 27.225C6.40316 27.1815 6.37121 27.1274 6.3542 27.0681C6.33719 27.0087 6.33568 26.946 6.34981 26.8859C6.37295 26.8097 6.40766 26.7659 6.45857 26.759C6.60436 26.7382 6.808 27.0266 6.98618 27.3081L7.02321 27.3658C7.17825 27.5965 7.33098 27.8272 7.48602 28.058C7.51147 28.0972 7.53924 28.1341 7.56933 28.1733C7.67577 28.3117 7.78685 28.4548 7.73131 28.6348C7.69429 28.7547 7.62023 28.7963 7.52073 28.8655L7.42585 28.9208C7.37465 28.9434 7.32515 28.9696 7.27775 28.9993C7.22907 29.0302 7.178 29.0572 7.12502 29.08C7.09777 29.09 7.07145 29.1024 7.04635 29.117C7.00741 29.1376 6.96627 29.1539 6.9237 29.1654C6.88225 29.1782 6.83788 29.1782 6.79643 29.1654C6.67231 29.0876 6.57471 28.9742 6.51642 28.8401C6.31132 28.4832 6.08731 28.1374 5.84534 27.8042L5.45426 28.0349C5.44269 28.0349 5.41955 28.0533 5.41493 28.0695V28.0926C5.41493 28.1202 5.50517 28.261 5.5422 28.3233L5.56303 28.3533C5.72964 28.6025 5.89625 28.8424 6.06055 29.0639C6.15774 29.1954 6.20634 29.2554 6.27576 29.3385L6.45857 29.5692L6.50254 29.6199C6.55364 29.6742 6.60081 29.732 6.6437 29.793V29.8068H6.6275C6.59978 29.8155 6.57094 29.8202 6.54188 29.8207L6.51411 29.8322ZM6.78023 30.5913C6.73976 30.5777 6.70311 30.5547 6.67333 30.5242C6.64354 30.4938 6.62149 30.4566 6.60899 30.4159C6.59999 30.3838 6.60117 30.3498 6.61235 30.3184C6.62354 30.287 6.64419 30.2598 6.67147 30.2406C6.80337 30.1506 6.9237 30.0606 7.13428 29.906L7.5971 29.5553L7.70123 29.4677C7.87941 29.3154 8.1247 29.1054 8.32834 29.2623C8.3572 29.2833 8.38078 29.3107 8.39724 29.3423C8.4137 29.374 8.42259 29.409 8.42322 29.4446C8.41826 29.4962 8.39813 29.5451 8.36537 29.5853C8.24912 29.7207 8.11061 29.8354 7.95578 29.9245C7.90949 29.9568 7.86321 29.9845 7.82156 30.0168L7.45594 30.2775C7.26122 30.4378 7.02861 30.5458 6.78023 30.5913ZM9.80935 34.9519C9.7238 34.998 9.62883 35.0241 9.53166 35.028C9.33728 35.028 9.20769 34.8827 9.0457 34.705C8.98554 34.6381 8.92306 34.5712 8.85132 34.502C8.44453 34.0851 8.00669 33.6994 7.54156 33.3484C7.49815 33.328 7.45067 33.3178 7.40271 33.3184C7.27544 33.3184 7.11577 33.293 7.08106 33.0738C7.21527 32.8131 7.68503 32.2132 7.98123 32.234C8.07148 32.234 8.13859 32.3009 8.17793 32.4163C8.23346 32.5732 8.13165 32.6816 8.0252 32.767L7.97892 32.8062L7.85627 32.9008C7.80073 32.94 7.73594 32.9861 7.75677 33.0531C7.77759 33.12 7.88635 33.1938 7.96966 33.2469L8.0414 33.2953C8.1698 33.392 8.29049 33.4984 8.40239 33.6137C8.49496 33.7083 8.59677 33.7983 8.69396 33.8836L8.80041 33.9805C8.89529 34.0659 8.99711 34.149 9.0943 34.232C9.35755 34.4397 9.60081 34.6715 9.82092 34.9242L9.8348 34.9403L9.80935 34.9519ZM9.54323 33.1061C9.50516 33.1057 9.46721 33.1018 9.42984 33.0946C9.16988 33.0334 8.92656 32.9161 8.7171 32.7508C8.49682 32.5964 8.32508 32.3828 8.22189 32.1348C8.16636 31.971 8.12008 31.6572 8.23578 31.5211C8.33337 31.4286 8.45312 31.3627 8.58358 31.3295C8.71405 31.2964 8.85085 31.2972 8.98091 31.3319C9.22515 31.3858 9.44951 31.5064 9.62885 31.6803C9.65164 31.7096 9.67638 31.7373 9.7029 31.7633L9.72604 31.7887C9.87422 31.9609 9.99375 32.1556 10.0801 32.3655C10.1373 32.4713 10.1561 32.5936 10.1333 32.7116C10.0829 32.8401 9.99089 32.9481 9.87183 33.0184H9.85563L9.8348 33.03C9.74466 33.0765 9.64473 33.101 9.54323 33.1015V33.1061ZM11.8573 32.414L11.8087 32.4555L11.6837 32.587C11.6652 32.6101 11.6444 32.6308 11.6236 32.6539C11.5611 32.7185 11.4963 32.7831 11.4269 32.8477C11.3591 32.9102 11.295 32.9764 11.2348 33.0461C11.2348 33.1338 11.3251 33.2215 11.4153 33.3045C11.5056 33.3876 11.5981 33.4753 11.5912 33.5629C11.5863 33.5903 11.5752 33.6161 11.5587 33.6385C11.5423 33.6609 11.5209 33.6792 11.4963 33.6922C11.3575 33.7175 11.2649 33.6206 11.1885 33.5237C11.1434 33.4623 11.0848 33.4118 11.0173 33.3761C10.9079 33.4273 10.8096 33.4994 10.728 33.5883C10.6818 33.6391 10.6378 33.6922 10.5938 33.7452C10.5116 33.8572 10.4152 33.958 10.3069 34.0452C10.219 34.1091 10.1146 34.1467 10.006 34.1536C9.97639 34.1548 9.94691 34.1485 9.92042 34.1351C9.89395 34.1183 9.87331 34.0938 9.86131 34.0649C9.8493 34.036 9.84651 34.0042 9.85331 33.9736C9.8672 33.7568 10.0685 33.586 10.2467 33.4337C10.31 33.381 10.3703 33.3248 10.4272 33.2653L11.3528 32.2663C11.4637 32.1374 11.595 32.0275 11.7416 31.941C11.7603 31.9282 11.7818 31.9199 11.8042 31.9167C11.8267 31.9135 11.8496 31.9155 11.8712 31.9225C11.9418 31.9598 11.9956 32.0225 12.0216 32.0979C12.091 32.2086 11.9429 32.3378 11.855 32.414H11.8573ZM15.0415 36.4539C14.9429 36.7863 14.7862 37.0987 14.5786 37.3768C14.5228 37.4173 14.4575 37.4427 14.3889 37.4506C14.3743 37.453 14.3595 37.453 14.3449 37.4506C14.3215 37.442 14.3006 37.4274 14.2844 37.4084C14.2682 37.3895 14.2572 37.3666 14.2524 37.3422C14.2315 37.3026 14.2194 37.2591 14.217 37.2145C14.2146 37.1699 14.2219 37.1253 14.2385 37.0837L14.4699 36.5116C14.0817 36.2513 13.6608 36.0434 13.218 35.8932C12.9096 35.7806 12.6089 35.648 12.3178 35.4964C12.2949 35.487 12.2741 35.4729 12.2569 35.4551C12.2397 35.4374 12.2263 35.4162 12.2176 35.3931C12.2089 35.3699 12.2051 35.3452 12.2064 35.3205C12.2077 35.2958 12.2141 35.2716 12.2252 35.2495C12.2301 35.2363 12.2378 35.2243 12.2478 35.2143C12.2578 35.2043 12.2698 35.1967 12.2831 35.1918C12.322 35.1822 12.3625 35.1802 12.4022 35.1862C12.442 35.1921 12.4801 35.2058 12.5145 35.2264L14.4005 36.0686C14.468 36.0951 14.5377 36.116 14.6087 36.1309C14.7783 36.1484 14.9344 36.2311 15.0438 36.3616L15.0415 36.4539ZM15.8606 35.471C15.9254 35.4918 15.9925 35.5102 16.062 35.5356H16.0805V35.5518C16.0562 35.6184 16.0181 35.6791 15.9687 35.73C15.9192 35.7809 15.8595 35.8208 15.7935 35.8471C15.7667 35.8506 15.7394 35.8506 15.7125 35.8471C15.5434 35.82 15.3841 35.7501 15.2497 35.6441C15.1872 35.6048 15.1225 35.5633 15.0553 35.5264L14.3195 35.1295C14.2478 35.346 14.1143 35.5368 13.9353 35.6787C13.9238 35.6787 13.7618 35.734 13.7039 35.6256C13.6642 35.541 13.648 35.4474 13.6569 35.3545C13.6659 35.2615 13.6997 35.1727 13.7548 35.0972C13.7622 35.082 13.7707 35.0673 13.7803 35.0534C13.8057 35.0165 13.852 34.945 13.8451 34.9219L12.1581 34.2943C12.1354 34.281 12.1165 34.2622 12.1032 34.2396C12.0898 34.217 12.0824 34.1914 12.0818 34.1651C12.086 34.1414 12.0949 34.1188 12.108 34.0986C12.1211 34.0784 12.1382 34.061 12.1581 34.0475C12.4011 33.9866 12.6581 34.017 12.8801 34.1328L12.9403 34.1559C13.0792 34.2086 13.2151 34.2686 13.3476 34.3359C13.4471 34.3843 13.5512 34.4351 13.6576 34.4789L13.7132 34.5066C14.2223 34.7073 14.9396 35.0465 15.0322 35.0903C15.2046 34.9424 15.3481 34.7641 15.4557 34.5643C15.4927 34.502 15.5297 34.4374 15.576 34.3682C15.4839 34.2466 15.3492 34.1642 15.1988 34.1374C15.135 34.1201 15.0723 34.0985 15.0114 34.0728C14.9489 34.0475 13.4077 33.4337 13.2851 33.353C13.2646 33.3423 13.2467 33.3273 13.2327 33.3089C13.2187 33.2906 13.2089 33.2694 13.2041 33.2469C13.2005 33.2226 13.2063 33.1978 13.2203 33.1776C13.2388 33.0554 13.4517 33.0531 13.4633 33.0531C13.7895 33.0531 14.5208 33.4176 14.8748 33.5929L14.9304 33.6206L15.8051 33.9921C15.8828 33.9721 15.9651 33.9811 16.0365 34.0175C16.0616 34.0346 16.0828 34.0568 16.0987 34.0827C16.1147 34.1085 16.125 34.1374 16.1291 34.1674C16.0963 34.3897 16.0124 34.6013 15.8838 34.7858C15.7731 34.9843 15.6139 35.1518 15.421 35.2726C15.5601 35.3582 15.7104 35.4241 15.8676 35.4687L15.8606 35.471ZM19.304 36.5231C19.2731 36.6445 19.2155 36.7575 19.1355 36.8541C19.0554 36.9506 18.9549 37.0283 18.8412 37.0814C18.6686 37.1551 18.4828 37.193 18.295 37.193C18.1073 37.193 17.9215 37.1551 17.7489 37.0814C17.5784 36.9565 17.456 36.777 17.4021 36.573C17.3482 36.3689 17.3661 36.1526 17.4527 35.9601C17.5298 35.8411 17.6296 35.7383 17.7466 35.6579C17.8722 35.5852 18.0103 35.5366 18.1539 35.5148C18.1579 35.4707 18.1772 35.4293 18.2084 35.3978C18.2397 35.3662 18.2809 35.3464 18.3251 35.3418C18.3782 35.3331 18.4326 35.3431 18.479 35.3701C18.5254 35.397 18.561 35.4392 18.5797 35.4895C18.7603 35.5254 18.9295 35.6046 19.0726 35.7202L19.1165 35.7709C19.2026 35.8738 19.2647 35.9944 19.2983 36.1241C19.3319 36.2537 19.3362 36.3892 19.3109 36.5208L19.304 36.5231ZM19.6187 35.2172C19.4331 35.2864 19.2359 35.3193 19.0379 35.3141C18.9708 35.3141 18.906 35.3141 18.8389 35.3141C18.7305 35.3029 18.6215 35.2983 18.5126 35.3003C18.4131 35.3003 17.5661 35.2749 17.4712 35.2449C17.4458 35.2449 17.2398 35.2241 17.1727 35.1365C17.1637 35.1243 17.1572 35.1105 17.1536 35.0959C17.1501 35.0812 17.1495 35.066 17.1519 35.0511C17.1523 35.0218 17.1639 34.9937 17.1843 34.9727C17.1981 34.9604 17.2142 34.9511 17.2317 34.9451C17.2492 34.9392 17.2677 34.9368 17.2861 34.938C17.2861 34.938 18.1701 34.9104 19.1998 34.9588C19.3224 34.9675 19.444 34.9868 19.5632 35.0165C19.5856 35.0218 19.6065 35.0323 19.6242 35.0471C19.6419 35.062 19.6559 35.0807 19.665 35.1019C19.6694 35.1225 19.6681 35.1439 19.6612 35.1639C19.6542 35.1838 19.6419 35.2015 19.6256 35.2149L19.6187 35.2172ZM21.2154 34.6081C21.2154 34.6635 21.2154 34.7142 21.2154 34.7604C21.2154 34.9473 21.2154 35.1272 21.2154 35.3049C21.2154 35.8494 21.1946 36.3662 21.1923 36.9315C21.1923 36.9961 21.1923 37.0722 21.1923 37.1507C21.2061 37.4183 21.22 37.7205 21.0835 37.8636C21.057 37.8901 21.0251 37.9106 20.99 37.9238C20.9549 37.9369 20.9173 37.9423 20.8799 37.9397C20.6485 37.912 20.6647 37.4068 20.6832 36.8207C20.7038 36.4962 20.6969 36.1705 20.6623 35.8471C20.5186 35.8067 20.3664 35.8067 20.2227 35.8471C20.2042 35.8471 20.1532 35.9001 20.1926 36.417V36.44C20.1926 36.5 20.1926 36.5623 20.2065 36.6246C20.2315 36.8437 20.2369 37.0645 20.2227 37.2845C20.226 37.3485 20.2148 37.4124 20.19 37.4715C20.1652 37.5306 20.1273 37.5834 20.0792 37.6259C20.0443 37.6456 20.0056 37.6576 19.9657 37.6612C19.9258 37.6647 19.8856 37.6598 19.8478 37.6467C19.7298 37.6167 19.7205 37.2199 19.7205 36.7031C19.7205 36.6223 19.7205 36.5462 19.7205 36.4723C19.7205 36.3501 19.7205 36.2232 19.7205 36.0963C19.7205 35.8125 19.7205 35.5195 19.702 35.2195V35.0465C19.702 35.0096 19.702 34.9703 19.702 34.9288C19.702 34.6473 19.702 34.2966 19.8686 34.1859C19.925 34.1607 19.9868 34.1502 20.0484 34.1554C20.1099 34.1607 20.1691 34.1815 20.2203 34.2159C20.2203 34.2159 20.2643 34.2505 20.262 34.3659C20.2597 34.4812 20.262 35.3072 20.2273 35.4318C20.3199 35.5264 20.4795 35.4872 20.6461 35.4479H20.6693L20.6924 34.7396C20.6924 34.7142 20.6485 34.0705 20.8544 33.9852C20.9057 33.9708 20.9598 33.9687 21.012 33.9792C21.0643 33.9896 21.1134 34.0122 21.1552 34.0452C21.2501 34.1651 21.2316 34.412 21.2154 34.6081ZM22.259 34.592C22.2938 34.0428 22.9324 33.8998 23.0412 33.8744C23.0384 33.8289 23.0504 33.7836 23.0754 33.7454C23.1004 33.7071 23.1371 33.6779 23.18 33.6622C23.2262 33.6543 23.2736 33.6616 23.3153 33.6828C23.357 33.704 23.3907 33.738 23.4115 33.7798L23.5619 33.766H23.6359C24.0779 33.766 24.3301 33.9252 24.4759 34.2736C24.5308 34.4046 24.553 34.547 24.5405 34.6885C24.528 34.8299 24.4812 34.9663 24.4042 35.0857C24.2763 35.2666 24.1073 35.4148 23.9111 35.5182C23.7148 35.6217 23.4969 35.6774 23.2749 35.681H23.2055C22.9521 35.6752 22.7101 35.5747 22.5275 35.3995C22.4311 35.3017 22.3571 35.1842 22.3108 35.0552C22.2644 34.9261 22.2468 34.7885 22.259 34.6519V34.592ZM25.943 36.6846C25.3791 37.0953 24.7021 37.3232 24.0039 37.3375C23.8467 37.3397 23.6902 37.3155 23.541 37.266C23.4487 37.2397 23.3655 37.1881 23.3009 37.1172C23.2363 37.0463 23.1928 36.9588 23.1754 36.8646C23.1014 36.4193 23.8048 36.0409 24.3001 35.8909C24.3066 35.8491 24.3214 35.809 24.3436 35.7729C24.3659 35.7369 24.3951 35.7056 24.4296 35.681C24.4587 35.661 24.4915 35.647 24.5261 35.6398C24.5606 35.6325 24.5963 35.6322 24.631 35.6389C24.6656 35.6456 24.6986 35.659 24.728 35.6785C24.7574 35.698 24.7827 35.7232 24.8022 35.7525L24.8878 35.7386C25.4825 35.644 26.0981 35.5471 26.2138 36.1447C26.2208 36.2506 26.1994 36.3564 26.1518 36.4512C26.1042 36.5461 26.0322 36.6267 25.943 36.6846ZM26.385 34.5781C26.3318 34.6866 26.1536 34.7212 26.0009 34.7535C25.9281 34.7665 25.8562 34.7843 25.7857 34.8065C25.7908 34.8479 25.7994 34.8888 25.8111 34.9288C25.8551 35.1157 25.9245 35.3903 25.7163 35.4733H25.6561C25.6186 35.4726 25.582 35.4623 25.5497 35.4433C25.39 35.3441 25.3182 35.028 25.2488 34.7512C25.2303 34.675 25.2141 34.6012 25.1956 34.5366L24.8624 33.3368C24.8475 33.2781 24.8564 33.2159 24.8872 33.1637C24.9179 33.1115 24.968 33.0734 25.0267 33.0577C25.1012 33.0295 25.1835 33.0295 25.2581 33.0577C25.2782 33.0703 25.2952 33.0872 25.308 33.1071C25.3208 33.1271 25.329 33.1496 25.3321 33.173L25.4849 33.7175C25.5784 33.7121 25.6709 33.6951 25.7602 33.6668C25.8655 33.6216 25.983 33.6134 26.0935 33.6437C26.1092 33.6543 26.1226 33.6679 26.133 33.6837C26.1433 33.6996 26.1503 33.7174 26.1536 33.736C26.1586 33.7552 26.1594 33.7753 26.1558 33.7948C26.1522 33.8143 26.1443 33.8329 26.1328 33.849C26.075 33.9367 25.9176 33.9667 25.7764 33.9944C25.7084 34.004 25.6417 34.0211 25.5774 34.0452C25.5959 34.1074 25.6144 34.179 25.6353 34.2505L25.6885 34.4535C25.755 34.4412 25.8206 34.4251 25.8852 34.4051C26.0611 34.3566 26.2416 34.3059 26.3318 34.382C26.3585 34.4072 26.3774 34.4395 26.386 34.4752C26.3946 34.5108 26.3927 34.5482 26.3804 34.5827L26.385 34.5781ZM29.6247 33.2215L29.59 33.5629C29.5899 33.5965 29.5785 33.6289 29.5576 33.6552C29.3704 33.7725 29.1765 33.8789 28.9768 33.9736C28.7527 34.0783 28.5376 34.201 28.3335 34.3405C28.2791 34.3827 28.2295 34.4307 28.1854 34.4835C28.1465 34.5461 28.0942 34.5993 28.0321 34.6392C27.9701 34.6791 27.8999 34.7047 27.8267 34.7142C27.7994 34.7137 27.7727 34.7064 27.7489 34.6931C27.7251 34.6799 27.7049 34.661 27.6902 34.6381C27.6504 34.5413 27.6504 34.4327 27.6902 34.3359L27.2644 33.706L26.8016 33.0669C26.7678 33.0703 26.7338 33.0663 26.7018 33.0551C26.6698 33.044 26.6407 33.0259 26.6164 33.0023C26.5806 32.9625 26.5615 32.9104 26.5632 32.8569C26.6419 32.6701 26.9288 32.4416 27.4379 32.1648L27.512 32.1232C27.7434 31.9871 27.9748 31.8579 28.1275 32.0217C28.1784 32.1671 28.0836 32.2271 27.8545 32.3724L27.7619 32.4324C27.6925 32.4763 27.6115 32.5201 27.5305 32.5639C27.4349 32.6142 27.3422 32.6696 27.2528 32.73C27.247 32.7316 27.2417 32.7344 27.2372 32.7385C27.2328 32.7425 27.2294 32.7475 27.2274 32.7531C27.2274 32.7531 27.2274 32.7531 27.2274 32.7693C27.306 32.8962 27.9887 33.9967 28.0303 34.0728C28.0371 34.0748 28.0444 34.0748 28.0512 34.0728C28.3659 33.9067 28.6019 33.7568 28.8287 33.6114C29.068 33.4544 29.3152 33.3097 29.5692 33.1776C29.5733 33.175 29.5782 33.1735 29.5831 33.1735C29.588 33.1735 29.5928 33.175 29.597 33.1776C29.597 33.1776 29.6456 33.173 29.6363 33.2238L29.6247 33.2215ZM31.5871 33.7383C31.5699 33.7656 31.5464 33.7884 31.5187 33.8048C31.4909 33.8212 31.4596 33.8309 31.4274 33.8329C31.2909 33.8329 31.1636 33.6691 31.0942 33.5814L31.071 33.5537C30.8553 33.2775 30.6611 32.9852 30.4902 32.6793C30.3629 32.4647 30.2426 32.2617 30.1153 32.0863C30.0544 32.1178 29.9956 32.1532 29.9395 32.1925C29.8657 32.2426 29.7883 32.2873 29.708 32.3263C29.8413 32.5819 29.9962 32.8258 30.1709 33.0554C30.4462 33.4499 30.6846 33.7914 30.5781 34.0221C30.5628 34.0432 30.5426 34.0603 30.5193 34.072C30.4959 34.0836 30.47 34.0895 30.4439 34.089C30.3555 34.0713 30.2775 34.02 30.2264 33.9459L28.676 31.5811C28.651 31.535 28.6223 31.4911 28.5903 31.4495C28.5001 31.3226 28.4052 31.1911 28.5603 31.0273C28.5918 31.0002 28.6287 30.98 28.6686 30.9681C28.7084 30.9562 28.7504 30.9528 28.7917 30.9581C28.9236 30.9881 29.0231 31.1496 29.0971 31.3065C29.1249 31.3573 29.1527 31.408 29.1827 31.4565C29.2429 31.5534 29.2938 31.641 29.3355 31.7218C29.3943 31.8359 29.4641 31.9441 29.5437 32.0448C29.5933 32.0078 29.645 31.9739 29.6988 31.9433C29.7819 31.9003 29.8596 31.8476 29.9302 31.7864C29.8439 31.6108 29.7409 31.4439 29.6224 31.288C29.391 30.9604 29.1596 30.6189 29.3031 30.3652C29.3342 30.3368 29.3707 30.3148 29.4104 30.3005C29.4502 30.2863 29.4923 30.28 29.5345 30.2821C29.5655 30.2853 29.5953 30.2955 29.6218 30.3119C29.6482 30.3283 29.6706 30.3504 29.6872 30.3767C29.9418 30.8104 30.2102 31.2304 30.4694 31.6364C30.8188 32.1902 31.1636 32.7116 31.4482 33.2515C31.4667 33.2861 31.4876 33.3184 31.5084 33.3507C31.5522 33.405 31.583 33.4685 31.5987 33.5365C31.6143 33.6044 31.6143 33.675 31.5986 33.7429L31.5871 33.7383ZM31.8185 30.6005C31.7096 30.6333 31.5966 30.6504 31.4829 30.6513C31.3931 30.6566 31.3039 30.6332 31.2284 30.5843C31.1442 30.4924 31.0849 30.3806 31.0562 30.2595C31.0274 30.1384 31.0301 30.012 31.0641 29.8922C31.1249 29.7431 31.2025 29.6015 31.2955 29.47C31.2879 29.4707 31.2803 29.4691 31.2737 29.4654C31.2671 29.4617 31.2618 29.456 31.2585 29.4492C31.2504 29.4174 31.2504 29.3841 31.2585 29.3523C31.1696 29.4459 31.0862 29.5445 31.0085 29.6476C30.846 29.8672 30.6406 30.0516 30.4046 30.1898C30.3866 30.2009 30.3652 30.205 30.3444 30.2013C30.3308 30.1935 30.319 30.1829 30.3098 30.1701C30.3007 30.1574 30.2943 30.1429 30.2912 30.1275V30.1114C30.2704 29.8576 30.4925 29.6499 30.6892 29.4769C30.7494 29.4238 30.8049 29.3754 30.8512 29.3269C31.0132 29.1539 31.152 29.0039 31.3348 28.8263C31.4043 28.757 31.4714 28.6832 31.5338 28.6094C31.6134 28.5168 31.6984 28.4289 31.7884 28.3464C31.833 28.2959 31.8873 28.255 31.9482 28.2261C32.009 28.1971 32.0751 28.1807 32.1424 28.1779C32.1488 28.1804 32.1545 28.1845 32.159 28.1897C32.1634 28.195 32.1665 28.2012 32.1679 28.2079C32.1685 28.2929 32.1487 28.3768 32.11 28.4525C32.0146 28.6206 31.89 28.7706 31.7421 28.8955C31.6605 28.9742 31.5832 29.0574 31.5107 29.1446L31.439 29.2162C31.4593 29.2224 31.4781 29.2326 31.4945 29.2462L31.5223 29.2646L31.5408 29.2485L31.5639 29.23C31.7334 29.0945 31.9232 28.9863 32.1262 28.9093C32.1794 28.878 32.2385 28.8582 32.2999 28.8513C32.3612 28.8444 32.4233 28.8505 32.4821 28.8692C32.5409 28.888 32.5951 28.9189 32.641 28.96C32.687 29.0011 32.7237 29.0515 32.7487 29.1077C32.7567 29.1182 32.763 29.1299 32.7672 29.1423C32.8232 29.257 32.8379 29.3873 32.8089 29.5115C32.7417 29.752 32.6224 29.9749 32.4595 30.1644C32.3019 30.3658 32.0923 30.5205 31.8532 30.612L31.8185 30.6005ZM35.0582 29.8899C34.8406 30.0491 34.6278 29.8599 34.4218 29.6753C34.3349 29.5863 34.2369 29.5087 34.1302 29.4446C34.1163 29.4446 34.0747 29.4677 34.0469 29.4976L32.4271 31.2465C32.4134 31.2621 32.3967 31.2748 32.378 31.2839C32.3594 31.293 32.3391 31.2983 32.3183 31.2996C32.3054 31.3026 32.2919 31.3026 32.279 31.2996C32.1124 31.0689 32.2581 30.8889 32.3854 30.7389L32.4641 30.6443C32.5658 30.5102 32.6755 30.3823 32.7927 30.2613L32.8945 30.1529L33.8479 29.1308C33.8604 29.0078 33.919 28.894 34.0122 28.8124C34.1163 28.7178 34.2668 28.8493 34.2737 28.8539C34.2806 28.8586 34.8661 29.4054 35.0906 29.6499C35.1174 29.6854 35.1313 29.729 35.13 29.7734C35.1288 29.8179 35.1124 29.8605 35.0836 29.8945L35.0582 29.8899ZM37.4162 24.0203C36.8493 24.9385 36.3918 25.9196 36.0532 26.9436C36.0301 27.0082 36.0093 27.0751 35.9907 27.142C35.9694 27.2817 35.9191 27.4154 35.843 27.5346C35.7669 27.6538 35.6667 27.7558 35.5488 27.8341H35.514C35.5042 27.8341 35.4945 27.8317 35.4856 27.8273C35.4768 27.8229 35.4691 27.8166 35.4631 27.8088C35.3521 27.6796 35.4631 27.0105 35.595 26.7821C35.4721 26.7165 35.3445 26.6602 35.2132 26.6136C34.9101 26.4983 34.5977 26.3829 34.5398 26.1776C34.53 26.1278 34.532 26.0764 34.5457 26.0275C34.5593 25.9787 34.5843 25.9336 34.6185 25.8961C34.6594 25.8394 34.7193 25.7993 34.7874 25.783C34.8277 25.7758 34.8691 25.777 34.909 25.7865C34.9488 25.7961 34.9862 25.8137 35.0188 25.8384C35.1082 25.9266 35.2025 26.0098 35.3011 26.0876C35.4791 26.1747 35.6684 26.2368 35.8635 26.2722C35.882 26.2722 35.9097 26.2537 35.9375 26.2145C36.0265 26.0848 36.0778 25.9331 36.0856 25.7761C35.9497 25.6518 35.7826 25.5665 35.602 25.5292C35.3335 25.437 35.0559 25.3424 34.9517 25.1647C34.939 25.1157 34.9366 25.0646 34.9445 25.0146C34.9525 24.9645 34.9707 24.9167 34.998 24.874C35.0312 24.8344 35.0731 24.8029 35.1204 24.7821C35.1678 24.7613 35.2194 24.7517 35.2711 24.754C35.4167 24.7807 35.5512 24.8497 35.6575 24.9524C35.6575 24.9524 36.0856 25.2547 36.2661 25.2224C36.3076 25.178 36.3391 25.1253 36.3587 25.0678C36.6407 24.5125 36.891 23.9417 37.1084 23.3582C37.1084 23.3582 37.1084 23.3143 37.1432 23.3074C37.1509 23.3059 37.159 23.3066 37.1663 23.3094C37.1737 23.3123 37.1801 23.3172 37.1848 23.3236L37.4278 23.9603L37.4162 24.0203Z" fill="white"/>
<path d="M9.2748 31.9087C9.15678 31.8141 8.86289 31.618 8.65925 31.8279C8.55743 32.0586 8.79347 32.384 9.07116 32.5524C9.25628 32.6631 9.50158 32.7231 9.63348 32.5524C9.7191 32.4347 9.54092 32.1186 9.2748 31.9087Z" fill="white"/>
<path d="M25.5797 36.0963C25.1794 35.9301 24.1473 36.2901 23.9298 36.4447C23.7956 36.5439 23.6243 36.6754 23.6984 36.8461C23.784 37.0768 24.2931 37.0284 24.705 36.9199C25.2303 36.7815 25.7764 36.5 25.7417 36.2808C25.7349 36.238 25.716 36.198 25.6874 36.1653C25.6587 36.1327 25.6214 36.1087 25.5797 36.0963Z" fill="white"/>
<path d="M23.902 35.0511C23.9926 34.9624 24.0507 34.8461 24.0671 34.7206C24.0835 34.5951 24.0571 34.4677 23.9923 34.3589C23.8743 34.1467 23.4045 34.0382 23.0667 34.2136C22.9777 34.2661 22.9039 34.3406 22.8524 34.43C22.801 34.5193 22.7735 34.6204 22.7728 34.7235C22.7641 34.8158 22.7795 34.9087 22.8176 34.9932C22.8558 35.0778 22.9153 35.151 22.9903 35.2057C23.1394 35.2781 23.3075 35.3022 23.4711 35.2745C23.6346 35.2467 23.7853 35.1686 23.902 35.0511Z" fill="white"/>
</svg>
